<?xml version="1.0" encoding="utf-8"?>
<svg xmlns="http://www.w3.org/2000/svg" viewBox="0 0 282037 251501">
  <path d="M 164763,13613 C 157137,532 140352,-3891 127271,3735 C 123181,6120 119778,9523 117394,13613 L 3741,210378 C -1247,218836 -1247,229335 3741,237793 C 8604,246324 17694,251566 27513,251501 L 254643,251501 C 269784,251490 282049,239206 282038,224065 C 282034,219293 280785,214605 278414,210465 Z M 259589,226949 C 258534,228669 256662,229721 254643,229724 L 27513,229724 C 25494,229721 23622,228669 22568,226949 C 21527,225182 21527,222989 22568,221223 L 136133,24457 C 137821,21726 141401,20880 144133,22568 C 144901,23042 145548,23689 146024,24457 L 259589,221223 C 260629,222989 260629,225182 259589,226949 Z" fill="#29B5E8" />
  <path d="M 141338,185132 C 135301,185180 130446,190113 130494,196149 C 130494,196149 130494,196150 130494,196150 C 130396,202250 135239,207286 141338,207428 C 147499,207334 152444,202312 152444,196150 C 152396,190051 147437,185132 141338,185132 Z" fill="#29B5E8" />
  <path d="M 147931,173680 L 151662,80242 L 130493,80242 L 134224,173680 L 147931,173680 Z" fill="#29B5E8" />
</svg>