<?xml version="1.0" encoding="utf-8"?>
<svg xmlns="http://www.w3.org/2000/svg" viewBox="0 0 379669 428572">
  <path d="M 363509,277158 C 363509,277158 363509,277158 363509,277158 C 351175,270065 336066,272146 325968,281089 L 308084,269988 C 316101,253027 320726,234216 320726,214248 C 320726,194280 315793,174158 307237,156734 L 324349,146096 C 330516,152263 338841,155656 347398,155656 C 352871,155656 358422,154267 363509,151338 C 378926,142395 384245,122582 375381,107163 C 366439,91744 346627,86424 331210,95290 C 319108,102228 313404,115874 315639,128903 L 297600,140082 C 275708,108473 240326,86963 199779,83880 L 199779,63064 C 212806,58901 222288,46797 222288,32380 C 222288,14571 207796,0 189912,0 C 172028,0 157536,14494 157536,32380 C 157536,46951 167249,59132 180508,63218 L 180508,83880 C 139267,86810 103267,108859 81375,141315 L 63876,130445 C 66883,117031 61179,102614 48614,95367 C 33197,86424 13308,91744 4366,107240 C -4576,122659 744,142549 16238,151415 C 21325,154345 26875,155732 32349,155732 C 40365,155732 48229,152726 54241,147175 L 71816,158123 C 63646,175160 58943,194126 58943,214248 C 58943,234370 63337,252024 70891,268600 L 52545,280010 C 42447,271915 28032,270296 16161,277158 C 16161,277158 16161,277158 16161,277158 C 744,286101 -4576,305914 4289,321410 C 10302,331741 21171,337600 32349,337600 C 37822,337600 43372,336212 48459,333283 C 61641,325650 67346,310154 63260,296123 L 80142,285638 C 101880,318943 138342,341686 180276,344693 L 180276,365355 C 167018,369441 157304,381622 157304,396193 C 157304,414002 171796,428573 189680,428573 C 207564,428573 222056,414079 222056,396193 C 222056,381776 212575,369749 199547,365508 L 199547,344693 C 240788,341609 276711,319406 298449,286871 L 315793,297665 C 312555,311233 318182,325959 330901,333283 C 335989,336212 341540,337600 347013,337600 C 358190,337600 369136,331818 375072,321410 C 384014,305991 378695,286101 363201,277235 Z M 340768,112019 C 342850,110863 345085,110247 347321,110247 C 351869,110247 356263,112559 358652,116800 C 362276,123044 360117,131062 353873,134686 C 347630,138309 339613,136151 335989,129905 C 332366,123661 334525,115643 340768,112019 Z M 25950,134686 C 19706,131062 17548,123044 21171,116800 C 23561,112636 28032,110247 32503,110247 C 34738,110247 36974,110786 39055,112019 C 45299,115643 47457,123661 43834,129905 C 40212,136151 32195,138309 25950,134686 Z M 39055,316476 C 32811,320100 24795,317941 21171,311696 C 17548,305452 19706,297434 25950,293810 C 32195,290187 40212,292345 43834,298590 C 47457,304835 45299,312853 39055,316476 Z M 189912,19351 C 197158,19351 203017,25210 203017,32457 C 203017,39704 197158,45564 189912,45564 C 182666,45564 176808,39704 176808,32457 C 176808,25210 182666,19351 189912,19351 Z M 189912,409145 C 182666,409145 176808,403286 176808,396038 C 176808,388792 182666,382932 189912,382932 C 197158,382932 203017,388792 203017,396038 C 203017,403286 197158,409145 189912,409145 Z M 189912,325805 C 128398,325805 78368,275770 78368,214248 C 78368,152726 128398,102691 189912,102691 C 251427,102691 301455,152726 301455,214248 C 301455,275770 251427,325805 189912,325805 Z M 358652,311696 C 355030,317941 347013,320100 340768,316476 C 334525,312853 332366,304835 335989,298590 C 338379,294427 342850,292037 347321,292037 C 349557,292037 351792,292577 353873,293810 C 360117,297434 362276,305452 358652,311696 Z" fill="#29B5E8" />
  <path d="M 42139,251947 L 42139,176394 C 42139,171075 37823,166757 32503,166757 C 27184,166757 22868,171075 22868,176394 L 22868,251947 C 22868,257268 27184,261584 32503,261584 C 37823,261584 42139,257268 42139,251947 Z" fill="#29B5E8" />
  <path d="M 337686,177088 L 337686,251870 C 337686,257190 342003,261507 347321,261507 C 352641,261507 356958,257190 356958,251870 L 356958,177088 C 356958,171768 352641,167451 347321,167451 C 342003,167451 337686,171768 337686,177088 Z" fill="#29B5E8" />
  <path d="M 148285,360884 L 83380,323415 C 78755,320716 72896,322336 70198,326961 C 67500,331587 69119,337446 73744,340144 L 138650,377613 C 140192,378460 141810,378923 143429,378923 C 146744,378923 149982,377227 151754,374144 C 154452,369517 152834,363659 148209,360960 Z" fill="#29B5E8" />
  <path d="M 231846,67766 L 296598,105157 C 298140,106005 299760,106468 301378,106468 C 304693,106468 307930,104772 309703,101688 C 312324,97062 310782,91203 306157,88505 L 241405,51114 C 236780,48415 230921,50035 228224,54660 C 225603,59286 227144,65145 231770,67843 Z" fill="#29B5E8" />
  <path d="M 296136,323569 L 231461,360883 C 226836,363581 225294,369441 227916,374066 C 229688,377150 232926,378846 236241,378846 C 237860,378846 239555,378460 241020,377535 L 305695,340221 C 310320,337523 311862,331663 309241,327038 C 306543,322412 300685,320870 296059,323492 Z" fill="#29B5E8" />
  <path d="M 78601,106391 C 80219,106391 81916,106006 83380,105081 L 147978,67767 C 152603,65068 154145,59209 151523,54583 C 148826,49958 142968,48416 138342,51037 L 73744,88352 C 69119,91049 67577,96909 70199,101534 C 71971,104618 75209,106315 78524,106315 Z" fill="#29B5E8" />
  <path d="M 272472,205536 L 229766,178090 C 225295,175237 219359,176471 216430,181019 C 213578,185491 214811,191427 219359,194357 L 249423,213707 L 219359,233058 C 214888,235911 213578,241925 216430,246396 C 218280,249249 221364,250791 224524,250791 C 226297,250791 228147,250328 229689,249249 L 272394,221803 C 275169,220029 276788,216946 276788,213707 C 276788,210470 275092,207386 272394,205612 Z" fill="#29B5E8" />
  <path d="M 163317,181020 C 160465,176548 154452,175237 149982,178090 L 107276,205536 C 104501,207309 102882,210393 102882,213630 C 102882,216869 104578,219953 107276,221726 L 149982,249172 C 151600,250174 153374,250714 155147,250714 C 158307,250714 161390,249172 163241,246319 C 166092,241848 164859,235912 160311,232982 L 130248,213630 L 160311,194280 C 164782,191427 166092,185414 163241,180942 Z" fill="#29B5E8" />
  <path d="M 201167,164675 C 196002,163519 190838,166756 189681,171922 L 171566,252255 C 170409,257421 173647,262586 178889,263743 C 179583,263897 180276,263973 181048,263973 C 185441,263973 189450,260967 190452,256418 L 208567,176085 C 209723,170920 206485,165754 201244,164598 Z" fill="#29B5E8" />
</svg>