<?xml version="1.0" encoding="utf-8"?>
<svg xmlns="http://www.w3.org/2000/svg" viewBox="0 0 228966 237484">
  <path d="M 107707,237482 C 75287,237482 23969,230146 23309,210562 L 321,40649 C -91,37891 1821,35324 4591,34914 C 7178,34531 9633,36169 10260,38697 C 12829,48455 51132,62083 107707,62083 C 164282,62083 202584,48472 205154,38697 C 205825,35990 208573,34338 211291,35006 C 213832,35630 215478,38073 215093,40649 L 192121,210579 C 191902,217309 185901,222962 174271,227538 C 169116,229458 163828,231009 158450,232182 C 141780,235784 124765,237561 107707,237482 Z M 12424,54411 L 33401,209435 C 33417,209659 33417,209884 33401,210108 C 33401,216047 62322,227370 107656,227370 C 123947,227456 140198,225763 156117,222322 C 161005,221242 165807,219809 170485,218032 C 179866,214331 181929,211033 181929,210074 C 181929,209855 181929,209637 181929,209401 L 202905,54378 C 183332,66004 143744,72145 107622,72145 C 71500,72145 31998,66037 12424,54411 Z" fill="#29B5E8" stroke="#29B5E8" stroke-width="9525" />
  <path d="M 107707,72178 C 59651,72178 5713,61343 439,41254 C 439,41053 355,40851 321,40632 L 0,38529 C 0,38310 0,38091 0,37873 C 0,15546 56761,0 107707,0 C 158653,0 215414,15546 215414,37873 C 215431,38097 215431,38322 215414,38546 L 215127,40649 C 215103,40853 215064,41056 215008,41254 C 209701,61343 155780,72178 107707,72178 Z M 10345,38949 C 13523,48691 51622,62083 107707,62083 C 163792,62083 201942,48624 205086,38949 L 205255,37620 C 204528,27795 164518,10095 107707,10095 C 50895,10095 10869,27811 10142,37620 Z" fill="#29B5E8" stroke="#29B5E8" stroke-width="9525" />
  <path d="M 215651,142085 C 191462,142085 138606,118278 105476,102093 L 109870,93024 C 155644,115384 209396,136062 218558,132175 C 217848,130695 214484,126186 198528,117403 L 197699,116949 L 202669,108133 L 203446,108570 C 219724,117521 227516,124402 228801,130846 C 229327,133583 228581,136409 226773,138535 C 224677,141008 220823,142085 215651,142085 Z" fill="#29B5E8" stroke="#29B5E8" stroke-width="9525" />
  <path d="M 107707,108537 C 101611,108546 96661,103634 96652,97567 C 96643,91499 101577,86573 107673,86563 C 113769,86554 118718,91465 118728,97533 C 118728,97550 118728,97567 118728,97584 C 118700,103628 113779,108518 107707,108537 Z M 107707,96759 C 107231,96759 106845,97143 106845,97617 C 106845,98576 108535,98576 108535,97617 C 108573,97145 108219,96731 107744,96694 C 107731,96693 107719,96692 107707,96692 Z" fill="#29B5E8" stroke="#29B5E8" stroke-width="9525" />
</svg>