<?xml version="1.0" encoding="utf-8"?>
<svg xmlns="http://www.w3.org/2000/svg" viewBox="0 0 233092 226465">
  <path d="M 119213,2 C 114262,2 110249,4015 110249,8966 C 110249,13916 114262,17929 119213,17929 C 171287,18714 213089,61154 213083,113234 C 213683,165055 172321,207634 120504,208538 C 72636,207926 32885,171418 28211,123775 C 30918,125422 34447,124563 36094,121856 C 37433,119656 37141,116835 35382,114955 L 21040,102621 C 19926,101563 18409,101040 16881,101186 C 15316,101247 13853,101979 12865,103194 L 1320,117465 C -689,119910 -370,123514 2037,125568 C 3050,126452 4349,126937 5694,126931 C 7432,126897 9053,126046 10068,124635 L 10068,124635 C 15228,181922 62988,225960 120504,226466 C 183041,226109 233447,175125 233090,112588 C 232734,50052 181749,-355 119213,2 Z" fill="#29B5E8" />
  <path d="M 118280,170387 C 122951,170546 126866,166888 127024,162217 C 127028,162119 127029,162023 127029,161925 L 127029,109218 L 155140,80533 C 158403,77235 158403,71926 155140,68629 C 151842,65366 146533,65366 143236,68629 L 112687,99752 C 111181,101283 110332,103341 110320,105489 L 110320,161925 C 110313,166410 113804,170121 118280,170387 Z" fill="#29B5E8" />
</svg>