<?xml version="1.0" encoding="utf-8"?>
<svg xmlns="http://www.w3.org/2000/svg" viewBox="0 0 215406 208493">
  <path d="M 189840,0 L 25566,0 C 11463,39 39,11463 0,25566 L 0,130092 C 0,144223 11435,155690 25566,155729 L 51980,155729 C 53500,155690 54765,156891 54804,158412 C 54805,158435 54805,158459 54805,158483 L 54805,193796 C 54512,200203 58572,206003 64692,207921 C 66169,208299 67688,208490 69213,208486 C 72792,208607 76265,207254 78818,204743 L 78818,204743 L 126348,156647 C 126865,156108 127579,155803 128326,155799 L 189840,155799 C 203944,155761 215367,144337 215407,130233 L 215407,25566 C 215367,11463 203944,39 189840,0 Z M 197750,130092 C 197750,134461 194209,138002 189840,138002 L 128326,138002 C 122860,138004 117622,140191 113777,144076 L 72461,185957 L 72461,158483 C 72422,147199 63264,138073 51980,138073 L 25566,138073 C 21187,138033 17656,134472 17656,130092 L 17656,25566 C 17656,21198 21198,17656 25566,17656 L 189840,17656 C 194209,17656 197750,21198 197750,25566 Z" fill="#29B5E8" />
  <path d="M 176421,56500 L 38985,56500 C 35864,56500 33335,59030 33335,62150 C 33335,65270 35864,67800 38985,67800 L 176421,67800 C 179541,67800 182071,65270 182071,62150 C 182071,59030 179541,56500 176421,56500 Z" fill="#29B5E8" />
  <path d="M 135176,85598 L 38985,85598 C 35864,85598 33335,88128 33335,91248 C 33335,94368 35864,96898 38985,96898 L 135176,96898 C 138296,96898 140826,94368 140826,91248 C 140826,88128 138296,85598 135176,85598 Z" fill="#29B5E8" />
</svg>