<?xml version="1.0" encoding="utf-8"?>
<svg xmlns="http://www.w3.org/2000/svg" viewBox="0 0 286347 286347">
  <path d="M 231509,45040 C 229582,45040 227623,45770 226161,47265 L 184975,88452 L 184975,72973 C 184975,68822 181620,65400 177468,65400 C 173349,65400 169928,68822 169928,72973 L 169928,107351 C 170028,111536 173383,114924 177534,114924 L 211945,114924 C 216064,114924 219452,111536 219452,107417 C 219452,103299 216064,99878 211945,99878 L 194840,99878 L 236857,57927 C 239813,54938 239813,50221 236857,47265 C 235395,45770 233435,45040 231509,45040 Z M 52546,46568 C 50620,46568 48693,47298 47232,48793 C 44242,51749 44242,56499 47232,59455 L 88452,100575 L 72973,100575 C 68822,100575 65467,103996 65467,108082 C 65467,112234 68822,115622 72973,115622 L 107384,115622 C 111470,115622 114891,112234 114891,108082 L 114891,73704 C 114891,69552 111470,66164 107384,66164 C 103232,66164 99844,69552 99844,73704 L 99844,90777 L 57861,48793 C 56399,47298 54473,46568 52546,46568 Z M 178265,169961 C 174113,169961 170759,173383 170759,177534 L 170759,211912 C 170759,216031 174113,219452 178265,219452 C 182417,219452 185805,216031 185805,211912 L 185805,194840 L 227789,236823 C 229250,238285 231177,239016 233070,239016 C 234997,239016 236923,238285 238384,236823 C 241341,233834 241341,229117 238384,226161 L 197198,185008 L 212709,185008 C 216795,185008 220183,181653 220183,177534 C 220183,173383 216795,169961 212709,169961 Z M 73704,170659 C 69552,170659 66164,174080 66164,178199 C 66164,182317 69552,185705 73704,185705 L 90777,185705 L 48793,227689 C 45837,230645 45837,235428 48793,238384 C 50288,239879 52214,240610 54074,240610 C 56001,240610 57927,239879 59389,238384 L 100575,197198 L 100575,212643 C 100575,216795 103996,220183 108082,220183 C 112234,220183 115622,216795 115622,212643 L 115622,178265 C 115622,174080 112333,170725 108082,170659 Z M 240610,23483 C 252899,23483 262864,33514 262864,45770 L 262864,240610 C 262864,252833 252899,262864 240610,262864 L 45804,262864 C 33514,262864 23549,252833 23549,240610 L 23549,45770 C 23549,33514 33514,23483 45804,23483 Z M 45804,0 C 20593,0 33,20527 33,45770 L 33,240610 C 33,265820 20593,286314 45804,286314 L 240610,286314 C 265820,286314 286347,265820 286347,240610 L 286347,45770 C 286347,20527 265820,0 240610,0 Z" fill="#29B5E8" />
</svg>