<?xml version="1.0" encoding="utf-8"?>
<svg xmlns="http://www.w3.org/2000/svg" viewBox="0 0 230890 271023">
  <path d="M 52423,66102 L 52423,92525 L 30047,92525 L 52423,66102 Z M 209450,21410 L 209450,228656 L 199424,228656 L 199424,40435 C 199424,34516 194653,29714 188734,29714 L 97266,29714 L 104695,21410 Z M 178014,51034 L 178014,249613 L 21380,249613 L 21380,113875 L 63052,113875 C 68911,113875 73772,109104 73772,103185 L 73772,51034 Z M 99954,30 C 96904,30 93975,1329 91982,3563 L 68548,29714 L 60123,29714 C 56983,29714 54023,31103 51970,33519 L 2506,91982 C 906,93884 0,96330 0,98837 L 0,260273 C 0,266191 4741,270993 10720,270993 L 188734,270993 C 194623,270993 199424,266252 199424,260273 L 199424,250066 L 220170,250066 C 226058,250066 230890,245264 230890,239346 L 230890,10750 C 230799,4832 226058,30 220170,30 Z" fill="#29B5E8" />
</svg>