<?xml version="1.0" encoding="utf-8"?>
<svg xmlns="http://www.w3.org/2000/svg" viewBox="0 0 226666 226641">
  <path d="M 113345,58045 C 110126,58045 107456,60715 107456,63935 L 107456,68951 C 94579,70972 86294,79806 86294,92134 C 86294,106533 95103,110850 107331,116889 L 114119,120258 C 126646,126422 128643,127894 128643,134507 C 128643,145438 116889,146236 113345,146236 C 109777,146236 98073,145438 98073,134507 C 98073,131238 95403,128618 92184,128618 C 88915,128618 86294,131238 86294,134507 C 86294,146760 94579,155519 107456,157541 L 107456,162706 C 107456,165951 110126,168596 113345,168596 C 116615,168596 119235,165951 119235,162706 L 119235,157541 C 132087,155519 140397,146760 140397,134507 C 140397,120108 131538,115791 119385,109827 L 112572,106408 C 100044,100219 98073,98772 98073,92209 C 98073,81179 109777,80280 113345,80280 C 117837,80280 128343,81478 128343,92209 C 128343,95453 130989,98073 134233,98073 C 137477,98073 140122,95453 140122,92209 C 140122,79831 131912,71022 119235,68976 L 119235,63935 C 119235,60715 116615,58045 113345,58045 Z M 113345,41825 C 152774,41825 184866,73917 184866,113345 C 184866,152724 152774,184816 113345,184816 C 73917,184816 41825,152724 41825,113345 C 41825,73917 73917,41825 113345,41825 Z M 113345,34438 C 69849,34438 34438,69824 34438,113345 C 34438,156817 69849,192203 113345,192203 C 156842,192203 192228,156817 192228,113345 C 192228,69824 156842,34438 113345,34438 Z M 113296,18367 C 165701,18367 208249,60990 208249,113345 C 208249,165651 165701,208249 113296,208274 C 60915,208274 18317,165701 18317,113345 C 18317,60940 60940,18367 113296,18367 Z M 113345,25 C 50858,25 25,50833 25,113345 C 25,175808 50858,226616 113345,226616 C 175808,226616 226666,175808 226666,113345 C 226666,50833 175808,25 113345,25 Z" fill="#29B5E8" />
</svg>