<?xml version="1.0" encoding="utf-8"?>
<svg xmlns="http://www.w3.org/2000/svg" viewBox="0 0 301511 293132">
  <path d="M 297330,75176 L 297001,74901 L 212858,2879 C 210698,1025 207948,4 205102,0 L 11918,0 C 5323,20 -10,5378 0,11973 L 788,202664 C 806,205836 2086,208870 4345,211098 L 84344,289703 C 86562,291914 89572,293149 92705,293132 L 289593,293132 C 296175,293132 301511,287796 301511,281214 L 301511,84234 C 301511,80748 299984,77437 297330,75176 Z M 24607,197548 L 23946,38707 L 80677,89551 L 80677,252463 Z M 40833,23836 L 200702,23836 L 260531,72316 L 97050,72316 Z M 277675,269259 L 104513,269259 L 104513,96152 L 277638,96152 Z" fill="#29B5E8" />
</svg>