<?xml version="1.0" encoding="utf-8"?>
<svg xmlns="http://www.w3.org/2000/svg" viewBox="0 0 333770 336035">
  <path d="M 214110,73 C 211516,73 209323,2229 209323,4896 C 209323,7527 211516,9719 214110,9719 L 233584,9719 C 236251,9719 238407,7527 238407,4896 C 238407,2229 236251,73 233584,73 Z M 253132,73 C 250465,73 248309,2229 248309,4896 C 248236,7527 250428,9719 253132,9719 L 272606,9719 C 275273,9719 277429,7527 277429,4896 C 277429,2229 275273,73 272606,73 Z M 292081,0 C 289413,0 287258,2156 287258,4823 C 287258,7527 289413,9719 292081,9719 L 307828,9719 C 308778,9719 309765,9756 310788,9938 C 311080,9975 311336,9975 311519,9975 C 313821,9975 315940,8294 316269,5919 C 316670,3252 314917,804 312249,329 C 310861,146 309290,0 307828,0 Z M 187255,73 C 182249,73 177426,1352 173261,3836 C 170922,5225 170155,8184 171507,10523 C 172494,11984 174138,12788 175745,12788 C 176586,12788 177426,12642 178193,12167 C 180897,10596 184003,9719 187255,9719 L 194672,9719 C 197302,9719 199458,7527 199458,4896 C 199458,2229 197302,73 194672,73 Z M 326937,11071 C 326207,11071 325439,11254 324745,11619 C 322370,12788 321420,15748 322626,18123 C 323613,19949 324088,21849 323978,23859 L 323978,35149 C 323978,37780 326134,39935 328801,39935 C 331468,39935 333624,37780 333624,35149 L 333624,23932 C 333697,20351 332893,16880 331249,13738 C 330409,12057 328728,11071 326937,11071 Z M 166246,19219 C 163615,19219 161423,21374 161423,24042 L 161423,43443 C 161423,46110 163542,48303 166246,48303 C 168913,48303 171105,46110 171105,43443 L 171105,24042 C 171105,21374 168913,19219 166246,19219 Z M 328801,49691 C 326134,49691 323978,51883 323978,54514 L 323978,73988 C 323978,76656 326134,78848 328801,78848 C 331468,78848 333624,76656 333624,73988 L 333624,54514 C 333697,51883 331505,49691 328801,49691 Z M 166246,58204 C 163615,58204 161423,60396 161423,62991 L 161423,82465 C 161423,85132 163542,87288 166246,87288 C 168913,87288 171105,85132 171105,82465 L 171105,62991 C 171105,60396 168913,58204 166246,58204 Z M 314369,32116 C 312030,32116 309728,33176 308194,35222 L 281485,70225 C 283385,76400 284591,83488 284919,91161 L 320580,44539 C 323101,41178 322516,36282 319045,33688 C 317657,32628 316013,32116 314369,32116 Z M 210164,49801 C 208044,49801 205962,50677 204464,52358 L 173042,87398 C 170155,90613 170447,95509 173699,98322 C 175161,99638 177024,100295 178888,100295 C 181007,100295 183126,99418 184660,97701 L 211406,67814 L 240307,88238 C 240819,82136 241769,76436 243230,71358 L 214658,51226 C 213269,50239 211698,49801 210164,49801 Z M 328801,88713 C 326134,88713 323978,90869 323978,93536 L 323978,113010 C 323978,115605 326134,117797 328801,117797 C 331468,117797 333624,115605 333624,113010 L 333624,93536 C 333697,90869 331505,88713 328801,88713 Z M 263983,62004 C 261316,62004 259160,64196 259160,66790 L 259160,68106 C 251999,69787 247213,75194 247213,82429 C 247213,91417 253132,94340 259891,97701 C 260512,97993 261097,98359 261791,98688 C 262449,99017 263143,99345 263764,99601 C 270816,103072 271072,103584 271072,106287 C 271072,110672 266651,111403 263983,111403 C 261316,111403 256859,110672 256859,106287 C 256859,103620 254703,101465 252036,101465 C 249368,101465 247213,103620 247213,106287 C 247213,113449 251999,118893 259160,120501 L 259160,122145 C 259160,124775 261316,126968 263983,126968 C 266651,126968 268806,124775 268806,122145 L 268806,120501 C 275968,118783 280754,113412 280754,106251 C 280754,97190 274835,94303 268039,90869 C 267454,90613 266833,90284 266139,89955 C 265481,89590 264860,89261 264203,88969 C 257151,85498 256859,85059 256859,82355 C 256859,80784 257516,77204 263983,77204 C 270012,77204 270852,80455 270852,82355 C 270852,84950 273045,87142 275675,87142 C 278343,87142 280535,84950 280535,82355 C 280535,75048 275968,69677 268806,68033 L 268806,66790 C 268806,64196 266651,62004 263983,62004 Z M 328801,127771 C 326134,127771 323978,130110 323978,132704 C 323978,137490 321274,141838 316817,144542 C 314478,145894 313784,148890 315136,151155 C 316013,152727 317620,153530 319301,153530 C 320142,153530 320982,153311 321749,152836 C 329312,148452 333733,140888 333733,132777 L 333733,132594 C 333697,129854 331505,127771 328801,127771 Z M 241878,146917 C 239248,146917 237055,149109 237055,151704 C 237055,154371 239248,156526 241878,156526 L 261316,156526 C 263983,156526 266139,154371 266139,151704 C 266139,149109 264020,146917 261316,146917 Z M 280864,146917 C 278233,146917 276077,149109 276077,151704 C 276077,154371 278233,156526 280864,156526 L 300338,156526 C 302969,156526 305161,154371 305161,151704 C 305161,149109 302969,146917 300338,146917 Z M 103584,112572 C 128283,112572 151375,116153 168657,122839 C 182870,128246 191749,135517 191749,141619 C 191749,147757 182870,154919 168657,160399 C 151375,167013 128283,170630 103584,170630 C 78921,170630 55793,167049 38547,160399 C 24334,154955 15419,147757 15419,141619 C 15419,135517 24334,128320 38547,122839 C 55793,116262 78921,112572 103584,112572 Z M 191749,165953 L 191749,191676 C 191749,197777 182870,204975 168657,210456 C 151375,217032 128283,220723 103584,220723 C 78921,220723 55793,217069 38547,210456 C 24334,205048 15419,197777 15419,191676 L 15419,165953 C 20242,169278 26051,172311 32993,174978 C 51993,182285 77058,186304 103584,186304 C 130183,186304 155175,182249 174174,174978 C 181007,172311 186926,169278 191749,165953 Z M 191749,215900 L 191749,241440 C 191749,247578 182870,254739 168657,260220 C 151375,266833 128283,270450 103584,270450 C 78921,270450 55793,266870 38547,260220 C 24334,254776 15419,247578 15419,241440 L 15419,215900 C 20242,219188 26051,222221 32993,224888 C 51993,232232 77058,236215 103584,236215 C 130183,236215 155175,232159 174174,224888 C 181007,222221 186926,219188 191749,215900 Z M 191749,265810 L 191749,291532 C 191749,297598 182870,304869 168657,310276 C 151375,316853 128283,320543 103584,320543 C 78921,320543 55793,316926 38547,310276 C 24334,304869 15419,297598 15419,291532 L 15419,265810 C 20242,269098 26051,272168 32993,274798 C 51993,282142 77058,286161 103584,286161 C 130183,286161 155175,282069 174174,274798 C 181007,272168 186926,269098 191749,265810 Z M 103657,97007 C 77058,97007 52066,101063 33066,108297 C 11729,116445 37,128246 37,141546 L 37,291423 C 37,304649 11729,316487 33066,324672 C 52066,331979 77131,335998 103657,335998 C 130220,335998 155248,331943 174247,324672 C 195549,316524 207277,304686 207277,291423 L 207277,156526 L 222404,156526 C 225071,156526 227227,154371 227227,151704 C 227227,149109 225071,146917 222294,146808 L 207241,146808 L 207241,141546 C 207241,128320 195439,116554 174174,108297 C 173151,107932 172055,107493 171032,107164 L 171032,101793 C 171032,99199 168913,97007 166246,97007 C 163615,97007 161423,99199 161423,101793 L 161423,104132 C 144615,99491 124593,97007 103657,97007 Z" fill="#29B5E8" />
</svg>