<?xml version="1.0" encoding="utf-8"?>
<svg xmlns="http://www.w3.org/2000/svg" viewBox="0 0 529627 244831">
  <path d="M 137484,122416 L 137484,122839 C 137484,133429 137906,143595 139600,153338 L 158635,153338 C 157367,144018 156519,133852 156519,122416 Z" fill="#29B5E8" />
  <path d="M 441637,19061 C 425984,40240 415831,77515 415831,122416 C 415831,166891 425984,204168 441637,225770 L 405680,225770 C 387066,225770 366339,183412 366339,122416 C 366339,61419 387066,19061 405680,19061 Z M 472517,19061 C 480979,19061 490284,29227 497475,46171 C 505935,66502 510590,93612 510590,122416 C 510590,181293 490707,225770 472517,225770 C 464480,225770 455173,215604 447981,198237 C 439521,178327 434869,151219 434869,122416 C 434869,63115 454750,19061 472517,19061 Z M 89683,0 C 72338,0 57110,13978 46112,38970 C 42305,48288 38920,59301 36382,71162 L 55840,71162 C 63031,38970 76991,19061 89683,19061 L 126908,19061 C 123101,24568 119294,30922 115910,38970 C 111680,48288 108295,59301 105757,71162 L 124369,71162 C 131983,38547 145943,18214 159058,18214 C 159481,18214 159903,17791 160326,17791 C 160749,17791 161174,18214 161596,18214 C 166249,18214 170902,21179 174709,24568 C 164558,29227 155673,39393 149328,54642 C 146791,59726 145098,65232 143407,71162 L 163288,71162 C 169633,52100 178941,41087 186132,41087 L 190362,41087 C 190362,41087 190785,41935 190785,41935 C 191208,41935 191208,42359 191208,42359 L 360839,43629 C 352379,65232 347725,93188 347725,122839 C 347725,152489 352802,182565 362108,204591 L 230972,203744 C 230549,204591 229703,205438 229280,205861 C 223780,211368 218705,217297 213627,222805 L 371838,223652 L 372260,223652 C 381568,237207 393412,244831 405680,244831 L 472517,244831 C 505089,244831 529625,192306 529625,122416 C 529625,52525 505089,0 472517,0 L 406103,0 C 392566,0 380299,8471 370569,24145 L 195860,22873 C 183593,4235 170479,0 161174,0 C 160749,0 160326,0 159903,423 C 159481,423 159058,0 158635,0 Z" fill="#29B5E8" />
  <path d="M 189473,142162 C 187265,142162 185018,143015 183171,144865 C 179786,148254 179786,153761 183171,157573 L 196706,171552 L 39766,171552 C 35536,171552 31729,174515 30881,178327 C 29613,184258 33843,189766 39766,189766 L 197553,189766 L 182748,205438 C 179364,209250 179786,214757 183593,218144 C 185285,219839 187400,220686 189514,220686 C 192053,220686 194592,219839 196283,217721 L 224626,186800 C 225471,185954 225471,185105 225896,184682 C 225896,184682 226319,184258 226319,184258 L 226319,183835 C 227164,182565 227164,180870 226742,179176 C 226742,178753 226742,178753 226742,178327 C 226319,177057 225896,175787 224626,174941 C 224626,174515 224626,174515 224626,174092 L 195860,144865 C 194118,143120 191817,142162 189473,142162 Z" fill="#29B5E8" />
  <path d="M 245090,58877 C 242816,58877 240490,59726 238586,61419 C 235201,64808 235201,70316 238586,74128 L 252123,88104 L 31304,88104 C 27074,88104 22844,91070 21999,95305 C 20730,101236 25383,106318 30881,106318 L 252968,106318 L 238586,122416 C 235201,125804 235624,131735 239009,135122 C 240702,136394 242816,137241 244932,137241 C 247470,137241 250007,136394 251700,134275 L 279620,103355 C 280466,102506 280888,102083 280888,101236 C 281311,100813 281311,100813 281311,100813 L 281311,100389 C 282157,99117 282157,97424 281734,96154 C 281734,95731 281734,95305 281734,94882 C 281311,93612 280888,92342 280043,91493 C 279620,91070 279620,91070 279620,91070 L 251277,61419 C 249584,59726 247365,58877 245090,58877 Z" fill="#29B5E8" />
  <path d="M 14807,131310 C 10155,131310 6348,134699 6348,138936 C 5923,143595 9730,147407 14385,147407 L 107450,147407 C 112102,147407 115487,144018 115487,139359 C 115487,135122 112102,131310 107450,131310 Z" fill="#29B5E8" />
  <path d="M 9307,216451 C 5077,216451 1270,219416 847,223652 C 2,228310 4232,232546 8884,232546 L 158635,232546 C 163288,232546 166672,229159 166672,224498 C 166672,220263 163288,216451 158635,216451 Z" fill="#29B5E8" />
</svg>