<?xml version="1.0" encoding="utf-8"?>
<svg xmlns="http://www.w3.org/2000/svg" viewBox="0 0 265914 299458">
  <path d="M 133137,94523 C 108032,94523 82632,102892 82632,118889 L 82632,180569 C 82632,196567 108032,204935 133137,204935 C 158242,204935 183642,196567 183642,180569 L 183642,118840 C 183642,102842 158242,94523 133137,94523 Z M 172369,180519 C 172369,184950 158537,193613 133137,193613 C 107737,193613 93905,184950 93905,180519 L 93905,175942 C 103651,181553 118419,184457 133137,184457 C 147855,184457 162623,181553 172369,175942 L 172369,180519 Z M 172369,160091 C 172369,164521 158537,173185 133137,173185 C 107737,173185 93905,164521 93905,160091 L 93905,154578 C 103651,160189 118419,163094 133137,163094 C 147855,163094 162623,160189 172369,154578 L 172369,160091 Z M 172369,138727 C 172369,143157 158537,151821 133137,151821 C 107737,151821 93905,143157 93905,138727 L 93905,134691 C 103651,140302 118419,143207 133137,143207 C 147855,143207 162623,140302 172369,134691 L 172369,138727 Z M 133137,131934 L 133137,131934 C 107737,131934 93905,123320 93905,118840 C 93905,114361 107786,105747 133137,105747 C 158537,105747 172369,114410 172369,118840 C 172369,123270 158537,131934 133137,131934 Z M 253985,192333 L 253985,192333 C 244583,186820 232621,188543 225139,196468 L 216278,191349 C 229667,165161 229717,134199 216524,107913 L 225139,102892 C 228092,106042 231883,108257 236067,109389 C 242121,111014 248570,110177 254034,106977 C 265356,100479 269294,86007 262747,74685 C 256249,63364 241777,59426 230455,65973 C 220955,71437 216475,82660 219527,93145 L 210913,98166 C 194767,73701 168037,58245 138749,56473 L 138749,46627 C 151449,43526 159227,30728 156076,18028 C 152975,5327 140176,-2450 127476,700 C 114776,3801 106999,16600 110149,29300 C 112266,37865 118911,44560 127476,46627 L 127476,56423 C 98187,58195 71458,73652 55312,98166 L 46747,93194 C 50488,80543 43252,67253 30602,63561 C 17951,59869 4660,67056 968,79707 C -2724,92357 4463,105648 17114,109340 C 25679,111851 34933,109389 41136,102941 L 49750,107962 C 36508,134199 36607,165210 49996,191398 L 41136,196518 C 32078,187116 17114,186771 7662,195829 C -1789,204886 -2084,219850 6973,229301 C 16031,238752 30995,239048 40447,229990 C 46796,223886 49258,214731 46747,206264 L 55608,201145 C 71803,225363 98384,240623 127476,242395 L 127476,252831 C 114776,255932 106999,268731 110149,281431 C 113250,294131 126049,301909 138749,298758 C 151449,295657 159227,282858 156076,270158 C 153959,261593 147314,254899 138749,252831 L 138749,242395 C 167841,240623 194422,225363 210617,201145 L 219478,206264 C 215835,218816 223071,231910 235575,235553 C 248127,239196 261221,231960 264864,219456 C 267915,208922 263436,197797 253985,192333 Z M 237839,79116 C 241974,76704 247241,78131 249653,82266 C 252065,86401 250637,91668 246502,94080 C 244533,95262 242121,95557 239906,94966 L 239956,94966 C 237741,94376 235870,92948 234688,90930 C 232277,86795 233704,81479 237839,79116 Z M 31536,90683 C 29223,94868 23956,96345 19772,94031 C 19673,93982 19575,93932 19526,93883 C 15440,91422 14111,86106 16572,82020 C 19034,77934 24350,76605 28436,79066 C 32423,81479 33801,86647 31536,90683 Z M 28436,220293 C 24300,222705 19034,221278 16621,217143 C 14209,213008 15637,207741 19772,205329 C 21101,204541 22578,204148 24104,204148 C 24842,204148 25630,204246 26368,204443 L 26368,204443 C 28583,205033 30454,206461 31635,208479 C 33998,212614 32570,217881 28436,220293 Z M 124474,23737 C 124474,18963 128362,15074 133137,15074 C 137912,15074 141801,18963 141801,23737 C 141801,28512 137912,32401 133137,32401 C 128362,32352 124474,28512 124474,23737 Z M 141752,275671 C 141752,280446 137863,284335 133088,284335 C 128313,284335 124425,280446 124425,275671 C 124425,270897 128362,267008 133137,267008 C 137912,267008 141752,270897 141752,275671 Z M 133137,223837 C 92083,223837 58660,190414 58660,149360 C 58660,108306 92083,74883 133137,74883 C 174191,74883 207565,108306 207565,149360 C 207565,190414 174191,223837 133137,223837 Z M 244386,221179 C 239758,222410 235033,219653 233802,215026 C 232572,210399 235328,205674 239956,204443 C 240694,204246 241432,204148 242220,204148 C 243746,204148 245222,204541 246551,205329 C 248521,206461 249997,208381 250588,210596 C 251769,215223 249013,219948 244386,221179 Z" fill="#29B5E8" />
</svg>