<?xml version="1.0" encoding="utf-8"?>
<svg xmlns="http://www.w3.org/2000/svg" viewBox="0 0 205384 243727">
  <path d="M 102692,19184 C 155315,19184 188926,38613 188926,51964 C 188926,65341 155315,84743 102692,84743 C 50023,84743 16411,65341 16411,51964 C 16411,38613 50093,19184 102692,19184 Z M 188926,81052 L 188926,191736 C 188926,205141 155315,224570 102692,224570 C 50023,224570 16411,205141 16411,191818 L 16411,81052 C 35956,96031 69939,104009 102692,104009 C 135445,104009 169428,96031 188926,81052 Z M 102692,0 C 52924,0 0,18235 0,51991 L 0,191736 C 0,225547 52924,243700 102692,243700 C 152460,243700 205361,225492 205361,191736 L 205361,52018 C 205361,18235 152506,0 102692,0 Z" fill="#29B5E8" />
</svg>