<?xml version="1.0" encoding="utf-8"?>
<svg xmlns="http://www.w3.org/2000/svg" viewBox="0 0 211221 239488">
  <path d="M 211221,49048 C 211221,34242 199495,22250 178358,13218 C 155211,4000 130518,-477 105683,40 C 80947,-419 56360,4057 33297,13218 C 11871,22250 0,34983 0,49048 L 0,49048 L 0,188966 L 0,188966 C 0,203772 11726,216802 32863,226129 C 55907,235372 80500,239898 105248,239455 C 129999,239926 154597,235397 177634,226129 C 198916,216802 210497,203624 210497,188966 L 210497,49196 Z M 198916,146473 C 198916,154024 189506,162463 173726,168682 C 151888,176575 128840,180388 105683,179935 C 82478,180398 59381,176587 37496,168682 C 21716,162907 12305,154024 12305,146473 L 12305,121598 C 18627,126568 25658,130513 33153,133295 C 56415,141555 80917,145564 105538,145140 C 130158,145540 154656,141531 177924,133295 C 185342,130572 192320,126729 198626,121895 Z M 198916,99389 C 198916,106941 189506,115084 173726,121302 C 151829,128914 128805,132572 105683,132111 C 50670,132111 12305,114936 12305,99389 L 12305,73183 C 18500,78373 25432,82567 32863,85619 C 55944,94712 80518,99186 105248,98797 C 129981,99205 154558,94730 177634,85619 C 185083,82603 192020,78406 198192,73183 Z M 37641,24766 C 59342,16264 82449,12141 105683,12625 C 160696,12625 198916,32022 198916,49345 C 198916,58080 189650,66964 173581,74071 C 151900,82447 128855,86518 105683,86064 C 50670,86064 12305,66816 12305,49345 C 12305,40757 21571,31725 37641,24766 Z M 105683,227018 C 49801,227018 12305,207326 12305,189114 L 12305,168682 C 18559,173675 25547,177622 33008,180379 C 56229,188835 80748,192946 105394,192520 C 130041,192979 154567,188865 177779,180379 C 185269,177687 192266,173734 198481,168682 L 198481,189114 C 198916,207326 161420,227018 105683,227018 Z" fill="#29B5E8" />
</svg>