<?xml version="1.0" encoding="utf-8"?>
<svg xmlns="http://www.w3.org/2000/svg" viewBox="0 0 267791 266372">
  <path d="M 211956,38562 C 209842,38562 207849,39529 206551,41220 L 178497,77185 L 151621,57013 C 150414,56077 148964,55624 147515,55624 C 145733,55624 143951,56318 142623,57738 L 102400,99350 L 63203,90592 C 62690,90472 62177,90411 61693,90411 C 58523,90411 55744,92616 54990,95786 C 54235,99440 56530,103064 60244,103910 L 103124,113452 C 103607,113543 104091,113633 104634,113633 C 106476,113633 108228,112878 109556,111519 L 148269,71538 L 175628,92102 C 176866,93038 178316,93491 179735,93491 C 181789,93491 183812,92585 185141,90864 L 215247,52242 L 255229,52242 C 258973,52242 262084,49162 262084,45387 C 262084,41673 258973,38562 255229,38562 Z M 252964,75584 C 251605,75584 250276,75977 249069,76792 L 177591,125803 L 126014,125803 C 125410,125803 124806,125833 124232,126014 L 92887,134530 L 57587,134530 C 53842,134530 50732,137640 50732,141354 C 50732,145250 53782,148270 57587,148270 L 93793,148270 C 94427,148270 95031,148209 95575,148028 L 126920,139512 L 179735,139512 C 181124,139512 182483,139120 183601,138335 L 256799,88116 C 259909,85972 260725,81714 258581,78574 C 257282,76641 255138,75584 252964,75584 Z M 254957,109496 C 253175,109496 251394,110221 250065,111670 L 177863,184990 L 117498,164546 C 116743,164274 115988,164154 115233,164154 C 113995,164154 112818,164486 111731,165120 L 58040,197854 C 54778,199817 53782,204044 55714,207276 C 57013,209389 59247,210537 61603,210537 C 62750,210537 63958,210174 65076,209510 L 116079,178467 L 177501,199273 C 178195,199515 178890,199636 179614,199636 C 181426,199636 183238,198911 184537,197582 L 259758,121183 C 262476,118495 262386,114146 259698,111489 C 258369,110160 256678,109496 254957,109496 Z M 32492,0 C 26604,0 21772,4771 21772,10720 L 21772,224609 L 10750,224609 C 4862,224609 30,229380 30,235299 C 30,241248 4771,246019 10750,246019 L 21772,246019 L 21772,255652 C 21772,261540 26513,266372 32492,266372 C 38351,266372 43213,261571 43213,255652 L 43213,246019 L 257101,246019 C 262959,246019 267761,241248 267761,235299 C 267761,229380 262959,224609 257101,224609 L 43213,224609 L 43213,10720 C 43213,4801 38411,0 32492,0 Z" fill="#29B5E8" />
</svg>