<?xml version="1.0" encoding="utf-8"?>
<svg xmlns="http://www.w3.org/2000/svg" viewBox="0 0 224770 225319">
  <path d="M 115068,25604 L 144540,47614 C 146012,48737 147784,49286 149580,49286 C 150504,49286 151427,49136 152326,48837 L 187163,37033 L 175334,71870 C 174486,74541 174935,77411 176582,79632 L 198592,109178 L 161883,108654 C 161634,108629 161409,108604 161160,108604 C 158664,108604 156293,110152 154846,112223 L 133559,142244 L 122629,107132 C 121781,104437 119709,102366 117089,101592 L 81952,90637 L 111973,69425 C 114269,67778 115592,65158 115567,62363 L 115068,25604 Z M 106508,25 C 105185,25 103838,349 102615,973 C 99745,2446 97949,5415 97998,8609 L 98622,58120 L 58195,86719 C 55575,88565 54202,91760 54701,94954 C 55225,98123 57496,100719 60566,101717 L 107856,116415 L 122529,163680 C 123527,166799 126123,169070 129317,169544 C 129741,169619 130190,169619 130640,169619 C 133385,169619 135980,168322 137527,166051 L 166151,125674 L 215661,126297 C 215861,126322 216086,126322 216310,126322 C 219155,126322 221950,124351 223273,121656 C 224770,118811 224421,115317 222549,112722 L 192927,73043 L 208824,26178 C 209872,23083 209048,19714 206802,17469 C 205180,15846 203009,14973 200788,14973 C 199890,14973 198966,15123 198093,15422 L 151203,31319 L 111549,1722 C 110077,599 108305,25 106508,25 Z M 95403,121930 C 93132,121930 90886,122804 89139,124526 L 3419,210196 C 25,213665 25,219280 3419,222724 C 5166,224421 7437,225319 9683,225319 C 11953,225319 14249,224421 15946,222724 L 101667,137003 C 105061,133534 105061,127920 101667,124526 C 99920,122804 97649,121930 95403,121930 Z" fill="#29B5E8" />
</svg>