<?xml version="1.0" encoding="utf-8"?>
<svg xmlns="http://www.w3.org/2000/svg" viewBox="0 0 221698 221554">
  <path d="M 221331,137156 C 220667,134917 219150,133028 217108,131894 L 201876,123586 C 202283,119167 202445,114729 202361,110292 C 202361,105793 202361,101500 201945,97345 L 217247,88691 C 219271,87536 220743,85614 221331,83360 C 221897,81164 221601,78835 220501,76852 L 194814,33371 C 193245,30740 190401,29133 187337,29148 C 185941,29156 184567,29488 183321,30117 L 167743,38634 C 160648,32917 152767,28253 144342,24786 L 144342,8585 C 144304,3860 140482,37 135756,0 L 84106,0 C 79365,0 75521,3844 75521,8585 L 75521,24994 C 67675,28327 60407,32884 53988,38495 L 40142,30325 C 38815,29560 37311,29154 35780,29148 C 32733,29129 29908,30740 28372,33371 L 2615,76852 C 1322,78919 994,81446 1716,83775 C 2334,85997 3801,87887 5800,89037 L 21725,98038 C 21690,98452 21690,98869 21725,99284 L 21725,100946 C 21259,104134 21005,107349 20963,110570 L 20963,123517 L 4555,131963 C 2522,133042 1001,134885 331,137087 C -310,139414 -12,141901 1162,144010 L 26848,188390 C 28348,191075 31180,192742 34257,192752 C 35644,192621 36976,192144 38134,191368 L 53781,182921 C 60224,188462 67488,192969 75313,196283 L 75313,212970 C 75313,217711 79157,221555 83898,221555 L 135756,221555 C 140482,221517 144304,217695 144342,212970 L 144342,196352 C 152710,192961 160564,188417 167674,182851 L 183529,191368 C 184801,192072 186228,192452 187683,192476 C 190759,192467 193591,190799 195091,188114 L 220709,143802 C 221760,141749 221984,139369 221331,137156 Z M 86599,181813 C 78048,179069 70202,174484 63613,168381 L 60359,165889 C 58851,164668 56967,164006 55027,164019 C 53600,164018 52195,164375 50942,165058 L 37718,171981 L 20478,142833 L 33287,135910 C 36294,134474 38188,131418 38134,128086 L 38134,110292 C 37999,107756 37999,105213 38134,102676 C 38634,99423 38888,96137 38895,92845 C 38896,89748 37230,86891 34533,85367 L 21864,78029 L 38688,49435 L 50527,56358 C 53647,58201 57592,57868 60359,55527 L 61050,54973 C 68294,47902 77021,42532 86599,39257 C 90163,38152 92619,34888 92692,31156 L 92692,17309 L 127309,17309 L 127309,31156 C 127312,34920 129747,38251 133333,39395 C 143749,42768 153330,48313 161443,55665 C 162997,56962 164957,57673 166982,57673 C 168408,57675 169813,57318 171066,56635 L 184360,49711 L 201322,78513 L 188306,85852 C 184848,87767 183181,91822 184291,95614 C 185216,100613 185564,105700 185329,110777 C 185529,116178 185158,121586 184221,126910 C 183337,130660 185103,134533 188514,136325 L 201322,143249 L 184291,172674 L 171066,165751 C 169813,165068 168408,164710 166982,164712 C 165054,164707 163180,165340 161651,166512 C 153500,173748 143925,179196 133541,182506 C 129873,183576 127340,186924 127309,190745 L 127309,204246 L 92692,204246 L 92692,190398 C 92835,186488 90337,182968 86599,181813 Z" fill="#29B5E8" />
  <path d="M 110831,173505 C 76187,173505 48103,145420 48103,110777 C 48103,76133 76187,48049 110831,48049 C 145474,48049 173559,76133 173559,110777 C 173482,145389 145443,173428 110831,173505 Z M 110831,54973 C 80012,54973 55027,79958 55027,110777 C 55027,141596 80012,166581 110831,166581 C 141650,166581 166635,141596 166635,110777 C 166597,79973 141635,55011 110831,54973 Z" fill="#29B5E8" />
  <path d="M 103284,142557 C 101501,142550 99791,141855 98507,140618 L 82167,124971 C 79611,122128 79842,117750 82686,115193 C 85234,112901 89078,112819 91722,115001 L 101969,124832 L 128901,82875 C 130796,79554 135025,78397 138346,80292 C 141667,82186 142824,86415 140929,89737 C 140808,89948 140676,90155 140533,90353 L 109100,139372 C 107984,141099 106157,142241 104115,142488 Z" fill="#29B5E8" />
</svg>