<?xml version="1.0" encoding="utf-8"?>
<svg xmlns="http://www.w3.org/2000/svg" viewBox="0 0 258166 226713">
  <path d="M 258028,189314 C 257778,188158 257242,187071 256456,186195 L 256456,186195 C 246592,175294 246592,157594 256456,146693 C 256527,146623 256527,146553 256599,146483 C 256670,146413 256778,146343 256849,146238 C 256921,146133 256956,145922 257064,145782 C 257385,145291 257635,144801 257814,144240 C 257885,143995 257957,143714 258028,143469 C 258136,142908 258171,142347 258100,141786 C 258100,141576 258100,141366 258064,141120 C 257957,140349 257671,139613 257278,138947 L 257242,138912 C 257171,138807 257099,138772 257028,138667 C 256635,138071 256170,137545 255598,137090 C 255527,137020 255491,136949 255420,136879 L 185946,86337 C 191235,69478 190091,52864 185446,41508 C 183802,37337 181407,33446 178369,30081 C 179978,28749 181693,27488 183480,26401 C 186768,24613 187947,20547 186125,17323 C 185767,16692 185303,16131 184767,15641 C 184266,15185 172080,4425 153460,6983 C 141095,8736 132697,17043 127443,24648 C 124584,16937 119796,7754 111755,990 C 109896,-518 107145,-272 105608,1515 C 104107,3303 104285,5932 106037,7439 C 111147,11750 114721,17428 117223,22826 C 113399,21669 109396,21108 105393,21178 C 93493,21178 81807,29520 76911,41437 C 72801,51567 71443,65833 74873,80694 L 24126,92506 C 8366,95555 -2320,111538 432,128187 C 1504,134881 4792,141050 9760,145747 L 80306,216338 L 80377,216408 C 82057,218336 83951,220018 86059,221491 C 90884,224855 96638,226678 102534,226713 C 104321,226713 106072,226538 107824,226222 L 153067,216829 L 252704,197201 C 256385,196465 258779,192960 258028,189314 Z M 155462,20232 C 159643,19636 163860,20022 167863,21354 C 166469,22616 165004,24018 163467,25560 C 163288,25735 163145,25910 163002,26085 C 161609,27453 160179,28890 158749,30256 C 157320,31623 155819,32990 154354,34217 C 152495,35759 150423,37091 148243,38143 C 146277,39089 144204,39755 142060,40106 C 140845,40316 139594,40316 138343,40176 C 137486,40035 136664,39790 135878,39370 C 135699,39299 135556,39194 135413,39124 C 135270,39054 135163,38879 135056,38774 C 137736,32990 144455,21774 155462,20232 Z M 89669,46415 C 92849,38633 100033,34568 105501,34568 C 115579,34568 118116,37932 120546,41683 C 120689,41963 120832,42244 120939,42454 L 121011,42629 C 121189,43260 121475,43856 121833,44382 C 123155,46309 124835,48027 126729,49394 C 127193,49744 127586,50130 128087,50445 C 128158,50481 128230,50516 128265,50551 C 129445,51252 130696,51847 131982,52338 L 132018,52338 C 133412,52829 134877,53179 136342,53390 L 136378,53390 C 137486,53530 138629,53600 139737,53635 L 139844,53635 C 140845,53635 141881,53565 142882,53460 C 143168,53425 143418,53355 143704,53320 C 144490,53214 145276,53074 146098,52934 C 146492,52864 146920,52724 147313,52619 C 147992,52443 148671,52268 149350,52058 C 149779,51918 150244,51742 150673,51602 C 151316,51357 151959,51111 152603,50831 C 153032,50656 153496,50445 153925,50235 C 154568,49920 155212,49604 155855,49254 C 156284,49043 156713,48798 157106,48553 C 157785,48167 158464,47711 159143,47291 C 159500,47046 159857,46835 160215,46590 C 161180,45924 162109,45223 163038,44452 C 163074,44417 163145,44382 163181,44347 C 163288,44277 163360,44171 163467,44066 C 165218,42594 166898,41052 168542,39475 C 168577,39440 168649,39370 168720,39334 C 170436,41473 171829,43856 172794,46415 C 178048,59208 177583,80554 164718,99341 C 158285,108769 151995,113956 146956,113956 C 142632,113956 139344,109820 139022,109400 C 137307,106841 134377,105334 131232,105369 C 128194,105369 125335,106806 123584,109260 C 123548,109330 123477,109400 123441,109470 C 123119,109856 119903,113992 115507,113992 C 113291,113992 110825,112975 108109,110942 C 104822,108489 101355,104598 97781,99376 C 84951,80589 84451,59243 89669,46415 Z M 134698,116971 C 134627,117076 134555,117181 134484,117251 C 134555,117146 134627,117041 134698,116971 L 134698,116971 Z M 79162,93452 C 81163,98114 83593,102600 86488,106771 C 90884,113185 95387,118163 99854,121492 C 104965,125348 110254,127276 115507,127276 C 122512,127276 127872,123911 131232,120791 C 134734,123981 140166,127276 146992,127276 C 156927,127276 166683,120371 176011,106736 C 177690,104248 179263,101689 180621,99025 L 234906,138562 L 100283,164359 L 38814,102811 L 79162,93452 Z M 72979,189910 L 19302,136213 C 16407,133515 14477,129939 13869,126049 C 12511,117777 16657,109856 23590,106736 L 86167,169406 C 79269,173998 74480,181463 72979,189910 Z M 150315,203720 L 105143,213114 C 101319,213815 97317,212938 93886,210555 C 89847,207751 87131,203440 86345,198638 C 84773,189034 90562,179886 99282,178239 L 238087,151635 C 234120,162782 234799,175470 240088,186055 L 150315,203720 Z" fill="#29B5E8" />
</svg>