<?xml version="1.0" encoding="utf-8"?>
<svg xmlns="http://www.w3.org/2000/svg" viewBox="0 0 269030 238892">
  <path d="M 134500,47893 C 139694,55292 143227,63868 144767,73199 C 141445,72776 138033,72504 134500,72504 C 130997,72504 127585,72776 124233,73199 C 125743,63958 129336,55292 134500,47893 Z M 134500,93854 C 137912,93854 141264,94186 144525,94760 C 142865,103456 139422,111489 134500,118465 C 129608,111489 126075,103456 124444,94760 C 127736,94186 131088,93854 134500,93854 Z M 83557,21380 C 96813,21380 109164,25607 119250,32704 C 109255,45659 103004,61603 102158,79027 C 77729,89294 59217,110855 53148,137096 C 34214,126497 21350,106325 21350,83224 C 21350,49161 49252,21380 83557,21380 Z M 185473,21380 C 219748,21380 247590,49161 247590,83224 C 247590,106325 234756,126497 215822,137096 C 209782,110855 191271,89233 166811,79027 C 165936,61603 159775,45689 149750,32704 C 159866,25607 172156,21380 185473,21380 Z M 104121,101826 C 106930,113603 112124,124383 119280,133714 C 109194,140841 96874,145008 83587,145008 C 80175,145008 76823,144706 73561,144132 C 76974,125954 88449,110613 104121,101826 Z M 164848,101826 C 180551,110613 192056,125954 195529,144132 C 192238,144676 188886,145008 185473,145008 C 172217,145008 159866,140841 149750,133714 C 156906,124383 162100,113603 164848,101826 Z M 134440,148964 C 148572,159805 166207,166358 185443,166358 C 188916,166358 192328,166086 195710,165693 L 195710,165693 C 190939,195015 165392,217482 134500,217482 C 103638,217482 78030,195015 73229,165693 L 73229,165693 C 76611,166086 80024,166358 83466,166358 C 102641,166358 120337,159805 134440,148964 Z M 83557,0 C 37445,0 0,37354 0,83224 C 0,117679 21138,147273 51185,159895 C 53359,203772 89868,238862 134500,238862 C 179102,238862 215520,203772 217755,159895 C 247801,147273 269030,117619 269030,83224 C 269030,37354 231585,0 185473,0 C 166298,0 148602,6583 134500,17454 C 120367,6583 102702,0 83557,0 Z" fill="#29B5E8" />
</svg>