<?xml version="1.0" encoding="utf-8"?>
<svg xmlns="http://www.w3.org/2000/svg" viewBox="0 0 240029 226338">
  <path d="M 232390,91416 L 229564,91416 L 229564,68686 C 229372,64792 226232,61678 222306,61488 L 179449,61488 C 175375,61483 172013,64650 171810,68686 L 171810,91416 L 169671,91416 C 165451,91416 162031,94808 162031,98992 L 162031,123919 L 105653,123919 L 105653,88158 C 105653,83973 102233,80581 98014,80581 L 95416,80581 L 95416,35122 C 95416,30938 91996,27546 87777,27546 L 58823,27546 L 58823,4361 C 58002,1244 54789,-623 51645,191 C 49586,724 47978,2319 47441,4361 L 47441,28151 L 17571,28151 C 13352,28151 9931,31544 9931,35728 L 9931,81188 L 7639,81188 C 3420,81188 0,84579 0,88764 L 0,218703 C 0,222887 3420,226279 7639,226279 L 98319,226279 C 98799,226358 99290,226358 99770,226279 L 232390,226279 C 236464,226285 239826,223118 240030,219082 L 240030,98614 C 239826,94577 236464,91411 232390,91416 Z M 24523,42623 L 80825,42623 L 80825,80885 L 24523,80885 Z M 90756,211429 L 14362,211429 L 14362,95356 L 90756,95356 Z M 161649,211429 L 105729,211429 L 105729,138012 L 162031,138012 Z M 186401,76262 L 214667,76262 L 214667,91416 L 186401,91416 Z M 224598,211429 L 176546,211429 L 176546,105888 L 225133,105888 Z" fill="#29B5E8" />
  <path d="M 72039,110585 L 33842,110585 C 30623,110585 28002,113151 27960,116343 C 28001,119548 30611,122136 33842,122177 L 72039,122177 C 75271,122136 77880,119548 77922,116343 C 77880,113151 75259,110585 72039,110585 Z" fill="#29B5E8" />
  <path d="M 64706,55958 L 41329,55958 C 38101,55591 35186,57889 34816,61089 C 34446,64291 36763,67183 39991,67549 C 40435,67600 40884,67600 41329,67549 L 64706,67549 C 67933,67183 70250,64291 69881,61089 C 69569,58394 67424,56266 64706,55958 Z" fill="#29B5E8" />
  <path d="M 72039,132708 L 33843,132708 C 30637,132708 28037,135286 28037,138467 C 28037,141646 30637,144224 33843,144224 L 72039,144224 C 75246,144224 77846,141646 77846,138467 C 77846,135286 75246,132708 72039,132708 Z" fill="#29B5E8" />
  <path d="M 72039,154832 L 33843,154832 C 30637,154832 28037,157410 28037,160590 C 28037,163770 30637,166348 33843,166348 L 72039,166348 C 75246,166348 77846,163770 77846,160590 C 77846,157410 75246,154832 72039,154832 Z" fill="#29B5E8" />
  <path d="M 72039,176956 L 33843,176956 C 30637,176956 28037,179534 28037,182714 C 28037,185894 30637,188472 33843,188472 L 72039,188472 C 75246,188472 77846,185894 77846,182714 C 77846,179534 75246,176956 72039,176956 Z" fill="#29B5E8" />
  <path d="M 190679,144224 L 210999,144224 C 214206,144224 216806,141646 216806,138467 C 216806,135286 214206,132708 210999,132708 L 190679,132708 C 187473,132708 184873,135286 184873,138467 C 184873,141646 187473,144224 190679,144224 Z" fill="#29B5E8" />
  <path d="M 190679,166348 L 210999,166348 C 214206,166348 216806,163770 216806,160590 C 216806,157410 214206,154832 210999,154832 L 190679,154832 C 187473,154832 184873,157410 184873,160590 C 184873,163770 187473,166348 190679,166348 Z" fill="#29B5E8" />
  <path d="M 190679,188472 L 210999,188472 C 214206,188472 216806,185894 216806,182714 C 216806,179534 214206,176956 210999,176956 L 190679,176956 C 187473,176956 184873,179534 184873,182714 C 184873,185894 187473,188472 190679,188472 Z" fill="#29B5E8" />
  <path d="M 123835,166348 L 143697,166348 C 146903,166348 149503,163770 149503,160590 C 149503,157410 146903,154832 143697,154832 L 123835,154832 C 120628,154832 118029,157410 118029,160590 C 118029,163770 120628,166348 123835,166348 Z" fill="#29B5E8" />
  <path d="M 123835,188472 L 143697,188472 C 146903,188472 149503,185894 149503,182714 C 149503,179534 146903,176956 143697,176956 L 123835,176956 C 120628,176956 118029,179534 118029,182714 C 118029,185894 120628,188472 123835,188472 Z" fill="#29B5E8" />
</svg>