<?xml version="1.0" encoding="utf-8"?>
<svg xmlns="http://www.w3.org/2000/svg" viewBox="0 0 413891 413887">
  <path d="M 256279,177141 C 254838,173980 251676,171981 248236,171981 L 166919,171981 C 163479,171981 160317,173980 158876,177141 C 158551,177792 128237,243720 111592,279752 C 106989,289702 107501,301092 112848,309461 C 117544,316760 125540,320992 134746,320992 L 280363,320992 C 289615,320992 297611,316807 302261,309461 C 307608,301092 308119,289702 303516,279752 C 286965,243720 256604,177792 256279,177141 Z M 287383,299884 C 285942,302115 283664,303231 280409,303231 L 134792,303231 C 131538,303231 129260,302162 127819,299884 C 125726,296629 125726,291515 127726,287191 C 141627,257063 165106,206014 172638,189695 L 242564,189695 C 250049,206014 273574,257063 287476,287191 C 289475,291561 289429,296675 287383,299884 L 287383,299884 Z M 156877,158591 C 156877,161706 159434,164263 162549,164263 L 162549,164263 L 259813,164263 C 262927,164263 265485,161706 265485,158591 C 265485,155476 262927,152919 259813,152919 L 162549,152919 C 159434,152919 156877,155476 156877,158591 Z M 161293,142364 C 166966,143852 172684,144922 178496,145619 C 178682,145619 178914,145666 179101,145666 L 198535,145666 C 201650,145666 204207,143155 204207,139993 C 204207,139621 204160,139250 204114,138878 C 201417,125534 196349,114934 189004,107448 C 182448,100800 174405,96894 165710,96197 C 151856,95081 139163,102241 134885,113678 C 133026,118653 133444,123581 136141,127905 C 139953,134089 148415,138924 161293,142364 Z M 145486,117677 C 147950,111075 156086,106844 164781,107541 C 168919,107867 175102,109494 180867,115445 C 185424,120094 188911,126417 191282,134368 L 179426,134368 C 174265,133717 169104,132740 164083,131439 C 154599,128882 147904,125488 145765,122047 C 145207,121024 144742,119769 145486,117677 L 145486,117677 Z M 217225,145666 L 236659,145666 C 236845,145666 237077,145666 237264,145619 C 243075,144922 248794,143852 254466,142364 C 267344,138924 275853,134089 279665,127905 C 282362,123581 282780,118653 280920,113678 C 276643,102287 263950,95081 250095,96197 C 241401,96894 233358,100800 226802,107448 C 219456,114934 214342,125488 211692,138878 C 211088,141946 213087,144922 216156,145573 C 216481,145619 216853,145666 217225,145666 L 217225,145666 Z M 234892,115399 C 240704,109494 246841,107867 250979,107495 C 259673,106797 267809,111075 270273,117630 C 271064,119769 270599,120978 269995,121907 C 265996,128324 248050,132973 236380,134275 L 224478,134275 C 226849,126371 230336,120048 234892,115399 L 234892,115399 Z M 214063,242232 C 213226,241814 212297,241349 211367,240884 L 208623,239535 C 198628,234607 197605,233631 197605,229074 C 197605,227075 198395,220566 208810,220566 C 218713,220566 219782,226517 219782,229074 C 219782,232189 222339,234746 225454,234746 C 228569,234746 231126,232189 231126,229074 C 231126,218985 224617,211686 214482,209733 L 214482,206572 C 214482,203456 211925,200900 208810,200900 C 205694,200900 203138,203456 203138,206572 L 203138,209733 C 199604,210337 196257,211825 193374,214011 C 188771,217590 186260,222937 186260,229074 C 186260,241116 193932,244882 203602,249671 C 204439,250089 205369,250554 206299,251019 L 209042,252367 C 219038,257296 220061,258272 220061,262829 C 220061,270407 212204,271197 208856,271197 C 205462,271197 197651,270360 197651,262829 C 197651,259713 195094,257156 191979,257156 C 188864,257156 186307,259713 186307,262829 C 186307,272871 192909,280124 203184,282030 L 203184,285285 C 203184,288400 205741,290957 208856,290957 C 211971,290957 214528,288400 214528,285285 C 214528,285285 214528,285285 214528,285285 L 214528,282030 C 224850,280124 231405,272871 231405,262829 C 231359,250787 223734,246974 214063,242232 Z M 397665,126650 C 353310,21343 232010,-28079 126656,16275 C 21303,60630 -28073,181930 16281,287238 C 60636,392544 181983,441967 287290,397612 C 364003,365300 413891,290167 413891,206944 C 413937,179373 408405,152035 397665,126650 Z M 381485,280403 C 340943,376783 229871,422068 133491,381479 C 37110,340891 -8174,229911 32368,133485 C 72910,37057 183982,-8180 280409,32408 C 350660,61978 396316,130741 396316,206944 C 396363,232189 391342,257156 381485,280403 L 381485,280403 Z" fill="#29B5E8" />
</svg>