<?xml version="1.0" encoding="utf-8"?>
<svg xmlns="http://www.w3.org/2000/svg" viewBox="0 0 275009 247469">
  <path d="M 95575,30 C 66706,30 43243,23554 43243,52544 L 43243,111218 L 18511,92797 C 16578,91348 14314,90653 12079,90653 C 8848,90653 5647,92163 3563,95002 C 30,99743 1027,106416 5707,109919 L 47652,141234 C 49584,142623 51819,143348 54054,143348 C 56288,143348 58553,142623 60425,141234 L 102370,109919 C 107141,106416 108107,99712 104544,95002 C 102460,92163 99229,90653 95968,90653 C 93733,90653 91499,91348 89566,92797 L 64562,111459 L 64562,52483 C 64562,35271 78453,21319 95545,21319 C 112637,21319 126528,35180 126528,52181 L 126528,114872 L 126528,131541 L 126528,194895 C 126528,223915 150021,247469 178890,247469 C 207729,247469 231223,224066 231223,195257 L 231223,132748 L 256528,151531 C 258491,152981 260635,153645 262900,153645 C 266161,153645 269392,152166 271506,149357 C 275009,144646 274043,137912 269332,134470 L 227327,103155 C 225425,101766 223190,101071 220925,101071 C 218691,101071 216456,101766 214554,103155 L 172488,134470 C 167778,137942 166781,144646 170284,149387 C 172398,152196 175629,153706 178920,153706 C 181125,153706 183359,153011 185262,151592 L 209933,133201 L 209933,195318 C 209933,212289 196042,226150 178951,226150 C 161859,226150 147968,212168 147968,194986 L 147968,131601 L 147968,114962 L 147968,52212 C 147968,23464 124474,30 95575,30 Z" fill="#29B5E8" />
</svg>