<?xml version="1.0" encoding="utf-8"?>
<svg xmlns="http://www.w3.org/2000/svg" viewBox="0 0 275492 273499">
  <path d="M 182484,76490 C 190758,76490 197552,83255 197552,91559 C 197552,93703 197099,95787 196254,97629 C 192690,96481 189520,94790 186772,92314 C 186168,91740 185352,91468 184537,91468 C 183601,91468 182665,91831 182031,92586 C 180762,93945 180913,96149 182302,97357 C 185171,99954 188493,101826 192056,103185 C 189459,105329 186138,106688 182484,106688 C 174179,106688 167415,99954 167415,91559 C 167415,83255 174179,76490 182484,76490 Z M 240463,0 C 224398,0 205826,8636 191392,24430 C 190154,25789 190184,27872 191633,29201 C 192268,29805 193083,30077 193868,30077 C 194804,30077 195740,29714 196435,28959 C 209571,14585 226270,6613 240372,6613 C 247680,6613 254293,8757 259336,13257 C 264530,17968 267550,24853 267943,33127 C 268607,47169 261843,63445 249794,76672 C 237141,90532 221076,98384 207366,98927 C 208031,96541 208514,94156 208514,91559 C 208514,77306 196858,65649 182574,65649 C 168291,65649 156604,77306 156604,91559 C 156604,105873 168291,117529 182574,117529 C 191724,117529 199787,112727 204407,105540 C 204860,105540 205313,105631 205736,105631 C 221771,105631 240372,97025 254746,81201 C 267973,66676 275462,48618 274677,32734 C 274163,22588 270358,14132 263806,8304 C 257555,2688 249401,0 240463,0 Z M 49856,166056 C 48437,166056 47048,166570 46021,167657 C 43907,169770 43907,173183 46021,175327 L 99380,228686 C 100467,229773 101856,230256 103276,230256 C 104665,230256 106054,229773 107141,228686 C 109255,226542 109255,223130 107141,221016 L 53782,167657 C 52695,166570 51245,166056 49856,166056 Z M 149689,34969 C 139301,34969 129215,39106 121907,46444 L 9422,158930 C 0,168321 0,183661 9422,193083 L 82741,266403 C 87331,270932 93431,273499 99833,273499 C 106295,273499 112335,270932 116955,266403 L 229411,153977 C 236960,146458 241097,136100 240946,125410 L 240735,115324 C 240584,110765 236990,107020 232430,107020 C 232279,107020 232159,107020 232038,107020 C 227327,107171 223582,111036 223733,115747 L 223945,125773 C 224035,131842 221620,137701 217362,141959 L 104936,254414 C 103547,255803 101705,256468 99833,256468 C 97991,256468 96119,255803 94760,254414 L 21440,181125 C 18632,178256 18632,173726 21440,170888 L 133866,58462 C 138033,54295 143770,51879 150051,51879 L 211715,52997 C 216516,53450 222435,59368 222828,63928 L 223099,72867 C 223280,77366 226844,81141 231253,81141 C 231434,81141 231645,81141 231857,81111 C 236567,80929 240191,77034 240101,72383 L 239768,63536 C 239768,63415 239738,62871 239738,62630 C 238621,49645 226240,37264 213587,36177 C 213285,36146 212711,36086 212349,36086 L 150414,34969 Z" fill="#29B5E8" />
</svg>