<?xml version="1.0" encoding="utf-8"?>
<svg xmlns="http://www.w3.org/2000/svg" viewBox="0 0 285520 257018">
  <path d="M 280936,111200 L 226822,17484 C 220725,6705 209309,29 196924,0 L 88696,0 C 76312,29 64897,6705 58799,17484 L 4685,111200 C -1562,122019 -1562,135349 4685,146168 L 58799,239534 C 64897,250313 76312,256989 88696,257018 L 196924,257018 C 209309,256989 220725,250313 226822,239534 L 280936,145819 C 287049,135089 287049,121929 280936,111200 Z M 208813,229044 C 206373,233308 201838,235942 196924,235950 L 88696,235950 C 83940,235789 79606,233176 77245,229044 L 22694,135415 C 20244,131137 20244,125881 22694,121603 L 77245,27975 C 79685,23711 84220,21077 89134,21068 L 196924,21068 C 201838,21077 206373,23711 208813,27975 L 262927,121603 C 265377,125881 265377,131137 262927,135415 Z" fill="#29B5E8" />
  <path d="M 200857,128247 L 84761,128247 C 72063,128247 61769,117953 61769,105255 L 61769,97213 C 61769,84501 72049,74181 84761,74133 L 200857,74133 C 213569,74181 223849,84501 223849,97213 L 223849,105255 C 223849,117953 213555,128247 200857,128247 Z M 84761,87246 C 79257,87246 74795,91708 74795,97213 L 74795,105255 C 74698,110758 79082,115298 84585,115394 C 84644,115395 84702,115396 84761,115396 L 200857,115396 C 206361,115396 210823,110934 210823,105430 L 210823,97387 C 210823,91883 206361,87421 200857,87421 Z" fill="#29B5E8" />
  <path d="M 117894,105430 L 91667,105430 C 89349,105430 87471,103551 87471,101233 C 87422,98965 89222,97086 91491,97037 C 91549,97036 91609,97036 91667,97037 L 117894,97037 C 120162,96988 122041,98788 122090,101057 C 122090,101115 122090,101175 122090,101233 C 122090,103551 120211,105430 117894,105430 Z" fill="#29B5E8" />
  <path d="M 200857,192152 L 84761,192152 C 72049,192104 61769,181784 61769,169072 L 61769,161030 C 61769,148332 72063,138038 84761,138038 L 200857,138038 C 213555,138038 223849,148332 223849,161030 L 223849,169072 C 223849,181784 213569,192104 200857,192152 Z M 84761,151064 C 79277,151111 74843,155546 74795,161030 L 74795,169072 C 74795,174576 79257,179039 84761,179039 L 200857,179039 C 206361,179039 210823,174576 210823,169072 L 210823,161030 C 210776,155546 206341,151111 200857,151064 Z" fill="#29B5E8" />
  <path d="M 117894,169247 L 91667,169247 C 89399,169297 87520,167496 87471,165228 C 87470,165169 87470,165110 87471,165051 C 87471,162734 89350,160855 91667,160855 L 117894,160855 C 120211,160855 122090,162734 122090,165051 C 122139,167320 120339,169199 118070,169247 C 118012,169248 117952,169248 117894,169247 Z" fill="#29B5E8" />
</svg>