<?xml version="1.0" encoding="utf-8"?>
<svg xmlns="http://www.w3.org/2000/svg" viewBox="0 0 245144 245144">
  <path d="M 180003,53107 L 63593,53107 C 57456,53107 52479,58084 52479,64221 L 52479,181018 C 52479,187155 57456,192132 63593,192132 L 180003,192132 C 186140,192132 191117,187155 191166,181018 L 191166,64221 C 191117,58084 186140,53107 180003,53107 Z M 180100,181018 L 180003,181114 L 63545,181018 L 63593,64173 L 180051,64270 L 180051,181018 Z M 235719,114187 C 240793,114284 245046,110273 245142,105199 C 245239,100125 241228,95873 236154,95776 C 236009,95776 235864,95776 235719,95776 L 215424,95776 L 215424,77897 L 235719,77897 C 240793,77993 245046,73982 245142,68909 C 245239,63835 241228,59582 236154,59486 C 236009,59486 235864,59486 235719,59486 L 215424,59486 L 215424,58374 C 215375,42524 202666,29622 186816,29332 L 186816,9230 C 186816,4156 182709,0 177587,0 C 172465,0 168357,4107 168357,9230 C 168357,9230 168357,9230 168357,9230 L 168357,29235 L 150478,29235 L 150478,9230 C 150381,4156 146129,97 141055,242 C 136126,338 132163,4301 132067,9230 L 132067,29235 L 114187,29235 L 114187,9230 C 114091,4156 109838,97 104764,242 C 99835,338 95873,4301 95776,9230 L 95776,29235 L 77897,29235 L 77897,9230 C 77897,4156 73789,0 68667,0 C 63593,0 59486,4107 59437,9230 L 59437,29235 L 57166,29235 C 41123,29235 28076,42283 28076,58326 L 28076,59389 L 9230,59389 C 4156,59486 97,63738 242,68812 C 338,73741 4301,77703 9230,77800 L 28076,77800 L 28076,95679 L 9230,95679 C 4156,95776 97,100029 242,105102 C 338,110031 4301,113994 9230,114091 L 28076,114091 L 28076,131970 L 9230,131970 C 4156,131970 0,136077 0,141200 C 0,146274 4107,150381 9230,150429 L 28076,150429 L 28076,168309 L 9230,168309 C 4156,168309 0,172416 0,177539 C 0,182661 4107,186768 9230,186768 C 9230,186768 9230,186768 9230,186768 L 28076,186768 L 28076,186961 C 28076,203005 41123,216052 57166,216052 L 59389,216052 L 59389,235719 C 59389,240793 63496,244949 68619,244949 C 73692,244949 77848,240842 77848,235719 C 77848,235719 77848,235719 77848,235719 L 77848,216100 L 95728,216100 L 95728,235719 C 95631,240793 99642,245046 104716,245142 C 109790,245239 114042,241228 114139,236154 C 114139,236009 114139,235864 114139,235719 L 114139,216100 L 132018,216100 L 132018,235719 C 131922,240793 135932,245046 141006,245142 C 146080,245239 150333,241228 150429,236154 C 150429,236009 150429,235864 150429,235719 L 150429,216100 L 168309,216100 L 168309,235719 C 168309,240793 172416,244949 177539,244949 C 182612,244949 186768,240842 186768,235719 C 186768,235719 186768,235719 186768,235719 L 186768,216052 C 202618,215810 215375,202860 215424,187010 L 215424,186816 L 235719,186816 C 240793,186816 244949,182709 244949,177587 C 244949,172513 240842,168357 235719,168357 C 235719,168357 235719,168357 235719,168357 L 215424,168357 L 215424,150478 L 235719,150478 C 240793,150478 244949,146370 244949,141248 C 244949,136174 240842,132018 235719,132018 C 235719,132018 235719,132018 235719,132018 L 215424,132018 L 215424,114139 L 235719,114187 Z M 196964,187010 C 196964,192905 192180,197689 186285,197689 L 57214,197689 C 51319,197689 46535,192905 46535,187010 L 46535,58374 C 46535,52479 51319,47695 57214,47695 L 186285,47695 C 192180,47695 196964,52479 196964,58374 L 196964,187010 Z" fill="#29B5E8" />
</svg>