<?xml version="1.0" encoding="utf-8"?>
<svg xmlns="http://www.w3.org/2000/svg" viewBox="0 0 249824 271687">
  <path d="M 126890,0 C 121243,0 116623,4590 116623,10237 L 116623,35512 C 116623,41189 121243,45779 126890,45779 C 132537,45779 137157,41189 137157,35512 L 137157,10237 C 137157,4590 132537,0 126890,0 Z M 45236,32100 C 42609,32100 40012,33096 37988,35120 C 33942,39166 33942,45659 37988,49645 L 55926,67552 C 57889,69575 60546,70541 63173,70541 C 65740,70541 68397,69575 70390,67552 C 74437,63505 74437,57013 70390,53027 L 52513,35120 C 50490,33096 47863,32100 45236,32100 Z M 207427,34969 C 204800,34969 202203,35965 200179,37988 L 182272,55896 C 178256,59912 178256,66435 182272,70421 C 184295,72444 186953,73380 189489,73410 C 192147,73410 194804,72444 196797,70421 L 214644,52513 C 218690,48497 218690,41975 214644,37988 C 212651,35965 210024,34969 207427,34969 Z M 10267,112667 C 4560,112667 0,117287 0,122934 C 0,128581 4560,133201 10267,133201 L 35512,133201 C 41220,133201 45779,128581 45779,122934 C 45779,117287 41220,112667 35512,112667 Z M 239617,116683 C 239587,116683 239557,116683 239557,116683 L 214312,116683 C 208604,116683 204014,121273 204014,126950 C 204014,132597 208604,137217 214312,137217 L 239557,137217 C 245234,137217 249824,132597 249824,126950 C 249824,121243 245325,116683 239617,116683 Z M 125078,70723 C 154339,70723 178256,94488 178256,123629 C 178286,141838 170707,157057 156997,166418 C 154490,168170 152860,170918 152558,173998 L 97085,173998 C 96813,170948 95243,168170 92676,166418 C 78997,157087 71508,141928 71508,123629 C 71508,94458 95545,70723 125078,70723 Z M 151863,187104 L 150897,205826 L 98172,197009 L 97749,187104 Z M 98685,210446 L 150233,219053 L 149719,228474 L 99410,228474 L 98685,210446 Z M 140086,248978 C 137308,254565 131601,258521 124927,258521 C 118253,258521 112546,254565 109738,248978 Z M 125108,50249 C 84251,50249 51064,83194 51064,123629 C 51064,146639 60395,166962 76943,180189 L 79329,239104 C 79540,244630 84070,248978 89536,248978 L 95907,248978 C 99199,261963 110946,271657 124927,271657 C 138969,271657 150655,261963 153977,248978 L 159443,248978 C 164878,248978 169468,244721 169710,239255 L 172820,180279 C 189399,166962 198820,146639 198820,123629 C 198820,83104 165724,50249 125108,50249 Z" fill="#29B5E8" />
</svg>