<?xml version="1.0" encoding="utf-8"?>
<svg xmlns="http://www.w3.org/2000/svg" viewBox="0 0 233789 233729">
  <path d="M 132688,129185 L 132688,167325 C 132688,176958 129366,181034 122481,181034 C 117287,181034 113603,177622 113603,177622 L 108741,185413 C 108922,185504 113512,190637 122934,190637 C 136462,190637 142442,181940 142562,169318 L 142562,129185 Z M 172397,127977 C 159111,127977 151984,134741 151984,145069 C 151984,154430 157661,158960 170193,162946 C 180037,166237 182061,168563 182061,173153 C 182061,178015 179162,181427 172247,181427 C 163368,181427 156876,175599 156876,175599 L 151501,183148 C 151501,183148 158295,190637 172609,190637 C 186470,190637 193234,182635 193234,172428 C 193234,163097 188130,157843 174542,153826 C 165482,150867 162976,148844 162976,144767 C 162976,139905 166388,137218 172397,137218 C 181034,137218 186288,142200 186288,142200 L 191663,134077 C 191663,134077 186137,127977 172397,127977 Z M 195438,21319 C 204769,21319 212379,28929 212379,38351 L 212379,195288 C 212379,204649 204769,212289 195438,212289 L 38472,212289 C 29110,212289 21440,204649 21440,195288 L 21440,38351 C 21440,28959 29080,21319 38472,21319 Z M 38411,0 C 17243,0 0,17213 0,38381 L 0,195348 C 0,216547 17243,233729 38411,233729 L 195348,233729 C 216546,233729 233759,216547 233759,195348 L 233759,38381 C 233759,17213 216546,0 195348,0 Z" fill="#29B5E8" />
</svg>