<?xml version="1.0" encoding="utf-8"?>
<svg xmlns="http://www.w3.org/2000/svg" viewBox="0 0 237580 256375">
  <path d="M 214036,108295 L 195414,108295 L 195414,10261 C 195414,4597 190823,5 185160,5 C 185104,5 185049,5 184994,6 L 59067,6 C 55908,-105 52875,1259 50864,3698 L 2461,61124 C 865,62969 -10,65330 0,67769 L 0,246118 C -45,251736 4472,256328 10090,256372 C 10145,256373 10200,256373 10255,256372 L 184994,256372 C 190611,256509 195274,252065 195411,246449 C 195414,246338 195414,246229 195414,246118 L 195414,216585 L 214200,216585 C 227094,216539 237536,206098 237580,193204 L 237580,131676 C 237536,118718 226994,108250 214036,108295 C 214036,108295 214036,108295 214036,108295 Z M 51683,34954 L 51683,61534 L 29123,61534 Z M 174740,235864 L 20920,235864 L 20920,82044 L 61939,82044 C 67555,82180 72219,77737 72354,72121 C 72357,72010 72358,71900 72357,71789 L 72357,20516 L 174904,20516 L 174904,108295 L 60052,108295 C 47157,108341 36716,118782 36671,131676 L 36671,193204 C 36716,206098 47157,216539 60052,216585 L 174904,216585 Z M 223962,193204 C 223962,198868 219371,203459 213708,203459 L 59559,203459 C 53896,203459 49305,198868 49305,193204 L 49305,131676 C 49305,126012 53896,121421 59559,121421 L 214036,121421 C 219700,121421 224291,126012 224291,131676 Z" fill="#29B5E8" />
  <path d="M 73588,169986 C 73588,177616 70963,180898 65384,180898 C 62767,180828 60251,179874 58247,178190 L 54473,184425 C 57564,187223 61629,188695 65794,188526 C 76459,188526 81300,181636 81381,171545 L 81381,139715 L 73178,139715 Z" fill="#29B5E8" />
  <path d="M 106484,159158 C 99183,156943 96968,155220 96968,151939 C 96968,148657 99676,145950 104434,145950 C 108495,145872 112442,147305 115509,149970 L 119775,143571 C 115538,139922 110003,138147 104434,138649 C 93851,138649 88027,144063 88027,152267 C 88027,160471 92539,163342 102465,166459 C 110669,169166 111899,170971 111899,174662 C 111899,178355 109602,181308 103695,181308 C 99225,181168 94928,179552 91472,176714 L 87206,182621 C 91678,186691 97570,188843 103614,188609 C 111461,189743 118742,184300 119875,176453 C 119984,175697 120033,174934 120021,174170 C 121579,166623 117150,162439 106484,159158 Z" fill="#29B5E8" />
  <path d="M 145534,138649 C 132947,139087 123097,149646 123535,162235 C 123552,162714 123584,163192 123630,163670 C 122144,175813 130784,186861 142925,188347 C 155068,189834 166116,181195 167602,169052 C 167822,167265 167822,165458 167602,163670 C 168787,151084 159544,139921 146960,138738 C 146485,138694 146010,138664 145534,138649 Z M 145534,180898 C 137331,180898 131752,173432 131752,163670 C 131752,153908 137331,146196 145534,146196 C 153738,146196 159481,153825 159481,163670 C 160553,172075 154607,179756 146202,180827 C 145981,180856 145758,180879 145534,180898 Z" fill="#29B5E8" />
  <path d="M 203043,172939 L 178678,139715 L 172853,139715 L 172853,187378 L 180647,187378 L 180647,154317 L 205012,187378 L 210919,187378 L 210919,139715 L 203043,139715 L 203043,172939 Z" fill="#29B5E8" />
</svg>