<?xml version="1.0" encoding="utf-8"?>
<svg xmlns="http://www.w3.org/2000/svg" viewBox="0 0 285416 281929">
  <path d="M 102269,36503 L 114791,74435 L 55901,93766 L 59455,75863 C 60019,73206 59056,70349 57030,68489 L 43345,55934 L 102269,36503 Z M 91308,153553 C 99180,153553 105491,159930 105491,167769 C 105491,175608 99180,181919 91308,181919 C 83469,181919 77125,175608 77125,167769 C 77225,159930 83536,153553 91308,153553 Z M 225098,173382 C 232936,173382 239280,179693 239280,187532 C 239280,195371 232936,201748 225098,201748 C 217292,201748 210915,195371 210915,187532 C 210915,179760 217292,173382 225098,173382 Z M 27303,179461 C 35141,179461 41519,185805 41519,193644 C 41519,201482 35141,207826 27303,207826 C 19497,207826 13153,201482 13153,193644 C 13186,185904 19564,179461 27303,179461 Z M 104162,0 C 103132,0 102070,166 101007,498 C 95759,2225 92902,7905 94629,13120 L 97353,21258 L 25542,44940 C 22819,45837 20826,48095 20261,50852 C 19597,53642 20560,56532 22619,58458 L 43047,77192 L 37699,104129 C 37168,106886 38164,109809 40290,111669 C 41751,112964 43678,113662 45538,113662 C 46434,113662 47232,113496 48128,113263 L 119972,89581 L 142459,157638 C 142625,158037 142857,158336 143057,158701 L 122331,177368 L 116219,178431 C 117647,175176 118444,171622 118444,167769 C 118444,152922 106354,140832 91507,140832 C 76627,140832 64537,152922 64537,167769 C 64537,176106 68423,183446 74368,188362 C 69486,191451 66031,195636 63906,200851 L 52646,203077 C 53775,200120 54439,196998 54439,193644 C 54439,178796 42349,166739 27502,166739 C 12655,166739 565,178796 565,193644 C 565,204007 6477,212875 15113,217492 C 12356,220780 10429,224866 9433,229615 L 764,270171 C 33,273592 2259,277013 5713,277744 C 6078,277910 6577,277910 7042,277910 C 9998,277910 12655,275817 13253,272828 L 21988,232273 C 23051,226991 25908,221312 38496,219020 L 60484,214602 L 48627,270171 C 47863,273592 50088,277013 53542,277744 C 53941,277910 54439,277910 54871,277910 C 57827,277910 60484,275817 61082,272828 L 74833,208756 C 75996,203508 78786,197862 91175,195570 L 126449,189724 C 127678,189525 128808,188960 129638,188196 L 157771,162787 L 157771,162787 C 159133,167968 159432,174611 154549,179261 L 130468,203043 L 119175,206464 C 117946,206531 116784,206863 115821,207527 L 93500,214370 C 90079,215399 88152,219020 89215,222308 C 90079,225098 92603,226892 95360,226892 C 95958,226892 96589,226792 97187,226593 L 111038,222308 L 111038,222308 L 101472,270237 C 100807,273692 103000,277046 106454,277744 C 106919,277810 107351,277910 107683,277910 C 110672,277910 113363,275784 114027,272762 L 124921,218123 L 135716,214868 C 136713,214569 137643,214038 138373,213340 L 155047,196799 L 157605,204804 C 156708,205236 155977,205900 155380,206664 C 154151,208258 153752,210384 154416,212310 C 154549,212941 157904,223736 166639,231276 L 180590,274954 C 181819,278873 185339,281497 189292,281896 C 189558,281929 189857,281929 190156,281929 C 191152,281929 192182,281796 193178,281464 C 198393,279770 201349,274190 199688,268909 L 190222,238783 L 211978,239513 L 225662,277212 C 226559,279770 229017,281398 231641,281398 C 232372,281398 233136,281265 233800,280999 C 237121,279870 238849,276183 237620,272828 L 225729,239978 L 234099,240277 C 237620,240211 240576,237587 240709,234099 C 240808,230612 238051,227622 234564,227490 L 186602,225862 C 179062,225862 173980,221278 170824,216828 L 234298,216828 C 249212,216828 251470,220681 255755,231442 L 272529,277246 C 273425,279870 275883,281464 278507,281464 C 279238,281464 279969,281364 280733,281099 C 283689,279770 285416,276183 284187,272828 L 267347,226892 C 263062,216130 258578,207992 245292,205202 C 249444,200419 252068,194341 252068,187532 C 252068,172685 239978,160595 225098,160595 C 210251,160595 198160,172685 198160,187532 C 198160,193810 200386,199423 203973,204007 L 178065,204007 L 169828,178032 C 174478,164215 166041,149301 165610,148571 C 164613,146910 162953,145814 161059,145515 C 160926,145482 160794,145482 160661,145482 C 160229,145482 159864,145581 159498,145615 L 113628,6809 C 112233,2624 108380,0 104162,0 Z" fill="#29B5E8" />
</svg>