<?xml version="1.0" encoding="utf-8"?>
<svg xmlns="http://www.w3.org/2000/svg" viewBox="0 0 414042 414733">
  <path d="M 207454,414733 C 92805,414639 -93,321601 0,206951 C 47,123642 49958,48425 126671,15962 C 232527,-28055 354052,22090 398069,127945 C 441759,232959 392784,353596 288238,398408 C 262651,409213 235193,414780 207454,414733 Z M 207454,17318 C 102581,17365 17588,102405 17635,207278 C 17682,283524 63336,352380 133547,382083 C 230188,422919 341563,377686 382399,281045 C 423235,184405 378002,73030 281361,32194 C 257973,22324 232854,17272 207454,17318 L 207454,17318 Z M 223826,330909 L 191083,330909 C 186732,330909 183037,327775 182288,323472 L 177985,298166 C 173120,296575 168396,294610 163812,292272 L 143043,307193 C 139488,309766 134623,309345 131536,306258 L 108381,283104 C 105294,280016 104920,275151 107446,271596 L 122321,250874 C 119982,246337 118018,241566 116427,236701 L 91121,232398 C 86817,231649 83684,227954 83684,223604 L 83684,190860 C 83684,186510 86817,182814 91121,182066 L 116427,177763 C 117971,172944 119935,168267 122227,163730 L 107399,142774 C 104873,139219 105294,134400 108381,131313 L 131536,108159 C 134623,105071 139441,104697 142996,107177 L 163952,122005 C 168489,119666 173261,117701 178125,116111 L 182288,90898 C 182990,86595 186732,83414 191083,83414 L 223826,83414 C 228176,83414 231919,86595 232620,90898 L 236783,116111 C 241648,117701 246419,119619 250957,121958 L 271912,107130 C 275467,104604 280332,105025 283420,108112 L 306574,131266 C 309661,134354 310036,139172 307556,142727 L 292728,163636 C 295067,168220 296985,172944 298575,177809 L 323788,181972 C 328091,182674 331272,186416 331272,190766 L 331272,223510 C 331272,227860 328091,231602 323788,232304 L 298575,236467 C 296985,241425 295020,246197 292635,250827 L 307509,271550 C 310036,275105 309661,279969 306574,283057 L 283373,306258 C 280286,309345 275421,309719 271866,307193 L 251097,292272 C 246560,294610 241788,296575 236924,298166 L 232620,323472 C 231872,327775 228176,330909 223826,330909 Z M 198613,313040 L 216342,313040 L 220318,289652 C 220926,286191 223499,283384 226867,282495 C 234023,280671 240853,277818 247168,274075 C 250208,272251 254044,272438 256897,274497 L 276076,288249 L 288518,275806 L 274766,256628 C 272708,253728 272521,249892 274345,246851 C 278134,240490 280987,233567 282812,226363 C 283700,222902 286507,220329 290015,219768 L 313310,215932 L 313310,198297 L 290015,194462 C 286507,193900 283700,191281 282812,187866 C 281034,180709 278227,173880 274485,167565 C 272708,164525 272848,160736 274906,157882 L 288612,138517 L 276076,125981 L 256710,139780 C 253857,141838 250021,141978 246981,140201 C 240619,136459 233790,133652 226633,131828 C 223218,130939 220599,128132 220037,124624 L 216202,101329 L 198567,101329 L 194731,124624 C 194170,128132 191550,130939 188136,131828 C 180979,133652 174149,136459 167835,140201 C 164794,141978 161005,141838 158152,139780 L 138833,126027 L 126297,138564 L 140003,157929 C 142014,160783 142201,164618 140423,167612 C 136681,173927 133875,180709 132051,187773 C 131162,191187 128402,193760 124894,194321 L 101505,198297 L 101505,215979 L 124894,219955 C 128355,220516 131162,223089 132051,226504 C 133875,233661 136728,240490 140470,246805 C 142295,249845 142107,253681 140049,256581 L 126297,275759 L 138739,288202 L 157918,274450 C 160818,272391 164654,272204 167694,274029 C 174009,277771 180839,280624 187995,282449 C 191410,283337 194029,286144 194591,289605 L 198613,313040 Z M 186031,123127 L 186031,123127 Z M 207454,253868 C 181680,253868 160771,232959 160771,207185 C 160771,181411 181680,160502 207454,160502 C 233228,160502 254138,181411 254138,207185 L 254138,207185 C 254091,232959 233228,253821 207454,253868 Z M 207454,178324 C 191504,178324 178593,191234 178593,207185 C 178593,223136 191504,236046 207454,236046 C 223405,236046 236316,223136 236316,207185 L 236316,207185 C 236269,191234 223359,178324 207454,178324 Z" fill="#29B5E8" />
</svg>