<?xml version="1.0" encoding="utf-8"?>
<svg xmlns="http://www.w3.org/2000/svg" viewBox="0 0 283069 254812">
  <path d="M 278524,110246 L 224875,17334 C 218829,6647 207513,29 195233,0 L 87935,0 C 75657,29 64340,6647 58294,17334 L 4645,110246 C -1548,120971 -1548,134187 4645,144914 L 58294,237478 C 64340,248165 75657,254784 87935,254812 L 195233,254812 C 207513,254784 218829,248165 224875,237478 L 278524,144567 C 284584,133929 284584,120883 278524,110246 Z M 207021,227078 C 204601,231305 200105,233916 195233,233924 L 87935,233924 C 83220,233765 78923,231175 76582,227078 L 22499,134253 C 20071,130011 20071,124801 22499,120559 L 76582,27734 C 79002,23507 83498,20896 88369,20888 L 195233,20888 C 200105,20896 204601,23507 207021,27734 L 260670,120559 C 263099,124801 263099,130011 260670,134253 Z" fill="#29B5E8" />
  <path d="M 123187,142455 L 131853,142455 L 131853,99119 L 126307,99119 L 125527,100072 C 123593,102997 120363,104806 116859,104926 L 116339,104926 L 116339,110646 L 122753,110646 Z" fill="#29B5E8" />
  <path d="M 155701,98771 C 148160,98203 141586,103857 141018,111399 C 140956,112215 140969,113037 141054,113852 L 141054,127892 C 140218,135409 145634,142180 153151,143016 C 153998,143109 154852,143124 155701,143060 C 163242,143632 169819,137983 170393,130442 C 170457,129593 170442,128739 170349,127892 L 170349,113852 C 171135,106330 165676,99594 158154,98807 C 157339,98721 156518,98709 155701,98771 Z M 149981,114459 C 149981,107698 152061,106398 155701,106398 C 159341,106398 161421,107698 161421,114459 L 161421,126765 C 161421,133526 159341,134826 155701,134826 C 152061,134826 149981,133526 149981,126765 Z" fill="#29B5E8" />
  <path d="M 131594,147507 C 124052,146934 117475,152583 116902,160125 C 116837,160974 116852,161828 116946,162674 L 116946,176715 C 116160,184237 121619,190973 129141,191761 C 129955,191845 130776,191857 131594,191795 C 139145,192219 145609,186440 146032,178889 C 146073,178164 146056,177438 145981,176715 L 145981,162674 C 146807,155157 141382,148393 133865,147566 C 133110,147485 132351,147463 131594,147507 Z M 125873,163541 C 125873,156781 127954,155481 131594,155481 C 135234,155481 137314,156781 137314,163541 L 137314,175849 C 137314,182609 135234,183908 131594,183908 C 127954,183908 125873,182609 125873,175849 Z" fill="#29B5E8" />
  <path d="M 160127,148460 C 158283,151280 155249,153100 151893,153400 L 151373,153400 L 151373,159207 L 157787,159207 L 157787,191188 L 166454,191188 L 166454,147506 L 160907,147506 Z" fill="#29B5E8" />
  <path d="M 174651,47087 C 173326,45752 171504,45029 169624,45093 L 88327,45093 C 84737,45093 81827,48004 81827,51593 L 81827,203614 C 81827,207204 84737,210115 88327,210115 L 200999,210115 C 204570,210068 207452,207186 207499,203614 L 207499,88429 C 207512,86870 206958,85360 205940,84182 Z M 174651,66847 L 189559,84182 L 174305,84182 Z M 194759,196854 L 94828,196854 L 94828,57747 L 161303,57747 L 161303,91029 C 161303,94619 164214,97529 167804,97529 L 194412,97529 Z" fill="#29B5E8" />
</svg>