<?xml version="1.0" encoding="utf-8"?>
<svg xmlns="http://www.w3.org/2000/svg" viewBox="0 0 240654 240621">
  <path d="M 148944,23691 C 175323,31488 197228,49909 209718,73875 L 146254,77910 C 138650,73271 129811,70553 120258,70553 C 119407,70553 118556,70635 117651,70690 L 148944,23691 Z M 120313,19409 C 125611,19409 130827,19985 135905,20809 L 99890,74890 C 92452,78294 86028,83373 81060,89742 L 65688,35633 C 81417,25448 100192,19409 120313,19409 Z M 55010,43595 L 72688,105774 C 71233,110359 70492,115273 70492,120324 C 70492,124909 71150,129274 72331,133529 L 19819,112967 C 21823,85267 35026,60588 55010,43595 Z M 120258,89934 C 137003,89934 150618,103551 150618,120324 C 150618,137070 137003,150687 120258,150687 C 103514,150687 89899,137070 89899,120324 C 89899,103551 103514,89934 120258,89934 Z M 214988,86036 C 218859,96715 221110,108245 221110,120324 C 221137,135972 217431,150796 211008,163974 L 169833,115740 C 168927,105884 165139,96880 159347,89550 L 214988,86036 Z M 19737,126336 L 80401,150028 C 85205,156397 91436,161613 98655,165127 L 47379,189806 C 31403,173060 21219,150851 19737,126336 Z M 168323,133117 L 204475,175559 C 190366,197109 168159,212894 142218,218686 L 155532,155408 C 161598,149287 166072,141682 168323,133117 Z M 140654,165731 L 129070,220773 C 126160,220992 123196,221212 120258,221212 C 96404,221157 74444,212812 57206,198921 L 117211,170013 C 118227,170041 119243,170178 120258,170178 C 127560,170178 134395,168586 140654,165731 Z M 120258,27 C 53857,27 0,53862 0,120324 C 0,186759 53857,240621 120313,240621 C 186742,240621 240627,186759 240627,120324 C 240544,53862 186715,27 120258,27 Z" fill="#29B5E8" />
</svg>