<?xml version="1.0" encoding="utf-8"?>
<svg xmlns="http://www.w3.org/2000/svg" viewBox="0 0 253629 274103">
  <path d="M 198096,5254 C 194472,5254 191513,8214 191513,11837 C 191513,15491 194472,18481 198096,18481 L 244962,18481 C 248586,18481 251576,15491 251576,11837 C 251576,8214 248586,5254 244962,5254 Z M 198096,35120 C 194472,35120 191513,38079 191513,41703 C 191513,45387 194472,48346 198096,48346 L 244962,48346 C 248586,48346 251576,45387 251576,41703 C 251576,38079 248586,35120 244962,35120 Z M 198096,64985 C 194472,64985 191513,67944 191513,71629 C 191513,75252 194472,78212 198096,78212 L 244962,78212 C 248586,78212 251576,75252 251576,71629 C 251576,67944 248586,64985 244962,64985 Z M 10479,0 C 6764,0 3654,3110 3654,6885 L 3654,76611 C 3654,80356 6764,83406 10479,83406 L 37385,83406 C 41159,83406 44239,80356 44239,76611 C 44239,72836 41159,69726 37385,69726 L 17333,69726 L 17333,13679 L 156665,13679 L 156665,69726 L 139482,69726 C 135708,69726 132628,72836 132628,76611 C 132628,80356 135708,83406 139482,83406 L 163520,83406 C 167234,83406 170344,80356 170344,76611 L 170344,6885 C 170344,3110 167234,0 163520,0 Z M 88177,63626 C 94458,63626 99622,68790 99622,75071 L 99622,160711 C 99622,166600 104363,171431 110342,171431 C 116200,171431 121001,166690 121001,160711 L 121001,146518 C 121001,140237 126165,135074 132446,135074 C 138727,135074 143891,140237 143891,146518 L 143891,160681 C 143891,166539 148662,171401 154581,171401 C 160470,171401 165301,166600 165301,160681 L 165301,146518 C 165301,140237 170465,135074 176746,135074 C 183027,135074 188191,140237 188191,146518 L 188191,160681 C 188191,166539 192932,171401 198911,171401 C 204769,171401 209571,166600 209571,160681 L 209571,146518 C 209571,140237 214735,135074 221016,135074 C 227357,135074 232430,140237 232430,146518 L 232430,237987 L 232219,237987 C 232219,250126 226753,252602 218539,252602 L 71357,252602 L 28355,209601 C 21380,202595 26574,196284 28355,194502 C 32674,190154 44783,178256 55322,167928 L 55322,190154 C 55322,196073 60123,200844 66042,200844 C 71900,200844 76762,196103 76762,190154 L 76762,75071 C 76762,68790 81896,63626 88177,63626 Z M 87965,42307 C 69847,42307 55171,57043 55171,75071 L 55171,138093 C 46263,146820 20021,172549 13106,179434 C 30,192600 30,211655 13106,224790 L 59248,270902 C 61271,272955 63958,274073 66827,274073 L 218479,274073 C 240161,274073 253599,260273 253599,238017 L 253599,146518 C 253599,128400 238862,113694 220744,113694 C 212228,113694 204498,117046 198579,122421 C 192751,117046 185050,113694 176474,113694 C 167959,113694 160198,117046 154309,122421 C 148481,117046 140751,113694 132175,113694 C 128128,113694 124323,114539 120730,115868 L 120730,75071 C 120730,56953 105993,42307 87965,42307 Z" fill="#29B5E8" />
</svg>