<?xml version="1.0" encoding="utf-8"?>
<svg xmlns="http://www.w3.org/2000/svg" viewBox="0 0 222931 223095">
  <path d="M 159146,104624 L 147104,111550 L 159146,118460 C 162201,120157 163302,124009 161605,127063 C 159909,130118 156057,131218 153003,129522 C 152936,129485 152869,129446 152804,129407 L 131239,117015 C 128216,115281 127172,111424 128906,108401 C 129463,107431 130268,106626 131239,106069 L 152804,93683 C 155835,91941 159706,92971 161470,95990 C 163216,98989 162200,102835 159202,104581 C 159183,104592 159165,104602 159146,104613 Z M 147748,138209 L 126188,125834 C 123133,124084 119237,125142 117487,128197 C 116947,129139 116657,130203 116644,131288 L 116644,156060 C 116746,159565 119671,162322 123175,162220 C 126536,162121 129236,159420 129335,156060 L 129335,142207 L 141410,149139 C 144385,150973 148282,150048 150116,147074 C 151949,144099 151024,140202 148050,138368 C 147951,138307 147850,138249 147748,138193 Z M 122872,113988 L 113906,122900 C 113598,123185 113201,123353 112782,123375 L 110170,123375 C 109750,123351 109351,123183 109041,122900 L 100064,113988 C 99790,113688 99626,113303 99600,112897 L 99600,110269 C 99620,109852 99784,109455 100064,109145 L 109019,100239 C 109330,99957 109729,99792 110148,99770 L 112782,99770 C 113200,99790 113598,99956 113906,100239 L 122872,109145 C 123148,109457 123310,109853 123330,110269 L 123330,112897 C 123303,113302 123142,113686 122872,113988 Z M 115706,111518 C 115677,111099 115510,110702 115231,110389 L 112635,107820 C 112327,107541 111932,107375 111517,107351 L 111413,107351 C 111007,107379 110622,107544 110322,107820 L 107721,110389 C 107448,110703 107288,111101 107268,111518 L 107268,111616 C 107291,112020 107451,112405 107721,112707 L 110322,115286 C 110624,115558 111008,115722 111413,115750 L 111517,115750 C 111931,115725 112325,115562 112635,115286 L 115231,112707 C 115507,112407 115675,112022 115706,111616 Z M 75183,84891 L 96748,97277 C 99805,99031 103704,97974 105458,94917 C 105998,93974 106289,92910 106303,91823 L 106303,67008 C 106303,63501 103461,60659 99955,60659 C 96448,60659 93606,63501 93606,67008 L 93606,80872 L 81526,73929 C 78622,71985 74693,72763 72748,75666 C 70805,78570 71582,82499 74486,84443 C 74703,84588 74928,84719 75161,84837 L 75161,84837 Z M 122512,98101 C 123793,98204 125074,97916 126188,97277 L 147748,84891 C 150771,83159 151817,79302 150085,76279 C 150084,76277 150083,76276 150082,76274 L 150082,76274 C 148321,73253 144451,72222 141421,73967 L 129346,80910 L 129346,67008 C 129243,63503 126319,60745 122814,60848 C 119454,60947 116753,63647 116655,67008 L 116655,91785 C 116660,95097 119220,97844 122523,98084 Z M 100429,125027 C 99146,124918 97861,125205 96748,125851 L 75183,138226 C 72128,139922 71027,143774 72724,146828 C 74420,149883 78272,150984 81326,149287 C 81394,149250 81460,149212 81526,149172 L 93606,142240 L 93606,156093 C 93606,159599 96448,162441 99955,162441 C 103461,162441 106303,159599 106303,156093 L 106303,131305 C 106297,127991 103734,125245 100429,125011 Z M 94582,113426 C 94790,112761 94887,112067 94871,111370 C 94850,110865 94771,110364 94637,109876 C 94202,108259 93138,106884 91681,106058 L 70138,93672 C 67103,91929 63230,92964 61471,95990 C 59727,98997 60750,102848 63756,104593 C 63775,104603 63793,104613 63811,104624 L 75810,111550 L 63811,118460 C 60788,120213 59759,124085 61512,127108 C 63265,130130 67137,131160 70159,129407 L 91703,117015 C 93091,116224 94129,114936 94604,113410 Z" fill="#29B5E8" />
  <path d="M 222571,137937 C 221902,135685 220376,133786 218322,132646 L 203007,124291 C 203473,119851 203655,115386 203553,110923 C 203640,106576 203477,102228 203067,97899 L 218453,89173 C 220489,88012 221969,86079 222560,83811 C 223132,81604 222833,79260 221726,77267 L 195906,33564 C 194361,30915 191518,29294 188451,29315 C 187025,29315 185617,29649 184344,30291 L 168680,38854 C 161545,33107 153618,28418 145146,24930 L 145146,8634 C 145096,3884 141256,47 136507,0 L 84563,0 C 79816,50 75980,3886 75930,8634 L 75930,25137 C 68049,28511 60743,33094 54277,38723 L 40359,30499 C 39032,29732 37528,29324 35996,29315 C 32930,29294 30088,30915 28546,33564 L 2612,77288 C 1302,79367 996,81924 1777,84253 C 2346,86492 3804,88404 5813,89543 L 21815,98597 C 21783,99014 21783,99434 21815,99851 L 21815,101520 C 21384,104731 21129,107963 21052,111201 L 21052,124220 L 4559,132717 C 2516,133783 1004,135646 381,137866 C -322,140195 -44,142710 1150,144830 L 26980,189466 C 28496,192157 31342,193824 34430,193829 C 35892,193814 37327,193440 38608,192738 L 54277,184241 C 60756,189814 68060,194348 75930,197680 L 75930,214461 C 75980,219209 79816,223045 84563,223095 L 136507,223095 C 141256,223048 145096,219211 145146,214461 L 145146,197750 C 153557,194336 161450,189765 168598,184170 L 184546,192460 C 185828,193160 187263,193535 188723,193551 C 191818,193541 194666,191862 196174,189160 L 221933,144601 C 222988,142543 223217,140158 222571,137937 Z M 87072,182850 C 78472,180089 70580,175478 63953,169341 L 60680,166832 C 59165,165604 57270,164940 55319,164956 C 53884,164951 52472,165310 51212,165997 L 37916,172962 L 20577,143647 L 33460,136682 C 36482,135240 38386,132166 38330,128818 L 38330,110923 C 38195,108380 38195,105831 38330,103287 C 38831,100015 39088,96710 39099,93399 C 39103,90290 37437,87418 34736,85878 L 21968,78472 L 38875,49718 L 50781,56678 C 53919,58534 57887,58199 60670,55843 L 61368,55298 C 68651,48183 77429,42780 87061,39481 C 90642,38364 93108,35083 93186,31333 L 93186,17409 L 128004,17409 L 128004,31333 C 128004,35120 130455,38470 134064,39618 C 144538,43010 154173,48587 162332,55980 C 163896,57281 165865,57995 167900,57998 C 169338,58009 170755,57648 172013,56950 L 185380,49991 L 202440,78957 L 189351,86337 C 185875,88263 184199,92340 185315,96154 C 186246,101187 186595,106311 186356,111425 C 186566,116856 186201,122296 185266,127650 C 184378,131422 186155,135317 189585,137119 L 202468,144083 L 185320,173655 L 172023,166695 C 170761,166009 169348,165649 167911,165648 C 165968,165632 164075,166262 162528,167437 C 154359,174714 144752,180194 134331,183521 C 130681,184487 128066,187692 127852,191462 L 127852,205386 L 93061,205386 L 93061,191484 C 93215,187592 90772,184069 87072,182850 Z" fill="#29B5E8" />
</svg>