<?xml version="1.0" encoding="utf-8"?>
<svg xmlns="http://www.w3.org/2000/svg" viewBox="0 0 289535 275153">
  <path d="M 181952,19995 C 194142,19995 204106,29927 204106,42083 C 204106,46866 202479,51483 199456,55403 C 199257,55768 199024,56000 198825,56299 L 161026,101372 L 123560,58525 C 123261,58060 122962,57728 122563,57329 C 118611,53144 116419,47763 116419,42083 C 116452,29927 126416,19995 138606,19995 C 144087,19995 149368,22055 153553,25908 C 155446,27668 157871,28532 160262,28532 C 162687,28532 165112,27668 167005,25908 C 171157,22055 176471,19995 181952,19995 Z M 138606,33 C 115356,33 96490,18899 96490,42083 C 96490,52446 100342,62311 107218,70117 C 107417,70349 107517,70615 107783,70814 L 153686,123327 C 155612,125453 158336,126682 161226,126682 L 161325,126682 C 164248,126649 167005,125353 168898,123128 L 215133,67891 C 215632,67360 216030,66696 216396,66031 C 221411,58857 223969,50686 223969,42083 C 223969,18866 205036,33 181852,33 C 174213,33 166772,2093 160262,6078 C 153686,2159 146246,33 138606,33 Z M 263661,119375 C 266085,119375 268510,120205 270503,121899 C 274788,125785 275286,132295 271433,136746 L 223736,194407 C 215997,204006 206564,208324 193311,208324 L 125088,208324 C 113595,208324 106354,209686 99080,216894 L 97552,218422 L 55801,176704 C 55237,176139 54572,175707 53974,175209 C 60385,164182 71678,155745 87588,149999 C 93434,147906 99313,147176 104793,147176 C 118910,147176 130236,152224 130402,152291 C 131199,152689 132129,152822 133092,152822 L 195503,152822 C 201250,152822 205866,157505 205866,163185 C 205866,168898 201183,173548 195503,173548 L 149833,173548 C 146279,173548 143422,176405 143422,179959 C 143422,183546 146246,186369 149833,186369 L 195503,186369 C 208291,186369 218687,176006 218687,163185 C 218687,162488 218555,161956 218488,161259 L 255888,122929 C 257914,120570 260804,119375 263661,119375 Z M 38463,189458 C 39160,189458 40489,189624 41685,190787 L 84300,233402 C 86027,235195 86027,238052 84300,239845 L 70283,253829 C 69120,255025 67825,255158 67094,255158 C 66397,255158 65068,255025 63872,253829 L 21258,211214 C 20128,210052 19995,208723 19995,208025 C 19995,207328 20195,205999 21258,204804 L 35274,190787 C 36470,189624 37732,189458 38463,189458 Z M 263594,106620 C 257184,106620 250840,109277 246422,114359 L 213240,148537 C 208922,143456 202678,140134 195503,140134 L 134355,140134 C 130502,138540 118976,134421 104860,134421 C 98084,134421 90710,135384 83303,138042 C 63839,144983 50022,155845 42183,170127 C 40921,169961 39659,169861 38397,169861 C 32086,169861 25742,172153 21158,176737 L 7141,190754 C 2524,195404 0,201549 0,208059 C 0,214635 2524,220780 7141,225430 L 49756,267979 C 54406,272629 60584,275153 67094,275153 C 73638,275153 79816,272629 84399,267979 L 98416,254028 C 105026,247418 106952,238052 104461,229715 L 108181,226028 C 111768,222374 114725,221245 125088,221245 L 193311,221245 C 210350,221245 223570,215134 233701,202578 L 281132,145116 C 289535,135418 288539,120703 278873,112333 C 274455,108513 269008,106620 263594,106620 Z" fill="#29B5E8" />
</svg>