<?xml version="1.0" encoding="utf-8"?>
<svg xmlns="http://www.w3.org/2000/svg" viewBox="0 0 313446 206741">
  <path d="M 313444,103239 L 313444,102437 L 313444,101637 L 313444,92834 L 312110,75228 L 309444,58421 L 305442,42683 L 303041,35748 L 300108,28812 L 292905,16274 L 283034,6403 L 274232,1603 L 267295,269 L 263561,2 L 50152,2 L 46417,269 L 39481,1603 L 30679,6403 L 20808,16274 L 13606,28812 L 10672,35748 L 8271,42951 L 4269,58956 L 1601,76294 L 267,94435 L 2,103239 L 267,112308 L 1601,130448 L 4269,147787 L 8271,163792 L 10672,170995 L 13606,177930 L 20808,190469 L 30679,200338 L 39481,205140 L 46417,206474 L 50152,206741 L 263294,206741 L 263561,206741 L 263561,206741 L 263827,206741 L 263827,206741 L 267562,206474 L 274232,204874 L 283301,200338 L 292905,190469 L 300108,177930 L 303041,170995 L 305442,164059 L 309444,148320 L 312110,131515 L 313444,113909 L 313444,105105 L 313444,104305 Z M 263561,186734 L 261693,186467 L 257426,184600 L 255025,182199 L 252357,179264 L 247022,170995 L 244354,165393 L 241953,159524 L 237951,145653 L 235285,129914 L 233684,112575 L 233417,103239 L 233684,94168 L 235285,76829 L 237951,61089 L 241953,47218 L 244354,41349 L 247022,35748 L 252357,27478 L 255025,24543 L 257693,22142 L 261960,20009 L 263561,20009 L 265161,20009 L 269430,22142 L 272096,24543 L 274765,27478 L 280101,35748 L 282767,41349 L 284902,47218 L 288903,60557 L 291838,76029 L 293437,92834 L 293437,101905 L 293437,102704 L 293437,103239 L 293437,104038 L 293437,104838 L 293437,113909 L 291838,130714 L 288903,146186 L 284902,159524 L 282767,165393 L 280101,170995 L 274765,179264 L 272096,182199 L 269696,184600 L 265428,186467 L 263561,186734 L 263561,186734 L 263561,186734 Z M 233149,20009 L 229415,26411 L 225947,33347 L 223280,40550 L 218479,56555 L 215276,74161 L 213677,93368 L 213410,103239 L 213677,113375 L 215276,132582 L 218479,150188 L 223280,166193 L 225947,173396 L 229415,180331 L 233149,186734 L 50152,186734 L 47751,186467 L 42416,184066 L 37080,178732 L 32013,169928 L 29612,164059 L 27211,157923 L 23743,143785 L 20541,120310 L 20009,103239 L 20541,86432 L 23743,62958 L 27211,48819 L 29612,42683 L 32013,36815 L 37080,28011 L 42416,22677 L 47751,20276 L 50152,20009 Z" fill="#29B5E8" />
</svg>