<?xml version="1.0" encoding="utf-8"?>
<svg xmlns="http://www.w3.org/2000/svg" viewBox="0 0 427852 405135">
  <path d="M 426550,195252 C 426470,191700 424452,188471 421384,186695 L 376905,162074 L 423241,132207 C 426227,130269 428004,126959 427842,123407 C 427761,119855 425743,116626 422675,114931 L 217070,1271 C 214003,-424 210289,-424 207303,1271 L 5492,113882 C 2425,115577 487,118806 325,122358 C 164,125910 1940,129219 4927,131157 L 51101,161268 L 5169,186695 C 2020,188391 83,191700 3,195252 C -78,198804 1698,202194 4685,204051 L 49729,232628 L 5169,257329 C 2020,259024 83,262335 3,265886 C -78,269438 1698,272828 4685,274685 L 208191,403602 C 209805,404651 211743,405136 213600,405136 C 215456,405136 217393,404571 219008,403521 L 421949,274605 C 424936,272667 426712,269357 426631,265805 C 426550,262253 424532,259024 421464,257249 L 376986,232628 L 422030,204051 C 425016,202114 426793,198804 426712,195252 Z M 212146,21614 L 398055,124376 L 213761,243284 L 29952,123407 L 212146,21694 Z M 357450,244979 L 396683,266693 L 213518,383098 L 29790,266693 L 69103,244898 L 208110,332968 C 209725,334018 211662,334502 213518,334502 C 215375,334502 217313,333936 218927,332887 L 357450,244898 L 357450,244898 Z M 213518,312545 L 29790,196140 L 70233,173779 L 208191,263787 C 209886,264918 211823,265402 213680,265402 C 215537,265402 217474,264836 219169,263787 L 357612,174506 L 396683,196140 L 213518,312545 Z" fill="#29B5E8" />
</svg>