<?xml version="1.0" encoding="utf-8"?>
<svg xmlns="http://www.w3.org/2000/svg" viewBox="0 0 272351 272291">
  <path d="M 112304,99380 L 173303,134409 L 111942,170193 L 112304,99380 Z M 101705,70270 C 99863,70270 98051,70723 96390,71659 C 93069,73591 91045,77034 91015,80869 L 90502,188704 C 90502,192509 92495,196103 95817,198035 C 97477,198971 99319,199455 101131,199455 C 102973,199455 104815,198971 106537,198035 L 199968,143589 C 203259,141657 205252,138154 205252,134349 C 205313,130544 203289,127011 199968,125108 L 107020,71659 C 105359,70723 103517,70270 101705,70270 Z M 136160,21319 C 199485,21319 250971,72776 250971,136100 C 250971,199364 199485,250911 136160,250911 C 72897,250911 21380,199364 21380,136100 C 21380,72776 72897,21319 136160,21319 Z M 136160,0 C 61150,0 30,61090 30,136161 C 30,211171 61150,272291 136160,272291 C 211231,272291 272351,211171 272351,136161 C 272351,61029 211262,0 136160,0 Z" fill="#29B5E8" />
</svg>