<?xml version="1.0" encoding="utf-8"?>
<svg xmlns="http://www.w3.org/2000/svg" viewBox="0 0 263685 274193">
  <path d="M 153947,30 C 150142,30 147092,3110 147092,6855 L 147092,13468 C 138033,15733 132054,22618 132054,31828 C 132054,43484 139513,47168 148210,51426 L 152920,53751 C 161496,58040 161496,58372 161496,61240 C 161496,65981 156604,66676 153675,66706 C 150686,66706 145733,65981 145733,61271 C 145733,57466 142744,54416 138939,54416 C 135104,54416 132054,57526 132054,61271 C 132054,70753 138426,77728 148089,79721 L 148089,82439 C 148089,86244 151078,89294 154883,89294 C 158718,89294 161768,86214 161768,82439 L 161768,79027 C 169922,76490 175206,69847 175206,61240 C 175206,49494 167717,45810 159050,41552 L 154370,39166 C 145733,34999 145733,34636 145733,31828 C 145733,26966 150686,26272 153645,26272 C 157148,26272 161346,27208 161346,31828 C 161346,35573 164365,38623 168170,38623 C 171975,38623 175025,35542 175025,31828 C 175025,22859 169318,16035 160772,13649 L 160772,6855 C 160772,3020 157752,30 153947,30 Z M 91438,128098 C 89113,128098 87180,130030 87180,132355 C 87180,134741 89113,136613 91438,136613 L 212198,136613 C 214523,136613 216426,134741 216426,132355 C 216426,130030 214523,128098 212198,128098 Z M 99743,149447 C 97417,149447 95485,151380 95485,153705 C 95485,156091 97417,157963 99743,157963 L 203592,157963 C 205977,157963 207850,156091 207850,153705 C 207850,151380 205977,149447 203592,149447 Z M 108077,170827 C 105752,170827 103819,172699 103819,175085 C 103819,177410 105752,179313 108077,179313 L 195982,179313 C 198338,179313 200240,177410 200240,175085 C 200240,172699 198338,170827 195982,170827 Z M 10690,67733 C 4771,67733 0,72504 0,78362 L 0,95364 C 0,101222 4771,106023 10690,106023 C 16548,106023 21319,101222 21319,95364 L 21319,89052 L 34908,89052 L 80718,206973 C 82288,211050 86274,213738 90623,213738 L 215399,213738 C 219778,213738 223734,211050 225304,206913 L 262387,110191 C 263685,106929 263232,103245 261269,100346 C 259337,97417 256015,95756 252482,95756 L 80235,95756 C 74346,95756 69545,100527 69545,106386 C 69545,112304 74346,117076 80235,117076 L 236990,117076 L 208061,192448 L 97931,192448 L 52061,74497 C 50490,70420 46565,67733 42156,67733 Z M 120277,232792 C 127887,232792 134077,239043 134077,246653 C 134077,254323 127856,260514 120277,260514 C 112667,260514 106416,254323 106416,246653 C 106416,239043 112576,232792 120277,232792 Z M 185775,232792 C 193415,232792 199606,239043 199606,246653 C 199606,254323 193415,260514 185775,260514 C 178166,260514 171945,254323 171945,246653 C 171945,239043 178135,232792 185775,232792 Z M 120367,219173 C 120337,219173 120307,219173 120277,219173 C 105087,219173 92737,231494 92737,246653 C 92737,261872 105087,274193 120277,274193 C 135376,274193 147726,261782 147726,246653 C 147726,231494 135436,219173 120367,219173 Z M 185745,219173 C 170556,219173 158205,231494 158205,246653 C 158205,261872 170556,274193 185745,274193 C 200904,274193 213225,261782 213225,246653 C 213225,231464 200904,219173 185745,219173 Z" fill="#29B5E8" />
</svg>