<?xml version="1.0" encoding="utf-8"?>
<svg xmlns="http://www.w3.org/2000/svg" viewBox="0 0 263866 258658">
  <path d="M 230938,173842 L 230938,126328 C 230938,120712 226397,116159 220796,116159 L 141991,116159 L 141991,84816 C 165010,79200 179129,55935 173527,32853 C 167927,9771 144727,-4387 121708,1229 C 98691,6846 84571,30111 90172,53192 C 93964,68816 106128,81014 121708,84816 L 121708,116159 L 42904,116159 C 37302,116159 32762,120712 32762,126328 L 32762,173842 C 9744,179459 -4375,202724 1226,225805 C 6827,248888 30028,263046 53045,257429 C 76063,251813 90183,228548 84581,205466 C 80790,189842 68625,177644 53045,173842 L 53045,136498 L 210821,136498 L 210821,173842 C 187803,179459 173684,202724 179285,225805 C 184886,248888 208086,263046 231104,257429 C 254122,251813 268241,228548 262640,205466 C 258848,189842 246685,177644 231104,173842 Z M 65515,215521 C 65515,228043 55391,238195 42904,238195 C 30416,238195 20293,228043 20293,215521 C 20293,202999 30416,192848 42904,192848 C 55391,192848 65515,202999 65515,215521 Z M 109239,43137 C 109239,30615 119363,20463 131850,20463 C 144338,20463 154461,30615 154461,43137 C 154461,55659 144338,65810 131850,65810 C 119363,65810 109239,55659 109239,43137 Z M 220796,238195 C 208309,238195 198186,228043 198186,215521 C 198186,202999 208309,192848 220796,192848 C 233284,192848 243407,202999 243407,215521 C 243407,228043 233284,238195 220796,238195 Z" fill="#29B5E8" />
</svg>