<?xml version="1.0" encoding="utf-8"?>
<svg xmlns="http://www.w3.org/2000/svg" viewBox="0 0 233072 231155">
  <path d="M 215737,73017 C 211041,74573 208494,79642 210050,84340 C 210059,84364 210067,84388 210075,84413 C 214688,98126 216158,112702 214376,127059 C 208072,180644 159524,218973 105940,212669 C 84208,210113 63962,200334 48450,184901 L 62785,184901 C 67733,184901 71744,180890 71744,175941 C 71744,170992 67733,166982 62785,166982 L 27306,166982 C 22358,166982 18347,170992 18347,175941 L 18347,210918 C 18347,215866 22358,219877 27306,219877 C 32254,219877 36266,215866 36266,210918 L 36266,197945 C 81814,242747 155057,242143 199858,196596 C 230401,165545 240915,119971 227062,78679 C 225463,74019 220425,71499 215737,73017 Z" fill="#29B5E8" />
  <path d="M 14548,158452 C 15496,158450 16439,158304 17344,158022 C 22041,156466 24587,151396 23031,146700 C 23022,146675 23014,146650 23005,146625 C 6005,95378 33768,40053 85016,23053 C 98622,18539 113054,17074 127292,18759 C 146733,21089 165019,29232 179757,42124 L 165422,42124 C 160473,42124 156463,46136 156463,51084 C 156463,56032 160473,60043 165422,60043 L 200829,60043 C 205777,60043 209788,56032 209788,51084 L 209788,15963 C 209788,11015 205777,7004 200829,7004 C 195881,7004 191870,11015 191870,15963 L 191870,29008 C 150102,-7982 87852,-9792 44006,24708 C 5682,54984 -9517,106056 6019,152359 C 7253,156015 10690,158469 14548,158452 Z" fill="#29B5E8" />
</svg>