<?xml version="1.0" encoding="utf-8"?>
<svg xmlns="http://www.w3.org/2000/svg" viewBox="0 0 416239 416193">
  <path d="M 278759,259013 L 162949,259013 C 159244,259013 155961,256761 154601,253290 L 111776,143203 L 97610,143203 L 97610,150051 C 97610,154976 93623,159010 88651,159010 C 83726,159010 79692,155023 79692,150051 C 79692,150051 79692,150051 79692,150051 L 79692,134244 C 79692,129319 83679,125285 88651,125285 L 117874,125285 C 121579,125285 124862,127536 126223,130961 L 169094,241095 L 272615,241095 L 300195,169235 L 153287,169235 C 148362,169235 144328,165248 144328,160276 C 144328,155351 148315,151317 153287,151317 C 153287,151317 153287,151317 153287,151317 L 313188,151317 C 318113,151317 322147,155304 322147,160276 C 322147,161355 321959,162434 321537,163466 L 287108,253243 C 285795,256714 282465,259013 278759,259013 Z M 190436,276415 C 197519,276415 203288,282184 203288,289267 C 203288,296350 197519,302119 190436,302119 C 183353,302119 177584,296350 177584,289267 L 177584,289267 C 177584,282137 183353,276415 190436,276415 M 190436,264970 C 177021,264970 166139,275852 166092,289267 C 166092,302682 176974,313564 190390,313610 C 203804,313610 214687,302729 214733,289313 C 214733,289313 214733,289313 214733,289313 C 214733,275852 203851,264970 190436,264970 Z M 251273,276415 C 258356,276415 264125,282184 264125,289267 C 264125,296350 258356,302119 251273,302119 C 244190,302119 238421,296350 238421,289267 L 238421,289267 C 238421,282137 244190,276415 251273,276415 M 251273,264970 C 237858,264970 226976,275852 226976,289267 C 226976,302682 237858,313564 251273,313564 C 264688,313564 275570,302682 275570,289267 C 275570,275852 264688,264970 251273,264970 Z M 260701,227633 L 179179,227633 C 177209,227726 175567,226178 175473,224209 C 175380,222239 176927,220597 178898,220503 C 178991,220503 179085,220503 179179,220503 L 260701,220503 C 262671,220409 264312,221957 264406,223927 C 264500,225897 262952,227539 260982,227633 C 260888,227633 260794,227633 260701,227633 Z M 267830,207839 L 171440,207839 C 169470,207745 167922,206103 168015,204133 C 168062,202257 169610,200756 171440,200709 L 267830,200709 C 269800,200803 271348,202444 271254,204414 C 271207,206244 269706,207745 267830,207839 Z M 275804,187998 L 163700,187998 C 161730,188091 160088,186543 159995,184573 C 159901,182604 161449,180962 163419,180868 C 163512,180868 163606,180868 163700,180868 L 275804,180868 C 277774,180962 279322,182604 279228,184573 C 279181,186450 277680,187951 275804,187998 Z M 208120,416193 C 93342,416193 0,322851 0,208120 C 0,93389 93342,0 208120,0 C 322897,0 416239,93342 416239,208120 C 416239,322898 322850,416193 208120,416193 Z M 208120,17730 C 103145,17730 17730,103145 17730,208120 C 17730,313095 103145,398510 208120,398510 C 313094,398510 398509,313095 398509,208120 C 398509,103145 313094,17730 208120,17730 L 208120,17730 Z" fill="#29B5E8" />
</svg>