<?xml version="1.0" encoding="utf-8"?>
<svg xmlns="http://www.w3.org/2000/svg" viewBox="0 0 264275 231194">
  <path d="M 34671,189426 L 139663,189426 C 145295,189426 149860,184861 149860,179229 C 149860,173596 145295,169031 139663,169031 L 34671,169031 C 26786,169031 20395,162640 20395,154755 L 20395,66568 L 242288,66568 L 242288,116250 C 242288,121882 246854,126447 252486,126447 C 258118,126447 262683,121882 262683,116250 L 262683,34671 C 262638,15541 247142,45 228012,0 L 34671,0 C 15523,0 0,15523 0,34670 C 0,34725 0,34780 1,34834 L 1,154755 C 1,173903 15523,189426 34671,189426 Z M 20395,34834 C 20215,26951 26459,20415 34341,20235 C 34451,20233 34561,20232 34671,20232 L 228012,20232 C 235897,20232 242288,26623 242288,34508 L 242288,53189 L 20395,53189 Z" fill="#29B5E8" />
  <path d="M 46745,36955 C 46745,40830 43604,43971 39729,43971 C 35855,43971 32714,40830 32714,36955 C 32714,33081 35855,29939 39729,29939 C 43604,29939 46745,33081 46745,36955 Z" fill="#29B5E8" />
  <path d="M 62164,29939 C 58244,29895 55030,33036 54985,36955 C 54941,40875 58082,44088 62001,44133 C 65921,44178 69134,41037 69179,37118 C 69180,37063 69180,37009 69179,36955 C 69135,33099 66020,29984 62164,29939 Z" fill="#29B5E8" />
  <path d="M 238536,186163 C 252981,165697 248099,137396 227633,122950 C 220941,118227 213093,115404 204926,114782 C 193024,113916 181272,117853 172295,125713 C 153252,142059 151066,170746 167412,189788 C 175253,198923 186397,204572 198400,205497 L 201826,205497 C 208780,205453 215625,203777 221812,200602 L 244736,227360 C 246611,229564 249277,230941 252160,231194 L 253057,231194 C 255807,231155 258448,230110 260481,228257 C 265054,224316 265565,217413 261624,212840 C 261624,212840 261623,212839 261623,212839 Z M 222220,184694 C 208852,196306 188603,194881 176992,181514 C 176922,181432 176851,181350 176781,181268 C 165245,167663 166772,147316 180208,135584 C 185965,130395 193423,127494 201173,127426 L 203620,127426 C 212195,128020 220165,132051 225729,138602 C 237580,152180 236181,172793 222604,184645 C 222585,184661 222566,184678 222547,184694 Z" fill="#29B5E8" />
  <path d="M 219854,94794 C 219854,92542 218028,90716 215776,90716 L 44950,90716 C 42698,90716 40871,92542 40871,94794 C 40871,97047 42698,98873 44950,98873 L 215776,98873 C 218028,98873 219854,97047 219854,94794 Z" fill="#29B5E8" />
  <path d="M 151002,116494 L 44950,116494 C 42698,116494 40871,118321 40871,120573 C 40871,122826 42698,124652 44950,124652 L 151002,124652 C 153255,124652 155081,122826 155081,120573 C 155081,118321 153255,116494 151002,116494 Z" fill="#29B5E8" />
  <path d="M 44950,142600 C 42698,142600 40871,144427 40871,146679 C 40871,148931 42698,150758 44950,150758 L 135584,150758 C 137836,150758 139663,148931 139663,146679 C 139663,144427 137836,142600 135584,142600 Z" fill="#29B5E8" />
</svg>