<?xml version="1.0" encoding="utf-8"?>
<svg xmlns="http://www.w3.org/2000/svg" viewBox="0 0 253129 256379">
  <path d="M 101618,17825 C 50476,17825 17825,33651 17825,44479 C 17825,55307 50476,71216 101618,71216 C 152760,71216 185412,55390 185412,44479 C 185412,33568 152760,17825 101618,17825 Z" fill="none" />
  <path d="M 106783,215647 L 106783,215647 Z" fill="none" />
  <path d="M 101618,17825 C 50476,17825 17825,33651 17825,44479 C 17825,55307 50476,71216 101618,71216 C 152760,71216 185412,55390 185412,44479 C 185412,33568 152760,17825 101618,17825 Z" fill="none" />
  <path d="M 17825,70799 L 17825,92872 C 17825,103701 50476,119526 101618,119526 C 152760,119526 185412,103701 185412,92872 L 185412,70799 C 166087,82793 133769,89041 101618,89041 C 69467,89041 37149,82793 17825,70799 Z" fill="none" />
  <path d="M 203320,122275 L 203320,122275 Z" fill="#29B5E8" />
  <path d="M 101618,0 C 51142,0 0,15243 0,44479 L 0,189410 C 0,218646 51142,233971 101618,233971 C 114228,233928 126817,232898 139267,230890 L 139267,230890 C 139766,230935 140267,230935 140767,230890 C 141475,230841 142174,230700 142849,230473 C 146147,229018 148271,225748 148262,222144 L 148262,221144 C 147712,216603 143842,213198 139267,213231 L 137934,213231 L 136268,213231 C 131687,213731 121858,214897 112446,215481 C 110364,215481 108448,215481 106283,215481 L 101369,215481 C 50226,215481 17575,199738 17575,188826 L 17575,167337 C 36899,179414 69217,185578 101369,185578 C 118919,185819 136433,183889 153510,179831 L 152011,179831 L 151261,179831 C 155524,179626 159032,176400 159591,172168 C 159631,171752 159631,171334 159591,170918 C 159683,166043 155806,162016 150930,161924 C 150901,161924 150873,161923 150845,161923 L 148179,162422 L 148179,162422 C 132832,166129 117070,167838 101285,167503 C 50143,167503 17491,151677 17491,140849 L 17491,119110 C 36816,131188 69134,137351 101285,137351 C 133437,137351 165754,131188 185078,119110 L 185078,122692 C 185047,127613 189011,131629 193933,131660 C 196290,131676 198557,130756 200238,129105 C 201271,128031 202017,126713 202404,125274 C 202657,124575 202825,123848 202903,123107 L 202903,44479 C 203320,15243 152177,0 101618,0 Z M 185411,92872 C 185411,103701 152760,119526 101618,119526 C 50476,119526 17825,103701 17825,92872 L 17825,70799 C 37149,82793 69467,89041 101618,89041 C 133769,89041 166087,82793 185411,70799 Z M 101618,71216 C 50476,71216 17825,55390 17825,44479 C 17825,33568 50476,17825 101618,17825 C 152760,17825 185411,33651 185411,44479 C 185411,55306 152760,71216 101618,71216 Z" fill="#29B5E8" />
  <path d="M 204903,202403 C 198366,202153 192772,207052 192158,213564 L 192158,225808 C 192812,232300 198381,237178 204903,236970 C 211362,237053 216836,232229 217563,225808 L 217563,213564 C 216912,207105 211393,202239 204903,202403 Z M 207151,223309 C 207151,223309 207151,225392 204819,225392 C 202487,225392 202487,223643 202487,223309 L 202487,216063 C 202487,215397 202487,213981 204819,213981 C 207151,213981 207151,215647 207151,216063 Z" fill="#29B5E8" />
  <path d="M 240053,184662 L 240053,172917 C 239825,155163 225245,140954 207490,141182 C 207488,141182 207486,141182 207484,141182 L 202653,141182 C 184837,140904 170155,155101 169836,172917 L 169836,184662 C 161995,187803 156829,195372 156759,203819 L 156759,235554 C 156896,247192 166442,256515 178078,256377 C 178080,256377 178081,256377 178082,256377 L 231723,256377 C 243376,256517 252947,247206 253130,235554 L 253130,203819 C 253037,195379 247879,187822 240053,184662 Z M 185412,172917 C 185682,163721 193357,156486 202553,156755 C 202587,156756 202620,156758 202653,156758 L 207484,156758 C 216494,156754 223874,163913 224143,172917 L 224143,182996 L 185245,182996 Z M 237304,235554 C 237084,238458 234636,240688 231723,240635 L 178165,240635 C 175132,240776 172559,238432 172419,235400 C 172418,235395 172418,235391 172418,235388 L 172418,203819 C 172504,200831 174997,198478 177986,198564 C 178046,198566 178106,198568 178165,198572 L 231723,198572 C 234708,198387 237277,200656 237462,203640 C 237467,203699 237469,203759 237470,203819 Z" fill="#29B5E8" />
</svg>