<?xml version="1.0" encoding="utf-8"?>
<svg xmlns="http://www.w3.org/2000/svg" viewBox="0 0 254867 226662">
  <path d="M 174270,30 C 174089,30 174028,60 173938,60 C 173364,60 172881,242 172277,332 C 171703,483 171069,513 170495,725 C 170344,785 170133,876 169921,966 C 169378,1178 168925,1600 168472,1902 C 168019,2204 167566,2295 167204,2657 L 135647,30288 C 131208,34153 130755,40918 134621,45357 C 136734,47772 139694,48980 142653,48980 C 145159,48980 147696,48195 149719,46383 L 163489,34244 L 163489,181668 C 163489,187647 168261,192388 174209,192388 C 180189,192388 184930,187556 184930,181668 L 184930,34546 L 202897,50520 C 204981,52302 207517,53208 210054,53208 C 212953,53208 215882,52000 217966,49614 C 221922,45175 221529,38441 217090,34546 L 181396,2718 C 181064,2355 180521,2265 180189,1993 C 179645,1691 179192,1238 178709,997 C 178467,966 178286,876 178075,785 C 177531,574 176897,513 176323,423 C 175750,302 175146,60 174602,60 C 174481,60 174391,30 174270,30 Z M 80507,60 C 80416,60 80265,121 80144,121 C 79540,121 79027,332 78423,483 C 77849,574 77306,664 76671,876 C 76460,906 76279,966 76068,1087 C 75554,1329 75101,1782 74618,2053 C 74225,2295 73712,2446 73320,2748 L 37626,34606 C 33187,38532 32794,45266 36720,49675 C 38834,52030 41763,53238 44662,53238 C 47169,53238 49735,52362 51789,50551 L 69726,34606 L 69726,181728 C 69726,187647 74497,192448 80446,192448 C 86335,192448 91136,187677 91136,181728 L 91136,34425 L 105933,47501 C 107926,49312 110493,50188 112999,50188 C 115958,50188 118918,48950 121032,46534 C 124927,42125 124474,35391 120035,31466 L 87573,2718 C 87180,2355 86727,2265 86274,1993 C 85821,1631 85368,1238 84885,997 C 84674,906 84493,876 84251,785 C 83677,574 83043,513 82469,423 C 81896,302 81382,121 80839,121 C 80718,121 80627,60 80507,60 Z M 210567,98323 C 204709,98323 199847,103124 199847,109043 L 199847,215882 C 199847,221770 204649,226571 210567,226571 C 216546,226571 221287,221800 221287,215882 L 221287,119703 L 244117,119703 C 250005,119703 254837,114901 254837,108983 C 254716,103124 249945,98323 244086,98323 Z M 10720,98323 C 4832,98323 0,103124 0,109043 C 0,114901 4771,119763 10720,119763 L 33549,119763 L 33549,215942 C 33549,221800 38290,226662 44209,226662 C 50128,226662 54929,221861 54929,215942 L 54929,109073 C 54839,103124 50037,98323 44179,98323 Z" fill="#29B5E8" />
</svg>