<?xml version="1.0" encoding="utf-8"?>
<svg xmlns="http://www.w3.org/2000/svg" viewBox="0 0 366757 245938">
  <path d="M 272586,43971 C 264789,43971 257996,48392 254459,54903 C 256428,55586 258237,56390 260006,57154 C 262618,52934 267240,49999 272586,49999 C 280705,49999 287417,56671 287417,64790 C 287417,71583 282755,77290 276485,78938 L 276485,85168 C 286091,83279 293365,74879 293365,64750 C 293365,53295 284001,43971 272586,43971 Z M 218929,64429 C 244773,64429 261854,72507 261854,77732 C 261854,83078 244732,91116 218929,91116 C 193165,91116 176084,83078 176084,77732 C 176084,72507 193206,64429 218929,64429 Z M 272626,25683 C 271300,25683 270014,25723 268727,25804 L 266678,26045 L 264789,32636 C 263100,32998 261573,33521 260086,34123 L 254700,29943 L 252972,30948 C 250681,32315 248591,33882 246621,35611 L 245134,36937 L 247466,43368 C 246380,44614 245456,45980 244531,47387 L 237739,47266 L 236975,49115 C 236734,49638 236654,50241 236453,50763 C 240472,51366 244491,52089 248269,53094 L 248832,51969 C 249998,49879 251404,48030 253012,46181 L 254338,44855 L 252208,38906 C 252851,38344 253575,37741 254338,37339 L 259363,41238 L 260970,40393 C 263060,39389 265391,38665 267723,38223 L 269491,37942 L 271300,31792 C 271742,31752 272184,31752 272626,31752 C 273068,31752 273510,31752 273993,31792 L 275761,37942 L 277570,38223 C 279821,38665 282152,39429 284282,40393 L 285970,41238 L 290994,37339 C 291718,37861 292481,38344 293124,38906 L 290994,44855 L 292240,46181 C 293848,47950 295295,49879 296420,51969 L 297304,53577 L 303655,53456 C 303936,54300 304217,55144 304459,55948 L 299234,59525 L 299475,61334 C 299635,62540 299716,63705 299716,64911 C 299716,66117 299635,67322 299475,68488 L 299234,70297 L 304459,73874 C 304217,74758 303936,75602 303655,76446 L 297304,76245 L 296420,77933 C 295295,80023 293848,81872 292240,83641 L 290994,84967 L 293124,90956 C 292481,91478 291718,92081 290994,92563 L 285970,88665 L 284282,89428 C 282152,90514 279941,91157 277570,91639 L 276485,91840 L 276485,103938 L 278494,103697 L 280423,97145 C 282071,96784 283639,96261 285126,95658 L 290512,99838 L 292240,98833 C 294571,97427 296661,95899 298550,94171 L 300037,92845 L 297746,86414 C 298791,85168 299756,83761 300640,82395 L 307473,82596 L 308277,80747 C 309322,78295 310126,75843 310729,73271 L 311171,71342 L 305624,67483 C 305745,66398 305745,65634 305745,64790 C 305745,63946 305745,63142 305664,62339 L 311291,58480 L 310809,56511 C 310246,53979 309483,51446 308357,49035 L 307513,47186 L 300721,47387 C 299836,45980 298872,44614 297867,43368 L 300118,36937 L 298631,35611 C 296701,33882 294571,32315 292280,30948 L 290552,29943 L 285206,34123 C 283719,33521 282071,32998 280544,32636 L 278575,26045 L 276525,25804 C 275239,25723 273952,25683 272626,25683 Z M 261854,92001 L 261854,97306 C 261854,102652 244732,110690 218929,110690 C 193165,110690 176084,102652 176084,97306 L 176084,92001 C 186252,97989 202651,101124 218929,101124 C 235287,101124 251726,98030 261854,92001 Z M 261854,111534 L 261854,118287 C 261854,123592 244732,131630 218929,131630 C 193165,131630 176084,123592 176084,118287 L 176084,111534 C 186252,117483 202651,120658 218929,120658 C 235287,120658 251726,117603 261854,111534 Z M 261854,132555 L 261854,138343 C 261854,143688 244853,151687 219250,151687 C 219130,151687 219049,151687 218929,151687 C 193165,151687 176084,143648 176084,138343 L 176084,132555 C 186252,138503 202651,141598 218929,141598 C 235287,141598 251726,138584 261854,132555 Z M 218929,54782 C 192522,54782 166076,62419 166076,77732 L 166076,138343 C 166076,153656 192683,161735 218929,161735 C 245255,161735 271822,153736 271822,138343 L 271822,77732 C 271822,62419 245376,54782 218929,54782 Z M 44493,49035 C 42845,49035 41238,49839 40353,51326 C 38866,53577 39549,56752 41881,58159 L 95337,92362 C 104179,98271 109123,104541 110449,111695 C 111655,118045 111976,145738 111454,185890 L 111454,187136 C 111414,195456 108962,199636 104219,199636 C 102089,199636 95417,199636 95417,188744 C 95417,186011 95417,162096 95096,156349 L 95096,132233 C 95096,129500 92885,127209 90152,127209 C 87338,127209 85128,129500 85128,132233 L 85128,156068 C 84967,156831 84887,157595 84766,158158 C 84123,161172 81310,161534 79742,161534 C 79581,161534 79420,161534 79300,161534 C 78014,161494 76728,161132 75401,160529 C 75361,160529 75361,160408 75281,160408 C 73311,159645 72105,158278 71462,157233 C 71824,153133 72668,141920 72347,133680 C 72266,131028 70136,128857 67644,128857 C 67483,128857 67323,128897 67162,128897 C 64348,129018 62218,131349 62379,134082 C 62620,140714 62097,149677 61696,154580 C 60972,154661 60168,154741 59204,154741 C 57194,154741 54581,154379 51487,153053 C 50643,152531 50000,151687 49276,150963 C 49557,147386 49919,140232 49638,132876 C 49437,130304 47427,128094 44855,128094 C 44694,128094 44533,128094 44373,128134 C 41639,128295 39469,130585 39590,133359 C 39831,139468 39549,145617 39308,149195 C 38786,149275 38303,149315 37741,149315 C 36897,149315 35972,149195 35048,148873 C 31109,147466 28095,143889 26889,139106 C 26045,135770 26366,129058 26688,122145 C 26889,119452 27009,116679 27050,113745 C 27170,110972 24960,108681 22226,108600 C 22106,108600 21985,108600 21865,108600 C 20136,108600 18529,109726 17685,111333 L 8682,105063 C 7797,104420 6793,104099 5748,104099 C 4220,104099 2653,104862 1648,106229 C 40,108439 523,111574 2773,113182 L 16600,122989 C 16278,130746 15956,137016 17082,141558 C 19132,149556 24558,155826 31712,158318 C 33802,159082 35892,159444 37982,159444 C 39509,159444 41037,159243 42524,158841 C 43770,160047 45136,161011 46623,161895 C 46704,162016 46744,162016 46945,162096 C 46985,162137 47186,162137 47226,162217 C 51929,164267 55988,164830 59204,164830 C 61253,164830 62982,164588 64228,164428 C 65795,166276 68126,168366 71342,169773 C 73753,170858 76285,171582 78818,171702 C 79260,171743 79702,171743 80144,171743 C 82033,171743 83842,171421 85490,170778 C 85570,177048 85570,184001 85570,188945 C 85570,201766 92724,209644 104340,209644 C 108399,209644 121502,208036 121582,187257 L 121582,186091 C 121783,161735 122065,119533 120296,109927 C 118488,100120 111936,91398 100883,84123 L 100763,84123 L 47226,49799 C 46382,49276 45458,49035 44493,49035 Z M 105063,40 C 100642,40 97065,3617 97065,8039 L 97065,67322 C 97065,71703 100642,75281 105063,75281 C 109444,75281 113021,71703 113021,67322 L 113021,15956 L 349474,15956 L 349474,172185 L 139147,172185 C 134725,172185 131148,175681 131148,180103 C 131148,184524 134725,188101 139147,188101 L 332875,188101 L 283759,223872 L 58641,223872 L 74195,212458 C 77813,209845 78576,204821 76004,201244 C 74437,199074 72025,197988 69573,197988 C 67925,197988 66278,198471 64831,199516 L 29381,225359 C 25804,228615 25080,231308 25080,236814 C 25080,242602 30064,245938 34445,245938 L 287537,245938 C 289266,245938 290873,245415 292240,244370 L 362738,192803 C 365993,190432 366717,186011 364868,182595 C 364868,182474 364868,182434 364948,182353 C 365109,181831 365230,181308 365230,180706 C 365230,180505 365390,180344 365390,180103 L 365390,8039 C 365390,3617 361813,40 357392,40 Z" fill="#29B5E8" />
</svg>