<?xml version="1.0" encoding="utf-8"?>
<svg xmlns="http://www.w3.org/2000/svg" viewBox="0 0 207996 330704">
  <path d="M 116960,16439 C 124396,16439 130505,22588 130505,30064 L 130505,41519 L 130505,95216 L 130505,138423 L 103335,138423 L 103335,95216 L 103335,41519 L 103335,30064 C 103335,22588 109484,16439 116960,16439 Z M 160489,28054 C 161614,28054 162739,28175 163905,28456 C 169813,29863 174074,35852 174074,42725 L 174074,139629 C 171059,138986 168045,138544 164829,138544 L 146903,138544 L 146903,95417 L 146903,41680 C 146863,37339 148752,33440 152088,30908 C 154540,29019 157434,28054 160489,28054 Z M 29943,119412 C 37379,119412 43528,125561 43528,132997 L 43528,135167 L 43528,169894 C 43528,177370 37379,183519 29943,183519 C 22468,183519 16399,177370 16399,169894 L 16399,155384 L 16399,132997 C 16399,125561 22468,119412 29943,119412 Z M 73432,28014 C 80907,28014 87057,34123 87057,41559 L 87057,95296 L 87057,138503 L 86494,138503 C 81952,138503 78255,142161 78255,146743 L 78255,155987 C 78255,174556 93447,189709 111976,189709 L 139146,189709 L 139146,199556 L 112539,199556 C 88062,199556 66800,216919 61856,240793 C 60972,245215 63826,249515 68287,250480 C 68850,250600 69372,250641 69935,250641 C 73673,250641 77129,247988 77973,244089 C 81390,227731 95859,215834 112579,215834 L 147426,215834 C 151968,215834 155665,212216 155665,207675 L 155665,181469 C 155665,176927 151968,173310 147426,173310 L 112097,173310 C 102571,173310 94693,165553 94693,155867 L 94693,154862 L 164829,154862 C 179540,154862 191477,166799 191477,181469 L 191477,233559 C 191477,246099 188704,258478 183599,269853 L 23472,269853 C 18810,259121 16318,247706 16318,235850 L 16318,196461 C 20378,198551 24960,199918 29863,199918 C 46342,199918 59766,186493 59766,170014 L 59766,135208 L 59766,133077 L 59766,41559 L 59887,41559 C 59887,34123 65996,28014 73432,28014 Z M 181951,286211 L 181951,314386 L 26005,314386 L 26005,286211 Z M 116960,40 C 105184,40 95176,6913 90192,16760 C 85449,13464 79661,11616 73432,11616 C 56953,11616 43528,25040 43528,41519 L 43528,106349 C 39429,104259 34887,102933 29943,102933 C 13464,102933 40,116357 40,132836 L 40,155223 L 40,169773 L 40,235609 C 40,250761 3296,265271 9686,278896 L 9686,322465 C 9686,327046 13384,330704 17926,330704 L 190231,330704 C 194813,330704 198470,327046 198470,322465 L 198470,278052 C 198470,277730 198310,277489 198310,277208 C 204499,263462 207956,248551 207956,233478 L 207956,181469 L 207795,181469 C 207795,167402 200842,154982 190432,147105 L 190432,42604 C 190432,28215 180866,15555 167723,12460 C 165392,11897 163061,11616 160730,11616 C 154701,11616 148793,13464 143728,16921 C 138865,6953 128696,40 116960,40 Z" fill="#29B5E8" />
</svg>