<?xml version="1.0" encoding="utf-8"?>
<svg xmlns="http://www.w3.org/2000/svg" viewBox="0 0 253120 286030">
  <path d="M 243167,64213 L 136514,2650 C 130392,-884 122728,-884 116607,2650 L 9954,64213 C 3832,67747 0,74366 0,81433 L 0,204610 C 0,211677 3832,218296 9954,221829 L 116607,283392 C 119692,285184 123126,286031 126560,286031 C 129994,286031 133428,285134 136514,283392 L 243167,221829 C 249288,218296 253121,211677 253121,204610 L 253121,81433 C 253121,74366 249288,67747 243167,64213 Z M 233213,204610 L 126560,266173 L 19907,204610 L 19907,81433 L 126560,19870 L 233213,81433 L 233213,204610 Z" fill="#29B5E8" />
  <path d="M 126560,70484 C 87044,70484 54546,101191 51659,140010 L 36778,140010 C 33344,140010 30557,142797 30557,146232 C 30557,149666 33344,152453 36778,152453 L 82366,152453 C 83710,161660 87840,170468 94907,177536 C 103617,186245 115064,190625 126560,190625 C 132134,190625 137708,189579 142934,187539 L 145671,190277 L 173790,218545 C 177174,221929 181653,223770 186431,223770 C 191209,223770 195688,221929 199022,218545 L 199371,218196 C 206338,211229 206338,199931 199371,192964 L 171301,164746 L 168365,161809 C 169510,158823 170306,155687 170754,152502 L 216341,152502 C 219776,152502 222563,149715 222563,146281 C 222563,142847 219776,140061 216341,140061 L 201461,140061 C 198574,101241 166125,70534 126560,70534 Z M 103717,168777 C 91125,156185 91125,135681 103717,123089 C 109838,116968 117950,113633 126560,113633 C 135170,113633 143282,117018 149403,123089 C 155525,129211 158860,137273 158860,145933 C 158860,154593 155525,162655 149403,168777 C 136812,181368 116308,181368 103717,168777 Z M 190611,201773 C 192702,203863 192702,207297 190611,209387 L 190213,209786 C 189168,210831 187775,211378 186431,211378 C 185087,211378 183693,210831 182648,209786 L 154530,181517 L 162542,173504 L 190661,201723 Z M 170854,140061 C 169559,130356 165230,121347 158163,114330 C 149702,105870 138454,101241 126510,101241 C 114566,101241 103318,105919 94858,114330 C 87641,121547 83461,130654 82217,140061 L 64051,140061 C 66938,108109 93813,82976 126510,82976 C 159208,82976 185933,107960 188969,140061 L 170804,140061 Z" fill="#29B5E8" />
</svg>