<?xml version="1.0" encoding="utf-8"?>
<svg xmlns="http://www.w3.org/2000/svg" viewBox="0 0 248253 208008">
  <path d="M 35798,26684 C 32641,26684 30115,29210 30115,32394 C 30115,35524 32641,38104 35798,38104 C 38955,38104 41508,35524 41508,32394 C 41508,29210 38955,26684 35798,26684 Z M 58556,26684 C 55427,26684 52846,29210 52846,32394 C 52846,35524 55427,38104 58556,38104 C 61741,38104 64266,35524 64266,32394 C 64266,29210 61741,26684 58556,26684 Z M 81314,26684 C 78157,26684 75604,29210 75604,32394 C 75604,35524 78157,38104 81314,38104 C 84444,38104 87024,35524 87024,32394 C 87024,29210 84444,26684 81314,26684 Z M 228789,19491 L 228789,45846 L 19464,45846 L 19464,19491 Z M 92487,95535 L 92487,113599 L 47795,113599 L 47795,95535 Z M 147585,95535 L 147585,113599 L 100257,113599 L 100257,95535 Z M 200046,95535 L 200046,113599 L 155326,113599 L 155326,95535 Z M 92487,121340 L 92487,139075 L 47767,139075 L 47767,121340 Z M 200046,121340 L 200046,139075 L 155326,139075 L 155326,121340 Z M 147557,121423 L 147557,139157 L 100229,139157 L 100229,121423 Z M 92487,146844 L 92487,163947 L 47767,163947 L 47767,146844 Z M 147585,146844 L 147585,163947 L 100257,163947 L 100257,146844 Z M 200046,146844 L 200046,163947 L 155326,163947 L 155326,146844 Z M 41563,71898 C 38132,71898 35359,74671 35359,78075 L 35359,170178 C 35359,173582 38132,176355 41563,176355 L 206251,176355 C 209682,176355 212455,173582 212455,170178 L 212455,78075 C 212482,74616 209682,71898 206251,71898 Z M 228789,58227 L 228789,188544 L 19464,188544 L 19464,58227 Z M 9773,27 C 4420,27 27,4338 27,9746 L 27,198290 C 27,203643 4392,208008 9773,208008 L 238507,208008 C 243888,208008 248253,203670 248253,198290 L 248253,9746 C 248198,4420 243888,27 238507,27 Z" fill="#29B5E8" />
</svg>