<?xml version="1.0" encoding="utf-8"?>
<svg xmlns="http://www.w3.org/2000/svg" viewBox="0 0 221981 243174">
  <path d="M 99021,19436 C 150522,19436 178606,35661 178606,44006 C 178606,52379 150522,68549 99021,68549 C 47575,68549 19491,52379 19491,44006 C 19491,35661 47548,19436 99021,19436 Z M 150550,127379 C 157440,127379 162299,133748 162299,142012 C 162299,150220 157440,156534 150550,156534 C 143714,156534 138937,150247 138937,142012 C 138937,133694 143714,127379 150550,127379 Z M 173582,121862 L 173582,161942 L 197850,161942 L 197850,156122 L 180226,156122 L 180226,121862 Z M 114559,121065 C 105637,121065 100915,125595 100915,132486 C 100915,138717 104704,141765 113049,144427 C 119693,146624 121011,148216 121011,151263 C 121011,154530 119089,156809 114450,156809 C 108492,156809 104155,152938 104155,152938 L 100531,157962 C 100531,157962 105061,162930 114642,162930 C 123866,162930 128423,157577 128423,150742 C 128423,144537 124991,140996 116042,138223 C 109947,136219 108273,134929 108273,132156 C 108273,128917 110524,127187 114559,127187 C 120352,127187 123811,130509 123811,130509 L 127435,125128 C 127435,125128 123783,121065 114559,121065 Z M 150550,121010 C 139459,121010 132129,130262 132129,142012 C 132129,153542 139459,162930 150550,162930 C 151648,162930 152663,162876 153624,162683 L 157193,169574 L 164550,169574 L 159636,160570 C 165566,156973 169107,150000 169107,142012 C 169107,130262 161778,121010 150550,121010 Z M 200897,108053 C 205674,108053 209545,111924 209545,116646 L 209545,168421 C 209545,173198 205619,177068 200897,177068 L 97429,177068 C 92680,177068 88809,173198 88809,168421 L 88809,116646 C 88809,111924 92680,108053 97429,108053 Z M 178606,71212 L 178606,95617 L 97429,95617 C 85789,95617 76373,105033 76373,116646 L 76373,168421 C 76373,180061 85789,189504 97429,189504 L 178606,189504 L 178606,199168 C 178606,207513 150522,223710 99021,223710 C 47575,223710 19491,207513 19491,199168 L 19491,71212 C 38488,82303 68851,88040 99021,88040 C 129246,88040 159636,82330 178606,71212 Z M 98994,27 C 49771,27 0,15154 0,44006 L 0,199168 C 0,228075 49771,243147 98994,243147 C 148244,243147 198015,228020 198015,199168 L 198015,189477 L 200897,189477 C 212510,189477 221981,180061 221981,168421 L 221981,116646 C 221981,105116 212510,95617 200897,95617 L 198015,95617 L 198015,44006 C 198015,15099 148244,27 98994,27 Z" fill="#29B5E8" />
</svg>