<?xml version="1.0" encoding="utf-8"?>
<svg xmlns="http://www.w3.org/2000/svg" viewBox="0 0 221505 256370">
  <path d="M 198441,108292 L 192047,108292 L 192047,10258 C 192047,4594 187519,3 181931,3 L 57786,3 C 54677,-71 51701,1286 49694,3695 L 1945,61121 C 632,62984 -50,65229 3,67520 L 3,246115 C -42,251733 4414,256325 9956,256370 C 10011,256371 10065,256371 10119,256370 L 181931,256370 C 187473,256414 192002,251898 192047,246280 C 192048,246225 192048,246170 192047,246115 L 192047,216581 L 198441,216581 C 211161,216536 221461,206094 221506,193201 L 221506,131673 C 221461,118779 211161,108337 198441,108292 Z M 50422,34951 L 50422,61531 L 28247,61531 Z M 171815,235861 L 20073,235861 L 20073,82040 L 60538,82040 C 66079,82086 70609,77568 70654,71950 C 70655,71895 70655,71840 70654,71785 L 70654,20512 L 171815,20512 L 171815,108292 L 77047,108292 C 64309,108292 53983,118760 53983,131673 L 53983,193201 C 53983,206114 64309,216581 77047,216581 L 171815,216581 Z M 208557,193201 C 208557,198864 204028,203455 198441,203455 L 77047,203455 C 71460,203455 66931,198864 66931,193201 L 66931,131673 C 66931,126009 71460,121418 77047,121418 L 198441,121418 C 204028,121418 208557,126009 208557,131673 Z" fill="#29B5E8" />
  <path d="M 96228,160468 C 89106,158088 87083,156530 87083,153248 C 87083,149966 89754,147259 94529,147259 C 98508,147202 102369,148634 105373,151279 L 109581,144799 C 105403,141210 99983,139466 94529,139958 C 84089,139958 78343,145373 78343,153576 C 78343,161780 82794,164569 92586,167769 C 100679,170394 101974,172199 101974,175973 C 101974,179746 99627,182536 94285,182536 C 89848,182413 85577,180797 82146,177941 L 77938,183930 C 82350,188001 88162,190152 94124,189919 C 101916,191007 109104,185485 110178,177587 C 110277,176861 110320,176130 110309,175398 C 110795,167933 106830,163749 96228,160468 Z" fill="#29B5E8" />
  <path d="M 158220,165144 C 159686,153002 151164,141953 139185,140467 C 127207,138981 116308,147620 114842,159762 C 114625,161549 114625,163357 114842,165144 C 113895,177748 123208,188745 135641,189704 C 135937,189727 136233,189744 136530,189755 C 137715,189881 138907,189881 140091,189755 L 144300,197959 L 152878,197959 L 147213,187295 C 154463,182380 158639,173973 158220,165144 Z M 136530,182372 C 128438,182372 122854,174907 122854,165144 C 122854,155382 128438,147752 136530,147752 C 144624,147752 150208,155300 150208,165144 C 150208,174989 144624,182126 136530,182126 Z" fill="#29B5E8" />
  <path d="M 172949,141025 L 165179,141025 L 165179,188688 L 193666,188688 L 193666,181715 L 172949,181715 L 172949,141025 Z" fill="#29B5E8" />
</svg>