<?xml version="1.0" encoding="utf-8"?>
<svg xmlns="http://www.w3.org/2000/svg" viewBox="0 0 257907 248621">
  <path d="M 54054,18406 C 52363,27055 50561,34484 48704,42134 C 46237,52363 43631,63008 41247,76868 C 40028,83909 33846,89619 27498,89619 C 24671,89619 22231,88566 20762,86708 C 19487,85101 19099,83049 19737,80748 C 23063,67443 26556,57685 30270,47263 C 33430,38559 36590,29494 39640,18406 Z M 84685,18378 C 83964,27526 83271,35260 82495,43271 C 81497,53444 80554,64033 79750,77866 C 79335,84324 74068,89619 67997,89619 C 65253,89619 62730,88566 61123,86653 C 60069,85433 58960,83243 59487,80000 C 61843,66694 64310,56410 66694,46403 C 68746,37893 70880,29051 72876,18378 Z M 119390,18406 L 119667,78420 L 119667,79252 C 119418,81857 118309,84324 116424,86292 C 114234,88427 111434,89619 108441,89619 C 105502,89619 102786,88510 100818,86376 C 98933,84408 97963,81774 98129,78974 C 98960,65475 99958,55052 100845,45017 C 101649,36895 102425,28468 103118,18406 Z M 154484,18378 C 155149,28302 155981,36618 156757,44712 C 157755,54858 158697,65308 159584,78919 C 159723,81774 158808,84408 156923,86376 C 154955,88510 152238,89619 149300,89619 C 143451,89619 138489,84906 138018,79168 L 138018,78337 L 137824,18378 Z M 185724,18378 C 187581,28718 189522,37339 191490,45738 C 193791,55828 196230,66279 198503,79778 C 199030,83160 197865,85350 196757,86653 C 195204,88566 192654,89619 189938,89619 C 183867,89619 178572,84324 178157,77727 C 177297,63784 176272,53195 175274,42911 C 174525,35288 173804,27526 173084,18378 Z M 219487,18378 C 222231,28912 225170,37755 228053,46237 C 231628,56854 235010,66833 238226,80360 C 238836,82827 238420,84990 237062,86708 C 235592,88566 233153,89619 230298,89619 C 223922,89619 217852,83853 216632,76784 C 214331,62675 211781,51975 209452,41580 C 207678,34068 206015,26778 204380,18378 Z M 121303,132779 L 121303,189051 L 63063,189051 L 63063,132779 Z M 57547,121691 C 54498,121691 52030,124158 52030,127207 L 52030,194511 C 52030,197505 54498,200000 57547,200000 L 126791,200000 C 129841,200000 132308,197505 132308,194511 L 132308,127207 C 132308,124158 129841,121691 126791,121691 Z M 209480,99764 C 211864,101899 214581,103590 217436,104893 L 217436,230159 L 205211,230159 L 205211,127180 C 205211,124158 202744,121691 199695,121691 L 149189,121691 C 146140,121691 143673,124158 143673,127180 L 143673,230187 L 41996,230187 L 41996,104172 C 44213,102924 46403,101538 48288,99848 C 53306,105059 60402,108080 67914,108080 C 75759,108080 82911,104976 88288,99875 C 93638,105059 100929,108080 108441,108080 C 116036,108080 123299,105114 128815,99848 C 134109,104893 141317,108080 149217,108080 C 156784,108080 164130,105059 169397,99764 C 174830,104893 181954,107997 189854,107997 C 197366,107997 204463,105031 209480,99764 Z M 194123,132779 L 194123,230187 L 154650,230187 L 154650,132779 Z M 32820,28 C 28358,28 24865,3188 24006,7346 L 23645,7346 C 20291,20735 16798,30603 13001,41053 C 9314,51393 5516,62037 1996,76202 C 0,83936 1580,91947 6292,98018 C 10450,103423 16687,106722 23645,107609 L 23645,239418 C 23645,244491 27748,248593 32848,248593 L 226722,248593 C 231822,248593 235953,244491 235953,239418 L 235953,107443 C 242162,106223 247678,103008 251504,98073 C 256244,92031 257879,83936 256050,76091 C 252668,61816 249009,50894 245461,40388 C 241996,30104 238697,20263 235620,7346 L 235454,7346 C 234594,3188 231102,28 226694,28 Z" fill="#29B5E8" />
</svg>