<?xml version="1.0" encoding="utf-8"?>
<svg xmlns="http://www.w3.org/2000/svg" viewBox="0 0 311810 222554">
  <path d="M 91018,133883 L 89255,135940 L 88963,137408 L 88963,152087 L 89255,153555 L 91018,155611 L 92486,155904 L 219030,155904 L 220498,155611 L 222553,153555 L 222847,152087 L 222847,137408 L 222553,135940 L 220498,133883 Z" fill="#29B5E8" />
  <path d="M 311808,174989 L 311808,102468 L 311808,98359 L 310048,89843 L 307405,81916 L 303000,74870 L 300358,71346 L 253381,16443 L 249564,12626 L 241637,6459 L 232243,2348 L 222259,0 L 216974,0 L 94540,0 L 89549,0 L 79567,2348 L 70172,6459 L 61950,12626 L 58427,16443 L 11450,71346 L 8808,74870 L 4405,81916 L 1468,89843 L 0,98359 L 0,102468 L 0,174989 L 0,179686 L 2056,189082 L 5579,197596 L 10570,205229 L 17029,211688 L 24663,216973 L 33471,220498 L 42572,222552 L 47565,222552 L 264245,222552 L 268942,222552 L 278338,220498 L 286853,216973 L 294487,211688 L 300946,205229 L 306231,197596 L 309754,189082 L 311516,179686 Z M 94540,22020 L 88963,22314 L 78979,27011 L 75163,30830 L 44335,66943 L 45803,66649 L 47565,66649 L 264245,66649 L 265713,66649 L 267474,66943 L 236646,30830 L 232535,27011 L 222553,22314 L 216974,22020 Z M 22020,114506 L 22314,109221 L 26131,100119 L 33178,93074 L 42280,89257 L 47565,88669 L 264245,88669 L 269236,89257 L 278632,93074 L 285385,100119 L 289496,109221 L 289788,114506 L 289788,174989 L 289496,179980 L 285385,189376 L 278632,196421 L 269236,200238 L 264245,200532 L 47565,200532 L 42280,200238 L 33178,196421 L 26131,189376 L 22314,179980 L 22020,174989 Z" fill="#29B5E8" />
</svg>