<?xml version="1.0" encoding="utf-8"?>
<svg xmlns="http://www.w3.org/2000/svg" viewBox="0 0 246239 271115">
  <path d="M 100224,36676 L 100224,62310 L 28356,62310 L 49195,36676 Z M 100224,80663 L 100224,121985 L 18352,121985 L 18352,80663 Z M 100224,133737 L 100224,178198 L 18352,178198 L 18352,133737 Z M 208648,60060 L 208648,187048 L 108364,187048 L 108364,60060 Z M 217705,37652 C 226289,37652 233186,44638 233186,53163 L 233186,193235 C 233186,201819 226230,208775 217705,208775 L 108364,208775 L 108364,195100 L 216787,195100 L 216787,51890 L 108364,51890 L 108364,37652 Z M 100224,189890 L 100224,231035 L 26521,231035 C 26107,231035 25692,231065 25308,231065 C 18855,231065 18352,230384 18352,218248 L 18352,189890 Z M 104309,30 C 102059,30 100224,1806 100224,4055 L 100224,18293 L 44843,18293 C 42120,18293 39486,19566 37710,21697 L 2042,65744 C 1510,66395 1095,67105 799,67845 C 799,67934 710,67934 710,67964 C 266,68941 148,70036 59,71131 C 59,71279 0,71457 0,71545 L 0,218307 C 0,229170 0,249506 26521,249506 L 100224,249506 L 100224,267060 C 100224,269280 102030,271085 104309,271085 C 106559,271085 108364,269280 108364,267060 L 108364,246753 L 185323,246753 C 188934,246753 191835,243853 191835,240271 C 191835,236719 188934,233759 185323,233759 L 108364,233759 L 108364,221859 L 217705,221859 C 233393,221859 246239,209071 246239,193383 L 246239,53341 C 246239,37564 233393,24717 217705,24717 L 108364,24717 L 108364,4055 C 108364,1806 106559,30 104309,30 Z" fill="#29B5E8" />
  <path d="M 44843,90786 C 39781,90786 35667,94871 35667,99963 C 35667,105025 39781,109110 44843,109110 C 49934,109110 54019,105025 54019,99963 C 54019,94871 49934,90786 44843,90786 Z" fill="#29B5E8" />
  <path d="M 44843,201761 C 39782,201761 35697,205905 35697,210966 C 35697,215969 39782,220113 44843,220113 C 49905,220113 54019,215969 54019,210966 C 53989,205816 49905,201761 44843,201761 Z" fill="#29B5E8" />
  <path d="M 44843,145785 C 39781,145785 35667,149870 35667,154961 C 35667,160023 39781,164138 44843,164138 C 49934,164138 54019,160023 54019,154961 C 54019,149870 49934,145785 44843,145785 Z" fill="#29B5E8" />
</svg>