<?xml version="1.0" encoding="utf-8"?>
<svg xmlns="http://www.w3.org/2000/svg" viewBox="0 0 202001 290084">
  <path d="M 56079,87789 L 63126,85440 L 75457,77513 L 84264,66357 L 89257,52264 L 89843,44629 L 89549,39932 L 87789,31418 L 84264,23196 L 79567,16149 L 73402,10278 L 66355,5287 L 58135,2056 L 49326,296 L 44923,2 L 40224,296 L 31416,2056 L 23489,5287 L 16149,10278 L 10276,16149 L 5285,23196 L 2056,31418 L 294,39932 L 0,44629 L 588,52264 L 5285,66063 L 14387,77513 L 26425,85440 L 33765,87789 L 33765,202001 L 26425,204351 L 14387,212279 L 5285,223729 L 588,237528 L 0,245455 L 294,249860 L 2056,258668 L 5285,266595 L 10276,273641 L 16149,279808 L 23489,284505 L 31416,288028 L 40224,289790 L 44923,290084 L 49326,289790 L 58135,288028 L 66355,284505 L 73402,279808 L 79567,273641 L 84264,266595 L 87789,258668 L 89549,249860 L 89843,245455 L 89257,237822 L 84558,223729 L 75457,212571 L 63420,204644 L 56373,202295 L 57253,196424 L 59602,187616 L 62832,181155 L 66649,176752 L 68703,175284 L 71640,173522 L 78687,170879 L 91312,168237 L 102176,167356 L 103350,167062 L 113626,166182 L 130067,162659 L 140931,158255 L 145922,155026 L 150619,151501 L 157960,142693 L 163539,131537 L 167062,118031 L 167942,110103 L 174990,108049 L 187320,100121 L 196422,88671 L 201413,74576 L 202001,66943 L 201707,62246 L 199946,53730 L 196422,45511 L 191725,38463 L 185560,32298 L 178512,27601 L 170291,24371 L 161483,22316 L 157078,22316 L 152381,22316 L 143574,24371 L 135646,27601 L 128307,32298 L 122434,38463 L 117443,45511 L 114212,53730 L 112158,62246 L 112158,66943 L 112452,74576 L 117443,88377 L 126250,99827 L 138289,107755 L 145336,110103 L 144748,115682 L 142399,124784 L 138875,130949 L 135058,135354 L 133004,136822 L 130067,138877 L 123022,141519 L 110395,143868 L 99827,145042 L 98651,145042 L 88375,146216 L 71640,149447 L 61070,153850 L 56079,157080 Z M 44923,22316 L 40224,22608 L 32296,26133 L 26131,32004 L 22608,39932 L 22314,44629 L 22608,49033 L 26131,57255 L 32296,63126 L 40224,66651 L 44923,66943 L 49326,66651 L 57547,63126 L 63712,57255 L 66943,49033 L 67237,44629 L 66943,39932 L 63712,32004 L 57547,26133 L 49326,22608 Z M 157078,44629 L 152381,44923 L 144454,48447 L 138289,54318 L 134766,62246 L 134472,66943 L 134766,71348 L 138289,79569 L 144454,85440 L 152381,88963 L 157078,89257 L 161483,88963 L 169705,85440 L 175576,79569 L 179100,71348 L 179393,66943 L 179100,62246 L 175576,54318 L 169705,48447 L 161483,44923 Z M 22314,245455 L 22608,240758 L 26131,232831 L 32296,226664 L 40224,223435 L 44923,223141 L 49326,223435 L 57547,226664 L 63712,232831 L 66943,240758 L 67237,245455 L 66943,249860 L 63712,257788 L 57547,263953 L 49326,267182 L 44923,267770 L 40224,267182 L 32296,263953 L 26131,257788 L 22608,249860 Z" fill="#29B5E8" />
</svg>