<?xml version="1.0" encoding="utf-8"?>
<svg xmlns="http://www.w3.org/2000/svg" viewBox="0 0 224820 225069">
  <path d="M 78184,30295 C 51757,30295 30270,51782 30270,78209 C 30270,100594 45443,119759 67229,124875 C 67653,124950 68102,124975 68527,124975 C 71122,124975 73418,123228 74067,120632 C 74715,117613 72869,114518 69824,113820 C 53229,109927 41625,95303 41625,78209 C 41625,58020 58045,41625 78184,41600 C 95403,41600 110451,53778 113970,70623 C 114519,73243 116889,75090 119485,75090 C 119884,75090 120283,75040 120683,74940 C 123752,74366 125674,71346 125050,68277 C 120408,46316 100669,30295 78184,30295 Z M 78209,25 C 35087,25 25,35087 25,78209 C 25,121356 35087,156393 78209,156393 C 81328,156393 83874,153847 83874,150728 C 83874,147609 81328,145088 78209,145088 C 41351,145088 11330,115092 11330,78209 C 11330,41350 41351,11330 78209,11330 C 115093,11330 145089,41350 145089,78209 C 145089,81328 147659,83849 150778,83849 C 153848,83849 156393,81328 156393,78209 C 156393,35087 121331,25 78209,25 Z M 92808,91585 L 174236,126372 L 159363,139324 C 157516,140946 156393,143217 156318,145662 C 156219,148108 157142,150479 158914,152175 L 202635,195971 L 194874,203757 L 151627,160436 C 149955,158764 147734,157840 145388,157840 L 145089,157840 C 142643,157915 140397,158988 138750,160835 L 127670,173412 L 92808,91585 Z M 76038,65981 C 73767,65981 71521,66879 69824,68576 C 67279,71122 66530,74990 67953,78309 L 116939,193226 C 118162,196021 120633,198018 123652,198467 C 124126,198542 124601,198567 125075,198567 C 127595,198567 129991,197519 131688,195597 L 145762,179551 L 188610,222474 C 190257,224146 192503,225069 194874,225069 C 197195,225069 199416,224146 201088,222474 L 221351,202210 C 224795,198766 224795,193201 221351,189708 L 178079,146386 L 196446,130415 C 198792,128418 199865,125374 199391,122429 C 198942,119385 196945,116864 194150,115641 L 79532,66730 C 78409,66231 77211,65981 76038,65981 Z" fill="#29B5E8" />
</svg>