<?xml version="1.0" encoding="utf-8"?>
<svg xmlns="http://www.w3.org/2000/svg" viewBox="0 0 288103 205142">
  <path d="M 150454,35214 L 149120,35481 L 147253,37080 L 146986,38682 L 146986,52020 L 147253,53354 L 149120,54954 L 150454,55221 L 284635,55221 L 285969,54954 L 287836,53354 L 288103,52020 L 288103,38682 L 287836,37080 L 285969,35481 L 284635,35214 Z" fill="#29B5E8" />
  <path d="M 149120,151788 L 147253,153656 L 146986,154990 L 146986,168594 L 147253,169928 L 149120,171795 L 150454,172062 L 284635,172062 L 285969,171795 L 287836,169928 L 288103,168594 L 288103,154990 L 287836,153656 L 285969,151788 Z" fill="#29B5E8" />
  <path d="M 100036,126714 L 98969,127513 L 43216,178465 L 42416,178998 L 40015,179265 L 38949,178465 L 13873,158991 L 12539,158191 L 10138,158458 L 9071,159525 L 534,170195 L 2,171262 L 267,173663 L 1068,174730 L 34412,202472 L 36281,203806 L 40283,205140 L 44283,205140 L 48285,203541 L 49885,202207 L 114175,142986 L 114974,141919 L 114974,139251 L 114175,138184 L 103504,127513 L 102437,126714 Z" fill="#29B5E8" />
  <path d="M 100036,2 L 98969,801 L 43216,51753 L 42416,52287 L 40015,52553 L 38949,51753 L 13873,32279 L 12539,31479 L 10138,31746 L 9071,32813 L 534,43483 L 2,44550 L 267,46951 L 1068,48018 L 34412,75762 L 36281,77096 L 40283,78428 L 44283,78428 L 48285,76829 L 49885,75495 L 114175,16274 L 114974,15207 L 114974,12539 L 114175,11472 L 103504,801 L 102437,2 Z" fill="#29B5E8" />
</svg>