<?xml version="1.0" encoding="utf-8"?>
<svg xmlns="http://www.w3.org/2000/svg" viewBox="0 0 426047 426081">
  <path d="M 409362,130370 C 363729,21968 238793,-28891 130391,16741 C 21989,62373 -28920,187310 16762,295712 C 62445,404113 187331,454972 295733,409340 C 374685,376071 426047,298727 426047,213041 C 426097,184646 420418,156553 409362,130370 Z M 392727,288676 L 392727,288676 C 350964,387931 236632,434518 137377,392756 C 38121,350993 -8466,236661 33296,137456 C 75059,38251 189391,-8387 288647,33376 C 360965,63781 408005,134591 408005,213041 C 408005,239023 402828,264754 392727,288676 Z M 333375,266563 L 315534,266563 L 315534,144894 C 315534,135697 308046,128209 298849,128209 L 128531,128209 C 119335,128209 111846,135697 111846,144894 L 111846,266563 L 94006,266563 C 90990,266563 88528,269026 88528,272041 L 88528,273800 C 88528,285459 96820,294254 107776,294254 L 317142,294254 C 322620,294204 327897,292143 331968,288424 C 336340,284454 338752,279278 338752,273800 L 338752,272041 C 338802,269026 336390,266563 333375,266563 Z M 107826,283298 C 104258,283298 101092,280936 100087,277519 L 179039,277519 L 179039,282444 C 179039,282745 179039,282997 179089,283298 L 107826,283298 Z M 237436,272041 L 237436,276966 L 189995,276966 L 189995,272041 C 189995,269026 187532,266563 184517,266563 L 130089,266563 L 130089,146452 L 297291,146452 L 297291,266563 L 242914,266563 C 239848,266563 237436,269026 237436,272041 Z M 317192,283298 L 248342,283298 C 248392,283047 248392,282745 248392,282444 L 248392,277519 L 326892,277519 C 324882,280986 321213,283198 317192,283298 Z M 264022,234299 C 264122,237314 261710,239827 258694,239927 L 170344,239927 C 167329,239927 164867,237465 164867,234450 C 164867,234299 164867,234198 164867,234047 L 164867,182585 C 164867,182485 164867,182384 164867,182284 C 164967,179269 167480,176907 170495,176957 C 173511,177057 175873,179570 175822,182585 L 175822,229022 L 258694,229022 L 258694,229022 C 261609,229072 263971,231384 264022,234299 Z M 201805,221835 L 201805,186505 C 201805,185400 202659,184545 203765,184545 L 211605,184545 C 212710,184545 213565,185400 213565,186505 L 213565,221835 C 213565,221835 213565,221835 213565,221835 C 213565,222941 212660,223795 211605,223795 L 203765,223795 C 203765,223795 203765,223795 203765,223795 C 202659,223795 201805,222941 201805,221835 Z M 182657,221835 L 182657,198265 C 182657,198265 182657,198265 182657,198265 C 182657,197160 183562,196305 184617,196305 L 192457,196305 C 192457,196305 192457,196305 192457,196305 C 193563,196305 194417,197210 194417,198265 L 194417,221835 C 194417,221835 194417,221835 194417,221835 C 194417,222941 193512,223795 192457,223795 L 184617,223795 C 184617,223795 184617,223795 184617,223795 C 183511,223795 182657,222941 182657,221835 Z M 220952,221835 L 220952,198265 C 220952,197160 221807,196305 222912,196305 L 230752,196305 C 230752,196305 230752,196305 230752,196305 C 231858,196305 232712,197160 232712,198265 L 232712,221835 C 232712,221835 232712,221835 232712,221835 C 232712,222941 231807,223795 230752,223795 L 222912,223795 C 221807,223795 220952,222941 220952,221835 Z" fill="#29B5E8" />
</svg>