<?xml version="1.0" encoding="utf-8"?>
<svg xmlns="http://www.w3.org/2000/svg" viewBox="0 0 249838 256384">
  <path d="M 102173,231372 C 111402,231372 120795,231372 121372,231372 C 125923,231236 129501,227436 129364,222886 C 129228,218334 125428,214756 120877,214892 C 120877,214892 102502,215470 92285,214892 C 45319,213245 16480,198414 16480,187866 L 16480,164548 C 33618,175589 61715,181769 88495,183005 L 116263,184488 L 116675,184488 C 121070,184494 124695,181050 124915,176661 C 125149,172139 121690,168274 117169,168008 L 89319,166443 C 42352,164383 16480,149552 16480,139746 L 16480,116593 C 35596,129034 68637,135627 100442,135627 C 132248,135627 165372,129034 184488,116593 L 184488,120713 C 184488,125263 188177,128952 192728,128952 C 197279,128952 200968,125263 200968,120713 L 200968,91873 L 200968,91873 L 200968,43671 L 200968,43671 C 200968,15326 149222,0 100442,0 C 51663,0 82,15243 0,43588 L 0,43588 L 0,187784 C 0,215552 47544,229725 91791,231207 C 94840,231372 98466,231372 102173,231372 Z M 100442,16397 C 151694,16397 184406,32877 184488,43588 L 184488,43588 C 184488,54629 151529,70697 100442,70697 C 49356,70697 16480,54712 16480,43588 C 16480,32464 49191,16397 100442,16397 Z M 16480,68307 C 35596,80667 68637,87259 100442,87259 C 132248,87259 165372,80749 184488,68307 L 184488,91873 C 184488,102914 151529,118982 100442,118982 C 49356,118982 16480,102832 16480,91873 L 16480,91873 Z" fill="#29B5E8" />
  <path d="M 236233,171718 C 231899,173101 229504,177737 230888,182072 C 230935,182219 230987,182367 231042,182511 C 232597,186960 233377,191642 233349,196354 C 233365,206988 229463,217254 222391,225194 C 208725,240671 186039,244360 168172,234010 L 172293,234010 C 175933,234010 178885,231058 178885,227418 C 178885,223778 175933,220826 172293,220826 L 151364,220826 C 147724,220826 144772,223778 144772,227418 C 144736,227608 144736,227805 144772,227995 C 144735,228213 144735,228435 144772,228654 L 144772,249501 C 144772,253141 147724,256092 151364,256092 C 155004,256092 157955,253141 157955,249501 L 157955,247194 C 186013,264809 223038,256346 240655,228288 C 250228,213040 252447,194299 246698,177238 C 245420,172870 240844,170365 236476,171643 C 236395,171666 236314,171691 236233,171718 Z" fill="#29B5E8" />
  <path d="M 233927,142795 C 233927,139155 230975,136203 227335,136203 C 223694,136203 220743,139155 220743,142795 L 220743,144608 C 192358,127436 155428,136525 138255,164910 C 129049,180127 127060,198643 132825,215470 C 133958,218826 137110,221082 140652,221073 C 141549,221097 142443,220958 143289,220661 C 147577,219213 149895,214578 148480,210279 C 147000,205814 146249,201140 146255,196436 C 146082,172545 165310,153038 189200,152866 C 196981,152809 204633,154852 211349,158780 L 206405,158780 C 202765,158780 199813,161731 199813,165372 C 199813,169012 202765,171964 206405,171964 L 227335,171964 C 230975,171964 233927,169012 233927,165372 C 233927,165372 233927,164960 233927,164713 C 233927,164466 233927,164301 233927,164136 Z" fill="#29B5E8" />
</svg>