<?xml version="1.0" encoding="utf-8"?>
<svg xmlns="http://www.w3.org/2000/svg" viewBox="0 0 233667 228688">
  <path d="M 52746,114166 C 52746,114166 52746,114166 52746,114166 L 180968,114166 C 182916,114166 184493,112655 184493,110787 C 184493,110787 184493,110787 184493,110787 L 184493,30942 C 184493,29075 182916,27563 180968,27563 C 180968,27563 180968,27563 180968,27563 L 52746,27563 C 50797,27563 49220,29075 49220,30942 C 49220,30942 49220,30942 49220,30942 L 49220,110743 C 49220,112610 50797,114166 52746,114166 Z M 56271,34365 L 177396,34365 L 177396,107364 L 56271,107364 L 56271,34365 Z M 228007,36144 L 215204,36144 L 215204,17827 C 215204,8002 206854,0 196601,0 L 37112,0 C 26860,0 18510,8002 18510,17827 L 18510,36144 L 5660,36144 C 2551,36144 0,38544 0,41568 L 0,90026 C 0,93005 2551,95450 5660,95450 L 18510,95450 L 18510,184987 C 18556,194500 25051,202903 34514,205704 L 34514,218463 C 34514,224109 39292,228688 45184,228688 L 60725,228688 C 66616,228688 71394,224109 71394,218463 L 71394,206815 L 162365,206815 L 162365,218463 C 162365,224109 167144,228688 173035,228688 L 188576,228688 C 194467,228688 199246,224109 199246,218463 L 199246,205704 C 208756,202903 215250,194500 215250,184987 L 215250,95450 L 228054,95450 C 231162,95450 233667,93005 233667,90026 L 233667,41568 C 233667,38589 231162,36144 228007,36144 Z M 18510,84602 L 11319,84602 L 11319,47036 L 18510,47036 L 18510,84602 Z M 45833,217796 L 45833,206771 L 60029,206771 L 60029,217796 L 45833,217796 Z M 173685,217796 L 173685,206771 L 187880,206771 L 187880,217796 L 173685,217796 Z M 192473,189832 L 41241,189832 C 38457,189832 36184,187654 36184,184987 L 36184,17827 L 37112,16938 L 196601,16938 L 197529,17827 L 197529,184987 L 197529,184987 C 197529,187654 195256,189832 192473,189832 Z M 215204,84602 L 215204,47036 L 222394,47036 L 222394,84602 L 215204,84602 Z M 81925,149999 L 57617,149999 C 50009,149999 43839,155912 43839,163203 C 43839,170493 50009,176406 57617,176406 L 81879,176406 C 83827,176406 85404,174895 85404,173028 L 85404,153422 C 85404,151510 83873,149999 81925,149999 Z M 57617,169604 C 53905,169604 50936,166715 50936,163203 C 50936,159646 53952,156801 57617,156801 L 78353,156801 L 78353,169604 L 57617,169604 Z M 176050,149999 L 151788,149999 C 149840,149999 148263,151510 148263,153377 L 148263,172983 C 148263,174850 149840,176362 151788,176362 L 176050,176362 C 183658,176362 189828,170449 189828,163158 C 189828,155912 183658,149999 176050,149999 Z M 176050,169604 L 155314,169604 L 155314,156801 L 176050,156801 C 179762,156801 182731,159690 182731,163203 C 182731,166715 179762,169604 176050,169604 Z" fill="#29B5E8" />
</svg>