<?xml version="1.0" encoding="utf-8"?>
<svg xmlns="http://www.w3.org/2000/svg" viewBox="0 0 256052 340437">
  <path d="M 98199,0 C 104553,0 110608,1663 116193,3241 C 120628,4349 124764,5586 127962,5586 C 131203,5586 135339,4477 139773,3241 C 145359,1663 151414,0 157767,0 C 160965,0 164248,426 167532,1535 C 177808,4861 184332,13091 189534,19700 C 192263,23026 194864,26351 197252,28057 C 199640,29805 203562,31255 207741,32875 C 215629,35817 225309,39442 231577,48055 C 237845,56583 238228,66561 238740,75302 C 238911,79822 239081,84001 240062,86943 C 240957,89672 243175,92955 245477,96622 C 250168,103572 256052,112314 256052,123357 C 256052,134231 250168,143014 245477,150050 C 243175,153674 240957,157043 240062,159729 C 239081,162671 238868,166978 238740,171412 C 238356,180196 237845,190089 231577,198617 C 225351,207230 215629,210897 207741,213839 C 206163,214393 204714,215033 203306,215545 L 233965,308756 C 235627,313872 232813,319330 227782,320950 C 226929,321249 226076,321377 225223,321377 C 224115,321377 223049,321121 222025,320652 L 190984,307220 L 173885,336344 C 172862,338049 171284,339328 169450,339968 C 168427,340266 167361,340437 166338,340437 C 164845,340437 163438,340138 162116,339456 C 159771,338262 158066,336258 157170,333828 L 128730,247439 L 100374,333828 C 99564,336258 97858,338305 95428,339456 C 94106,340138 92571,340437 91206,340437 C 90098,340437 89117,340266 88094,339968 C 86175,339328 84597,338049 83659,336344 L 66561,307220 L 35519,320652 C 34496,321121 33344,321377 32236,321377 C 31426,321377 30573,321206 29763,320950 C 24688,319330 21917,313872 23580,308798 L 54025,216099 C 52319,215332 50358,214564 48268,213839 C 40423,210897 30743,207230 24475,198617 C 18207,190089 17824,180068 17312,171412 C 17099,166893 16928,162671 15990,159729 C 15095,157085 12877,153717 10532,150135 C 5842,143014 0,134316 0,123357 C 0,112442 5842,103658 10532,96622 C 12877,92997 15095,89672 15990,86943 C 16928,84001 17184,79694 17312,75302 C 17738,66561 18207,56583 24390,48055 C 30615,39442 40337,35817 48183,32875 C 52362,31255 56242,29891 58715,28057 C 61103,26351 63661,23026 66390,19700 C 71635,13091 78074,4861 88392,1535 C 91718,426 95001,0 98199,0 Z M 98199,25754 C 97517,25754 96878,25840 96323,25968 C 93424,26906 89927,31340 86516,35647 C 83020,40082 79054,45070 73852,48865 C 68607,52660 62638,54963 57180,56924 C 52106,58800 46861,60847 45113,63192 C 43450,65452 43151,71336 42896,76496 C 42640,82167 42299,88648 40295,94831 C 38333,100843 34837,106131 31724,110736 C 28654,115383 25456,120117 25456,123357 C 25456,126555 28654,131331 31724,135936 C 34837,140584 38333,145828 40295,151841 C 42256,158109 42554,164505 42896,170176 C 43151,175335 43407,181219 45113,183480 C 46861,185910 52063,187871 57180,189747 C 62510,191709 68522,194012 73852,197806 C 79054,201601 83020,206590 86516,211025 C 89927,215332 93467,219851 96323,220704 C 96792,220875 97389,220917 98029,220917 C 100971,220917 105406,219723 109371,218615 C 114957,217122 121268,215417 127962,215417 C 134614,215417 140967,217122 146596,218615 C 150561,219723 154996,220917 157895,220917 C 158577,220917 159174,220875 159643,220704 C 162543,219766 166039,215332 169450,211025 C 172947,206590 176912,201601 182114,197806 C 187316,194012 193329,191709 198701,189747 C 203775,187871 209105,185910 210854,183480 C 212517,181219 212815,175335 213071,170176 C 213327,164505 213583,158024 215672,151841 C 217633,145828 221130,140584 224243,135936 C 227270,131246 230425,126512 230425,123357 C 230425,120159 227270,115383 224157,110736 C 221045,106131 217591,100843 215629,94831 C 213540,88691 213327,82167 213028,76496 C 212773,71336 212517,65452 210811,63192 C 209020,60847 203690,58800 198659,56924 C 193371,54963 187316,52660 182072,48865 C 176912,45070 172862,40082 169408,35647 C 165954,31340 162415,26863 159558,25968 C 159046,25797 158450,25754 157725,25754 C 154782,25754 150476,26863 146510,28057 C 140967,29550 134614,31255 127962,31255 C 121310,31255 114999,29550 109414,28057 C 105491,26906 101142,25754 98199,25754 Z M 189704,226802 L 189577,226930 C 184332,233496 177808,241726 167532,245094 C 164248,246160 161008,246586 157853,246586 C 153460,246586 149197,245776 145146,244796 L 167915,314000 L 180452,292595 C 181944,289994 184715,288501 187572,288501 C 188681,288501 189790,288715 190856,289184 L 213540,299119 L 189704,226802 Z M 67456,228123 L 44090,299119 L 66817,289312 C 67840,288843 68949,288587 70057,288587 C 72914,288587 75600,290122 77178,292638 L 89671,314128 L 112526,244454 C 108049,245606 103274,246629 98285,246629 C 95129,246629 91846,246245 88477,245179 C 78798,241981 72530,234519 67456,228123 Z" fill="#29B5E8" />
  <path d="M 168233,87169 L 167223,87926 L 114416,136185 L 113659,136691 L 111385,136942 L 110374,136185 L 86624,117740 L 85360,116982 L 83086,117235 L 82076,118246 L 73990,128352 L 73486,129363 L 73737,131637 L 74496,132647 L 106078,158925 L 107847,160188 L 111638,161450 L 115427,161450 L 119217,159935 L 120732,158672 L 181624,102581 L 182382,101570 L 182382,99043 L 181624,98033 L 171518,87926 L 170507,87169 Z" fill="#29B5E8" />
</svg>