<?xml version="1.0" encoding="utf-8"?>
<svg xmlns="http://www.w3.org/2000/svg" viewBox="0 0 245480 236915">
  <path d="M 96056,67643 L 154173,99927 L 96056,133611 L 96056,67643 Z M 89797,50869 C 88726,50869 87656,51144 86722,51693 C 84856,52846 83648,54878 83648,57074 L 83648,144400 C 83620,146651 84856,148683 86750,149836 C 87738,150412 88809,150632 89852,150632 C 90950,150632 92021,150330 93009,149836 L 169931,105225 C 171880,104127 173005,102013 173005,99762 C 173005,97539 171798,95480 169848,94437 L 92872,51666 C 91911,51144 90868,50869 89797,50869 Z M 225961,19409 L 225961,174461 L 19409,174461 L 19409,19409 Z M 225961,186897 L 225961,217451 L 19409,217451 L 19409,186897 Z M 9718,27 C 4365,27 0,4337 0,9746 L 0,227169 C 0,232550 4337,236915 9718,236915 L 235707,236915 C 241060,236915 245453,232578 245453,227169 L 245453,9746 C 245425,4337 241060,27 235707,27 Z" fill="#29B5E8" />
</svg>