<?xml version="1.0" encoding="utf-8"?>
<svg xmlns="http://www.w3.org/2000/svg" viewBox="0 0 255664 256062">
  <path d="M 127512,0 C 57010,483 87,57727 1,128231 C -264,198565 56538,255797 126873,256062 C 127006,256062 127140,256062 127273,256062 C 169345,256123 208752,235478 232654,200855 C 247677,179532 255716,154075 255664,127992 C 255664,57392 198432,160 127832,160 Z M 76300,31957 C 76992,41011 78680,49960 81333,58643 C 80684,59477 80096,60359 79576,61279 C 78040,63747 76906,66444 76220,69268 C 65986,65776 56261,60939 47298,54888 C 55569,45541 65379,37678 76300,31638 Z M 77659,89003 C 78180,90232 78767,91432 79417,92598 C 82179,97291 86152,101154 90921,103783 C 95417,106457 100551,107864 105782,107858 L 106341,107858 C 109206,107869 112059,107464 114810,106659 C 126570,116861 140636,124046 155795,127592 C 156457,129498 157286,131344 158272,133105 C 159344,135121 160659,137000 162187,138697 C 153759,146616 143695,152589 132706,156194 L 131747,154357 C 127932,147708 122417,142192 115768,138378 L 114889,137899 L 114889,137899 C 108419,134362 101170,132495 93797,132465 C 86046,132471 78435,134540 71747,138457 L 69350,139815 C 54497,120059 44631,97009 40588,72625 C 52113,79722 64597,85130 77659,88683 Z M 93637,77098 C 93486,75010 93959,72925 94995,71107 L 95635,70147 L 95635,70147 C 96686,68396 98137,66916 99870,65834 C 101558,64822 103493,64297 105462,64315 L 106021,64315 C 108095,64255 110145,64781 111934,65834 C 113935,66932 115594,68563 116727,70547 C 117810,72408 118311,74551 118165,76699 C 118358,78850 117855,81007 116727,82851 C 115744,84486 114407,85878 112813,86926 L 111934,86926 C 108221,89050 103661,89050 99949,86926 L 99070,86446 C 97494,85377 96160,83989 95155,82371 C 94251,80649 93810,78723 93877,76778 Z M 92918,149003 L 92918,149003 L 92918,151001 C 97382,151003 101765,152188 105622,154436 C 109641,156578 112967,159820 115209,163784 C 117490,167623 118650,172023 118565,176487 C 118676,180893 117540,185242 115289,189030 C 113142,192911 109962,196118 106101,198299 C 102241,200536 97860,201720 93398,201734 L 92918,201734 C 88539,201749 84236,200590 80455,198379 C 72628,193803 67845,185393 67911,176328 C 67851,171927 68983,167592 71187,163784 C 73334,159904 76515,156697 80375,154516 C 84236,152278 88616,151094 93078,151081 L 93078,151081 Z M 24129,162825 C 16364,139169 16786,113588 25327,90201 C 31157,112918 41660,134170 56167,152599 C 55792,153167 55445,153753 55128,154357 C 51216,160953 49198,168500 49296,176168 C 39948,173828 31310,169250 24129,162825 Z M 127512,237127 C 92849,236945 60291,220459 39628,192626 C 44372,194115 49201,195316 54089,196221 L 55049,198058 C 58832,204732 64354,210254 71027,214038 C 77708,217806 85248,219788 92918,219790 C 100626,219799 108201,217789 114889,213958 C 118387,211998 121589,209549 124397,206688 C 143520,215352 164371,219533 185357,218911 L 187754,218911 C 169910,230794 148950,237131 127512,237127 Z M 222508,72864 C 227749,81913 231625,91685 234012,101866 C 230949,105308 227296,108175 223226,110334 C 222601,106017 221135,101864 218912,98111 C 217961,96352 216838,94692 215557,93157 C 219037,86849 221389,79981 222508,72864 Z M 218992,133105 L 219711,131826 C 225840,129932 231695,127246 237128,123837 C 237128,125195 237128,126474 237128,127751 C 237178,150032 230310,171778 217474,189990 C 215255,193259 212827,196382 210204,199337 C 201415,200216 193106,200695 185436,200695 C 168013,201217 150681,197975 134624,191188 C 136322,186448 137161,181443 137100,176407 C 137140,175742 137140,175075 137100,174410 C 152527,169602 166488,160972 177687,149323 C 181119,150437 184705,151003 188312,151001 L 188872,151001 C 201368,150849 212853,144104 219072,133265 Z M 203013,124156 C 201659,126640 199602,128668 197101,129989 C 194713,131506 191940,132310 189112,132305 L 188552,132305 L 188552,134223 L 188552,134223 L 188552,132305 C 185735,132308 182970,131534 180563,130069 C 177837,128704 175605,126526 174171,123837 C 170900,118637 170900,112019 174171,106819 C 175491,104250 177551,102135 180084,100748 C 182491,99290 185260,98542 188073,98590 L 189112,98590 C 191919,98595 194674,99338 197101,100748 C 199617,102158 201670,104267 203013,106819 C 204558,109404 205385,112356 205410,115368 C 205324,118391 204382,121328 202694,123837 Z M 202613,47697 L 205330,50334 C 206368,61211 204751,72177 200616,82292 C 196956,80958 193088,80282 189191,80294 L 187754,80294 C 181718,80284 175788,81884 170576,84928 C 165140,88033 160683,92600 157713,98111 C 155999,101105 154734,104336 153958,107698 C 145522,105029 137624,100891 130629,95475 C 131465,94418 132214,93296 132866,92118 C 133436,91195 133944,90234 134384,89242 C 148672,86503 162259,80904 174331,72784 C 184920,65954 194359,57485 202294,47697 Z M 136381,69908 C 135742,66792 134609,63798 133026,61040 C 130222,56380 126257,52526 121521,49854 C 116959,47201 111778,45795 106501,45779 L 105941,45779 C 103050,45779 100173,46183 97392,46978 C 95629,39374 94639,31611 94436,23808 C 105147,20336 116334,18557 127593,18535 L 128072,18535 C 149237,18409 169979,24462 187754,35953 C 174612,52375 156640,64253 136381,69908 Z" fill="#29B5E8" />
</svg>