<?xml version="1.0" encoding="utf-8"?>
<svg xmlns="http://www.w3.org/2000/svg" viewBox="0 0 248226 208035">
  <path d="M 35798,26629 C 32669,26629 30088,29155 30088,32339 C 30088,35469 32669,38049 35798,38049 C 38928,38049 41508,35469 41508,32339 C 41508,29155 38928,26629 35798,26629 Z M 58584,26629 C 55399,26629 52874,29155 52874,32339 C 52874,35469 55399,38049 58584,38049 C 61713,38049 64294,35469 64294,32339 C 64294,29155 61713,26629 58584,26629 Z M 81287,26629 C 78157,26629 75577,29155 75577,32339 C 75577,35469 78157,38049 81287,38049 C 84472,38049 86997,35469 86997,32339 C 86997,29155 84472,26629 81287,26629 Z M 228790,19464 L 228790,45791 L 19436,45791 L 19436,19464 Z M 115740,118430 L 131910,127407 L 115740,136768 L 115740,118430 Z M 109453,101657 C 108383,101657 107312,101931 106351,102480 C 104484,103633 103304,105665 103304,107833 L 103304,147530 C 103304,149781 104484,151812 106406,152965 C 107367,153487 108438,153761 109536,153761 C 110606,153761 111650,153459 112638,152965 L 147612,132650 C 149534,131552 150715,129439 150715,127187 C 150715,125046 149479,122987 147503,121862 L 112528,102453 C 111567,101931 110497,101657 109453,101657 Z M 200047,92433 L 200047,163891 L 47767,163891 L 47767,92433 Z M 41536,71843 C 38159,71843 35359,74616 35359,78020 L 35359,170123 C 35359,173555 38159,176327 41536,176327 L 206224,176327 C 209655,176327 212483,173555 212483,170123 L 212483,78020 C 212483,74616 209655,71843 206224,71843 Z M 228790,58172 L 228790,188516 L 19436,188516 L 19436,58172 Z M 9746,0 C 4392,0 0,4365 0,9746 L 0,198289 C 0,203643 4365,208035 9746,208035 L 238508,208035 C 243861,208035 248226,203725 248226,198289 L 248226,9746 C 248171,4365 243861,0 238508,0 Z" fill="#29B5E8" />
</svg>