<?xml version="1.0" encoding="utf-8"?>
<svg xmlns="http://www.w3.org/2000/svg" viewBox="0 0 257879 257879">
  <path d="M 128940,0 C 57728,0 0,57728 0,128940 C 0,200152 57728,257880 128940,257880 C 200152,257880 257880,200152 257880,128940 C 257880,57728 200152,0 128940,0 Z M 88646,27722 C 73818,49239 63987,82521 62858,121042 L 20147,121042 C 23232,79460 49712,43259 88404,27722 Z M 20147,136837 L 62617,136837 C 63745,175358 73576,208640 88404,230158 C 49712,214620 23232,178419 20147,136837 Z M 121042,237733 L 118947,237733 C 98800,228062 80185,190267 78653,136998 L 121284,136998 Z M 121042,121123 L 78412,121123 C 80185,67854 98800,30059 118706,20389 L 120800,20389 Z M 136837,20147 L 138933,20147 C 159080,29818 177695,67613 179227,120881 L 136837,120881 Z M 138933,237733 L 136837,237733 L 136837,136837 L 179468,136837 C 177695,190106 159080,227901 138933,237733 Z M 169475,230318 C 184304,208802 194135,175519 195263,136998 L 237733,136998 C 234588,178521 208119,214646 169475,230158 Z M 195263,121203 C 194135,82683 184304,49400 169475,27883 C 208119,43395 234588,79521 237733,121042 Z" fill="#29B5E8" />
</svg>