<?xml version="1.0" encoding="utf-8"?>
<svg xmlns="http://www.w3.org/2000/svg" viewBox="0 0 240233 232961">
  <path d="M 60366,123059 C 62552,124912 64642,126877 66625,128945 C 74076,136397 82049,144294 92107,144294 C 102166,144294 110287,136098 117515,128945 C 119505,126856 121619,124890 123849,123059 C 132527,116064 137922,105787 138750,94671 C 143458,89992 146135,83649 146202,77012 L 146202,73138 C 146214,67550 144351,62118 140911,57714 C 140464,36777 135397,21279 125636,11592 C 116715,3383 104794,-770 92704,118 L 91436,118 C 79380,-745 67506,3438 58652,11667 C 48892,21353 43751,36852 43378,57789 C 39937,62192 38075,67624 38088,73212 L 38088,77087 C 38122,83730 40804,90086 45538,94745 C 46334,105833 51705,116091 60366,123059 Z M 52915,73138 C 52903,70347 54002,67666 55970,65686 C 57392,64293 58197,62388 58205,60397 C 58205,42142 61856,29252 69083,22024 C 74916,16658 82716,13959 90617,14573 L 92629,14573 C 100796,13807 108908,16512 114981,22024 C 122433,29475 125860,42142 125860,60397 C 125869,62388 126673,64293 128095,65686 C 130064,67666 131162,70347 131150,73138 L 131150,77012 C 131162,79804 130064,82484 128095,84463 L 126233,86251 C 124838,87658 124061,89561 124072,91542 C 124117,99269 120632,106595 114610,111436 C 111996,113628 109508,115966 107158,118440 C 102762,122835 96130,129467 92256,129467 C 88382,129467 81676,122835 77355,118440 C 75005,115966 72517,113628 69903,111436 C 63880,106595 60395,99269 60440,91542 C 60452,89561 59675,87658 58280,86251 L 56417,84463 C 54449,82484 53350,79804 53362,77012 Z" fill="#29B5E8" />
  <path d="M 70351,58161 C 71074,58132 71784,57955 72437,57639 C 77906,55553 82237,51249 84358,45793 C 92721,52336 102953,56042 113566,56373 C 116858,56373 119527,53704 119527,50412 C 119527,47120 116858,44452 113566,44452 C 102367,43390 91961,38213 84358,29922 C 82634,27838 79698,27221 77279,28432 C 74899,29656 73576,32272 74001,34914 C 75003,39788 72497,44706 67966,46761 C 64962,48108 63618,51634 64964,54639 C 65917,56764 68021,58140 70351,58161 Z" fill="#29B5E8" />
  <path d="M 181221,165381 C 180104,162550 177347,155918 133684,143475 C 131236,142764 128594,143354 126680,145040 L 110661,159122 C 107456,161703 106950,166395 109532,169599 C 112113,172804 116803,173309 120009,170727 C 120177,170592 120340,170448 120496,170298 L 133461,158899 C 145337,162059 156849,166454 167810,172012 C 169072,176896 169894,181883 170269,186914 C 170269,189149 170716,191161 170939,192800 C 171463,196504 174651,199245 178391,199208 L 179434,199208 C 183507,198632 186342,194862 185767,190788 C 185767,189298 185319,187436 185096,185424 C 184684,178602 183382,171864 181221,165381 Z" fill="#29B5E8" />
  <path d="M 59025,145040 C 57129,143380 54522,142791 52096,143475 C 8359,155919 5378,162550 4484,165381 C 2443,171630 1217,178117 833,184679 C 833,186915 312,189075 88,190789 C -537,194840 2226,198634 6273,199283 L 7464,199283 C 11156,199331 14325,196668 14916,193025 C 14916,191087 15437,188703 15736,186169 C 16069,181365 16842,176602 18045,171938 C 28973,166363 40462,161967 52319,158825 L 64986,169777 C 67954,172628 72671,172533 75521,169565 C 78372,166597 78277,161880 75309,159030 C 75153,158880 74990,158737 74821,158601 Z" fill="#29B5E8" />
  <path d="M 234272,9060 L 143222,9060 C 139929,9060 137261,11729 137261,15021 C 137261,18313 139929,20981 143222,20981 L 228312,20981 L 228312,140197 L 185320,140197 C 182028,140197 179359,142866 179359,146158 C 179359,149450 182028,152118 185320,152118 L 234272,152118 C 237564,152118 240234,149450 240234,146158 L 240234,15021 C 240234,11729 237564,9060 234272,9060 Z" fill="#29B5E8" />
  <path d="M 146127,123060 C 147098,123714 148236,124076 149406,124103 C 151415,124107 153292,123099 154398,121420 L 172652,94076 L 184425,100334 C 187229,101851 190731,100859 192323,98099 L 218998,53393 C 220395,50367 219074,46781 216047,45384 C 213477,44198 210429,44957 208715,47209 L 185022,86773 L 173472,80663 C 170849,79403 167699,80223 166021,82601 L 144786,114417 C 142734,116937 143112,120645 145633,122697 C 145791,122827 145956,122948 146127,123060 Z" fill="#29B5E8" />
  <path d="M 98292,155620 L 86817,155620 C 84061,155631 81833,157874 81844,160631 C 81845,160874 81863,161117 81899,161358 L 83837,172832 C 84237,175237 86317,177002 88755,177004 L 96205,177004 C 98627,176995 100682,175226 101049,172832 L 102986,161358 C 103239,159939 102827,158484 101869,157409 C 100989,156325 99686,155674 98292,155620 Z" fill="#29B5E8" />
  <path d="M 92480,181177 C 87378,181136 83207,185238 83167,190341 C 83166,190391 83166,190441 83167,190491 L 83167,223648 C 83167,228791 87336,232961 92480,232961 C 97624,232961 101794,228791 101794,223648 L 101794,190491 C 101794,185346 97624,181177 92480,181177 Z" fill="#29B5E8" />
</svg>