<?xml version="1.0" encoding="utf-8"?>
<svg xmlns="http://www.w3.org/2000/svg" viewBox="0 0 264040 264086">
  <path d="M 67374,173556 C 54613,173647 44342,184067 44434,196829 C 44525,209590 54945,219861 67707,219769 C 80468,219677 90739,209258 90647,196496 C 90604,190426 88172,184615 83880,180322 C 79505,175948 73560,173511 67374,173556 Z M 74555,203760 C 70591,207726 64164,207727 60199,203764 C 60197,203763 60196,203762 60194,203760 C 56232,199795 56233,193367 60199,189404 C 64164,185442 70591,185444 74555,189409 C 78515,193372 78515,199797 74555,203760 Z" fill="#29B5E8" />
  <path d="M 253720,0 L 222855,826 C 221079,889 219348,1400 217821,2311 C 216412,3172 215110,4197 213942,5365 L 120027,99281 C 87666,85380 50107,92533 25121,117353 C -8425,150973 -8366,205420 25253,238966 C 41342,255021 63132,264052 85860,264087 C 94098,264081 102294,262914 110206,260621 C 155754,247010 181645,199053 168035,153504 C 167113,150418 166018,147386 164756,144423 L 189514,119665 L 206515,121645 C 209537,121909 212532,120891 214767,118839 C 216936,116667 218025,113643 217738,110587 L 216830,100601 L 226486,101591 C 232013,102205 236991,98224 237605,92696 C 237678,92032 237686,91362 237627,90698 L 236719,80630 L 246458,81702 C 249520,82038 252565,80941 254710,78731 C 256882,76569 257920,73516 257517,70479 L 255123,53643 L 260570,47866 C 262300,46069 263275,43676 263293,41181 L 264036,10564 C 264121,7807 263043,5141 261065,3218 C 259186,1150 256514,-21 253720,0 Z M 243405,36642 L 237380,42997 C 235341,45233 234377,48246 234739,51249 L 235812,60658 L 226239,59420 C 220711,58813 215738,62802 215132,68330 C 215065,68934 215054,69542 215098,70148 L 216005,80134 L 206349,79144 C 203312,78753 200266,79789 198097,81949 C 195919,84115 194827,87145 195126,90203 L 196034,100188 L 186461,99115 C 183411,98745 180362,99813 178208,102004 L 145197,135014 C 142098,138211 141398,143036 143464,146981 C 157241,172582 152650,204182 132158,224804 C 106025,250231 64226,249660 38798,223525 C 22371,206641 16184,182284 22562,159608 C 30941,131693 56633,112576 85778,112567 C 96708,112629 107442,115469 116973,120820 C 120908,122940 125767,122236 128939,119087 L 226899,20632 L 243405,20632 Z" fill="#29B5E8" />
</svg>