<?xml version="1.0" encoding="utf-8"?>
<svg xmlns="http://www.w3.org/2000/svg" viewBox="0 0 415646 415722">
  <path d="M 399395,127211 C 354844,21437 233005,-28204 127231,16347 C 21457,60898 -28184,182737 16320,288511 C 60825,394285 182710,443926 288484,399375 C 365538,366919 415646,291453 415646,207861 C 415693,180169 410182,152709 399395,127211 Z M 383143,281646 C 342375,378454 230857,423939 134049,383170 C 37241,342402 -8243,230931 32525,134076 C 73293,37222 184765,-8217 281619,32552 C 352182,62253 398041,131321 398041,207861 C 398041,233219 392997,258296 383143,281646 L 383143,281646 Z M 277883,166439 L 277883,121607 C 277883,115443 274941,110306 270038,107831 C 265134,105356 258923,106010 254253,109419 C 250517,111941 206060,138419 178367,154857 L 122001,154857 C 114763,154857 107991,158593 104162,164758 L 99818,164758 C 87910,164758 78244,174425 78197,186333 L 78197,209682 C 78197,221591 87863,231257 99818,231304 L 104115,231304 C 107337,236535 112661,240130 118778,241111 C 123122,259978 130920,293601 131854,296356 L 131948,296730 C 132975,299859 136057,309339 149413,309339 L 159967,309339 C 165711,309339 170148,307471 173183,303875 C 176406,300046 177433,294908 176266,288557 C 176079,287483 175799,286176 175518,284728 C 173837,276135 170475,259277 171222,241438 L 177386,241438 L 177760,241672 C 205406,258063 250471,284915 254206,287437 C 256915,289445 260184,290519 263546,290519 C 265788,290519 267983,290005 269991,289024 C 274894,286550 277836,281412 277836,275248 L 277836,225934 C 294275,218462 301513,199082 294041,182643 C 290772,175452 285028,169708 277883,166439 L 277883,166439 Z M 99818,212111 C 98558,212111 97484,211037 97484,209776 L 97484,186426 C 97484,185165 98558,184091 99818,184091 L 100986,184091 L 100986,212111 L 99818,212111 Z M 150020,290099 C 148899,285942 143155,261239 138579,241438 L 151982,241438 C 151281,261192 154830,279218 156698,288464 C 156792,289024 156932,289585 157025,290099 L 150020,290099 Z M 122001,222151 C 121020,222151 120273,221357 120226,220376 L 120226,175872 C 120226,174891 121020,174144 122001,174098 L 173043,174098 L 173043,222058 L 122001,222151 Z M 258596,267496 C 244166,258717 211477,239243 192330,227895 L 192330,169054 C 211477,157659 244166,138232 258596,129453 L 258596,267496 Z M 277836,212391 L 277836,179982 C 286803,187454 287970,200763 280498,209729 C 279704,210710 278817,211597 277836,212391 L 277836,212391 Z M 329112,191049 L 308564,191049 C 305389,191049 302774,193618 302774,196840 C 302774,200016 305342,202631 308564,202631 C 308564,202631 308564,202631 308564,202631 L 329112,202631 C 332288,202631 334903,200062 334903,196840 C 334903,193618 332334,191049 329112,191049 C 329112,191049 329112,191049 329112,191049 Z M 295209,169801 C 296749,169801 298244,169194 299318,168073 L 313795,153456 C 316036,151168 316036,147525 313748,145284 C 311460,143043 307817,143043 305576,145331 L 291099,159948 C 288857,162236 288857,165878 291146,168120 C 292220,169194 293668,169801 295209,169801 L 295209,169801 Z M 299318,225560 C 297076,223272 293387,223272 291146,225513 C 288904,227755 288857,231444 291099,233686 L 291099,233686 L 305576,248303 C 307817,250591 311460,250591 313748,248350 C 316036,246108 316036,242465 313795,240177 L 313795,240177 L 299318,225560 Z" fill="#29B5E8" />
</svg>