<?xml version="1.0" encoding="utf-8"?>
<svg xmlns="http://www.w3.org/2000/svg" viewBox="0 0 428362 428553">
  <path d="M 249365,45530 C 268510,49721 283655,64770 287846,84011 C 288131,85249 289846,85249 290132,84011 C 294323,64770 309372,49721 328613,45530 C 329851,45244 329851,43529 328613,43244 C 309467,39053 294323,24003 290132,4763 C 289846,3524 288131,3524 287846,4763 C 283655,24003 268605,39053 249365,43244 C 248126,43529 248126,45244 249365,45530 Z" fill="#29B5E8" />
  <path d="M 348234,174212 C 348234,166307 342805,159639 335090,157925 C 262890,142208 206026,85344 190310,13145 C 188595,5429 181928,0 174117,0 C 166306,0 159544,5429 157925,13145 C 142208,85439 85439,142208 13145,157925 C 5429,159639 0,166307 0,174212 C 0,182118 5429,188786 13145,190500 C 85344,206216 142208,263081 157925,335280 C 159639,342995 166306,348425 174117,348425 C 181928,348425 188690,342995 190310,335280 C 206026,262985 262795,206216 335090,190500 C 342805,188786 348234,182118 348234,174308 Z M 174117,305276 C 152686,244031 104299,195644 43053,174212 C 104204,152781 152686,104394 174117,43148 C 195548,104394 243935,152781 305181,174212 C 244030,195644 195548,244031 174117,305276 Z" fill="#29B5E8" />
  <path d="M 426434,345091 C 388048,336709 357854,306515 349472,268129 C 348900,265557 345471,265557 344900,268129 C 336518,306515 306324,336709 267938,345091 C 265366,345662 265366,349187 267938,349663 C 306324,358045 336518,388239 344900,426625 C 345471,429197 348900,429197 349472,426625 C 357854,388239 388048,358045 426434,349663 C 429006,349091 429006,345567 426434,345091 Z" fill="#29B5E8" />
</svg>