<?xml version="1.0" encoding="utf-8"?>
<svg xmlns="http://www.w3.org/2000/svg" viewBox="0 0 366010 365951">
  <path d="M 304790,66622 C 302418,66622 300046,67522 298206,69280 L 235105,129891 L 180633,75211 C 178834,73329 176339,72389 173885,72389 C 171759,72389 169632,73084 167874,74474 L 89192,138070 C 85062,141424 84407,147354 87720,151484 C 89601,153938 92423,155124 95244,155124 C 97371,155124 99497,154470 101215,152998 L 173313,94841 L 228317,150053 C 230198,151934 232651,152834 235064,152834 C 237477,152834 239849,151975 241689,150217 L 311497,83104 C 315259,79464 315464,73411 311742,69567 C 309861,67644 307326,66622 304790,66622 Z M 154951,151975 C 151148,151975 147958,155083 147958,158969 L 147958,285301 C 147958,289105 151148,292254 154951,292254 L 183087,292254 C 186972,292254 190039,289105 190039,285301 L 190039,159010 C 190039,155124 186972,152057 183087,152057 L 154951,152057 L 154951,151975 Z M 223450,194059 C 219565,194059 216457,197208 216457,201052 L 216457,285301 C 216457,289105 219565,292254 223450,292254 L 251504,292254 C 255389,292254 258497,289105 258497,285301 L 258497,201052 C 258497,197208 255389,194059 251504,194059 Z M 86575,194059 C 82690,194059 79582,197208 79582,201052 L 79582,285301 C 79582,289186 82690,292335 86575,292335 L 114710,292335 C 118514,292335 121622,289186 121622,285342 L 121622,201052 C 121622,197208 118514,194059 114710,194059 Z M 291622,138029 C 287819,138029 284833,141178 284833,144982 L 284833,285342 C 284833,289227 287941,292335 291827,292335 L 319962,292335 C 323765,292335 326914,289227 326914,285342 L 326914,144982 C 326914,141096 323765,138029 319962,138029 L 291827,138029 C 291745,138029 291704,138029 291622,138029 Z M 35620,41 C 27604,41 21184,6585 21184,14560 L 21184,315852 L 14559,315852 C 6461,315852 41,322313 41,330329 C 41,338427 6584,344848 14559,344848 L 21184,344848 L 21184,351473 C 21184,359489 27604,365951 35620,365951 C 43717,365951 50137,359448 50137,351473 L 50137,344848 L 351533,344848 C 359549,344848 365969,338304 365969,330329 C 365969,322477 359589,315974 351738,315974 C 351656,315974 351615,315974 351533,315974 L 50137,315974 L 50137,14560 C 50137,6544 43717,41 35620,41 Z" fill="#29B5E8" />
</svg>