<?xml version="1.0" encoding="utf-8"?>
<svg xmlns="http://www.w3.org/2000/svg" viewBox="0 0 299898 299931">
  <path d="M 76461,69320 C 75630,69320 74767,69519 73937,69884 C 73638,69984 73405,70216 73106,70416 C 72608,70715 72010,70947 71611,71412 L 71611,71445 C 70250,72840 69453,74601 69453,76627 L 69453,116053 C 69453,120039 72708,123327 76693,123327 C 80746,123327 84001,120039 84001,116053 L 84001,94131 L 139735,149866 L 84001,205601 L 84001,183911 C 84001,179925 80746,176670 76693,176670 C 72708,176670 69453,179925 69453,183911 L 69453,223304 C 69453,227323 72708,230611 76693,230611 L 116120,230611 C 120105,230611 123360,227323 123360,223304 C 123360,219318 120105,216063 116120,216063 L 94198,216063 L 150032,160229 L 205833,216063 L 183945,216063 C 179926,216063 176670,219318 176670,223304 C 176670,227323 179926,230611 183945,230611 L 223337,230611 C 227323,230611 230578,227323 230578,223304 L 230578,183911 C 230578,179925 227323,176670 223337,176670 C 219352,176670 216030,179925 216030,183911 L 216030,205601 L 160295,149866 L 216030,94131 L 216030,116053 C 216030,120039 219352,123327 223337,123327 C 227323,123327 230578,120039 230578,116053 L 230578,76627 C 230578,74601 229814,72774 228652,71445 L 228652,71412 C 228287,70947 227689,70715 227190,70416 C 226891,70216 226659,69984 226360,69884 C 225397,69419 224367,69320 223337,69320 L 184144,69320 C 180092,69320 176837,72575 176837,76594 C 176837,80579 180092,83868 184144,83868 L 205833,83868 L 150132,139503 L 94463,83868 L 116153,83868 C 120172,83868 123460,80579 123460,76594 C 123460,72575 120172,69320 116153,69320 L 76959,69320 C 76793,69320 76627,69320 76461,69320 Z M 252700,22819 C 266085,22819 277113,33813 277113,47232 L 277046,47232 L 277046,252666 C 277046,266085 266052,277079 252633,277079 L 47265,277079 C 33780,277079 22852,266118 22852,252666 L 22852,47232 C 22852,33813 33780,22819 47265,22819 Z M 47265,33 C 21224,33 0,21224 0,47232 L 0,252666 C 0,278707 21224,299898 47265,299898 L 252700,299898 C 278674,299898 299898,278707 299898,252666 L 299898,47232 C 299898,21224 278674,33 252633,33 Z" fill="#29B5E8" />
</svg>