<?xml version="1.0" encoding="utf-8"?>
<svg xmlns="http://www.w3.org/2000/svg" viewBox="0 0 248253 208008">
  <path d="M 35771,26684 C 32668,26684 30060,29210 30060,32394 C 30060,35524 32641,38104 35771,38104 C 38955,38104 41481,35524 41481,32394 C 41481,29210 38955,26684 35771,26684 Z M 58529,26684 C 55427,26684 52819,29210 52819,32394 C 52846,35524 55427,38104 58529,38104 C 61658,38104 64211,35524 64211,32394 C 64211,29210 61658,26684 58529,26684 Z M 81314,26684 C 78157,26684 75604,29210 75604,32394 C 75604,35524 78157,38104 81314,38104 C 84444,38104 86970,35524 86970,32394 C 86970,29210 84444,26684 81314,26684 Z M 228789,19464 L 228789,45846 L 19464,45846 L 19464,19464 Z M 110167,79914 L 110167,104539 L 45873,104539 L 45873,79914 Z M 131964,102590 C 129850,102590 128093,104347 128093,106461 C 128093,108602 129850,110332 131964,110332 L 205235,110332 C 207349,110332 209106,108602 209106,106461 C 209133,104347 207349,102590 205235,102590 Z M 42002,72173 C 39834,72173 38132,73875 38132,76044 L 38132,108410 C 38132,110524 39834,112281 42002,112281 L 114038,112281 C 116206,112281 117909,110524 117909,108410 L 117909,76044 C 117909,73875 116206,72173 114038,72173 Z M 42991,121258 C 40822,121258 39120,122960 39120,125129 C 39120,127243 40822,129000 42991,129000 L 205262,129000 C 207404,129000 209133,127243 209133,125129 C 209133,122960 207349,121258 205235,121258 Z M 42991,139871 C 40822,139871 39120,141628 39120,143769 C 39120,145910 40822,147640 42991,147640 L 205235,147640 C 207349,147640 209106,145910 209106,143769 C 209133,141628 207349,139871 205235,139871 Z M 42991,158566 C 40822,158566 39120,160268 39120,162437 C 39120,164551 40822,166308 42991,166308 L 205235,166308 C 207349,166308 209106,164551 209106,162437 C 209133,160268 207349,158566 205235,158566 Z M 228789,58199 L 228789,188544 L 19464,188544 L 19464,58199 Z M 9773,27 C 4337,27 27,4365 27,9746 L 27,198290 C 27,203670 4392,208008 9773,208008 L 238507,208008 C 243888,208008 248226,203643 248226,198290 L 248226,9746 C 248226,4365 243833,55 238507,27 Z" fill="#29B5E8" />
</svg>