<?xml version="1.0" encoding="utf-8"?>
<svg xmlns="http://www.w3.org/2000/svg" viewBox="0 0 274137 259008">
  <path d="M 246143,47683 C 249828,47683 252968,50823 252968,54507 L 252968,230954 L 252908,230954 C 252908,234668 249767,237809 246113,237809 L 28084,237809 C 24400,237809 21259,234638 21259,230954 L 21259,54507 C 21259,50763 24400,47683 28084,47683 L 69304,47683 L 69304,50189 C 69304,53964 72354,56953 76069,56953 C 79843,56953 82893,53964 82893,50189 L 82893,47683 L 191395,47683 L 191395,50189 C 191395,53964 194414,56953 198159,56953 C 201934,56953 204953,53964 204953,50189 L 204953,47683 Z M 76008,0 C 72264,0 69244,3020 69244,6795 L 69244,26484 L 28024,26484 C 12562,26484 0,39016 0,54507 L 0,230954 C 0,246415 12562,258978 28024,258978 L 246113,258978 C 261575,258978 274137,246415 274137,230954 L 274137,54507 C 274137,39016 261484,26484 246113,26484 L 204893,26484 L 204893,6795 C 204893,3050 201843,0 198068,0 C 194354,0 191304,3020 191304,6795 L 191304,26484 L 82803,26484 L 82803,6795 C 82803,3050 79783,0 76008,0 Z" fill="#29B5E8" />
  <path d="M 49918,92378 C 46143,92378 43093,95428 43093,99173 C 43093,102917 46143,105967 49918,105967 L 224281,105967 C 228026,105967 231076,102917 231076,99173 C 231076,95428 228026,92378 224281,92378 Z" fill="#29B5E8" />
  <path d="M 49918,127288 C 46143,127288 43093,130277 43093,134052 C 43093,137827 46143,140817 49918,140817 L 84766,140817 C 88541,140817 91531,137827 91531,134052 C 91531,130277 88541,127288 84766,127288 Z" fill="#29B5E8" />
  <path d="M 119707,127288 C 115932,127288 112882,130277 112882,134052 C 112882,137827 115932,140817 119707,140817 L 154525,140817 C 158300,140817 161350,137827 161350,134052 C 161259,130277 158269,127288 154525,127288 Z" fill="#29B5E8" />
  <path d="M 189436,127288 C 185661,127288 182671,130277 182671,134052 C 182671,137827 185661,140817 189436,140817 L 224284,140817 C 228028,140817 231078,137827 231078,134052 C 231078,130277 228028,127288 224284,127288 Z" fill="#29B5E8" />
  <path d="M 49918,162167 C 46143,162167 43093,165217 43093,168992 C 43093,172707 46143,175757 49918,175757 L 84766,175757 C 88541,175757 91531,172707 91531,168992 C 91531,165217 88541,162167 84766,162167 Z" fill="#29B5E8" />
  <path d="M 119707,162167 C 115932,162167 112882,165217 112882,168992 C 112882,172707 115932,175757 119707,175757 L 154525,175757 C 158300,175757 161350,172707 161350,168992 C 161350,165217 158269,162167 154525,162167 Z" fill="#29B5E8" />
  <path d="M 189436,162167 C 185661,162167 182671,165217 182671,168992 C 182671,172707 185661,175757 189436,175757 L 224284,175757 C 228028,175757 231078,172707 231078,168992 C 231078,165217 228028,162167 224284,162167 Z" fill="#29B5E8" />
  <path d="M 49918,197047 C 46143,197047 43093,200067 43093,203841 C 43093,207586 46143,210605 49918,210605 L 84766,210605 C 88541,210605 91531,207586 91531,203841 C 91531,200067 88541,197047 84766,197047 Z" fill="#29B5E8" />
  <path d="M 119707,197047 C 115932,197047 112882,200067 112882,203841 C 112882,207586 115932,210605 119707,210605 L 154525,210605 C 158300,210605 161350,207586 161350,203841 C 161350,200067 158269,197047 154525,197047 Z" fill="#29B5E8" />
  <path d="M 189436,197047 C 185661,197047 182671,200067 182671,203841 C 182671,207586 185661,210605 189436,210605 L 224284,210605 C 228028,210605 231078,207586 231078,203841 C 231078,200067 228028,197047 224284,197047 Z" fill="#29B5E8" />
</svg>