<?xml version="1.0" encoding="utf-8"?>
<svg xmlns="http://www.w3.org/2000/svg" viewBox="0 0 273650 273710">
  <path d="M 197099,71870 C 193476,71870 189912,73591 187678,76702 L 123417,170253 L 84010,132356 C 81835,130272 78997,129215 76188,129215 C 73199,129215 70209,130393 68005,132718 C 63687,137187 63838,144404 68307,148723 L 117378,195951 C 119522,198005 122300,199122 125229,199122 C 125592,199122 125924,199122 126346,199062 C 129668,198730 132628,196918 134560,194200 L 206370,89626 C 209933,84462 208635,77366 203471,73833 C 201508,72504 199304,71870 197099,71870 Z M 136825,22709 C 199787,22709 250941,73923 250941,136825 C 250941,199787 199696,250971 136825,250971 C 73863,250971 22709,199787 22709,136825 C 22709,73923 73863,22709 136825,22709 Z M 136825,30 C 61361,30 30,61422 30,136825 C 30,212319 61361,273680 136825,273680 C 212258,273680 273650,212319 273650,136825 C 273650,61422 212258,30 136825,30 Z" fill="#29B5E8" />
</svg>