<?xml version="1.0" encoding="utf-8"?>
<svg xmlns="http://www.w3.org/2000/svg" viewBox="0 0 281679 201244">
  <path d="M 61644,68438 C 25022,71113 -2496,102969 180,139590 C 2732,174536 31968,201502 67006,201229 L 225355,201229 C 255749,201935 280958,177868 281664,147475 C 282081,129472 273667,112402 259133,101769 C 259274,45705 213939,141 157874,0 C 114464,-108 75788,27397 61644,68438 Z M 236704,101769 C 236704,103110 236704,104271 236704,105522 L 236704,106774 C 236397,111056 238590,115129 242334,117229 C 258293,125794 264286,145676 255721,161635 C 249758,172746 237952,179454 225355,178889 L 67006,178889 C 42625,178889 22861,159125 22861,134744 C 22861,110364 42625,90600 67006,90600 L 67006,90600 L 69150,90600 C 74415,90805 79108,87304 80410,82200 C 91320,39805 134533,14281 176928,25192 C 211823,34172 236270,65560 236436,101590 Z" fill="#29B5E8" />
</svg>