<?xml version="1.0" encoding="utf-8"?>
<svg xmlns="http://www.w3.org/2000/svg" viewBox="0 0 217185 236570">
  <path d="M 178252,149831 L 168349,143822 C 172339,135645 174423,126729 174454,117695 C 174463,107997 172143,98430 167671,89740 L 177710,84123 C 180324,82711 181253,79525 179786,77009 C 179773,76985 179758,76962 179744,76938 C 178222,74452 174895,73626 172314,75092 C 172304,75098 172294,75104 172284,75109 L 161973,80857 C 150878,65814 133454,56253 114358,54730 L 114358,43366 C 114358,40480 111929,38140 108932,38140 C 105935,38140 103506,40480 103506,43366 L 103506,55253 C 84146,56818 66528,66642 55483,82033 L 45309,76415 C 42687,74973 39347,75850 37848,78375 C 36350,80900 37261,84117 39883,85560 L 49922,91569 C 45914,99744 43785,108656 43681,117695 C 43653,127410 46025,136992 50599,145650 L 40833,151529 C 38251,152995 37393,156199 38915,158683 C 38921,158694 38927,158703 38933,158714 C 39889,160366 41718,161372 43681,161326 C 44641,161295 45576,161024 46395,160543 L 56569,154925 C 67642,169862 84931,179403 103913,181052 L 103913,192286 C 103913,195171 106342,197511 109339,197511 C 112336,197511 114765,195171 114765,192286 L 114765,181052 C 134287,179250 151951,169140 162923,153488 L 172691,158975 C 173542,159362 174463,159583 175404,159628 C 178400,159675 180868,157373 180916,154488 C 180949,152557 179872,150766 178117,149831 Z M 108661,169948 C 78692,169918 54423,146499 54454,117642 C 54464,108487 56971,99497 61724,91569 L 61724,91569 L 61724,91569 C 76498,66461 109612,57641 135685,71869 C 152806,81211 163331,98747 163195,117695 C 163426,126802 161181,135809 156683,143822 L 156683,143822 L 156683,143822 C 146808,160300 128414,170307 108661,169948 Z" fill="#29B5E8" />
  <path d="M 108660,34482 C 118547,34699 126745,27155 126969,17635 C 127193,8114 119360,221 109473,5 C 99586,-212 91390,7331 91165,16852 C 91161,17024 91160,17197 91161,17370 C 91231,26691 98982,34271 108660,34482 Z M 108660,10577 C 112555,10504 115774,13487 115849,17238 C 115924,20989 112827,24088 108932,24160 C 105037,24232 101818,21250 101743,17499 C 101742,17456 101742,17413 101742,17370 C 101667,13691 104703,10650 108523,10578 C 108569,10577 108615,10577 108660,10577 Z" fill="#29B5E8" />
  <path d="M 18042,50681 C 8153,50609 75,58271 1,67793 C -75,77317 7881,85095 17771,85167 C 27660,85239 35738,77578 35812,68055 C 35813,68011 35813,67968 35813,67925 C 35814,58452 27879,50753 18042,50681 Z M 18042,74587 C 14147,74658 10929,71675 10855,67925 C 10781,64174 13878,61075 17774,61004 C 21669,60932 24887,63915 24961,67666 C 24963,67752 24963,67838 24961,67925 C 24961,71604 21863,74587 18042,74587 Z" fill="#29B5E8" />
  <path d="M 18042,151659 C 8153,151588 75,159249 1,168772 C -74,178295 7882,186073 17771,186145 C 27661,186216 35738,178555 35812,169032 C 35814,168946 35814,168858 35812,168772 C 35739,159351 27826,151730 18042,151659 Z M 18042,175565 C 14147,175637 10928,172655 10853,168904 C 10778,165154 13875,162054 17770,161982 C 21666,161910 24884,164892 24959,168643 C 24960,168686 24960,168729 24960,168772 C 24961,172473 21885,175494 18042,175565 Z" fill="#29B5E8" />
  <path d="M 199278,85429 C 209168,85429 217185,77709 217185,68186 C 217185,58662 209168,50942 199278,50942 C 189389,50942 181372,58662 181372,68186 C 181372,77709 189389,85429 199278,85429 Z M 199278,61523 C 203175,61524 206333,64566 206332,68317 C 206332,72069 203172,75109 199276,75109 C 195380,75108 192223,72066 192223,68315 C 192223,68271 192223,68229 192224,68186 C 192223,64506 195320,61523 199142,61522 C 199188,61522 199232,61522 199278,61523 Z" fill="#29B5E8" />
  <path d="M 199278,151659 C 189389,151659 181372,159380 181372,168903 C 181373,178427 189391,186146 199280,186146 C 209169,186146 217187,178426 217185,168903 C 217185,168858 217185,168815 217185,168772 C 217110,159300 209115,151659 199278,151659 Z M 199278,175565 C 195384,175637 192165,172655 192090,168904 C 192016,165154 195113,162054 199007,161982 C 202902,161910 206121,164892 206196,168643 C 206197,168686 206197,168729 206197,168772 C 206198,172473 203121,175494 199278,175565 Z" fill="#29B5E8" />
  <path d="M 108660,202084 C 98771,202084 90754,209804 90754,219327 C 90754,228850 98771,236571 108660,236571 C 118550,236571 126567,228850 126567,219327 C 126567,209804 118550,202084 108660,202084 Z M 108660,225989 C 104839,225989 101742,223007 101742,219327 C 101742,215647 104839,212665 108660,212665 C 112481,212665 115579,215647 115579,219327 C 115579,223007 112481,225989 108660,225989 Z" fill="#29B5E8" />
  <path d="M 135792,33698 L 169163,54208 C 170027,54820 171075,55141 172147,55122 C 173968,54933 175584,53912 176489,52379 C 178085,50023 177397,46866 174950,45328 C 174875,45282 174801,45237 174725,45194 L 141896,24816 C 139348,23265 135978,23996 134367,26449 C 132756,28902 133516,32148 136063,33698 Z" fill="#29B5E8" />
  <path d="M 45852,55123 C 46924,55142 47972,54820 48836,54208 L 82208,33699 C 84822,32146 85633,28846 84020,26328 C 84004,26303 83987,26278 83971,26253 C 82300,23832 78929,23136 76374,24685 L 43003,45456 C 40470,46831 39513,49884 40832,52379 C 41865,54102 43786,55152 45852,55123 Z" fill="#29B5E8" />
  <path d="M 20890,136506 L 20890,98362 C 20967,95549 18660,93209 15739,93136 C 15647,93134 15556,93134 15464,93136 C 12469,93064 9979,95345 9904,98229 C 9903,98273 9902,98317 9902,98362 L 9902,136506 C 10381,139428 13228,141423 16262,140963 C 18646,140602 20515,138802 20890,136506 Z" fill="#29B5E8" />
  <path d="M 194802,98362 L 194802,136506 C 194802,139392 197232,141731 200228,141731 C 203225,141731 205654,139392 205654,136506 L 205654,98362 C 205654,95476 203225,93136 200228,93136 C 197232,93136 194802,95476 194802,98362 Z" fill="#29B5E8" />
  <path d="M 169434,181574 L 135792,202214 C 133295,203773 132568,206979 134164,209399 C 135186,210903 136910,211831 138777,211881 C 139807,211900 140812,211578 141625,210966 L 175132,190457 C 177679,188906 178438,185660 176828,183207 C 175218,180754 171846,180024 169299,181574 Z" fill="#29B5E8" />
  <path d="M 82208,202214 L 48701,181574 C 46302,179845 42901,180316 41105,182626 C 41008,182750 40917,182879 40832,183012 C 39223,185471 39946,188717 42460,190327 L 75967,210836 C 76779,211447 77786,211770 78816,211750 C 80868,211865 82811,210854 83835,209138 C 85327,206786 84605,203718 82208,202214 Z" fill="#29B5E8" />
</svg>