<?xml version="1.0" encoding="utf-8"?>
<svg xmlns="http://www.w3.org/2000/svg" viewBox="0 0 336985 271729">
  <path d="M 123350,150023 C 123314,150023 123277,150023 123204,150023 C 121816,150132 120501,151119 120026,152471 C 119916,152836 116993,160984 105630,165990 C 103803,166793 102963,168913 103803,170739 C 104388,172164 105703,172968 107091,172968 C 107566,172968 108078,172859 108553,172639 C 116335,169168 121049,164419 123716,160619 C 128648,167122 139171,177682 157440,181482 C 157732,181591 157951,181591 158207,181591 C 159888,181591 161423,180422 161751,178741 C 162117,176768 160911,174868 158974,174430 C 135919,169680 127077,152727 126675,152032 C 126018,150790 124666,150023 123350,150023 Z M 100368,176074 C 100332,176074 100295,176074 100259,176074 C 98322,176220 96751,177974 96970,179983 C 99163,211004 117176,221855 124849,225107 C 126895,225984 129196,226459 131462,226459 C 133252,226459 135042,226203 136796,225619 C 144104,223171 161751,214548 167707,186633 C 168072,184697 166903,182797 164894,182431 C 164601,182358 164309,182322 164053,182322 C 162409,182322 160984,183491 160655,185172 C 155394,209396 140633,216704 134494,218750 C 133508,219079 132485,219225 131498,219225 C 130183,219225 128868,218969 127662,218494 C 121304,215790 106178,206437 104132,179435 C 104022,177462 102232,176074 100368,176074 Z M 220905,112864 C 220431,112864 219956,112864 219517,112864 C 212831,113010 192991,112791 183747,135262 C 182066,139463 184039,144323 188314,146077 C 189337,146479 190397,146661 191420,146661 C 194672,146661 197814,144761 199129,141510 C 203623,130585 211333,129416 218896,129416 C 219079,129416 219298,129416 219481,129416 L 220431,129416 C 224523,129416 231282,129416 236288,134385 C 240197,138294 242645,144981 243668,153823 C 242974,153165 242097,152727 241074,152727 C 224084,152727 210821,137929 210675,137746 C 209944,136979 208958,136504 207935,136504 C 207387,136504 206839,136650 206327,136906 C 204866,137637 204062,139171 204391,140815 C 204427,141254 206217,150936 197120,154846 C 195329,155686 194525,157769 195220,159632 C 195877,160984 197120,161788 198581,161788 C 199020,161788 199495,161678 199970,161532 C 206839,158536 209981,153165 211150,148123 C 217398,153238 228140,159997 241001,159997 C 242134,159997 243193,159413 243888,158536 C 243924,159997 244034,161349 244034,162920 C 244034,165113 244984,167232 246482,168730 C 247578,169826 248236,171361 248236,172932 L 248236,175964 C 248272,177353 247687,178778 246555,179874 L 245130,181335 C 243595,182833 242682,184953 242682,187145 C 242682,192552 240234,197704 236178,200919 C 234278,202381 232232,204427 229930,206656 C 227373,209287 222002,214548 219882,214584 C 217836,214548 212465,209287 209871,206656 C 207642,204500 205633,202491 203623,200956 C 202125,199787 200335,199202 198545,199202 C 196097,199202 193685,200298 192077,202381 C 189191,206035 189885,211223 193466,214000 C 194927,215132 196498,216777 198179,218494 C 203879,224194 211040,231246 219882,231246 C 228798,231246 235922,224194 241586,218494 C 243339,216777 244984,215132 246372,214000 C 253497,208337 258101,199896 259087,190835 C 262777,186633 264824,181445 264824,175891 L 264824,172822 C 264824,168109 263289,163578 260695,159778 C 260220,143081 255908,130585 248016,122620 C 238845,113485 227482,112864 220905,112864 Z M 188862,0 C 136906,0 91271,32738 74500,80748 C 32884,83927 0,119039 0,161861 C 0,190872 15638,217946 40849,232488 C 42932,233730 45124,234278 47316,234278 C 51810,234278 56158,231940 58496,227811 C 62004,221636 59958,213781 53783,210200 C 36464,200225 25759,181701 25759,161897 C 25759,131791 50787,106470 80309,106470 L 80346,106470 C 81369,106580 82355,106726 83378,106799 C 83561,106799 83707,106799 83853,106799 C 89846,106799 95034,102816 96459,97080 C 107201,55172 145200,25942 188826,25942 C 241330,25942 284079,68362 284079,120610 C 284079,122620 283860,124922 283750,127223 C 283385,132229 285869,136942 290254,139390 C 303115,146698 311153,160509 311153,175270 C 311153,189045 304284,202052 292811,210090 C 286892,214146 285504,222184 289559,228030 C 292080,231684 296063,233620 300155,233620 C 302713,233620 305270,232853 307536,231319 C 325987,218494 336985,197485 336985,175270 C 336985,153932 326791,133983 310057,121377 L 310057,120574 C 310057,54112 255653,0 188862,0 Z M 122729,124922 C 126383,124922 128502,126529 129014,126968 C 130621,128539 132741,129379 134896,129379 C 135919,129379 136942,129196 137929,128795 C 139025,128393 141838,127479 145346,127479 C 150936,127479 158207,129854 162884,140523 C 165770,146990 168365,172603 169388,189154 C 170191,197010 169863,206217 169278,207825 C 166903,210017 161021,212356 157732,213306 C 153311,214548 150717,219079 151959,223500 C 152471,225071 153311,226349 154480,227336 L 132485,246701 L 107859,225071 C 108882,223865 109722,222513 109978,220942 C 110672,216375 107530,212136 102963,211515 C 101574,211223 96970,209981 95509,208519 C 94449,206181 94851,196973 96349,189191 C 96569,188168 96569,187072 96349,186049 C 96203,185683 88823,144725 110745,129452 C 115751,125945 119733,124922 122729,124922 Z M 122693,108516 C 116481,108516 109174,110453 101282,115970 C 73075,135554 78409,178522 79871,187620 C 77898,198764 76948,212648 82867,219042 C 85571,221928 88969,223938 92001,225290 C 64014,233949 61894,238882 60762,241622 C 58752,246555 58095,253058 57510,258795 L 57072,262448 C 56487,266943 59739,271108 64306,271656 C 64635,271729 64927,271729 65256,271729 C 69458,271729 73038,268696 73513,264458 L 73915,260585 C 74317,257004 74756,252291 75596,249332 C 79286,247103 89955,243230 100003,240197 L 126785,263691 C 128210,264933 130000,265481 131718,265591 C 132010,265591 132229,265700 132485,265700 C 132777,265591 133033,265591 133325,265554 C 135116,265445 136833,264896 138258,263654 L 165040,240088 C 175088,243193 185866,247103 189447,249258 C 190506,252803 191018,258649 191347,262595 L 191529,264166 C 191895,268477 195475,271729 199714,271729 C 199933,271729 200189,271656 200481,271656 C 204975,271217 208337,267162 207898,262595 L 207789,261133 C 207167,254885 206510,247139 204391,241622 C 203258,238845 201139,233840 172713,225107 C 175416,223755 178303,222038 180495,219955 C 187254,213890 187181,198873 185939,187729 C 185464,180678 183126,145236 178084,133873 C 170228,115970 156709,110928 145383,110928 C 142131,110928 139062,111330 136358,111987 C 132887,110051 128210,108516 122693,108516 Z M 251012,222586 C 249039,222586 247139,223317 245605,224742 L 215352,251305 C 211917,254301 211588,259562 214621,262997 C 216265,264823 218567,265810 220869,265810 C 222805,265810 224742,265116 226313,263691 L 253095,240197 C 263143,243230 273812,247103 277502,249258 C 278233,252145 278708,256639 279037,259854 C 279256,261681 279402,263325 279585,264677 C 280242,268806 283713,271729 287769,271729 C 288207,271729 288573,271729 289011,271656 C 293578,270962 296684,266796 296027,262266 C 295807,261133 295625,259745 295515,258174 C 294930,252803 294236,246226 292336,241622 C 291130,238626 288792,233145 253314,222952 C 252547,222732 251780,222586 251012,222586 Z" fill="#29B5E8" />
</svg>