<?xml version="1.0" encoding="utf-8"?>
<svg xmlns="http://www.w3.org/2000/svg" viewBox="0 0 337678 383686">
  <path d="M 327053,249603 C 333929,231037 337368,211096 337368,191155 C 337368,171215 333929,151274 327053,132021 C 337368,123082 340805,107955 333929,95578 C 327053,83200 311926,78387 298861,83200 C 272732,51571 236977,30943 197095,24067 C 195032,10315 183343,0 168903,0 C 154463,0 142774,10315 140711,24067 C 100830,30943 65074,51571 38945,83200 C 25880,78387 10753,83200 3877,95578 C -249,102454 -936,110017 1126,117582 C 2501,123770 5940,128583 10753,132021 C 3877,150587 439,170527 439,191155 C 439,211784 3877,231037 10753,250290 C 5940,253728 2501,259229 1126,265417 C -936,272981 439,280545 3877,287421 C 7315,294297 14191,299110 21067,301173 C 23818,301173 25880,302548 28631,302548 C 31381,302548 35507,302548 38945,300486 C 65074,332116 100830,352744 140711,359620 C 142774,373372 154463,383686 168903,383686 C 183343,383686 195032,373372 197095,359620 C 236977,352744 272732,332116 298861,300486 C 302299,301861 305738,302548 309175,302548 C 312614,302548 313989,302548 316739,301173 C 324303,299110 330491,294297 333929,287421 C 340805,275044 338055,259229 327053,250978 L 327053,250978 Z M 289235,250978 L 214285,207658 C 216348,202845 217036,197344 217036,191155 C 217036,184967 215660,178778 213598,173278 L 287860,130646 C 291297,134084 296111,136835 300924,138210 C 303674,138897 305738,138897 308488,138897 C 311238,138897 309863,138897 310550,138897 C 316739,155400 320177,173278 320177,191155 C 320177,209033 316739,226911 310550,243414 C 307113,243414 303674,243414 300924,244102 C 296111,245477 292673,247539 289235,250290 L 289235,250290 Z M 168216,222785 C 151025,222785 136586,208346 136586,191155 C 136586,173966 151025,159525 168216,159525 C 185406,159525 199846,173966 199846,191155 C 199846,208346 185406,222785 168216,222785 Z M 45821,249603 C 43071,246852 38945,244789 34819,244102 C 31381,243414 28631,242726 25193,243414 C 19004,226911 15566,209033 15566,191155 C 15566,173278 19004,155400 25193,138897 C 25880,138897 26568,138897 27255,138897 C 30006,138897 32069,138897 34819,138210 C 39632,136835 43758,134771 47196,131334 L 122145,174653 C 120083,180154 119395,185655 119395,191843 C 119395,198031 120083,202157 122145,206971 L 46508,250290 L 46508,250290 Z M 318802,104517 C 322240,110017 320177,117582 314676,120332 C 311926,121707 309175,122394 305738,121707 C 302987,121019 300237,118957 298861,116206 C 295423,110705 297486,103141 302987,100391 C 308488,96953 315364,99016 318802,104517 Z M 285109,93515 C 280984,99704 278920,107267 280296,114831 L 204659,158150 C 197782,150587 188156,144398 177154,143023 L 177154,56384 C 184718,53634 190906,48821 194345,41257 C 230100,47445 261731,66010 285109,93515 Z M 168216,17191 C 174404,17191 179905,22691 179905,28880 C 179905,35068 174404,40569 168216,40569 C 162027,40569 156526,35068 156526,28880 C 156526,22691 162027,17191 168216,17191 Z M 142086,41257 C 145524,48821 151713,53634 159276,56384 L 159276,143023 C 147587,145086 137961,151274 130397,159525 L 55448,116206 C 56135,112081 56135,107267 55448,102454 C 54760,99016 53384,96265 51322,93515 C 74701,65323 106331,47445 142086,41257 Z M 17629,104517 C 19692,101079 23818,98328 27943,98328 C 32069,98328 32069,98328 34131,99704 C 36882,101079 38945,103829 39632,106580 C 40320,109330 39632,112768 38257,115518 C 36882,118269 34131,120332 31381,121019 C 28631,121707 25193,121019 22442,119644 C 19692,118269 17629,115518 16942,112768 C 16254,110017 16942,106580 18317,103829 Z M 24505,283295 C 21754,282608 19004,280545 17629,277794 C 16254,275044 15566,272293 16254,268856 C 16942,266105 19004,263355 21754,261980 C 23818,260604 25880,260604 27943,260604 C 32069,260604 36195,262667 38257,266105 C 39632,268856 40320,271606 39632,275044 C 38945,277794 36882,280545 34131,281920 C 31381,283295 27943,283983 25193,283295 Z M 51322,288796 C 53384,286045 54760,283295 55448,279857 C 56823,274356 56823,269543 55448,264730 L 129710,222098 C 137273,231037 147587,237913 159964,239976 L 159964,326615 C 152400,328677 146212,334178 142774,341742 C 107018,335553 75388,316988 52009,289484 Z M 168216,365121 C 162027,365121 156526,359620 156526,353431 C 156526,347243 162027,341742 168216,341742 C 174404,341742 179905,347243 179905,353431 C 179905,359620 174404,365121 168216,365121 Z M 194345,341054 C 190906,334178 184718,328677 177154,325927 L 177154,239288 C 188844,237226 198470,231037 206034,222098 L 280984,265417 C 278920,273669 280984,281920 285109,288109 C 261731,316300 230100,334178 194345,340367 L 194345,340367 Z M 318802,277794 C 317427,280545 314676,282608 311926,283295 C 309175,283983 305738,283295 302987,281920 C 297486,278482 295423,271606 298861,266105 C 300924,262667 305050,260604 309175,260604 C 313301,260604 313301,260604 314676,261980 C 320177,265417 322240,272293 318802,277794 Z" fill="#29B5E8" />
  <path d="M 265856,156776 C 257605,156776 251416,163652 251416,171216 C 251416,178779 258292,185655 265856,185655 C 273420,185655 280296,178779 280296,171216 C 280296,163652 273420,156776 265856,156776 Z" fill="#29B5E8" />
  <path d="M 265856,194594 C 257605,194594 251416,201470 251416,209033 C 251416,216597 258292,223473 265856,223473 C 273420,223473 280296,216597 280296,209033 C 280296,201470 273420,194594 265856,194594 Z" fill="#29B5E8" />
  <path d="M 70574,194594 C 62324,194594 56135,201470 56135,209033 C 56135,216597 63011,223473 70574,223473 C 78138,223473 85015,216597 85015,209033 C 85015,201470 78138,194594 70574,194594 Z" fill="#29B5E8" />
  <path d="M 70574,156776 C 62324,156776 56135,163652 56135,171216 C 56135,178779 63011,185655 70574,185655 C 78138,185655 85015,178779 85015,171216 C 85015,163652 78138,156776 70574,156776 Z" fill="#29B5E8" />
  <path d="M 188156,88702 C 184030,95578 186781,104517 193657,108643 C 200533,112769 209472,110018 213598,103142 C 217724,96266 214973,87327 208097,83201 C 201221,79075 192282,81826 188156,88702 Z" fill="#29B5E8" />
  <path d="M 226662,127208 C 233538,131334 242477,128583 246603,121707 C 250729,114831 247978,105892 241102,101766 C 234226,97641 225287,100391 221161,107267 C 217036,114143 219786,123082 226662,127208 Z" fill="#29B5E8" />
  <path d="M 148275,291547 C 152400,284671 149650,275732 142774,271606 C 135898,267480 126958,270231 122833,277107 C 118707,283983 121457,292922 128334,297048 C 135210,301174 144149,298423 148275,291547 Z" fill="#29B5E8" />
  <path d="M 109768,253040 C 102892,248915 93953,251665 89827,258541 C 85702,265417 88452,274356 95328,278482 C 102204,282608 111144,279857 115269,272981 C 119395,266105 116645,257166 109768,253040 Z" fill="#29B5E8" />
  <path d="M 109768,127208 C 116645,123082 119395,114143 115269,107267 C 111144,100391 102204,97641 95328,101766 C 88452,105892 85702,114831 89827,121707 C 93953,128583 102892,131334 109768,127208 Z" fill="#29B5E8" />
  <path d="M 142774,108643 C 149650,104517 152400,95578 148275,88702 C 144149,81826 135210,79075 128334,83201 C 121457,87327 118707,96266 122833,103142 C 126958,110018 135898,112769 142774,108643 Z" fill="#29B5E8" />
  <path d="M 226662,253040 C 219786,257166 217036,266105 221161,272981 C 225287,279857 234226,282608 241102,278482 C 247978,274356 250729,265417 246603,258541 C 242477,251665 233538,248915 226662,253040 Z" fill="#29B5E8" />
  <path d="M 193657,271606 C 186781,275732 184030,284671 188156,291547 C 192282,298423 201221,301174 208097,297048 C 214973,292922 217724,283983 213598,277107 C 209472,270231 200533,267480 193657,271606 Z" fill="#29B5E8" />
</svg>