<?xml version="1.0" encoding="utf-8"?>
<svg xmlns="http://www.w3.org/2000/svg" viewBox="0 0 274687 210996">
  <path d="M 274687,162052 L 274687,160447 L 274687,158848 L 274207,157614 C 274021,156987 273763,156386 273436,155820 L 273365,155661 L 272286,154621 L 271250,153546 L 257826,144238 L 252881,128880 C 251457,124462 246721,122036 242303,123460 C 241287,123788 240341,124306 239519,124988 L 222010,139531 L 222010,137742 C 221990,119929 207555,105493 189742,105474 L 133701,105474 L 133701,53070 C 133730,52073 133580,51079 133261,50135 L 133128,49787 C 132690,48674 132018,47669 131158,46838 L 110657,26125 L 110657,8400 C 110657,3761 106896,0 102257,0 C 102248,0 102239,0 102231,0 L 25636,0 C 20997,0 17236,3761 17236,8400 L 17236,27791 L 727,64339 L 705,64436 L 330,66075 L 0,67706 L 0,67798 L 0,202596 C 0,207236 3761,210996 8400,210996 L 84968,210996 L 85343,210921 L 213610,210921 C 218249,210921 222010,207161 222010,202522 L 222010,181368 L 239519,195911 C 243093,198873 248391,198378 251353,194804 C 252035,193982 252553,193036 252881,192019 L 257826,176661 L 271250,167340 L 271444,167137 C 272184,166609 272833,165963 273365,165225 L 273436,165066 C 273763,164500 274021,163898 274207,163272 Z M 69517,194122 L 69517,137742 C 69526,129205 76444,122286 84981,122274 L 98136,122274 L 98136,194109 Z M 32599,34622 L 90772,34622 L 79574,59403 L 21396,59403 Z M 104875,44172 L 110163,49522 L 100908,52946 Z M 108228,122274 L 169218,122274 L 169218,194109 L 108220,194109 Z M 116906,105474 L 93368,105474 L 93368,73650 L 116897,64942 Z M 93857,16800 L 93857,24552 L 34040,24552 L 34040,16800 Z M 16782,76207 L 76568,76207 L 76568,106726 C 62871,110454 52713,122877 52713,137742 L 52713,194197 L 16782,194197 Z M 205206,194122 L 179305,194122 L 179305,122287 L 189742,122287 C 198279,122299 205196,129218 205206,137756 Z M 245900,164476 C 244384,165528 243257,167050 242692,168807 L 240682,175048 L 223098,160452 L 240682,145856 L 242692,152100 C 243256,153857 244384,155378 245900,156428 L 251700,160452 Z" fill="#29B5E8" />
</svg>