<?xml version="1.0" encoding="utf-8"?>
<svg xmlns="http://www.w3.org/2000/svg" viewBox="0 0 224539 256370">
  <path d="M 201159,108292 L 194678,108292 L 194678,10258 C 194678,4594 190087,3 184423,3 L 58578,3 C 55426,-71 52409,1286 50374,3695 L 1972,61121 C 640,62984 -51,65229 3,67520 L 3,246115 C -43,251733 4475,256325 10093,256370 C 10148,256371 10203,256371 10258,256370 L 184423,256370 C 190041,256414 194632,251898 194678,246280 C 194679,246225 194679,246170 194678,246115 L 194678,216581 L 201159,216581 C 214053,216536 224495,206094 224540,193201 L 224540,131673 C 224495,118779 214053,108337 201159,108292 Z M 51112,34951 L 51112,61531 L 28634,61531 Z M 174168,235861 L 20348,235861 L 20348,82040 L 61367,82040 C 66985,82086 71577,77568 71622,71950 C 71623,71895 71623,71840 71622,71785 L 71622,20512 L 174168,20512 L 174168,108292 L 78102,108292 C 65190,108292 54722,118760 54722,131673 L 54722,193201 C 54722,206114 65190,216581 78102,216581 L 174168,216581 Z M 211413,193201 C 211413,198864 206823,203455 201159,203455 L 78102,203455 C 72439,203455 67848,198864 67848,193201 L 67848,131673 C 67848,126009 72439,121418 78102,121418 L 201159,121418 C 206823,121418 211413,126009 211413,131673 Z" fill="#29B5E8" />
  <path d="M 103452,147423 C 107306,147494 110959,149157 113543,152017 L 117973,145946 C 114227,141893 108884,139702 103371,139958 C 90779,140281 80833,150749 81156,163341 C 81166,163751 81188,164161 81221,164569 C 80220,177125 89587,188115 102142,189116 C 102551,189148 102960,189170 103371,189180 C 108901,189438 114256,187211 117973,183110 L 113543,177039 C 110938,179860 107292,181491 103452,181551 C 95079,180811 88820,173533 89342,165143 C 88133,156621 94062,148731 102585,147522 C 102873,147480 103163,147447 103452,147423 Z" fill="#29B5E8" />
  <path d="M 139959,160467 C 132740,158088 130771,156529 130771,153247 C 130771,149966 133478,147259 138237,147259 C 142290,147234 146218,148660 149312,151279 L 153578,144798 C 149318,141196 143792,139453 138237,139957 C 127654,139957 121829,145372 121829,153576 C 121829,161779 126423,164569 136350,167769 C 144554,170393 145784,172198 145784,175972 C 145784,179746 143487,182535 137990,182535 C 133521,182395 129223,180780 125767,177941 L 121419,183929 C 126002,188087 132057,190244 138237,189918 C 146136,191007 153423,185485 154511,177586 C 154610,176860 154654,176129 154644,175398 C 154808,167932 150706,163749 139959,160467 Z" fill="#29B5E8" />
  <path d="M 178024,179417 L 164652,141024 L 156284,141024 L 174087,188687 L 182044,188687 L 199928,141024 L 191560,141024 L 178024,179417 Z" fill="#29B5E8" />
</svg>