<?xml version="1.0" encoding="utf-8"?>
<svg xmlns="http://www.w3.org/2000/svg" viewBox="0 0 205396 236079">
  <path d="M 102670,19785 C 156325,19785 185583,36804 185583,45522 C 185583,54241 156325,71260 102670,71260 C 49071,71260 19813,54241 19813,45522 C 19813,36804 49071,19785 102670,19785 Z M 185583,73439 L 185583,93895 C 185583,102614 156325,119632 102670,119632 C 49071,119632 19813,102614 19813,93895 L 19813,73439 C 39430,85064 71176,91045 102670,91045 C 134192,91045 165910,85064 185583,73439 Z M 185583,121868 L 185583,142128 C 185583,150847 156325,167865 102670,167865 C 49071,167865 19813,150847 19813,142128 L 19813,121868 C 39430,133493 71176,139417 102670,139417 C 134192,139417 165910,133493 185583,121868 Z M 185583,170101 L 185583,190557 C 185583,199275 156325,216294 102670,216294 C 49071,216294 19813,199275 19813,190557 L 19813,170101 C 39430,181726 71176,187678 102670,187678 C 134192,187678 165910,181726 185583,170101 Z M 102670,0 C 51642,0 28,15649 28,45550 L 28,190557 C 28,220430 51670,236079 102670,236079 C 153670,236079 205340,220486 205340,190557 L 205340,45522 C 205396,15649 153726,0 102670,0 Z" fill="#29B5E8" />
</svg>