<?xml version="1.0" encoding="utf-8"?>
<svg xmlns="http://www.w3.org/2000/svg" viewBox="0 0 250072 274257">
  <path d="M 86696,234973 L 20107,234973 L 20107,81411 L 61128,81411 C 66689,81411 71194,76907 71194,71345 L 71194,20108 L 173669,20108 L 173669,99959 C 180615,100462 187359,101745 193776,103708 L 193776,10066 C 193776,4505 189272,0 183710,0 L 58284,0 C 55314,0 52521,1309 50608,3574 L 2366,60599 C 830,62411 0,64701 0,67092 L 0,245039 C 0,250601 4505,255106 10066,255106 L 101670,255106 C 95806,249141 90773,242372 86721,234998 Z M 51086,34150 L 51086,61304 L 28135,61304 L 51086,34150 Z" fill="#29B5E8" />
  <path d="M 33194,113120 C 33194,116669 36062,119563 39636,119563 L 110100,119563 C 116694,114328 123992,109975 131868,106703 L 39636,106703 C 36088,106703 33194,109572 33194,113145 Z" fill="#29B5E8" />
  <path d="M 39636,211493 L 77787,211493 C 76831,207316 76152,203013 75799,198634 L 39636,198634 C 36088,198634 33194,201503 33194,205076 C 33194,208650 36062,211518 39636,211518 Z" fill="#29B5E8" />
  <path d="M 39636,180841 L 76076,180841 C 76580,176463 77360,172159 78467,167982 L 39661,167982 C 36113,167982 33219,170851 33219,174424 C 33219,177998 36088,180867 39661,180867 Z" fill="#29B5E8" />
  <path d="M 39636,150215 L 85186,150215 C 87451,145710 90093,141407 93038,137355 L 39636,137355 C 36088,137355 33194,140224 33194,143797 C 33194,147371 36062,150240 39636,150240 Z" fill="#29B5E8" />
  <path d="M 166924,274257 C 121072,274257 83777,236961 83777,191109 C 83777,145257 121072,107987 166924,107987 C 212776,107987 250072,145282 250072,191109 C 250072,236936 212776,274257 166924,274257 Z M 166924,119059 C 127188,119059 94875,151372 94875,191109 C 94875,230846 127213,263159 166924,263159 C 206636,263159 238974,230821 238974,191109 C 238974,151398 206636,119059 166924,119059 Z" fill="#29B5E8" />
  <path d="M 219118,211317 L 219118,182603 C 221685,181345 223472,178728 223472,175682 C 223472,172637 221685,170020 219118,168762 L 219118,157840 L 167377,157840 C 166119,155273 163502,153486 160457,153486 C 157412,153486 154794,155273 153536,157840 L 124621,157840 C 123363,155273 120745,153486 117700,153486 C 113447,153486 109974,156959 109974,161212 C 109974,164157 111660,166698 114102,168007 L 114102,211217 C 111660,212525 109974,215067 109974,218011 C 109974,222264 113447,225737 117700,225737 C 120645,225737 123186,224051 124495,221610 L 208825,221610 C 210084,224177 212701,225964 215746,225964 C 219999,225964 223472,222491 223472,218238 C 223472,215193 221685,212576 219118,211317 Z M 117725,222365 C 115335,222365 113372,220402 113372,218011 C 113372,215621 115335,213658 117725,213658 C 120116,213658 122079,215621 122079,218011 C 122079,220402 120116,222365 117725,222365 Z M 117725,156859 C 120116,156859 122079,158821 122079,161212 C 122079,163603 120116,165566 117725,165566 C 115335,165566 113372,163603 113372,161212 C 113372,158821 115335,156859 117725,156859 Z M 160482,156859 C 162873,156859 164836,158821 164836,161212 C 164836,163603 162873,165566 160482,165566 C 158091,165566 156128,163603 156128,161212 C 156128,158821 158091,156859 160482,156859 Z M 154946,166598 L 143722,183761 C 143168,183585 142589,183459 141960,183459 C 141104,183459 140324,183635 139594,183937 L 124268,165239 C 124394,165012 124520,164786 124646,164559 L 153562,164559 C 153914,165289 154392,165994 154946,166572 Z M 121903,167705 L 137002,186126 C 136323,187108 135945,188265 135945,189549 C 135945,190832 136323,191915 136952,192871 L 121324,211217 C 121173,211141 121047,211066 120896,210990 L 120896,168284 C 121249,168133 121601,167931 121928,167730 Z M 139494,195035 C 140249,195387 141079,195589 141985,195589 C 144124,195589 146012,194456 147069,192770 L 168938,199087 C 159324,201729 139645,207240 125451,211544 L 139494,195035 Z M 148025,189524 C 148025,188014 147446,186680 146565,185623 L 157789,168435 C 158645,168762 159526,168938 160482,168938 C 162621,168938 164584,168057 165968,166623 L 177821,174047 C 177670,174575 177570,175104 177570,175682 C 177570,177696 178551,179457 180061,180540 L 175531,193022 C 175405,193022 175254,192971 175128,192971 C 172964,192971 171077,194129 169995,195840 L 148000,189473 Z M 183257,181697 C 183383,181697 183509,181747 183635,181747 C 186378,181747 188668,179910 189397,177394 L 208247,177394 C 208297,177595 208372,177796 208423,177998 L 179356,194758 C 179155,194557 178929,194381 178702,194230 L 183232,181722 Z M 220125,175682 C 220125,178073 218162,180036 215771,180036 C 213380,180036 211418,178073 211418,175682 C 211418,173292 213380,171329 215771,171329 C 218162,171329 220125,173292 220125,175682 Z M 212399,164584 L 212399,168762 C 210310,169769 208750,171681 208247,173996 L 189397,173996 C 188668,171480 186378,169643 183635,169643 C 182099,169643 180690,170247 179633,171203 L 169063,164584 L 212399,164584 Z M 208851,214866 L 126030,214866 C 140299,210537 160432,204925 170045,202258 C 171127,203944 172989,205076 175128,205076 C 177041,205076 178702,204170 179834,202786 L 209052,214463 C 208976,214589 208901,214715 208825,214866 Z M 211493,211821 L 181118,199716 C 181118,199489 181193,199288 181193,199062 C 181193,198583 181118,198105 181017,197652 L 210109,180917 C 210763,181622 211543,182200 212424,182628 L 212424,211342 C 212122,211493 211795,211644 211518,211846 Z" fill="#29B5E8" />
</svg>