<?xml version="1.0" encoding="utf-8"?>
<svg xmlns="http://www.w3.org/2000/svg" viewBox="0 0 393613 357855">
  <path d="M 313256,46 C 308827,46 304672,2858 303257,7330 L 288510,52643 C 286638,58267 289697,64214 295130,66150 C 296226,66473 297321,66611 298463,66611 C 302983,66611 307001,63753 308416,59374 L 323209,13968 C 324077,11248 323894,8436 322570,5900 C 321292,3273 319146,1429 316498,553 C 315402,230 314352,46 313256,46 Z M 244130,5440 C 242532,5440 240980,5808 239519,6500 C 234314,9173 232305,15535 234862,20744 L 256138,63246 C 257919,66887 261572,69100 265589,69100 C 267142,69100 268831,68685 270338,67994 C 275451,65320 277506,59005 274949,53750 L 253582,11248 C 252303,8712 250112,6776 247463,5947 C 246368,5578 245226,5440 244130,5440 Z M 365671,45498 C 364073,45498 362429,45913 360968,46697 L 318780,68270 C 313575,70944 311521,77306 314123,82422 C 315858,86064 319465,88231 323392,88231 C 325081,88231 326725,87908 328140,87170 L 370373,65597 C 375533,62923 377633,56608 375076,51399 C 373798,48817 371560,46881 368958,46098 C 367908,45683 366812,45498 365671,45498 Z M 325994,100493 C 324396,100493 322798,100861 321292,101599 C 318780,102890 316908,105148 316087,107776 C 314260,113354 317228,119300 322707,121098 L 367588,136034 C 368638,136356 369688,136495 370876,136495 C 375487,136495 379459,133637 380920,129257 C 381696,126492 381559,123726 380281,121098 C 379003,118563 376811,116673 374209,115843 L 329282,101046 C 328232,100677 327090,100493 325994,100493 Z M 278465,217258 C 285313,217258 290792,222974 290792,229796 C 290792,236665 285222,242242 278465,242242 L 246916,242242 C 240021,242242 234542,236665 234542,229796 C 234542,222835 240158,217258 246916,217258 Z M 270977,263493 C 277826,263493 283350,269163 283350,276032 C 283350,282854 277780,288478 270977,288478 L 239336,288478 C 232488,288478 227009,282854 227009,276032 C 227009,269025 232533,263493 239336,263493 Z M 184091,48310 C 185278,48310 186511,48495 187743,48817 C 192903,50200 196601,55640 196601,61771 L 196601,67210 C 196875,94408 194866,121790 190666,148757 C 189387,156685 188565,163277 188063,169547 L 184639,214953 C 184639,239108 165234,258699 141310,258699 C 135557,258699 130809,263493 130809,269302 C 130809,275110 135557,279904 141310,279904 C 158431,279904 174594,273128 186739,260958 C 198930,248696 205550,232562 205550,215829 L 208289,180979 L 360283,180979 C 367132,180979 372702,186695 372702,193517 C 372702,200432 367086,205964 360283,205964 L 301978,205964 C 295723,199602 287277,196007 278465,196007 L 246916,196007 C 228470,196007 213494,211127 213494,229658 C 213494,236711 215595,243349 219521,248973 C 211074,255196 206052,265107 206052,275894 C 206052,280918 207194,285943 209431,290460 C 196281,295024 187150,307655 187150,322083 C 187150,326463 188017,330657 189570,334622 L 158660,334622 C 133228,334622 108802,323789 91269,304889 L 91269,177429 C 98711,169362 107204,162863 116564,157976 C 124554,153874 132087,148157 140260,139906 C 160349,119992 171855,91918 171809,62831 L 171809,60803 C 171809,56838 173590,53243 176694,50892 C 178886,49186 181443,48310 184091,48310 Z M 252029,309637 C 258878,309637 264357,315307 264357,322129 C 264357,329044 258787,334622 252029,334622 L 220343,334622 C 213586,334622 208015,328998 208015,322129 C 208015,315215 213586,309637 220480,309637 Z M 69171,164384 L 69171,337019 L 20820,337019 L 20820,164384 Z M 184274,27151 C 177014,27151 169937,29549 163956,34112 C 155601,40520 150807,50385 150807,60849 L 150807,63061 C 150852,86387 141629,108928 125558,124878 C 118846,131562 112911,136080 106930,139168 C 100629,142395 94739,146314 89169,150693 C 87799,146452 84055,143363 79444,143363 L 10364,143363 C 4703,143363 0,148065 0,153827 L 0,347345 C 0,353107 4703,357809 10364,357809 L 79444,357809 C 85106,357809 89763,353107 89763,347345 L 89763,332133 C 109441,347345 133502,355827 158523,355827 L 251892,355827 C 270338,355827 285313,340707 285313,322129 C 285313,317013 284081,312080 281935,307563 C 295084,302999 304216,290368 304216,275940 C 304216,268887 302070,262249 298189,256625 C 306681,250402 311658,240491 311658,229750 C 311658,228828 311658,228090 311521,227215 L 360146,227215 C 378546,227215 393522,212095 393522,193517 C 393567,174894 378683,159774 360283,159774 L 210298,159774 C 210664,157377 210983,154842 211394,152122 C 215823,124095 217923,95422 217649,67026 L 217558,61771 C 217558,46005 207604,32314 193177,28350 C 190209,27566 187241,27151 184274,27151 Z" fill="#29B5E8" />
</svg>