<?xml version="1.0" encoding="utf-8"?>
<svg xmlns="http://www.w3.org/2000/svg" viewBox="0 0 346500 312014">
  <path d="M 275761,40 C 271862,40 268205,2492 266959,6391 L 253977,45900 C 252329,50803 255022,55988 259805,57676 C 260769,57958 261734,58078 262739,58078 C 266718,58078 270255,55586 271501,51768 L 284523,12178 C 285287,9807 285126,7355 283960,5145 C 282835,2854 280946,1246 278615,482 C 277650,201 276726,40 275761,40 Z M 214910,4743 C 213503,4743 212136,5064 210850,5667 C 206268,7998 204500,13545 206750,18087 L 225480,55144 C 227048,58319 230263,60248 233800,60248 C 235167,60248 236654,59887 237980,59284 C 242482,56953 244290,51446 242040,46864 L 223229,9807 C 222104,7596 220175,5908 217844,5185 C 216879,4863 215874,4743 214910,4743 Z M 321902,39670 C 320495,39670 319048,40032 317762,40715 L 280624,59525 C 276042,61856 274234,67403 276525,71864 C 278052,75039 281227,76928 284684,76928 C 286171,76928 287618,76647 288864,76004 L 326042,57194 C 330584,54863 332433,49356 330182,44815 C 329056,42564 327087,40876 324796,40192 C 323872,39831 322907,39670 321902,39670 Z M 286975,87620 C 285568,87620 284161,87941 282835,88584 C 280624,89710 278977,91679 278253,93970 C 276645,98833 279258,104018 284081,105586 L 323590,118608 C 324515,118889 325439,119010 326484,119010 C 330544,119010 334040,116518 335326,112700 C 336010,110288 335889,107877 334764,105586 C 333638,103375 331709,101727 329418,101004 L 289869,88102 C 288944,87780 287939,87620 286975,87620 Z M 245134,189427 C 251163,189427 255986,194411 255986,200359 C 255986,206348 251083,211211 245134,211211 L 217361,211211 C 211292,211211 206469,206348 206469,200359 C 206469,194290 211413,189427 217361,189427 Z M 238543,229740 C 244572,229740 249435,234684 249435,240672 C 249435,246621 244531,251524 238543,251524 L 210689,251524 C 204660,251524 199837,246621 199837,240672 C 199837,234563 204701,229740 210689,229740 Z M 162056,42122 C 163101,42122 164187,42282 165272,42564 C 169814,43770 173069,48512 173069,53858 L 173069,58601 C 173310,82314 171542,106188 167844,129701 C 166719,136614 165995,142362 165553,147828 L 162539,187417 C 162539,208478 145457,225560 124396,225560 C 119332,225560 115152,229740 115152,234804 C 115152,239869 119332,244049 124396,244049 C 139468,244049 153696,238140 164388,227529 C 175119,216838 180947,202771 180947,188181 L 183358,157796 L 317159,157796 C 323188,157796 328092,162779 328092,168728 C 328092,174757 323148,179580 317159,179580 L 265834,179580 C 260327,174033 252892,170898 245134,170898 L 217361,170898 C 201124,170898 187940,184081 187940,200239 C 187940,206388 189789,212176 193246,217079 C 185810,222505 181389,231147 181389,240552 C 181389,244933 182394,249314 184363,253253 C 172788,257232 164749,268244 164749,280825 C 164749,284643 165513,288300 166879,291757 L 139669,291757 C 117282,291757 95779,282312 80345,265833 L 80345,154701 C 86896,147667 94372,142000 102612,137740 C 109645,134162 116277,129179 123472,121984 C 141156,104621 151285,80144 151245,54782 L 151245,53014 C 151245,49557 152812,46422 155545,44372 C 157474,42885 159725,42122 162056,42122 Z M 221863,269973 C 227892,269973 232715,274916 232715,280865 C 232715,286894 227811,291757 221863,291757 L 193969,291757 C 188021,291757 183117,286854 183117,280865 C 183117,274836 188021,269973 194090,269973 Z M 60892,143326 L 60892,293847 L 18328,293847 L 18328,143326 Z M 162217,23673 C 155827,23673 149597,25763 144331,29742 C 136976,35329 132756,43930 132756,53054 L 132756,54983 C 132796,75321 124677,94975 110530,108881 C 104621,114709 99396,118648 94131,121341 C 88584,124154 83400,127571 78496,131389 C 77290,127691 73994,124999 69935,124999 L 9124,124999 C 4140,124999 0,129098 0,134122 L 0,302850 C 0,307874 4140,311974 9124,311974 L 69935,311974 C 74919,311974 79019,307874 79019,302850 L 79019,289587 C 96342,302850 117523,310246 139549,310246 L 221742,310246 C 237980,310246 251163,297062 251163,280865 C 251163,276403 250078,272103 248189,268164 C 259764,264185 267803,253172 267803,240592 C 267803,234443 265914,228655 262498,223751 C 269973,218325 274354,209684 274354,200319 C 274354,199515 274354,198872 274234,198109 L 317039,198109 C 333236,198109 346420,184925 346420,168728 C 346460,152490 333357,139307 317159,139307 L 185127,139307 C 185448,137217 185730,135006 186092,132635 C 189990,108198 191839,83198 191598,58440 L 191518,53858 C 191518,40112 182756,28175 170055,24718 C 167442,24035 164830,23673 162217,23673 Z" fill="#29B5E8" />
</svg>