<?xml version="1.0" encoding="utf-8"?>
<svg xmlns="http://www.w3.org/2000/svg" viewBox="0 0 265164 265074">
  <path d="M 146246,48648 C 162946,48648 178286,54658 190274,64623 L 163278,91801 C 160349,94730 160349,99501 163368,102430 C 164788,103849 166720,104574 168623,104574 C 170525,104574 172518,103849 173937,102430 L 200632,75524 C 209631,87090 215006,101615 215006,117348 C 215006,118495 214915,119522 214885,120579 L 214795,121696 C 214493,126196 216757,130453 220623,132597 C 229803,137912 235148,146700 235148,156725 C 235148,172156 222646,184175 206641,184175 L 197401,184175 L 173998,159956 C 172548,158446 170555,157692 168592,157692 C 166720,157692 164848,158356 163399,159745 C 160439,162614 160318,167355 163187,170375 L 176534,184175 L 92012,184175 L 105842,170465 C 108741,167536 108832,162825 105933,159866 C 104453,158416 102551,157692 100618,157692 C 98716,157692 96783,158386 95303,159836 L 70753,184175 L 65830,184175 C 44179,184175 27268,167717 27268,146639 C 27268,125622 44179,109164 65891,109164 L 65921,109164 L 67793,109285 C 67975,109285 68125,109285 68307,109285 C 73621,109285 78423,105752 79721,100497 C 80597,97085 81805,93824 83134,90683 L 95424,102521 C 96873,103910 98746,104574 100618,104574 C 102611,104574 104544,103819 106023,102279 C 108892,99320 108801,94639 105782,91710 L 90774,77215 C 103366,59731 123719,48648 146246,48648 Z M 7549,0 C 6734,0 5979,242 5254,453 C 5073,513 4862,513 4681,544 C 4499,634 4409,785 4228,906 C 3503,1298 2839,1661 2235,2265 C 2235,2265 2204,2265 2204,2295 C 1993,2506 1902,2869 1721,3110 C 1298,3594 906,4077 664,4681 C 453,5224 423,5828 332,6462 C 242,6794 91,7036 91,7459 L 91,54899 C 91,59036 3473,62328 7549,62328 C 11656,62328 14978,58976 14978,54899 L 14978,25064 L 65378,73652 C 63234,77638 61361,81805 59791,86093 C 27993,89022 3865,114569 3865,146730 C 3865,175267 22890,198519 49343,205464 L 14948,239648 L 14948,210145 C 14948,206008 11566,202686 7489,202686 C 3322,202686 0,206068 0,210145 L 0,257585 C 0,257706 91,257857 151,258038 C 181,258823 332,259638 634,260393 C 906,261088 1359,261662 1812,262205 C 1993,262417 2023,262658 2235,262870 C 2929,263534 3775,264138 4681,264530 C 5556,264893 6583,265074 7549,265074 L 54929,265074 C 59096,265074 62418,261692 62418,257615 C 62418,253448 59066,250187 54929,250187 L 25698,250187 L 68518,207668 L 199092,207668 L 240040,250187 L 210235,250187 C 206037,250187 202776,253539 202776,257615 C 202776,261752 206128,265074 210235,265074 L 257675,265074 C 258641,265074 259577,264832 260483,264530 C 260997,264319 261389,263957 261842,263685 C 262144,263443 262537,263323 262809,263021 C 262809,263021 262809,262960 262899,262960 C 263503,262386 263956,261662 264288,260846 C 264349,260756 264469,260635 264530,260544 C 264620,260273 264620,259971 264711,259699 C 264832,259004 265073,258400 265073,257676 L 265073,257615 L 265073,210145 C 265073,206008 261691,202686 257615,202686 C 253508,202686 250186,206068 250186,210145 L 250186,239074 L 218599,206340 C 241731,201176 258521,181246 258521,156816 C 258521,140872 251122,126286 238379,116563 C 238167,94669 230256,74528 217271,58855 L 250186,25668 L 250186,54929 C 250186,59066 253538,62388 257615,62388 C 261782,62388 265073,59036 265073,54929 L 265073,7489 C 265164,6462 264922,5466 264530,4590 C 264107,3684 263594,2869 262899,2204 C 262688,2023 262476,1902 262235,1751 C 261661,1298 261118,876 260483,544 C 259819,272 259094,181 258370,91 C 258158,91 257947,0 257705,0 L 210265,0 C 206128,0 202836,3382 202836,7459 C 202836,11566 206188,14887 210265,14887 L 239768,14887 L 206822,48165 C 190576,34033 169498,25396 146367,25396 C 117257,25396 90804,39015 73772,60848 L 26091,14887 L 55020,14887 C 59157,14887 62479,11535 62479,7459 C 62479,3322 59096,0 55020,0 Z" fill="#29B5E8" />
</svg>