<?xml version="1.0" encoding="utf-8"?>
<svg xmlns="http://www.w3.org/2000/svg" viewBox="0 0 240173 241530">
  <path d="M 230694,29076 L 208705,8364 C 197973,-1767 183040,-2818 174859,5887 L 24093,157329 C 23051,158380 22278,159667 21842,161081 L 454,229447 C -1121,234296 1532,239504 6381,241079 C 7326,241385 8315,241538 9310,241530 C 10302,241528 11289,241375 12236,241079 L 78877,218566 C 80260,218111 81520,217340 82554,216315 L 234971,62922 C 238541,59117 240410,54024 240149,48813 C 239684,41255 236292,34175 230694,29076 Z M 32799,214438 L 26270,208135 L 37076,173839 L 67545,202581 Z M 77226,195377 L 65369,183970 L 161352,87461 L 161352,87461 L 167055,81833 C 169355,79533 169355,75803 167055,73503 C 164754,71203 161025,71203 158725,73503 L 158725,73503 L 158725,73503 L 56738,175865 L 43905,163708 L 165329,41834 L 198874,73203 Z M 206979,64723 L 173734,33354 L 188142,18795 C 191110,18498 194040,19643 196023,21872 L 217936,42585 C 220204,44432 221571,47166 221688,50089 Z" fill="#29B5E8" />
</svg>