<?xml version="1.0" encoding="utf-8"?>
<svg xmlns="http://www.w3.org/2000/svg" viewBox="0 0 267187 203018">
  <path d="M 42790,43424 C 41159,43424 39498,43998 38170,45206 C 35391,47712 35210,52030 37717,54839 L 86334,107986 L 42125,147545 C 39257,150052 39015,154370 41521,157178 C 42880,158718 44753,159473 46655,159473 C 48256,159473 49916,158930 51185,157722 L 95515,118133 L 104030,127403 C 111882,135919 122420,140630 133684,140630 C 144978,140630 155517,136010 163368,127403 L 171431,118616 L 215217,157812 C 216516,158990 218116,159564 219747,159564 C 221649,159564 223491,158748 224850,157239 C 227357,154460 227085,150142 224276,147575 L 180641,108530 L 229561,54990 C 232067,52242 231886,47893 229108,45357 C 227779,44149 226118,43575 224458,43575 C 222616,43575 220804,44300 219475,45749 L 153282,118163 C 148028,123840 140871,126679 133744,126679 C 126557,126679 119371,123840 114146,118163 L 47803,45659 C 46474,44179 44662,43424 42790,43424 Z M 235117,21350 C 240976,21350 245777,26151 245777,32070 L 245777,171009 C 245777,176867 240976,181668 235117,181668 L 32070,181668 C 26211,181668 21350,176927 21350,171009 L 21350,32070 C 21350,26211 26211,21350 32070,21350 Z M 32070,0 C 14404,0 0,14404 0,32070 L 0,171009 C 0,188614 14404,203018 32070,203018 L 235117,203018 C 252722,203018 267127,188614 267127,171009 L 267127,32070 C 267187,14404 252813,0 235117,0 Z" fill="#29B5E8" />
</svg>