<?xml version="1.0" encoding="utf-8"?>
<svg xmlns="http://www.w3.org/2000/svg" viewBox="0 0 275492 275552">
  <path d="M 77487,137640 C 76339,137640 75403,138637 75403,139814 L 75403,197914 C 75403,199092 76339,200058 77487,200058 L 103819,200058 C 104997,200058 105933,199092 105933,197914 L 105933,139814 C 105933,138637 104997,137640 103819,137640 Z M 123357,109768 C 122209,109768 121213,110704 121213,111851 L 121213,197914 C 121213,199092 122209,200058 123357,200058 L 149659,200058 C 150806,200058 151803,199092 151803,197914 L 151803,111851 C 151803,110704 150806,109768 149659,109768 Z M 169197,74588 C 168019,74588 167083,75554 167083,76762 L 167083,197914 C 167083,199092 168019,200058 169197,200058 L 195529,200058 C 196676,200058 197613,199092 197613,197914 L 197613,76762 C 197613,75554 196646,74588 195529,74588 Z M 149146,17122 L 149146,37505 C 149146,41612 152014,45055 156061,45900 C 167838,48286 178981,52815 189097,59489 C 190546,60455 192177,60908 193808,60908 C 196012,60908 198217,60033 199877,58372 L 211987,46263 L 228746,62992 L 216728,75011 C 213919,77879 213466,82409 215701,85821 C 222435,95907 227055,107020 229501,118827 C 230347,122813 233850,125682 237896,125682 L 258400,125682 L 258400,149387 L 237987,149387 C 233910,149387 230407,152225 229592,156272 C 227236,168109 222707,179222 216003,189338 C 213768,192720 214221,197250 217120,200119 L 229229,212228 L 212470,228987 L 200512,216969 C 198851,215338 196646,214462 194442,214462 C 192781,214462 191120,214946 189640,215912 C 179554,222616 168472,227296 156635,229742 C 152648,230618 149840,234061 149840,238107 L 149840,258641 L 126105,258641 L 126105,238228 C 126105,234151 123236,230648 119190,229803 C 107352,227478 96240,222857 86154,216244 C 84734,215308 83104,214825 81473,214825 C 79268,214825 77064,215701 75403,217392 L 63294,229471 L 46504,212711 L 58493,200753 C 61361,197884 61814,193354 59550,189882 C 52846,179796 48225,168713 45719,156876 C 44904,152890 41401,150081 37354,150081 L 16880,150081 L 16880,126346 L 37264,126346 C 41340,126346 44843,123477 45659,119431 C 48044,107594 52574,96481 59248,86395 C 61482,83043 61029,78453 58130,75645 L 46021,63535 L 62781,46746 L 74769,58734 C 76400,60365 78604,61210 80809,61210 C 82469,61210 84130,60757 85580,59791 C 95666,53087 106778,48407 118616,45961 C 122572,45145 125441,41642 125441,37596 L 125441,17122 Z M 116955,30 C 112244,30 108439,3835 108439,8546 L 108439,30892 C 99259,33398 90502,37022 82198,41854 L 68971,28627 C 67310,26966 65106,26121 62932,26121 C 60727,26121 58553,26966 56862,28627 L 28084,57436 C 24732,60788 24732,66163 28084,69545 L 41491,82952 C 36690,91227 33096,100014 30650,109224 L 8516,109224 C 3835,109224 0,113029 0,117740 L 0,158537 C 0,163248 3835,167052 8516,167052 L 30832,167052 C 33338,176263 36992,185080 41793,193294 L 28567,206521 C 26966,208181 26060,210295 26060,212590 C 26060,214915 26966,217029 28567,218630 L 57405,247468 C 59097,249159 61271,249975 63475,249975 C 65649,249975 67824,249159 69515,247468 L 82892,234061 C 91166,238802 100014,242395 109194,244871 L 109194,267006 C 109194,271717 112999,275522 117710,275522 L 158537,275522 C 163248,275522 167053,271717 167053,267006 L 167053,244720 C 176233,242184 184990,238530 193264,233759 L 206491,246985 C 208121,248586 210235,249492 212560,249492 C 214855,249492 216939,248586 218600,246985 L 247408,218086 C 250760,214734 250760,209359 247408,205977 L 234001,192569 C 238802,184295 242365,175508 244842,166298 L 266946,166298 C 271657,166298 275462,162493 275462,157782 L 275462,116985 C 275462,112395 271657,108590 266946,108590 L 244660,108590 C 242154,99410 238470,90562 233668,82349 L 246895,69122 C 248526,67461 249432,65378 249432,63083 C 249432,60848 248526,58644 246895,57013 L 218087,28144 C 216486,26544 214282,25758 212047,25758 C 209843,25758 207608,26544 205977,28144 L 192600,41522 C 184295,36750 175478,33157 166298,30711 L 166298,8546 C 166298,3835 162463,30 157752,30 Z" fill="#29B5E8" />
</svg>