<?xml version="1.0" encoding="utf-8"?>
<svg xmlns="http://www.w3.org/2000/svg" viewBox="0 0 311572 353694">
  <path d="M 155866,21181 C 165111,21181 172627,28939 172627,38344 L 172627,48673 C 172627,58239 165111,65916 155866,65916 C 146622,65916 139106,58159 139106,48673 L 139106,38344 C 139106,28818 146622,21181 155866,21181 Z M 155866,40 C 134966,40 117965,17283 117965,38344 L 117965,48673 C 117965,69855 134966,86977 155866,86977 C 176766,86977 193768,69814 193768,48673 L 193768,38344 C 193768,17283 176766,40 155866,40 Z M 131309,90232 C 104541,90232 85891,107716 85891,132595 L 85891,160891 L 107113,160891 L 107113,132595 C 107113,116478 119492,112539 127169,111655 L 148391,133439 C 150360,135489 153173,136654 155947,136654 C 156027,136654 156108,136654 156148,136654 C 159082,136534 161815,135288 163744,133118 L 183237,111655 C 194009,112901 204781,118849 204781,132595 L 204781,160891 L 225922,160891 L 225922,132595 C 225922,108078 206067,90232 178776,90232 C 175802,90232 172908,91478 170939,93729 L 155625,110690 L 138865,93448 C 136896,91358 134122,90232 131309,90232 Z M 111333,211372 C 107555,211372 104541,214427 104541,218165 L 104541,318445 C 104541,322143 107555,325238 111333,325238 C 115031,325238 118126,322143 118126,318445 L 118126,224877 L 193687,224877 L 193687,318445 C 193687,322143 196742,325238 200520,325238 C 204218,325238 207232,322143 207232,318445 L 207232,218165 C 207192,214427 204138,211372 200400,211372 Z M 221501,55064 C 214065,55064 207916,61173 207916,68609 C 207916,76084 213985,82113 221501,82113 C 223591,82113 225520,81551 227248,80747 L 251484,96743 L 251484,171622 L 10571,171622 C 4783,171622 40,176324 40,182193 L 40,209162 C 40,212940 2130,216517 5466,218366 L 61213,249515 L 61213,343043 C 61213,348871 65916,353654 71784,353654 C 77692,353654 82395,348951 82395,343043 L 82395,215552 C 82395,209765 77692,204982 71784,204982 C 65916,204982 61213,209644 61213,215552 L 61213,225279 L 21141,202892 L 21141,192763 L 290310,192763 L 290310,202892 L 250198,225279 L 250198,215552 C 250198,209765 245576,204982 239668,204982 C 233759,204982 229017,209644 229017,215552 L 229017,343043 C 229017,348871 233759,353654 239668,353654 C 245576,353654 250198,348951 250198,343043 L 250198,249515 L 306025,218285 C 309442,216437 311532,212940 311532,209041 L 311532,182112 C 311572,176405 306869,171702 301082,171702 L 265150,171702 L 265150,93126 C 265150,90835 263984,88745 262095,87459 L 235005,69613 C 235005,69252 235046,68930 235046,68609 C 235046,61173 229017,55064 221501,55064 Z" fill="#29B5E8" />
</svg>