<?xml version="1.0" encoding="utf-8"?>
<svg xmlns="http://www.w3.org/2000/svg" viewBox="0 0 206652 206777">
  <path d="M 8759,100 C 7911,100 7062,299 6239,574 C 5964,674 5690,649 5390,749 C 5166,873 4991,1098 4766,1198 C 3943,1597 3169,2046 2570,2720 C 2545,2720 2545,2745 2471,2745 C 2221,3045 2071,3419 1847,3718 C 1422,4342 948,4916 699,5565 C 399,6264 349,6987 250,7686 C 200,8085 25,8385 25,8834 L 25,44669 C 50,49635 4018,53553 8884,53553 C 13725,53553 17743,49635 17743,44744 L 17743,29622 L 66106,76063 C 67803,77710 69999,78508 72220,78508 C 74516,78508 76836,77585 78583,75763 C 81952,72245 81852,66630 78334,63311 L 30819,17768 L 44719,17768 C 49610,17768 53578,13825 53578,8909 C 53578,4018 49635,100 44719,100 Z M 161958,25 C 157116,25 153099,3968 153099,8859 C 153099,13750 157067,17718 161958,17718 L 176631,17718 L 131388,63461 C 127969,66904 128019,72544 131438,75938 C 133160,77635 135431,78508 137652,78508 C 139922,78508 142168,77610 143915,75913 L 188984,30395 L 188984,44769 C 188984,49635 192902,53628 197843,53628 C 202734,53628 206652,49660 206652,44769 L 206652,8859 C 206652,7711 206427,6563 205978,5490 C 205504,4417 204880,3469 204057,2595 C 203957,2495 203757,2421 203583,2321 C 202884,1672 202085,1098 201212,724 C 200363,349 199415,275 198492,150 C 198267,150 198043,25 197843,25 Z M 137652,126372 C 135456,126372 133259,127171 131587,128793 C 128044,132187 127969,137752 131313,141270 L 177155,189009 L 162008,189009 C 157141,189009 153174,192977 153174,197868 C 153174,202784 157116,206727 162008,206727 L 197918,206727 C 199016,206727 200139,206502 201212,206053 C 201786,205829 202310,205380 202834,205005 C 203208,204706 203607,204556 203982,204282 L 204032,204207 C 204730,203558 205255,202709 205654,201911 C 205729,201711 205903,201561 205978,201387 C 206103,201037 206103,200638 206203,200264 C 206427,199515 206652,198791 206652,198018 L 206652,197893 L 206652,162058 C 206652,157216 202734,153199 197868,153199 C 193027,153199 189009,157142 189009,162058 L 189009,175958 L 144015,129092 C 142293,127270 139972,126372 137652,126372 Z M 72195,126347 C 69949,126347 67728,127196 66031,128942 L 17768,176731 L 17768,162108 C 17768,157216 13800,153249 8909,153249 C 3993,153249 50,157241 50,162108 L 50,197968 C 50,198192 200,198367 200,198592 C 275,199515 399,200413 774,201312 C 1148,202160 1697,202909 2296,203608 C 2421,203782 2471,204007 2645,204157 C 3519,204930 4467,205604 5540,206053 C 6613,206527 7761,206752 8909,206752 L 44794,206752 C 49685,206752 53603,202834 53603,197893 C 53603,193002 49635,189084 44794,189084 L 30370,189084 L 78408,141470 C 81852,138001 81877,132411 78433,128942 C 76712,127221 74466,126347 72195,126347 Z" fill="#29B5E8" />
</svg>