<?xml version="1.0" encoding="utf-8"?>
<svg xmlns="http://www.w3.org/2000/svg" viewBox="0 0 376986 376986">
  <path d="M 70647,2 L 64253,305 L 52682,2133 L 47201,3960 L 45678,4873 L 44460,7309 L 45068,8832 L 49332,19489 L 50245,20707 L 52985,21925 L 54508,21622 L 62122,19489 L 70647,19185 L 86483,19185 L 88004,18881 L 89832,16749 L 90136,15226 L 90136,3960 L 89832,2438 L 88004,305 L 86483,2 Z" fill="#29B5E8" />
  <path d="M 133377,2 L 131854,305 L 129722,2438 L 129418,3960 L 129418,15226 L 129722,16749 L 131854,18881 L 133377,19185 L 165045,19185 L 166568,18881 L 168700,16749 L 168700,15226 L 168700,3960 L 168700,2438 L 166568,305 L 165045,2 Z" fill="#29B5E8" />
  <path d="M 211941,2 L 210418,305 L 208286,2438 L 208286,3960 L 208286,15226 L 208286,16749 L 210418,18881 L 211941,19185 L 243609,19185 L 245132,18881 L 247263,16749 L 247568,15226 L 247568,3960 L 247263,2438 L 245132,305 L 243609,2 Z" fill="#29B5E8" />
  <path d="M 290503,2 L 288980,305 L 287154,2438 L 286850,3960 L 286850,15226 L 287154,16749 L 288980,18881 L 290503,19185 L 306642,19185 L 314864,19489 L 322478,21622 L 323999,21925 L 326740,20707 L 327654,19489 L 331918,8832 L 332526,7309 L 331308,4873 L 329785,3960 L 324304,2133 L 312733,305 L 306642,2 Z" fill="#29B5E8" />
  <path d="M 7309,44460 L 4873,45678 L 3960,47201 L 2133,52682 L 305,64253 L 2,70647 L 2,86483 L 305,88004 L 2438,89832 L 3960,90136 L 15226,90136 L 16749,89832 L 18881,88004 L 19185,86483 L 19185,70647 L 19489,62122 L 21622,54508 L 21925,52985 L 20707,50245 L 19489,49332 L 8832,45068 L 7309,44460 Z" fill="#29B5E8" />
  <path d="M 369677,44460 L 368154,45068 L 357497,49332 L 356277,50245 L 355059,52985 L 355364,54508 L 357497,62122 L 357800,70647 L 357800,86483 L 358105,88004 L 360237,89832 L 361758,90136 L 373026,90136 L 374548,89832 L 376679,88004 L 376984,86483 L 376984,70647 L 376679,64253 L 374853,52682 L 373026,47201 L 372113,45678 L 369677,44460 Z" fill="#29B5E8" />
  <path d="M 3960,129418 L 2438,129722 L 305,131854 L 2,133377 L 2,165045 L 305,166568 L 2438,168700 L 16749,168700 L 18881,166568 L 19185,165045 L 19185,133377 L 18881,131854 L 16749,129722 L 15226,129418 Z" fill="#29B5E8" />
  <path d="M 361758,129418 L 360237,129722 L 358105,131854 L 357800,133377 L 357800,165045 L 358105,166568 L 360237,168700 L 374548,168700 L 376679,166568 L 376984,165045 L 376984,133377 L 376679,131854 L 374548,129722 L 373026,129418 Z" fill="#29B5E8" />
  <path d="M 2438,208286 L 305,210418 L 2,211941 L 2,243609 L 305,245132 L 2438,247263 L 3960,247568 L 15226,247568 L 16749,247263 L 18881,245132 L 19185,243609 L 19185,211941 L 18881,210418 L 16749,208286 Z" fill="#29B5E8" />
  <path d="M 360237,208286 L 358105,210418 L 357800,211941 L 357800,243609 L 358105,245132 L 360237,247263 L 361758,247568 L 373026,247568 L 374548,247263 L 376679,245132 L 376984,243609 L 376984,211941 L 376679,210418 L 374548,208286 Z" fill="#29B5E8" />
  <path d="M 3960,286850 L 2438,287154 L 305,288980 L 2,290503 L 2,306642 L 305,312733 L 2133,324304 L 3960,329785 L 4873,331308 L 7309,332526 L 8832,331918 L 19489,327654 L 20707,326740 L 21925,323999 L 21622,322478 L 19489,314864 L 19185,306642 L 19185,290503 L 18881,288980 L 16749,287154 L 15226,286850 Z" fill="#29B5E8" />
  <path d="M 361758,286850 L 360237,287154 L 358105,288980 L 357800,290503 L 357800,306642 L 357497,314864 L 355364,322478 L 355059,323999 L 356277,326740 L 357497,327654 L 368154,331918 L 369677,332526 L 372113,331308 L 373026,329785 L 374853,324304 L 376679,312733 L 376984,306642 L 376984,290503 L 376679,288980 L 374548,287154 L 373026,286850 Z" fill="#29B5E8" />
  <path d="M 52985,355059 L 50245,356277 L 49332,357497 L 45068,368154 L 44460,369677 L 45678,372113 L 47201,373026 L 52682,374853 L 64253,376679 L 70647,376984 L 86483,376984 L 88004,376679 L 89832,374548 L 90136,373026 L 90136,361758 L 89832,360237 L 88004,358105 L 86483,357800 L 70647,357800 L 62122,357497 L 54508,355364 L 52985,355059 Z" fill="#29B5E8" />
  <path d="M 323999,355059 L 322478,355364 L 314864,357497 L 306642,357800 L 290503,357800 L 288980,358105 L 287154,360237 L 286850,361758 L 286850,373026 L 287154,374548 L 288980,376679 L 290503,376984 L 306642,376984 L 312733,376679 L 324304,374853 L 329785,373026 L 331308,372113 L 332526,369677 L 331918,368154 L 327654,357497 L 326740,356277 L 323999,355059 Z" fill="#29B5E8" />
  <path d="M 133377,357800 L 131854,358105 L 129722,360237 L 129418,361758 L 129418,373026 L 129722,374548 L 131854,376679 L 133377,376984 L 165045,376984 L 166568,376679 L 168700,374548 L 168700,373026 L 168700,361758 L 168700,360237 L 166568,358105 L 165045,357800 Z" fill="#29B5E8" />
  <path d="M 211941,357800 L 210418,358105 L 208286,360237 L 208286,361758 L 208286,373026 L 208286,374548 L 210418,376679 L 211941,376984 L 243609,376984 L 245132,376679 L 247263,374548 L 247568,373026 L 247568,361758 L 247263,360237 L 245132,358105 L 243609,357800 Z" fill="#29B5E8" />
  <path d="M 85873,70647 L 82523,70952 L 78564,74910 L 78261,78261 L 78261,119979 L 78564,123022 L 82523,127286 L 85873,127591 L 131549,127591 L 134595,127286 L 138553,123022 L 139161,119979 L 139161,78261 L 138553,74910 L 134595,70952 L 131549,70647 Z" fill="#29B5E8" />
  <path d="M 165655,70647 L 162609,70952 L 158346,74910 L 158041,78261 L 158041,119979 L 158346,123022 L 162609,127286 L 165655,127591 L 211331,127591 L 214377,127286 L 218640,123022 L 218943,119979 L 218943,78261 L 218640,74910 L 214377,70952 L 211331,70647 Z" fill="#29B5E8" />
  <path d="M 245740,70647 L 242391,70952 L 238433,74910 L 238128,78261 L 238128,119979 L 238433,123022 L 242391,127286 L 245740,127591 L 291418,127591 L 294462,127286 L 298420,123022 L 299030,119979 L 299030,78261 L 298420,74910 L 294462,70952 L 291418,70647 Z" fill="#29B5E8" />
  <path d="M 102012,169613 L 87091,172659 L 81002,175095 L 76128,178140 L 70952,183925 L 70647,186665 L 70952,189406 L 76128,195192 L 81002,197933 L 87091,200369 L 102012,203414 L 110539,203719 L 119064,203414 L 133985,200369 L 139771,197933 L 144948,195192 L 150124,189406 L 150429,186665 L 150124,183925 L 144948,178140 L 139771,175095 L 133985,172659 L 119064,169613 Z" fill="#29B5E8" />
  <path d="M 186665,226557 L 178140,226860 L 163219,229906 L 157128,232342 L 152257,235082 L 147080,240868 L 146775,243609 L 147080,246350 L 152257,252136 L 157128,255180 L 163219,257617 L 178140,260661 L 186665,260966 L 195192,260661 L 210113,257617 L 215899,255180 L 221076,252136 L 226252,246350 L 226557,243609 L 226252,240868 L 221076,235082 L 215899,232342 L 210113,229906 L 195192,226860 L 186665,226557 Z" fill="#29B5E8" />
  <path d="M 146775,257312 L 146775,310298 L 146775,312123 L 148298,316082 L 153170,320955 L 164132,326132 L 178443,329177 L 186665,329480 L 194887,329177 L 209200,326132 L 219858,320955 L 224729,316082 L 226557,312123 L 226557,310298 L 226557,257312 L 223207,259748 L 219248,261879 L 212549,264924 L 195800,268275 L 186665,268580 L 177225,268275 L 160782,264924 L 154082,261879 L 150124,259748 L 146775,257312 Z" fill="#29B5E8" />
  <path d="M 70647,200369 L 70647,253049 L 70647,255180 L 72170,258835 L 77043,264011 L 88004,269188 L 102317,271928 L 110539,272233 L 118761,271928 L 133377,268883 L 139161,266447 L 139161,241478 L 139161,241173 L 140381,236910 L 146165,230211 L 150429,227470 L 150429,200369 L 147080,202804 L 143122,204937 L 136421,207678 L 119674,211026 L 110539,211331 L 101099,211026 L 84655,207678 L 77956,204937 L 73997,202804 L 70647,200369 Z" fill="#29B5E8" />
  <path d="M 254267,169613 L 239346,172659 L 233256,175095 L 228383,178140 L 223207,183925 L 222902,186665 L 223207,189406 L 228383,195192 L 233256,197933 L 239346,200369 L 254267,203414 L 262794,203719 L 271319,203414 L 286240,200369 L 292026,197933 L 297202,195192 L 302379,189406 L 302684,186665 L 302379,183925 L 297202,178140 L 292026,175095 L 286240,172659 L 271319,169613 Z" fill="#29B5E8" />
  <path d="M 222902,200369 L 222902,227470 L 226860,230211 L 232646,236910 L 233864,241173 L 233864,241478 L 234169,266447 L 239955,268883 L 254267,271928 L 262794,272233 L 271016,271928 L 285327,269188 L 295984,264011 L 300858,258835 L 302684,255180 L 302684,253049 L 302684,200369 L 299335,202804 L 295376,204937 L 288677,207678 L 271928,211026 L 262794,211331 L 253354,211026 L 236910,207678 L 230211,204937 L 226252,202804 L 222902,200369 Z" fill="#29B5E8" />
</svg>