<?xml version="1.0" encoding="utf-8"?>
<svg xmlns="http://www.w3.org/2000/svg" viewBox="0 0 226914 249009">
  <path d="M 217866,123870 L 215443,123870 L 189480,40330 L 190955,40330 C 194152,40237 196669,37533 196577,34290 C 196489,31178 194023,28676 190955,28586 L 119823,28586 L 119823,5701 C 119732,2461 117069,-90 113875,2 C 110810,92 108345,2592 108257,5701 L 108257,28586 L 37126,28586 C 33929,28679 31412,31383 31504,34626 C 31592,37739 34058,40241 37126,40330 L 37434,40330 L 11462,123870 L 9043,123870 C 4051,123867 3,127970 0,133034 C 0,133036 0,133038 0,133039 C 0,160543 18210,179021 45311,179021 C 72412,179021 90631,160543 90631,133039 C 90631,127975 86585,123870 81593,123870 L 79169,123870 L 53202,40330 L 108253,40330 L 108253,46781 L 108400,47536 C 97299,50626 90770,62260 93816,73522 C 95749,80665 101225,86262 108253,88274 L 108253,194180 C 84381,196638 68722,214347 68722,239840 C 68722,244904 72769,249009 77761,249009 L 150315,249009 C 155307,249009 159353,244904 159353,239840 C 159353,214342 143705,196638 119823,194180 L 119823,88274 C 130901,85102 137346,73420 134219,62182 C 132235,55053 126718,49497 119676,47536 L 119823,46781 L 119823,40330 L 173708,40330 L 147750,123870 L 145331,123870 C 140339,123870 136293,127975 136293,133039 C 136293,160543 154502,179021 181608,179021 C 208714,179021 226914,160543 226914,133039 C 226914,127975 222868,123870 217876,123870 C 217872,123870 217870,123870 217866,123870 Z M 45320,160682 C 38269,160682 23179,158681 19115,142209 L 71525,142209 C 67461,158681 52362,160682 45320,160682 Z M 67044,123870 L 23606,123870 L 45320,53983 Z M 140257,230670 L 87824,230670 C 91888,214203 106986,212206 114033,212206 C 121080,212206 136184,214198 140248,230665 Z M 123437,67929 C 123440,73198 119232,77471 114038,77474 C 108844,77477 104633,73208 104630,67939 C 104627,62670 108835,58397 114029,58394 C 114030,58394 114032,58394 114033,58394 C 119223,58400 123429,62665 123437,67929 Z M 181599,53978 L 203313,123865 L 159875,123865 Z M 181599,160677 C 174547,160677 159448,158676 155384,142204 L 207804,142204 C 203739,158681 188645,160682 181599,160682 Z" fill="#29B5E8" />
</svg>