<?xml version="1.0" encoding="utf-8"?>
<svg xmlns="http://www.w3.org/2000/svg" viewBox="0 0 243183 241875">
  <path d="M 178563,52399 L 63084,52399 C 56996,52399 52059,57310 52059,63365 L 52059,178557 C 52059,184612 56996,189522 63084,189570 L 178563,189570 C 184651,189570 189588,184659 189636,178557 L 189636,63365 C 189588,57310 184651,52399 178563,52399 Z M 178659,178604 L 178563,178699 L 63036,178604 L 63132,63317 L 178659,63412 L 178659,178604 Z M 233834,112664 C 238867,112760 243086,108802 243182,103796 C 243277,98790 239299,94594 234265,94499 C 234122,94499 233978,94499 233834,94499 L 213701,94499 L 213701,76858 L 233834,76858 C 238867,76858 242990,72805 242990,67751 C 242990,62745 238915,58645 233834,58645 C 233834,58645 233834,58645 233834,58645 L 213701,58645 L 213701,57596 C 213653,41957 201046,29227 185322,28941 L 185322,9107 C 185322,4101 181248,0 176166,0 C 171085,0 167010,4053 167010,9107 C 167010,9107 167010,9107 167010,9107 L 167010,28846 L 149274,28846 L 149274,9107 C 149178,4101 144960,95 139926,238 C 135037,334 131106,4243 131010,9107 L 131010,28846 L 113274,28846 L 113274,9107 C 113178,4101 108959,95 103926,238 C 99037,334 95106,4243 95010,9107 L 95010,28846 L 77274,28846 L 77274,9107 C 77274,4101 73199,0 68118,0 C 63084,0 59010,4053 58962,9107 L 58962,28846 L 56757,28846 C 40794,28846 27851,41671 27851,57548 L 27851,58597 L 9156,58597 C 4123,58597 0,62650 0,67703 C 0,72710 4075,76762 9156,76810 L 27851,76810 L 27851,94451 L 9156,94451 C 4123,94547 96,98742 239,103749 C 336,108612 4266,112521 9156,112617 L 27851,112617 L 27851,130258 L 9156,130258 C 4123,130354 96,134549 239,139555 C 336,144419 4266,148328 9156,148423 L 27851,148423 L 27851,166064 L 9156,166064 C 4123,166064 0,170117 0,175171 C 0,180178 4075,184230 9156,184278 L 27851,184278 L 27851,184469 C 27851,200298 40794,213171 56709,213171 L 58914,213171 L 58914,232576 C 58914,237583 62988,241683 68070,241683 C 73103,241683 77225,237630 77225,232576 C 77225,232576 77225,232576 77225,232576 L 77225,213219 L 94962,213219 L 94962,232576 C 94866,237583 98845,241778 103878,241874 C 108911,241969 113130,238012 113226,233005 C 113226,232862 113226,232719 113226,232576 L 113226,213219 L 130962,213219 L 130962,232576 C 130866,237583 134845,241778 139879,241874 C 144912,241969 149130,238012 149226,233005 C 149226,232862 149226,232719 149226,232576 L 149226,213219 L 166962,213219 L 166962,232576 C 166962,237583 171037,241683 176118,241683 C 181152,241683 185274,237630 185274,232576 C 185274,232576 185274,232576 185274,232576 L 185274,213171 C 200997,212933 213653,200155 213701,184516 L 213701,184325 L 233834,184325 C 238867,184325 242990,180273 242990,175219 C 242990,170213 238915,166112 233834,166112 C 233834,166112 233834,166112 233834,166112 L 213701,166112 L 213701,148471 L 233834,148471 C 238867,148567 243086,144609 243182,139603 C 243277,134596 239299,130401 234265,130305 C 234122,130305 233978,130305 233834,130305 L 213701,130305 L 213701,112664 L 233834,112664 Z M 195389,184516 C 195389,190333 190643,195053 184795,195053 L 56757,195053 C 50909,195053 46163,190333 46163,184516 L 46163,57596 C 46163,51779 50909,47059 56757,47059 L 184843,47059 C 190691,47059 195437,51779 195437,57596 L 195437,184516 Z M 121519,144609 C 118403,144609 111165,143846 111165,136981 C 111069,133786 108384,131259 105172,131354 C 102057,131450 99564,133929 99516,136981 C 99516,146707 105844,153620 115719,155623 L 115719,158484 C 115719,161678 118355,164300 121567,164300 C 124779,164300 127415,161678 127415,158484 L 127415,155623 C 137290,153668 143618,146707 143618,136981 C 143618,125204 136187,121580 126744,116955 L 121519,114381 C 112027,109708 111165,108898 111165,104750 C 111165,97789 118403,97026 121519,97026 C 125306,97026 131682,98027 131682,104750 C 131777,107945 134462,110471 137674,110376 C 140789,110281 143282,107801 143330,104750 C 143330,95024 137098,88015 127319,86012 L 127319,83247 C 127319,80053 124683,77430 121471,77430 C 118259,77430 115623,80053 115623,83247 L 115623,86060 C 105844,88110 99420,95167 99420,104750 C 99420,116527 106851,120150 116294,124775 L 121519,127350 C 131010,131975 131873,132785 131873,136933 C 131873,143846 124635,144609 121519,144609 Z" fill="#29B5E8" />
</svg>