<?xml version="1.0" encoding="utf-8"?>
<svg xmlns="http://www.w3.org/2000/svg" viewBox="0 0 245127 294551">
  <path d="M 47531,29561 L 204040,45438 L 164315,79484 C 161658,81742 160196,84964 160196,88418 C 160196,91873 161757,95128 164315,97387 L 204040,131465 L 47531,147442 L 47531,29561 Z M 35673,4883 C 32783,4883 30026,5979 27901,7905 C 25443,10131 24014,13286 24014,16608 L 24014,160329 C 24014,166773 29395,172054 35706,172054 C 36005,172054 36337,172021 36636,172021 C 36968,172120 37267,172120 37566,172120 C 37998,172120 38363,172120 38795,172021 L 233668,152025 C 238318,151527 242271,148338 243699,143854 C 245127,139404 243699,134488 240078,131532 L 189957,88551 L 240078,45538 C 243699,42482 245127,37599 243699,33115 C 242271,28631 238318,25410 233635,24944 L 36968,4949 C 36537,4916 36105,4883 35673,4883 Z M 7540,33 C 3421,33 33,3421 33,7507 L 33,287044 C 33,291130 3421,294518 7540,294518 C 11658,294518 15080,291130 15080,287044 L 15080,7507 C 15080,3322 11658,33 7540,33 Z" fill="#29B5E8" />
</svg>