<?xml version="1.0" encoding="utf-8"?>
<svg xmlns="http://www.w3.org/2000/svg" viewBox="0 0 212149 226635">
  <path d="M 209128,48029 L 209101,48006 L 208031,47150 L 207246,46793 L 207092,46694 L 109284,830 C 106942,-277 104223,-277 101881,830 L 4935,46717 L 4568,46960 L 4114,47163 L 3470,47677 L 2685,48309 L 1815,49319 L 1261,50067 L 662,51362 L 345,52147 L 82,53843 L 0,54370 L 0,166267 C -5,169438 1752,172354 4568,173844 L 101872,225620 C 103128,226286 104531,226635 105955,226635 L 106050,226635 C 107474,226638 108877,226289 110132,225620 L 207577,173848 C 210396,172358 212155,169442 212149,166267 L 212149,54470 C 212131,51989 211029,49638 209128,48029 Z M 106027,93748 L 82182,81774 L 159238,43262 L 183700,54736 Z M 105614,18118 L 125232,27323 L 49255,65235 L 28286,54700 Z M 17318,161116 L 17318,68442 L 39735,79717 L 39735,120782 L 72656,137371 L 72656,96238 L 97368,108650 L 97313,203674 Z M 194877,161116 L 114709,203692 L 114768,108668 L 194854,68442 Z" fill="#29B5E8" />
</svg>