<?xml version="1.0" encoding="utf-8"?>
<svg xmlns="http://www.w3.org/2000/svg" viewBox="0 0 311853 281096">
  <path d="M 144676,0 L 135279,1995 L 126165,5412 L 118190,10538 L 111071,16804 L 105376,24493 L 100818,33037 L 98255,42436 L 97401,47562 L 92274,98825 L 91989,100249 L 90280,101959 L 88857,102242 L 52404,102242 L 50409,104237 L 50409,105661 L 50409,124172 L 50409,125596 L 52404,127589 L 85724,127589 L 87148,127874 L 89141,130153 L 89141,131577 L 79173,230970 L 78319,236097 L 74047,244926 L 66642,251476 L 57528,255179 L 52404,255464 L 50694,255464 L 45853,255179 L 37593,252047 L 30759,246065 L 26486,238092 L 25632,233534 L 25347,232110 L 23354,230117 L 21930,229831 L 3702,229831 L 1993,230117 L 285,232110 L 0,233534 L 570,238377 L 3134,247774 L 7119,256318 L 12816,264007 L 19650,270273 L 27340,275399 L 36169,279101 L 45853,280811 L 50694,281096 L 52404,281096 L 57528,280811 L 66927,279101 L 76041,275684 L 84014,270558 L 90850,264007 L 96831,256603 L 101103,248059 L 103952,238660 L 104520,233534 L 114773,131008 L 115058,129584 L 117051,127874 L 118190,127589 L 167177,127589 L 171162,127874 L 178852,129584 L 186257,132716 L 192522,137557 L 195370,140405 L 224135,172588 L 224990,173727 L 224705,176291 L 224135,177430 L 170594,231256 L 169740,232395 L 169740,234958 L 170594,236097 L 183693,249198 L 184834,250052 L 187397,250052 L 188536,249198 L 240653,196795 L 241792,195941 L 244640,195941 L 245779,196795 L 291918,248628 L 293057,249483 L 295903,249767 L 297044,248913 L 310714,236667 L 311568,235528 L 311853,232680 L 310999,231541 L 263437,178569 L 262868,177430 L 262868,174581 L 263722,173442 L 310429,126450 L 311283,125311 L 311283,122463 L 310429,121324 L 297327,108508 L 296188,107654 L 293625,107654 L 292486,108508 L 246918,154361 L 245779,155214 L 242931,154931 L 241792,154075 L 214167,123318 L 209611,118477 L 198788,110502 L 186827,105091 L 174011,102242 L 121609,102242 L 119900,101959 L 117907,99679 L 117907,98256 L 122748,50126 L 123602,44999 L 128158,36170 L 135279,29335 L 144676,25632 L 149803,25347 L 152651,25347 L 157207,25632 L 165467,29049 L 172018,34746 L 176005,42721 L 176859,47277 L 177144,48701 L 179137,50694 L 180561,50694 L 198788,51265 L 200212,50979 L 202206,48986 L 202491,47562 L 201921,42721 L 199643,33322 L 195656,24778 L 190244,17089 L 183693,10538 L 175720,5412 L 166892,1995 L 157492,0 Z" fill="#29B5E8" />
</svg>