<?xml version="1.0" encoding="utf-8"?>
<svg xmlns="http://www.w3.org/2000/svg" viewBox="0 0 220237 237849">
  <path d="M 88129,70207 C 87366,69310 85502,67049 83256,64274 C 79104,59153 73935,52794 71308,49934 C 70079,48611 67537,48611 66351,49934 C 63724,52836 58555,59238 54403,64402 C 52199,67177 50377,69438 49615,70292 L 48852,71145 C 42751,77932 34616,87876 34658,95771 C 34658,101533 36311,106441 39446,110026 C 42793,113867 47581,115916 53259,115916 L 53301,115916 C 55801,115959 58258,115446 60546,114465 C 59699,119159 58216,122574 56097,125006 C 55589,125604 55292,126927 55292,127738 C 55292,129530 56733,130981 58512,130981 L 79485,130939 C 80333,130939 81180,130298 81773,129701 C 82366,128975 82705,128037 82705,127098 C 82705,126329 82409,125561 81900,124964 C 79782,122531 78299,119117 77409,114422 C 79697,115403 82155,115873 84654,115873 L 84697,115873 C 96010,115873 103297,107935 103297,95686 C 103297,87790 95120,77889 89018,71103 L 88129,70207 Z M 84612,109343 L 84612,109343 C 80714,109343 77918,107935 76053,104990 C 75037,103453 73003,103069 71478,104094 C 70503,104734 69952,105843 70037,106996 C 70461,114465 71647,120098 73808,124451 L 64105,124451 C 66266,120098 67452,114465 67834,106996 C 67834,106057 67495,105118 66817,104435 C 66224,103838 65376,103496 64529,103496 L 64147,103496 C 63173,103624 62283,104179 61775,104990 C 59953,107935 57157,109343 53259,109386 L 53216,109386 C 49361,109386 46352,108148 44234,105715 C 42115,103283 41056,99868 41056,95729 C 41056,91589 45251,84717 53597,75456 L 54445,74517 C 55208,73621 57114,71273 59402,68414 C 62326,64786 66097,60092 68808,56848 C 71562,60049 75291,64701 78214,68329 C 80545,71188 82451,73536 83256,74475 L 84104,75413 C 92450,84675 96687,91461 96730,95643 C 96772,104179 92239,109300 84612,109343 Z M 153547,103539 C 148887,103539 144268,104051 139777,104990 L 139862,8237 C 139862,3756 136260,128 131812,85 L 8220,0 C 3771,0 127,3628 127,8109 L 0,178824 C 0,183306 3601,186933 8093,186976 L 88934,187019 C 96221,216168 122363,237849 153547,237849 C 190324,237849 220237,207718 220237,170673 C 220237,133627 190324,103539 153547,103539 Z M 196552,133115 C 204984,142889 209899,155308 210450,168240 L 201383,168240 C 201383,168240 201383,168240 201383,168240 C 200917,157613 196934,147541 190155,139560 L 196552,133115 L 196552,133115 Z M 157106,113483 C 170114,114294 182444,119586 192019,128463 L 185621,134908 L 185621,134908 C 177740,127695 167699,123385 157106,122574 L 157106,113483 Z M 153547,122403 L 153547,122403 L 153547,122403 C 153547,122403 153547,122403 153547,122403 C 153547,122403 153547,122403 153547,122403 Z M 150624,113440 L 150624,122531 C 139947,123171 129778,127439 121770,134566 L 115415,128122 C 125117,119287 137532,114080 150624,113440 Z M 86858,170716 L 86858,170758 L 16143,170716 L 16228,16303 L 123635,16389 L 123592,110794 C 101856,121848 86858,144511 86858,170716 Z M 110881,132774 L 110881,132774 L 117279,139218 C 117279,139218 117279,139218 117279,139218 C 110331,147327 106263,157528 105754,168240 C 105754,168240 105754,168240 105754,168283 L 96730,168240 C 97238,155138 102238,142590 110881,132774 Z M 96772,174770 L 105797,174770 C 106687,185269 110966,195213 117999,203023 L 117999,203023 L 111644,209425 C 102916,199908 97662,187702 96772,174770 Z M 150624,218857 L 150624,227948 C 137956,227308 125838,222400 116262,213992 L 116262,213992 L 122618,207547 C 130498,214290 140328,218260 150624,218857 L 150624,218857 Z M 112025,170716 C 112025,147626 130583,128933 153505,128933 C 176427,128933 194985,147626 194985,170716 C 194985,170716 194985,170716 194985,170716 C 194942,193805 176385,212498 153505,212498 C 130625,212498 112025,193805 112025,170716 Z M 157106,227905 L 157106,218814 L 157106,218814 C 167317,218046 177062,213992 184816,207249 L 191214,213693 C 181723,222143 169690,227137 157106,227905 Z M 195790,209126 L 189392,202682 L 189350,202682 C 196214,194914 200408,185098 201256,174770 L 201256,174770 L 210280,174770 C 209433,187531 204306,199609 195790,209126 Z M 168462,182495 C 168462,189323 163885,194189 156767,195298 L 156767,198201 C 156725,199908 155327,201274 153675,201316 C 151895,201402 150412,199993 150327,198201 L 150327,195298 C 143209,194189 138633,189323 138633,182495 C 138633,182409 138633,182324 138633,182238 C 138718,180446 140201,179038 141981,179123 C 143760,179208 145158,180702 145073,182495 C 145073,188598 151556,189067 153547,189067 C 155539,189067 162021,188598 162021,182495 C 162021,178824 160920,177971 154013,174556 L 150285,172679 C 143548,169307 138676,166917 138676,158936 C 138676,152065 143252,147157 150370,146047 L 150370,143230 C 150412,141523 151810,140157 153463,140115 C 155242,140029 156725,141438 156810,143230 L 156810,146047 C 163843,147199 168334,152065 168334,158936 C 168334,159021 168334,159107 168334,159192 C 168250,160984 166767,162393 164987,162308 C 163208,162222 161810,160728 161894,158936 C 161894,152918 156090,152278 153590,152278 C 151598,152278 145116,152748 145116,158936 C 145116,162606 146217,163417 153124,166874 L 156852,168752 C 163589,172081 168462,174471 168462,182495 Z" fill="#29B5E8" />
</svg>