<?xml version="1.0" encoding="utf-8"?>
<svg xmlns="http://www.w3.org/2000/svg" viewBox="0 0 333295 228140">
  <path d="M 205670,83854 C 198289,83854 192187,89919 192187,97299 C 192187,104680 198179,110745 205670,110745 C 213014,110745 219042,104680 219042,97299 C 219042,89919 213014,83854 205670,83854 Z M 148306,0 C 122474,0 96971,7198 74208,21228 C 40703,41726 17392,74171 8477,112535 C 37,149292 5919,186999 25101,219152 C 26892,224486 31751,228067 37414,228067 L 83415,228067 C 90576,228067 96386,222294 96386,215096 C 96386,202052 106945,191603 119916,191603 C 132887,191603 143483,202162 143483,215096 C 143483,222257 149219,228067 156380,228067 L 201102,228067 C 201577,228103 201979,228103 202454,228103 C 203697,228103 204902,227884 206145,227555 C 211625,225948 215425,220942 215425,215133 L 215425,129087 C 215425,122656 210639,117578 204500,116555 C 204135,116518 203806,116408 203368,116335 C 203039,116335 202783,116116 202454,116116 C 202016,116116 201650,116335 201249,116408 C 197193,116555 193210,118454 190835,122108 C 183966,132887 172165,139390 159377,139390 C 138769,139390 122108,122656 122108,102122 C 122108,81552 138879,64817 159377,64817 C 169351,64817 178741,68654 185757,75706 C 188278,78227 191566,79506 194891,79506 C 198216,79506 201541,78227 204062,75706 C 209177,70700 209068,62516 204062,57437 C 192151,45489 176257,38912 159377,38912 C 124556,38912 96167,67229 96167,102122 C 96167,136979 124556,165332 159377,165332 C 170155,165332 180495,162628 189593,157623 L 189593,202235 L 167671,202235 C 161971,181189 142752,165734 119989,165734 C 97190,165734 77971,181189 72308,202235 L 45343,202235 C 31276,176586 27147,147063 33761,118418 C 41105,86813 60287,60177 87800,43260 C 106470,31788 127370,25905 148561,25905 C 157769,25905 167049,27001 176184,29267 C 230113,42603 230077,81954 229967,116628 L 229967,120318 C 229967,148781 253132,171945 281594,171945 C 310094,171945 333258,148781 333258,120318 C 333149,113083 327303,107347 320178,107347 C 313090,107347 307207,113083 307207,120318 C 307207,134531 295625,146077 281412,146077 C 267235,146077 255689,134458 255689,120245 L 255689,116737 C 255799,81442 255909,22361 182322,4202 C 171069,1388 159669,0 148306,0 Z" fill="#29B5E8" />
</svg>