<?xml version="1.0" encoding="utf-8"?>
<svg xmlns="http://www.w3.org/2000/svg" viewBox="0 0 263685 263745">
  <path d="M 131873,21440 C 159564,21440 184718,31677 204075,48497 L 182725,69877 C 168895,58523 151169,51728 131873,51728 C 113150,51728 95877,58221 82198,69062 L 60727,47591 C 79993,31315 104846,21440 131873,21440 Z M 131963,73078 C 145341,73078 157631,77608 167536,85127 L 132930,119733 L 97478,84281 C 107171,77185 119069,73078 131963,73078 Z M 177501,94548 C 185866,104725 190999,117770 190999,132023 C 190999,144918 186772,156785 179766,166509 L 142593,129396 L 177501,94548 Z M 87392,93461 L 123266,129336 L 85036,167536 C 77547,157631 73018,145341 73018,131993 C 73018,117287 78423,103819 87392,93461 Z M 132930,139029 L 170435,176595 C 160077,185564 146669,190999 131963,190999 C 117710,190999 104665,185926 94458,177501 L 132930,139029 Z M 213889,58130 C 231525,77638 242335,103517 242335,131842 C 242335,158929 232461,183782 216184,202988 L 194986,181759 C 205796,168079 212319,150837 212319,132023 C 212319,111912 204830,93522 192600,79419 L 213889,58130 Z M 50913,57103 L 72233,78453 C 59459,92676 51577,111459 51577,132023 C 51577,151320 58402,168985 69726,182876 L 48467,204105 C 31768,184688 21501,159443 21501,131842 C 21501,102973 32704,76732 50913,57103 Z M 185564,191573 L 206672,212741 C 186983,231011 160772,242214 131873,242214 C 103547,242214 77759,231403 58160,213738 L 79389,192569 C 93492,204799 111852,212288 131963,212288 C 152588,212288 171311,204467 185564,191573 Z M 131782,30 C 98806,30 68669,12321 45508,32402 L 27087,13951 C 25759,12623 23977,11958 22225,11958 C 20474,11958 18692,12623 17364,13951 C 14676,16669 14676,20957 17364,23645 L 35694,41944 C 13649,65529 0,97115 0,131842 C 0,165392 12653,195831 33368,219204 L 17364,235178 C 14676,237866 14676,242154 17364,244841 C 18692,246200 20444,246865 22195,246865 C 23947,246865 25668,246200 26997,244841 L 42881,228988 C 66314,250458 97478,263745 131692,263745 C 166449,263745 198036,250156 221650,228052 L 238530,244902 C 239859,246230 241580,246925 243332,246925 C 245053,246925 246805,246230 248163,244902 C 250851,242214 250851,237896 248163,235208 L 231313,218086 C 251395,194895 263685,164818 263685,131812 C 263685,97538 250458,66435 228928,42941 L 248254,23614 C 250942,20927 250942,16609 248254,13921 C 246895,12562 245144,11898 243392,11898 C 241671,11898 239920,12562 238561,13921 L 219113,33368 C 195861,12653 165301,30 131782,30 Z" fill="#29B5E8" />
</svg>