<?xml version="1.0" encoding="utf-8"?>
<svg xmlns="http://www.w3.org/2000/svg" viewBox="0 0 222495 270872">
  <path d="M 78181,26272 C 77155,26272 76158,26664 75373,27450 L 63445,39378 C 61875,40918 61875,43424 63445,44994 C 64230,45810 65257,46202 66253,46202 C 67280,46202 68246,45810 69062,44994 L 80990,33066 C 82560,31526 82560,29020 80990,27450 C 80204,26664 79178,26272 78181,26272 Z M 36358,32281 C 35361,32281 34365,32674 33580,33429 C 31949,34908 31949,37475 33459,39015 L 45387,51366 C 46202,52181 47168,52574 48256,52574 C 49192,52574 50218,52181 51004,51457 C 52664,49917 52664,47410 51124,45840 L 39196,33519 C 38411,32704 37384,32281 36358,32281 Z M 42246,62207 C 41250,62207 40223,62600 39468,63385 L 27540,75343 C 25940,76823 25940,79389 27540,80960 C 28295,81715 29292,82137 30318,82137 C 31345,82137 32341,81715 33157,80960 L 45085,68971 C 46655,67492 46655,64955 45085,63385 C 44300,62600 43273,62207 42246,62207 Z M 60184,30 C 26997,30 0,27027 0,60184 C 0,83013 12774,103608 33429,113905 C 34365,114358 35301,114600 36297,114600 C 38623,114600 40857,113301 41974,111036 C 43545,107896 42246,104091 39076,102490 C 22739,94307 12653,78121 12653,60184 C 12653,34002 33942,12713 60153,12713 C 78091,12713 94367,22890 102460,39106 C 103577,41340 105872,42669 108228,42669 C 109164,42669 110130,42428 111036,41975 C 114177,40435 115475,36569 113905,33429 C 103577,12804 83013,30 60184,30 Z M 149327,73471 L 128249,141325 C 123357,140690 118616,139966 114086,139241 C 104121,137671 94911,136251 86455,136251 C 83375,136251 80416,136433 77547,136885 L 75162,73471 Z M 178920,73471 L 176444,141143 C 168351,142563 160560,143106 153101,143106 C 149025,143106 145008,142925 141113,142653 L 162613,73471 Z M 86516,144193 C 94186,144193 102883,145522 112788,147092 C 116864,147696 121303,148361 125833,148995 L 101675,226723 C 100618,230105 102520,233699 105872,234665 C 106506,234846 107171,234937 107805,234937 C 110493,234937 112999,233246 113905,230468 L 138788,150384 C 143559,150776 148390,151048 153403,151048 C 160711,151048 168260,150565 176202,149236 L 176202,149236 L 172428,250942 L 81624,250942 L 77758,144888 C 80537,144405 83436,144193 86516,144193 Z M 215338,17666 C 214885,17666 214372,17726 213889,17817 L 166026,29745 C 163821,30318 162160,31949 161496,34093 L 155426,53510 L 64804,53510 C 62116,53510 59519,54627 57617,56560 C 55714,58523 54748,61090 54808,63838 L 61965,261269 C 62146,266614 66585,270872 71991,270872 L 182030,270872 C 187406,270872 191754,266614 191965,261269 L 199152,63838 C 199273,61150 198246,58523 196374,56560 C 194472,54597 191875,53510 189187,53510 L 168804,53510 L 172609,41310 L 216999,30198 C 220411,29382 222465,25879 221619,22497 C 220925,19568 218237,17666 215338,17666 Z" fill="#29B5E8" />
</svg>