<?xml version="1.0" encoding="utf-8"?>
<svg xmlns="http://www.w3.org/2000/svg" viewBox="0 0 415897 415923">
  <path d="M 208401,415923 C 93248,415829 -47,322534 0,207568 C 47,124029 50142,48605 127255,16006 C 233590,-28132 355638,22151 399870,128298 C 443727,233601 394522,354570 289548,399506 C 263891,410388 236263,415969 208401,415923 Z M 208401,17413 C 103052,17460 17684,102735 17730,207896 C 17777,284353 63604,353398 134197,383183 C 231244,424131 343161,378774 384157,281867 C 425152,184960 379700,73325 282653,32376 C 259153,22432 233918,17366 208401,17413 L 208401,17413 Z M 244753,322393 L 172003,322393 C 167077,322393 163044,318406 163044,313434 L 163044,253113 L 102723,253113 C 97798,253113 93764,249127 93764,244154 L 93764,171404 C 93764,166479 97751,162445 102723,162445 L 163044,162445 L 163044,102125 C 163044,97199 167031,93166 172003,93166 L 244753,93166 C 249678,93166 253712,97153 253712,102125 L 253712,162445 L 314032,162445 C 318958,162445 322991,166432 322991,171357 C 322991,171357 322991,171357 322991,171357 L 322991,244108 C 322991,249033 319005,253067 314032,253067 L 253712,253067 L 253712,313387 C 253712,318406 249725,322393 244753,322393 C 244800,322393 244800,322393 244753,322393 Z M 180962,304522 L 235841,304522 L 235841,244154 C 235841,239230 239828,235196 244800,235196 C 244800,235196 244800,235196 244800,235196 L 305120,235196 L 305120,180316 L 244753,180316 C 239828,180316 235794,176329 235794,171357 C 235794,171357 235794,171357 235794,171357 L 235794,111084 L 180915,111084 L 180915,171404 C 180915,176329 176928,180363 172003,180363 C 172003,180363 172003,180363 172003,180363 L 111682,180363 L 111682,235242 L 172003,235242 C 176928,235242 180962,239230 180962,244201 L 180962,304522 Z" fill="#29B5E8" />
</svg>