<?xml version="1.0" encoding="utf-8"?>
<svg xmlns="http://www.w3.org/2000/svg" viewBox="0 0 282562 224839">
  <path d="M 281972,57757 C 281155,55728 279520,54122 277455,53319 L 277455,53319 L 144348,571 C 142369,-190 140174,-190 138196,571 L 5131,53277 C 915,54925 -1107,59659 614,63759 C 1431,65788 3066,67394 5131,68197 L 37655,81088 L 37655,146348 C 37655,160380 50518,171201 69491,178639 L 69491,219553 C 69405,222385 71685,224794 74567,224837 C 77450,224921 79902,222681 79945,219849 C 79945,219765 79945,219638 79945,219553 L 79945,182232 C 98100,187642 119912,190432 141250,190432 C 191499,190432 244888,175005 244888,146390 L 244888,81131 L 277412,68239 C 281628,66591 283650,61857 281972,57757 Z M 69534,161141 C 59596,156323 54089,150955 54089,146390 L 54089,87640 L 69534,93768 L 69534,161141 Z M 228540,146390 C 228540,157802 194553,174328 141336,174328 C 115997,174328 95045,170567 80031,165410 L 80031,97910 L 138239,120988 C 139228,121368 140261,121580 141293,121580 C 142240,121580 143186,121368 144046,121072 C 144132,121030 144262,121072 144348,121030 L 228497,87682 L 228497,146390 Z M 141293,104800 L 136217,102771 L 92765,85526 L 143272,65492 C 145939,64435 147273,61434 146198,58772 C 145122,56151 142067,54841 139357,55898 L 78697,79905 L 77837,79567 L 30126,60674 L 141293,16632 L 252417,60758 L 141293,104800 Z" fill="#29B5E8" />
</svg>