<?xml version="1.0" encoding="utf-8"?>
<svg xmlns="http://www.w3.org/2000/svg" viewBox="0 0 264310 250438">
  <path d="M 115515,204947 L 25501,204947 C 11435,204947 0,193511 0,179446 L 0,25501 C 0,11435 11435,0 25501,0 L 179446,0 C 193512,0 204947,11435 204947,25501 L 204947,82095 C 204947,85833 201929,88879 198163,88879 C 194425,88879 191380,85833 191380,82095 L 191380,25473 C 191380,18883 186008,13512 179418,13512 L 25473,13512 C 18883,13512 13512,18883 13512,25473 L 13512,179418 C 13512,186008 18883,191380 25473,191380 L 115487,191380 C 119225,191380 122270,194425 122270,198163 C 122298,201901 119252,204947 115515,204947 Z" fill="#29B5E8" />
  <path d="M 259797,166294 L 102473,166294 C 99982,166294 97960,164273 97960,161781 C 97960,159289 99982,157268 102473,157268 L 259797,157268 C 262289,157268 264310,159289 264310,161781 C 264310,164273 262289,166294 259797,166294 Z" fill="#29B5E8" />
  <path d="M 236040,163110 C 234490,163110 232967,162307 232137,160840 L 216742,134204 L 203645,132487 C 202344,132321 201154,131573 200434,130466 L 183738,104578 L 169922,118394 L 163027,138329 C 162556,139658 161504,140710 160148,141153 L 140295,147522 L 131103,161116 C 129718,163193 126894,163747 124845,162335 C 122769,160950 122243,158126 123627,156077 L 133678,141181 C 134232,140351 135090,139714 136031,139409 L 155219,133262 L 161726,114462 C 161947,113825 162307,113244 162806,112746 L 181329,94222 C 182298,93253 183655,92755 185011,92921 C 186368,93059 187586,93807 188334,94970 L 206913,123793 L 220148,125537 C 221532,125731 222778,126534 223470,127752 L 239972,156326 C 241218,158486 240471,161255 238311,162501 C 237591,162916 236816,163110 236040,163110 Z" fill="#29B5E8" />
  <path d="M 190964,250438 C 190051,250438 189165,250161 188417,249635 L 163858,232745 C 163055,232192 162446,231416 162141,230475 L 152229,201486 L 134370,191075 C 133567,190604 132930,189884 132543,189054 L 126507,175791 C 125482,173521 126479,170835 128749,169811 C 131020,168758 133706,169783 134730,172053 L 140185,184014 L 158265,194564 C 159206,195117 159898,195976 160258,197000 L 170226,226183 L 188943,239086 L 201707,208241 C 202400,206553 204061,205445 205888,205445 L 210678,205445 L 226377,172026 C 227430,169755 230115,168786 232386,169866 C 234656,170918 235625,173604 234545,175874 L 217628,211896 C 216880,213474 215302,214499 213530,214499 L 208906,214499 L 195173,247725 C 194647,248998 193595,249940 192293,250327 C 191823,250383 191407,250438 190964,250438 Z" fill="#29B5E8" />
  <path d="M 205971,163110 C 204421,163110 202898,162307 202067,160867 L 196004,150457 L 182492,124873 C 182298,124485 182160,124098 182077,123682 L 177840,103249 C 177342,100812 178892,98431 181329,97905 C 183766,97406 186147,98957 186673,101421 L 190798,121246 L 203922,146082 L 209903,156327 C 211149,158486 210429,161227 208269,162501 C 207522,162889 206747,163110 205971,163110 Z" fill="#29B5E8" />
  <path d="M 114407,72044 L 90540,72044 C 85141,72044 80766,67669 80766,62270 L 80766,38403 C 80766,33004 85141,28629 90540,28629 L 114407,28629 C 119806,28629 124181,33004 124181,38403 L 124181,62270 C 124181,67669 119806,72044 114407,72044 Z M 90540,37628 C 90125,37628 89792,37960 89792,38376 L 89792,62243 C 89792,62658 90125,62990 90540,62990 L 114407,62990 C 114822,62990 115155,62658 115155,62243 L 115155,38376 C 115155,37960 114822,37628 114407,37628 L 90540,37628 Z" fill="#29B5E8" />
  <path d="M 114407,123793 L 90540,123793 C 85141,123793 80766,119418 80766,114019 L 80766,90152 C 80766,84753 85141,80378 90540,80378 L 114407,80378 C 119806,80378 124181,84753 124181,90152 L 124181,114019 C 124181,119418 119806,123793 114407,123793 Z M 90540,89404 C 90125,89404 89792,89737 89792,90152 L 89792,114019 C 89792,114435 90125,114767 90540,114767 L 114407,114767 C 114822,114767 115155,114435 115155,114019 L 115155,90152 C 115155,89737 114822,89404 114407,89404 L 90540,89404 Z" fill="#29B5E8" />
  <path d="M 166488,72044 L 142621,72044 C 137222,72044 132847,67669 132847,62270 L 132847,38403 C 132847,33004 137222,28629 142621,28629 L 166488,28629 C 171887,28629 176262,33004 176262,38403 L 176262,62270 C 176262,67669 171860,72044 166488,72044 Z M 142593,37628 C 142178,37628 141846,37960 141846,38376 L 141846,62243 C 141846,62658 142178,62990 142593,62990 L 166460,62990 C 166876,62990 167208,62658 167208,62243 L 167208,38376 C 167208,37960 166876,37628 166460,37628 L 142593,37628 Z" fill="#29B5E8" />
  <path d="M 62353,72044 L 38486,72044 C 33087,72044 28713,67669 28713,62270 L 28713,38403 C 28713,33004 33087,28629 38486,28629 L 62353,28629 C 67753,28629 72127,33004 72127,38403 L 72127,62270 C 72127,67669 67753,72044 62353,72044 Z M 38459,37628 C 38043,37628 37711,37960 37711,38376 L 37711,62243 C 37711,62658 38043,62990 38459,62990 L 62326,62990 C 62741,62990 63073,62658 63073,62243 L 63073,38376 C 63073,37960 62741,37628 62326,37628 L 38459,37628 Z" fill="#29B5E8" />
  <path d="M 62353,123793 L 38486,123793 C 33087,123793 28713,119418 28713,114019 L 28713,90152 C 28713,84753 33087,80378 38486,80378 L 62353,80378 C 67753,80378 72127,84753 72127,90152 L 72127,114019 C 72127,119418 67753,123793 62353,123793 Z M 38459,89404 C 38043,89404 37711,89737 37711,90152 L 37711,114019 C 37711,114435 38043,114767 38459,114767 L 62326,114767 C 62741,114767 63073,114435 63073,114019 L 63073,90152 C 63073,89737 62741,89404 62326,89404 L 38459,89404 Z" fill="#29B5E8" />
  <path d="M 62353,176040 L 38486,176040 C 33087,176040 28713,171666 28713,166267 L 28713,142400 C 28713,137000 33087,132626 38486,132626 L 62353,132626 C 67753,132626 72127,137000 72127,142400 L 72127,166267 C 72127,171666 67753,176040 62353,176040 Z M 38459,141652 C 38043,141652 37711,141984 37711,142400 L 37711,166267 C 37711,166682 38043,167014 38459,167014 L 62326,167014 C 62741,167014 63073,166682 63073,166267 L 63073,142400 C 63073,141984 62741,141652 62326,141652 L 38459,141652 Z" fill="#29B5E8" />
</svg>