<?xml version="1.0" encoding="utf-8"?>
<svg xmlns="http://www.w3.org/2000/svg" viewBox="0 0 241929 239509">
  <path d="M 110204,50887 C 96346,50887 83552,45646 72004,40921 C 54438,33721 43078,29676 31471,36934 C 27882,39202 23129,38138 20856,34557 C 19133,31844 19286,28348 21239,25795 C 48461,-10400 77863,-375 101482,7680 C 121158,14393 138154,20185 155256,5018 C 158430,2201 163293,2484 166117,5650 C 168530,8356 168719,12377 166569,15295 C 146394,42738 127476,50887 110204,50887 Z M 52193,18449 C 61102,19856 69735,23398 77851,26722 C 95629,34003 111702,40587 129880,29969 C 118308,29635 107066,25801 96522,22202 C 80096,16609 66074,11825 52193,18449 Z" fill="#29B5E8" />
  <path d="M 91415,180567 L 76641,180567 C 72392,180567 68948,177131 68948,172893 C 68948,168655 72392,165219 76641,165219 L 91415,165219 C 95664,165219 99108,168655 99108,172893 C 99108,177131 95664,180567 91415,180567 Z" fill="#29B5E8" />
  <path d="M 91415,210032 L 76641,210032 C 72392,210032 68948,206596 68948,202358 C 68948,198120 72392,194684 76641,194684 L 91415,194684 C 95664,194684 99108,198120 99108,202358 C 99108,206596 95664,210032 91415,210032 Z" fill="#29B5E8" />
  <path d="M 150514,180567 L 135757,180567 C 131508,180567 128064,177131 128064,172893 C 128064,168655 131508,165219 135757,165219 L 150531,165219 C 154780,165219 158224,168655 158224,172893 C 158224,177131 154780,180567 150531,180567 Z" fill="#29B5E8" />
  <path d="M 150514,210032 L 135757,210032 C 131508,210032 128064,206596 128064,202358 C 128064,198120 131508,194684 135757,194684 L 150531,194684 C 154780,194684 158224,198120 158224,202358 C 158224,206596 154780,210032 150531,210032 Z" fill="#29B5E8" />
  <path d="M 209612,180567 L 194837,180567 C 190589,180567 187144,177131 187144,172893 C 187144,168655 190589,165219 194837,165219 L 209612,165219 C 213860,165219 217305,168655 217305,172893 C 217305,177131 213860,180567 209612,180567 Z" fill="#29B5E8" />
  <path d="M 209612,210032 L 194837,210032 C 190589,210032 187144,206596 187144,202358 C 187144,198120 190589,194684 194837,194684 L 209612,194684 C 213860,194684 217305,198120 217305,202358 C 217305,206596 213860,210032 209612,210032 Z" fill="#29B5E8" />
  <path d="M 234236,239509 L 7693,239509 C 3444,239509 0,236073 0,231835 L 0,155235 C 0,154884 26,154533 76,154185 L 14234,53936 C 14771,50141 18032,47323 21874,47334 L 45446,47334 C 49081,47327 52225,49861 52980,53408 L 69571,133139 L 111849,105737 C 115413,103428 120177,104439 122491,107993 C 123304,109241 123735,110698 123733,112186 L 123733,132570 L 171541,105731 C 175242,103649 179934,104954 182021,108646 C 182671,109796 183013,111094 183013,112415 L 183013,132676 L 230410,105526 C 234090,103415 238790,104680 240906,108351 C 241578,109516 241930,110836 241929,112180 L 241929,231835 C 241929,236073 238485,239509 234236,239509 Z M 15386,224161 L 226543,224161 L 226543,125406 L 179146,152550 C 175466,154661 170767,153396 168650,149725 C 167979,148560 167626,147239 167627,145896 L 167627,125506 L 119813,152350 C 116110,154429 111419,153120 109335,149426 C 108687,148277 108347,146980 108347,145661 L 108347,126285 L 68519,152081 C 64960,154402 60189,153406 57862,149856 C 57333,149049 56960,148148 56765,147203 L 39134,62630 L 28538,62630 L 15386,155774 Z" fill="#29B5E8" />
</svg>