<?xml version="1.0" encoding="utf-8"?>
<svg xmlns="http://www.w3.org/2000/svg" viewBox="0 0 270036 270036">
  <path d="M 135018,0 C 60570,0 0,60570 0,135018 C 0,209466 60570,270036 135018,270036 C 209466,270036 270036,209473 270036,135018 C 270036,60563 209473,0 135018,0 Z M 135018,247278 C 73118,247278 22758,196890 22758,135018 C 22758,73146 73146,22758 135018,22758 C 196890,22758 247278,73146 247278,135018 C 247278,196890 196918,247278 135018,247278 Z" fill="#29B5E8" />
  <path d="M 173201,200438 L 148049,200438 L 148049,107998 C 148045,103306 144244,99502 139553,99495 L 117116,99495 C 112423,99629 108726,103544 108861,108238 C 108990,112742 112612,116364 117116,116494 L 131050,116494 L 131050,200473 L 105905,200473 C 101211,200339 97296,204034 97161,208728 C 97027,213423 100723,217338 105417,217472 C 105580,217477 105743,217477 105905,217472 L 173201,217472 C 177895,217338 181591,213423 181456,208728 C 181327,204224 177705,200603 173201,200473 Z" fill="#29B5E8" />
  <path d="M 133940,80816 C 141732,80820 148052,74507 148056,66715 C 148060,58923 141746,52603 133954,52599 C 126162,52595 119843,58909 119839,66701 C 119839,66703 119839,66705 119839,66708 C 119846,74494 126154,80804 133940,80816 Z" fill="#29B5E8" />
</svg>