<?xml version="1.0" encoding="utf-8"?>
<svg xmlns="http://www.w3.org/2000/svg" viewBox="0 0 337135 363541">
  <path d="M 168568,0 C 167442,0 166317,281 165272,804 L 161976,2412 C 158399,4220 156992,8641 158761,12219 C 160087,14710 162579,16198 165272,16198 C 166397,16198 167482,16037 168568,15474 C 169572,15997 170658,16238 171743,16238 C 174395,16238 176968,14751 178214,12219 C 180143,8641 178656,4220 175079,2412 L 171823,804 C 170818,281 169693,0 168568,0 Z M 192161,11937 C 189468,11937 186855,13344 185569,15916 C 183760,19493 185207,23915 188784,25643 L 195215,28898 C 196300,29461 197426,29622 198471,29622 C 201083,29622 203575,28135 204902,25643 C 206750,22066 205103,17564 201485,15796 L 195336,12620 C 194331,12138 193246,11937 192161,11937 Z M 144934,11977 C 143849,11977 142684,12219 141639,12741 L 135127,16037 C 131550,17805 130103,22186 131912,25763 C 133198,28255 135650,29742 138262,29742 C 138303,29742 138383,29742 138423,29742 C 139548,29742 140674,29501 141719,28979 L 148190,25683 C 151767,23915 153214,19493 151445,15916 C 150159,13384 147587,11977 144934,11977 Z M 118045,25522 C 116960,25522 115835,25763 114790,26286 L 108279,29582 C 104702,31350 103255,35771 105063,39348 C 106349,41840 108761,43287 111414,43287 C 111454,43287 111494,43287 111574,43287 C 112700,43287 113825,43046 114830,42604 L 121341,39308 C 124918,37500 126365,33078 124557,29501 C 123311,26969 120698,25522 118045,25522 Z M 218929,25522 C 216276,25522 213704,26969 212418,29501 C 210649,33078 212056,37379 215633,39348 L 222104,42644 C 223149,43127 224315,43368 225360,43368 C 228012,43368 230625,41881 231871,39348 C 233679,35771 232313,31350 228736,29582 L 222225,26286 C 221180,25763 220054,25522 218929,25522 Z M 91237,39107 C 90112,39107 88986,39389 87941,39911 L 81430,43167 C 77853,44975 76406,49316 78215,52893 C 79501,55425 81912,56913 84565,56913 C 84605,56913 84645,56913 84686,56913 C 85851,56913 86977,56671 87981,56149 L 94493,52853 C 98070,51044 99517,46663 97708,43046 C 96462,40554 93890,39107 91237,39107 Z M 245818,39107 C 243165,39107 240593,40554 239347,43046 C 237498,46663 238985,51004 242522,52893 L 249073,56189 C 250078,56712 251203,56953 252369,56953 C 254901,56953 257554,55466 258840,52893 C 260689,49316 259202,44895 255625,43127 L 249113,39911 C 248068,39389 246943,39107 245818,39107 Z M 64348,52692 C 63223,52692 62097,52933 61052,53456 L 54541,56712 C 50964,58520 49557,62941 51326,66519 C 52612,68970 55064,70457 57676,70457 C 57757,70457 57797,70457 57837,70457 C 58962,70457 60128,70216 61133,69734 L 67644,66478 C 71221,64670 72628,60249 70859,56671 C 69573,54139 67001,52692 64348,52692 Z M 272706,52692 C 270054,52692 267481,54139 266195,56671 C 264427,60249 265833,64670 269411,66519 L 275922,69814 C 276927,70337 278092,70498 279218,70498 C 281830,70498 284402,69010 285729,66519 C 287497,62941 286090,58520 282473,56712 L 276002,53456 C 274957,52933 273832,52692 272706,52692 Z M 37459,66277 C 36334,66277 35209,66519 34164,67041 L 27652,70337 C 24075,72146 22628,76486 24437,80063 C 25804,82636 28296,84083 30908,84083 C 32074,84083 33119,83842 34204,83279 L 40715,80023 C 44292,78215 45659,73793 43890,70216 C 42604,67684 40072,66277 37459,66277 Z M 299595,66277 C 296983,66277 294451,67684 293164,70216 C 291275,73793 292682,78215 296340,80063 L 302851,83359 C 303936,83882 304981,84123 306147,84123 C 308759,84123 311372,82636 312618,80063 C 314426,76486 312979,72065 309402,70337 L 302891,67041 C 301846,66519 300721,66277 299595,66277 Z M 326444,79822 C 323751,79822 321179,81309 319933,83842 C 319209,85369 318968,87097 319330,88665 C 318968,90313 319129,92001 319852,93729 C 320937,95819 322786,97065 324876,97547 C 326122,98753 327851,99476 329699,99476 C 333759,99476 337055,96181 337055,92202 L 337055,88544 C 337055,85128 334723,82395 331548,81551 L 329699,80586 C 328654,80063 327529,79822 326444,79822 Z M 10731,79702 C 9606,79702 8481,79943 7395,80465 L 4140,82113 C 3939,82153 3899,82274 3818,82314 C 3818,82354 3778,82354 3738,82354 C 3698,82354 3658,82354 3577,82395 C 3457,82555 3296,82756 3175,82917 C 2452,83480 1849,84083 1447,84726 C 1206,85007 1085,85329 924,85610 C 563,86333 322,87177 241,88062 C 241,88303 121,88423 121,88665 L 121,92282 C 121,96341 3256,99597 7315,99597 C 7355,99597 7355,99597 7395,99597 C 9485,99597 11334,98673 12741,97266 C 14590,96663 16198,95417 17202,93488 C 17966,91960 18087,90232 17685,88584 C 18087,87057 18046,85248 17202,83641 C 15956,81108 13384,79702 10731,79702 Z M 30948,93327 C 28255,93327 25683,94774 24437,97306 C 22628,100964 24075,105304 27652,107153 L 34164,110449 C 35168,110971 36294,111213 37419,111213 C 39992,111213 42644,109725 43890,107153 C 45659,103576 44292,99155 40715,97386 L 34204,94091 C 33159,93568 32033,93327 30948,93327 Z M 306106,93448 C 304981,93448 303856,93689 302770,94211 L 296259,97427 C 292682,99275 291275,103656 293044,107234 C 294370,109806 296942,111213 299555,111213 C 300680,111213 301846,110971 302851,110449 L 309362,107153 C 312939,105385 314346,100964 312577,97386 C 311331,94854 308759,93448 306106,93448 Z M 168608,105184 C 167884,105184 167201,105344 166518,105666 L 163704,107113 C 161453,108238 160569,110971 161695,113182 C 162458,114790 164066,115714 165754,115714 C 166477,115714 167121,115473 167844,115151 L 168568,114790 L 169331,115151 C 169974,115473 170658,115634 171341,115634 C 173029,115634 174637,114750 175400,113142 C 176566,110931 175641,108118 173431,107113 L 170658,105666 C 170014,105344 169331,105184 168608,105184 Z M 150400,114348 C 149677,114348 148954,114508 148270,114870 L 142282,117925 C 140071,119050 139187,121783 140272,124034 C 141116,125602 142764,126486 144372,126486 C 145055,126486 145738,126245 146421,125963 L 152370,122909 C 154580,121783 155505,119050 154420,116759 C 153616,115232 152048,114348 150400,114348 Z M 186815,114348 C 185127,114348 183519,115272 182755,116880 C 181630,119090 182514,121783 184725,122989 L 190714,125963 C 191397,126325 192120,126486 192804,126486 C 194451,126486 196019,125602 196863,124034 C 197988,121783 197104,119050 194813,117925 L 188865,114870 C 188181,114508 187498,114348 186815,114348 Z M 329780,108279 C 325761,108279 322465,111574 322465,115594 L 322465,123150 C 322465,127169 325761,130425 329780,130425 C 333839,130425 337095,127169 337095,123150 L 337095,115594 C 337095,111574 333839,108279 329780,108279 Z M 7395,108600 C 3336,108600 121,111896 121,115875 L 121,123471 C 121,127450 3336,130746 7395,130746 C 11455,130746 14751,127450 14751,123471 L 14751,115875 C 14751,111896 11455,108600 7395,108600 Z M 158037,74999 L 158037,85731 C 158037,92001 163142,97185 169452,97185 C 175762,97185 180866,92121 180866,85731 L 180866,76004 L 255343,113624 L 218567,132113 C 218326,130666 217562,129299 216115,128576 L 210167,125561 C 209524,125200 208800,125039 208117,125039 C 206469,125039 204861,125963 204058,127531 C 202932,129782 203816,132515 206107,133680 L 210689,135971 L 168568,157313 L 126406,135971 L 131148,133600 C 133359,132474 134243,129741 133118,127450 C 132354,125883 130706,124958 129018,124958 C 128335,124958 127651,125119 127008,125441 L 121060,128415 C 119613,129179 118769,130505 118648,131912 L 82033,113423 L 158037,74999 Z M 329780,139388 C 325761,139388 322465,142683 322465,146662 L 322465,154259 C 322465,158238 325761,161534 329780,161534 C 333839,161534 337095,158238 337095,154259 L 337095,146662 C 337095,142683 333839,139388 329780,139388 Z M 7395,139629 C 3336,139629 121,142924 121,146904 L 121,154500 C 121,158479 3336,161775 7395,161775 C 11455,161775 14751,158479 14751,154500 L 14751,146904 C 14751,142924 11455,139629 7395,139629 Z M 104943,158238 C 102370,158238 100401,160288 100401,162860 L 100401,169773 C 100401,172265 102370,174315 104943,174315 C 107435,174315 109484,172265 109484,169773 L 109484,162860 C 109484,160288 107435,158238 104943,158238 Z M 232433,158238 C 229901,158238 227892,160288 227892,162860 L 227892,169773 C 227892,172265 229901,174315 232433,174315 C 234966,174315 236935,172265 236935,169773 L 236935,162860 C 236935,160328 234966,158238 232433,158238 Z M 329780,170416 C 325761,170416 322465,173712 322465,177771 L 322465,185287 C 322465,189307 325761,192562 329780,192562 C 333839,192562 337095,189307 337095,185287 L 337095,177771 C 337095,173712 333839,170416 329780,170416 Z M 7395,170657 C 3336,170657 121,173953 121,177932 L 121,185528 C 121,189508 3336,192803 7395,192803 C 11455,192803 14751,189508 14751,185528 L 14751,177932 C 14751,173953 11455,170657 7395,170657 Z M 104943,183037 C 102370,183037 100401,185046 100401,187619 L 100401,194532 C 100401,196983 102370,199073 104943,199073 C 107435,199073 109484,197064 109484,194532 L 109484,187619 C 109484,185046 107435,183037 104943,183037 Z M 232433,183037 C 229901,183037 227892,185046 227892,187619 L 227892,194532 C 227892,197064 229901,199073 232433,199073 C 234966,199073 236935,197064 236935,194532 L 236935,187619 C 236935,185046 234966,183037 232433,183037 Z M 104983,207715 C 102491,207715 100441,209765 100441,212256 L 100441,215472 C 100441,217200 101366,218768 102893,219531 L 105787,220938 C 106349,221340 107073,221461 107756,221461 C 109484,221461 111012,220576 111856,219009 C 112981,216758 112097,213985 109967,212859 L 109525,212256 C 109525,209765 107555,207715 104983,207715 Z M 232474,207715 C 229982,207715 227932,209765 227932,212256 L 227570,212859 C 225319,213985 224435,216758 225561,219009 C 226405,220576 228012,221461 229660,221461 C 230343,221461 230987,221219 231710,220938 L 234523,219531 C 236011,218768 236935,217200 236935,215472 L 236935,212256 C 236935,209765 234966,207715 232474,207715 Z M 329780,201445 C 325761,201445 322465,204741 322465,208800 L 322465,216316 C 322465,220335 325761,223591 329780,223591 C 333839,223591 337095,220335 337095,216316 L 337095,208800 C 337095,204741 333839,201445 329780,201445 Z M 7395,201766 C 3336,201766 121,205062 121,209121 L 121,216637 C 121,220576 3336,223912 7395,223912 C 11455,223912 14751,220617 14751,216637 L 14751,209121 C 14751,205062 11455,201766 7395,201766 Z M 123150,220014 C 121502,220014 119894,220938 119090,222546 C 118005,224756 118890,227489 121100,228615 L 127089,231669 C 127692,232071 128455,232192 129098,232192 C 130827,232192 132394,231308 133238,229740 C 134283,227489 133399,224756 131188,223551 L 125240,220496 C 124557,220174 123873,220014 123150,220014 Z M 214266,220174 C 213543,220174 212819,220335 212136,220737 L 206148,223792 C 203937,224917 203013,227650 204138,229861 C 204982,231469 206590,232393 208238,232393 C 208921,232393 209604,232152 210287,231830 L 216236,228816 C 218446,227650 219331,224917 218286,222666 C 217482,221099 215914,220174 214266,220174 Z M 192763,230906 C 192080,230906 191397,231067 190754,231348 L 184805,234362 C 182595,235488 181670,238221 182836,240512 C 183600,242120 185288,243004 186895,243004 C 187579,243004 188262,242843 188905,242521 L 194894,239547 C 197144,238422 198029,235649 196903,233398 C 196099,231830 194451,230906 192763,230906 Z M 144492,230986 C 142844,230986 141237,231911 140433,233438 C 139307,235729 140192,238462 142483,239587 L 148431,242602 C 149034,242923 149757,243124 150400,243124 C 152129,243124 153696,242120 154540,240552 C 155666,238221 154781,235528 152490,234483 L 146542,231469 C 145899,231147 145175,230986 144492,230986 Z M 329780,232514 C 325761,232514 322465,235769 322465,239829 L 322465,247345 C 322465,251364 325761,254660 329780,254660 C 333839,254660 337095,251364 337095,247345 L 337095,239829 C 337095,235769 333839,232514 329780,232514 Z M 7395,232795 C 3336,232795 121,236091 121,240150 L 121,247666 C 121,251645 3336,254941 7395,254941 C 11455,254941 14751,251645 14751,247666 L 14751,240150 C 14751,236091 11455,232795 7395,232795 Z M 68167,132032 L 69654,132836 L 157233,177048 L 157233,280704 L 80385,241999 L 89428,236734 C 94854,233639 96703,226726 93608,221219 C 91478,217562 87660,215552 83721,215552 C 81792,215552 79863,216035 78094,217039 L 68167,222787 L 68167,132032 Z M 269129,132153 L 269129,224676 L 258317,218406 C 256549,217361 254580,216879 252650,216879 C 248711,216879 244893,218928 242803,222586 C 239628,228012 241477,234965 246983,238100 L 255142,242883 L 180143,280785 L 180143,177168 L 180063,177168 L 269129,132153 Z M 329780,263542 C 326042,263542 322907,266396 322545,270053 C 319490,272063 318285,276082 320013,279418 C 321299,281990 323791,283478 326484,283478 C 327609,283478 328735,283236 329780,282674 L 333035,281066 C 335567,279900 337095,277328 337095,274595 L 337095,270938 C 337095,266878 333839,263582 329780,263542 Z M 7355,263823 C 3296,263823 0,267119 0,271179 L 0,274796 C 0,277569 1608,280021 4059,281307 L 7355,282995 C 8360,283518 9485,283759 10651,283759 C 13264,283759 15836,282272 17122,279699 C 18770,276364 17604,272384 14590,270335 C 14228,266717 11053,263823 7355,263823 Z M 306106,279137 C 305021,279137 303936,279378 302891,279900 L 296460,283156 C 292883,284965 291436,289386 293245,292963 C 294491,295455 297063,296942 299756,296942 C 300801,296942 301967,296701 303012,296259 L 309483,292963 C 313060,291154 314466,286733 312698,283156 C 311412,280624 308799,279137 306106,279137 Z M 30988,279458 C 28336,279458 25763,280945 24477,283478 C 22709,287055 24116,291476 27693,293244 L 34204,296540 C 35209,297022 36374,297264 37500,297304 C 40112,297304 42684,295817 44011,293325 C 45779,289748 44373,285326 40755,283518 L 34284,280262 C 33239,279740 32114,279458 30988,279458 Z M 279378,292762 C 278253,292762 277087,293043 276042,293566 L 269612,296821 C 266034,298630 264587,302971 266396,306548 C 267642,309120 270214,310608 272867,310608 C 273952,310608 275078,310366 276163,309844 L 282594,306508 C 286211,304699 287618,300318 285849,296701 C 284563,294209 282031,292762 279378,292762 Z M 169211,45739 C 169170,45739 169090,45819 168929,45819 C 168768,45819 168648,45819 168527,45819 C 166719,45819 164910,46181 163383,46985 L 51527,103536 C 51326,103576 51286,103656 51165,103697 L 50683,103938 C 50321,104179 50040,104460 49718,104782 C 49356,105063 49075,105304 48754,105626 C 48311,106028 47950,106510 47628,107033 C 47387,107274 47106,107635 46985,107997 C 46583,108600 46382,109203 46141,109846 C 45980,110127 45860,110449 45779,110730 C 45498,111695 45297,112780 45297,113745 L 45297,242883 C 45297,247063 47709,251002 51567,252971 L 163423,309442 C 164066,309723 164749,309964 165473,310165 C 165513,310165 165513,310286 165553,310286 C 166518,310447 167522,310688 168487,310688 L 168608,310688 C 169613,310688 170577,310567 171542,310286 C 171582,310286 171582,310165 171703,310165 C 172386,309964 173109,309723 173672,309442 L 285528,252971 C 289346,251002 291798,247063 291798,242843 L 291798,113664 C 291798,109685 289788,106028 286372,103938 C 286131,103817 285849,103697 285528,103576 C 285488,103576 285488,103536 285407,103536 L 175762,48151 C 174516,47186 173029,46583 171461,46221 C 171140,46101 170658,46061 170296,45980 C 169934,45980 169613,45739 169211,45739 Z M 57837,293124 C 55184,293124 52612,294611 51326,297143 C 49557,300720 50964,305061 54541,306870 L 61052,310165 C 62097,310688 63223,310929 64348,310929 C 66961,310929 69533,309442 70859,306870 C 72628,303292 71221,298871 67644,297143 L 61133,293928 C 60088,293365 58962,293124 57837,293124 Z M 252449,306267 C 251364,306267 250239,306508 249194,307030 L 242683,310326 C 239105,312135 237739,316516 239507,320133 C 240793,322625 243285,324112 245978,324112 C 247104,324112 248229,323871 249234,323389 L 255745,320133 C 259322,318284 260769,313903 258961,310286 C 257715,307714 255142,306267 252449,306267 Z M 84726,306628 C 82033,306628 79461,308075 78215,310608 C 76406,314225 77853,318606 81430,320414 L 87941,323710 C 88946,324193 90071,324394 91197,324394 C 93890,324394 96382,322987 97708,320455 C 99517,316878 98070,312456 94493,310688 L 87981,307392 C 86936,306870 85811,306628 84726,306628 Z M 168608,313984 C 165553,313984 162941,315953 161936,318485 C 161453,319530 161293,320455 161293,321500 L 161293,329056 C 161293,333075 164548,336331 168568,336331 C 171582,336331 174235,334482 175320,331829 C 175722,330865 175963,329860 175963,328815 L 175963,321259 C 175963,317239 172667,313984 168608,313984 Z M 225520,319852 C 224475,319852 223350,320093 222345,320575 L 215874,323871 C 212297,325680 210890,330101 212659,333678 C 213905,336170 216477,337657 219170,337657 C 220255,337657 221380,337496 222466,336934 L 228896,333678 C 232474,331869 233921,327448 232112,323871 C 230786,321339 228213,319852 225520,319852 Z M 111534,320214 C 108882,320214 106309,321660 105063,324193 C 103255,327770 104702,332151 108279,333959 L 114790,337255 C 115795,337778 116920,338019 118045,338019 C 120738,338019 123271,336572 124557,334040 C 126365,330422 124918,326082 121341,324273 L 114830,321017 C 113785,320495 112660,320214 111534,320214 Z M 198672,333437 C 197587,333437 196461,333678 195416,334200 L 188905,337496 C 185328,339265 183961,343686 185730,347263 C 187016,349795 189508,351282 192201,351282 C 193326,351282 194451,351041 195456,350559 L 201967,347142 C 205545,345374 206992,340953 205183,337416 C 203937,334884 201365,333437 198672,333437 Z M 138423,333758 C 135770,333758 133158,335245 131912,337778 C 130103,341355 131550,345776 135127,347585 L 141639,350840 C 142643,351322 143769,351564 144934,351564 C 147547,351564 150119,350077 151445,347585 C 153294,344007 151767,339626 148190,337858 L 141719,334562 C 140634,334000 139548,333758 138423,333758 Z M 168608,345052 C 166397,345052 164548,346017 163182,347625 C 161333,348107 159765,349433 158761,351282 C 156992,354859 158399,359281 161976,361049 L 165272,362657 C 166236,363219 167362,363501 168608,363501 C 169974,363501 171260,363219 172426,362496 C 172627,362375 172627,362255 172748,362174 L 175199,360888 C 178776,359080 180183,354658 178415,351081 C 177450,349232 175762,347946 173913,347384 C 172627,345977 170698,345052 168608,345052 Z" fill="#29B5E8" />
</svg>