<?xml version="1.0" encoding="utf-8"?>
<svg xmlns="http://www.w3.org/2000/svg" viewBox="0 0 242134 242320">
  <path d="M 121093,84015 C 117024,84015 110192,83047 110192,76457 C 110095,71370 105831,67300 100744,67445 C 95802,67542 91829,71515 91731,76457 C 91731,88861 99726,98115 111887,101264 L 111887,103348 C 111887,108435 116006,112602 121142,112602 C 126278,112602 130396,108484 130396,103348 C 130396,103348 130396,103348 130396,103348 L 130396,101264 C 142558,98115 150552,88861 150552,76457 C 150552,60516 140329,55477 128507,49615 L 122014,46417 C 110240,40603 110240,40021 110240,36145 C 110240,29459 117072,28441 121142,28441 C 125987,28441 131801,29798 131801,36145 C 131801,41233 135920,45399 141056,45399 C 146143,45399 150262,41281 150310,36145 C 150310,23693 142461,14390 130445,11241 L 130445,9254 C 130445,4167 126326,0 121191,0 C 116103,0 111985,4119 111936,9254 L 111936,11241 C 99775,14390 91780,23693 91780,36145 C 91780,52086 102003,57125 113874,62988 L 120367,66185 C 132141,71999 132141,72484 132141,76457 C 131995,83047 125164,84015 121093,84015 Z M 234180,103736 C 229577,99714 223521,97679 217416,98163 C 211262,98600 205642,101410 201960,105673 L 177201,131014 C 173131,127623 167995,125733 162665,125733 L 112857,125733 C 106703,123359 87759,117351 68572,124231 C 51274,130433 39065,140172 32184,153108 C 26806,153254 21621,155434 17794,159262 L 6214,170841 C -2071,179127 -2071,192596 6214,200881 L 41439,236106 C 49724,244391 63193,244391 71479,236106 L 83059,224526 C 87516,220069 89697,213818 89067,207568 L 93185,203450 C 95026,201609 96044,200591 104426,200591 L 160824,200591 C 176184,200591 188151,195068 197260,183730 L 236457,136295 C 244840,126653 243822,112069 234180,103736 L 234180,103736 Z M 69977,211444 L 58397,223024 C 57331,224090 55587,224090 54472,223024 L 19247,187799 C 18182,186734 18182,184989 19247,183923 L 30827,172344 C 31893,171278 33638,171278 34704,172344 C 34704,172344 34704,172344 34704,172344 L 69928,207568 C 71091,208634 71091,210378 69977,211444 Z M 222407,124376 L 182967,172053 C 177249,179127 170660,182131 160824,182131 L 104426,182131 C 94009,182131 87080,183439 80152,190368 L 79570,190997 L 49142,160570 C 53988,152333 62612,145985 74822,141625 C 90520,136004 107091,143321 107236,143369 C 108447,143902 109755,144193 111112,144241 L 162714,144241 C 165282,144338 167268,146470 167220,149038 C 167123,151460 165185,153447 162714,153544 L 124969,153544 C 119882,153544 115715,157663 115715,162798 C 115715,167934 119834,172053 124969,172053 C 124969,172053 124969,172053 124969,172053 L 162714,172053 C 175456,172053 185825,161684 185825,148941 L 185825,148844 L 215575,118271 C 216399,117351 217513,116769 218773,116721 C 219984,116624 221195,117011 222116,117835 C 223036,118659 223618,119773 223666,120984 C 223715,122147 223279,123407 222407,124376 L 222407,124376 Z" fill="#29B5E8" />
</svg>