<?xml version="1.0" encoding="utf-8"?>
<svg xmlns="http://www.w3.org/2000/svg" viewBox="0 0 223522 268033">
  <path d="M 51034,40132 L 51034,59519 L 34063,59519 L 51034,40132 Z M 172428,147364 C 191301,150323 206279,165301 209239,184175 L 172428,184175 L 172428,147364 Z M 165603,133141 C 161859,133141 158748,136191 158748,139965 L 158748,190999 C 158748,194713 161859,197794 165603,197794 L 216607,197794 C 220381,197794 223462,194713 223462,190999 C 223492,159050 197552,133141 165603,133141 Z M 140871,165241 L 140871,208936 C 140871,212651 143952,215731 147726,215731 L 191392,215731 C 188070,236869 169740,253085 147726,253085 C 123327,253085 103547,233245 103547,208936 C 103547,186862 119733,168562 140871,165241 Z M 147726,151078 C 115838,151078 89868,176988 89868,208936 C 89868,240795 115838,266735 147726,266735 C 179615,266735 205554,240795 205554,208936 C 205554,205101 202535,202082 198700,202082 L 154551,202082 L 154551,157903 C 154551,154128 151501,151078 147726,151078 Z M 62750,0 C 59670,0 56741,1359 54718,3654 L 2657,63022 C 906,64985 30,67461 30,70058 L 30,257343 C 30,263232 4771,268033 10720,268033 L 89203,268033 C 95092,268033 99863,263262 99863,257343 C 99863,251394 95001,246683 89083,246683 L 21319,246683 L 21319,80899 L 61724,80899 C 67582,80899 72444,76098 72444,70179 L 72444,21350 L 178890,21350 L 178890,119975 C 178890,125833 183631,130665 189550,130665 C 195529,130665 200270,125893 200270,119975 L 200270,10720 C 200270,4801 195529,0 189550,0 Z" fill="#29B5E8" />
</svg>