<?xml version="1.0" encoding="utf-8"?>
<svg xmlns="http://www.w3.org/2000/svg" viewBox="0 0 301393 258631">
  <path d="M 150763,0 C 148538,0 146744,1794 146744,4019 L 146744,33417 C 146744,35642 148538,37436 150763,37436 C 152988,37436 154749,35642 154749,33417 L 154749,4019 C 154749,1794 152988,0 150763,0 Z M 117714,8836 C 117016,8836 116352,9002 115721,9401 C 113828,10463 113130,12888 114260,14815 L 129040,40326 C 129804,41655 131133,42286 132495,42286 C 133192,42286 133823,42153 134488,41754 C 136348,40658 137045,38233 135949,36307 L 121202,10862 C 120438,9567 119076,8836 117714,8836 Z M 183579,8969 C 182184,8969 180823,9666 180092,10962 L 165411,36406 C 164414,38233 165045,40725 166972,41788 C 167570,42186 168267,42352 168965,42352 C 170293,42352 171655,41588 172353,40359 L 187067,14915 C 188196,12988 187499,10530 185572,9500 C 184941,9135 184244,8969 183579,8969 Z M 93567,33085 C 92172,33085 90810,33782 90079,35078 C 89116,36971 89681,39329 91607,40459 L 117083,55108 C 117714,55506 118412,55639 119043,55639 C 120438,55639 121766,54908 122497,53679 C 123626,51819 122929,49328 121002,48265 L 95560,33616 C 94928,33251 94231,33085 93567,33085 Z M 207760,33018 C 207062,33018 206365,33184 205734,33550 L 180291,48199 C 178431,49328 177734,51819 178863,53746 C 179594,55008 180955,55706 182317,55706 C 183015,55706 183646,55506 184310,55108 L 209753,40459 C 211679,39329 212344,36971 211214,35044 C 210484,33749 209155,33018 207760,33018 Z M 150696,56337 C 158137,56337 164281,62449 164281,69923 C 164281,77463 158203,83475 150696,83475 C 143157,83475 137145,77463 137145,69923 C 137145,62416 143223,56337 150696,56337 Z M 59322,81516 L 85363,152468 L 33315,152468 L 59322,81516 Z M 242204,81516 L 268178,152468 L 216163,152468 L 242204,81516 Z M 93301,169276 C 91740,169276 90212,170140 89581,171668 C 84433,183859 72542,191831 59222,191831 C 56997,191831 55170,193624 55170,195850 C 55170,198042 56997,199836 59222,199836 C 75730,199836 90544,190004 96955,174823 C 97785,172764 96855,170439 94829,169542 C 94331,169343 93799,169276 93301,169276 Z M 276183,169243 C 274588,169243 273094,170173 272430,171734 C 267248,183892 255357,191831 242038,191831 C 239846,191831 238052,193624 238052,195850 C 238052,198042 239879,199836 242038,199836 C 258579,199836 273360,190004 279770,174823 C 280667,172764 279737,170439 277711,169542 C 277212,169343 276681,169243 276183,169243 Z M 105225,165290 C 102169,187911 82739,205317 59322,205317 C 35872,205317 16441,187911 13352,165290 Z M 288173,165290 C 285018,187911 265687,205317 242237,205317 C 218820,205317 199390,187911 196234,165290 Z M 195437,233519 C 197364,233519 198891,235047 198891,236973 L 198891,245909 L 101870,245909 L 101870,236973 C 101870,235047 103398,233519 105325,233519 Z M 150696,43581 C 139702,43581 130302,50391 126350,59957 L 34411,59957 C 28930,59957 24446,64442 24446,69923 C 24446,75437 28930,79921 34411,79921 L 51317,79921 L 24745,152468 L 6444,152468 C 2823,152468 33,155391 33,158879 C 33,191499 26572,218073 59222,218073 C 91806,218073 118412,191499 118412,158879 C 118412,155358 115489,152468 112001,152468 L 93633,152468 L 67094,79921 L 126283,79921 C 129007,86498 134288,91713 140898,94338 C 140832,94769 140632,95168 140632,95666 L 140632,220697 L 105192,220697 C 96257,220697 88950,227938 88950,236874 L 88950,245809 L 84034,245809 C 80480,245809 77623,248666 77623,252220 C 77623,255808 80513,258631 84034,258631 L 218754,258631 C 222308,258631 225198,255808 225198,252220 C 225198,248666 222275,245809 218754,245809 L 211679,245809 L 211679,236874 C 211679,227938 204372,220697 195437,220697 L 160727,220697 L 160727,95666 C 160727,95201 160528,94769 160462,94338 C 167138,91713 172519,86332 175176,79689 C 175508,79722 175907,79921 176338,79921 L 234299,79921 L 207727,152468 L 189425,152468 C 185838,152468 183015,155391 183015,158879 C 183015,191499 209553,218073 242204,218073 C 274788,218073 301393,191499 301393,158879 C 301393,155391 298537,152468 294916,152468 L 276615,152468 L 250043,79921 L 266916,79921 C 272396,79921 276880,75470 276880,69923 C 276880,64442 272396,59957 266916,59957 L 176239,59957 C 175907,59957 175508,60090 175110,60190 C 171223,50524 161691,43581 150696,43581 Z" fill="#29B5E8" />
</svg>