<?xml version="1.0" encoding="utf-8"?>
<svg xmlns="http://www.w3.org/2000/svg" viewBox="0 0 242233 242040">
  <path d="M 232634,209119 L 33119,209119 L 33119,9603 C 33018,4327 28596,105 23319,255 C 18192,356 14072,4477 13971,9603 L 13971,209119 L 9599,209119 C 4322,209119 0,213391 0,218718 C 0,224045 4272,228317 9599,228317 C 9599,228317 9599,228317 9599,228317 L 13971,228317 L 13971,232689 C 14072,237966 18494,242187 23771,242037 C 28897,241936 33018,237815 33119,232689 L 33119,228317 L 232634,228317 C 237911,228317 242233,224045 242233,218718 C 242183,213391 237911,209119 232634,209119 C 232634,209119 232634,209119 232634,209119 Z M 102522,106044 L 121117,106044 C 123680,106044 125740,108104 125740,110668 L 125740,188816 C 125740,191379 123680,193439 121117,193439 L 102522,193439 C 99959,193439 97899,191379 97899,188816 L 97899,110718 C 97899,108155 99959,106044 102522,106044 Z M 57191,133936 L 75786,133936 C 78349,133936 80410,135997 80410,138559 L 80410,188866 C 80410,191429 78349,193489 75786,193489 L 57191,193489 C 54628,193489 52568,191429 52568,188866 L 52568,138559 C 52568,135997 54628,133936 57191,133936 Z M 147802,133936 L 166397,133936 C 168960,133936 171021,135997 171021,138559 L 171021,188866 C 171021,191429 168960,193489 166397,193489 L 147802,193489 C 145239,193489 143179,191429 143179,188866 L 143179,138559 C 143179,135997 145239,133936 147802,133936 Z M 193133,96747 L 211728,96747 C 214291,96747 216351,98807 216351,101371 L 216351,188816 C 216351,191379 214291,193439 211728,193439 L 193133,193439 C 190570,193439 188510,191379 188510,188816 L 188510,101371 C 188459,98858 190570,96747 193133,96747 Z M 62921,107954 C 64327,107954 65684,107451 66740,106597 L 114533,68000 L 151119,104637 C 153481,106999 157301,107049 159713,104738 L 205948,60311 C 208411,58000 208512,54080 206149,51667 C 203838,49205 199918,49104 197505,51466 C 197505,51466 197455,51516 197455,51516 L 155592,91772 L 119358,55487 C 117147,53275 113628,53075 111166,55034 L 59051,97048 C 56437,99159 55985,103029 58096,105642 C 59302,107100 61061,107954 62921,107954 L 62921,107954 Z M 154637,48954 C 152225,48954 146697,48351 146697,42973 C 146596,40862 144837,39204 142727,39305 C 140716,39355 139108,41013 139058,42973 C 139058,49958 143682,54934 150868,56291 L 150868,58703 C 150767,60814 152426,62573 154537,62673 C 156648,62774 158407,61115 158507,59004 C 158507,58904 158507,58804 158507,58703 L 158507,56291 C 165694,54984 170317,50009 170317,42973 C 170317,34630 164990,32017 158255,28701 L 154537,26841 C 147752,23474 146747,22770 146747,19403 C 146747,13774 152828,13322 154687,13322 C 157049,13322 162477,13925 162477,19403 C 162578,21514 164336,23172 166447,23072 C 168458,23022 170066,21363 170116,19403 C 170116,12367 165593,7392 158507,6035 L 158507,3673 C 158407,1562 156648,-96 154537,4 C 152526,55 150918,1713 150868,3673 L 150868,6035 C 143782,7392 139058,12468 139058,19403 C 139058,27746 144385,30359 151119,33676 L 154889,35535 C 161673,38852 162678,39556 162678,42923 C 162578,48351 156999,48954 154637,48954 Z" fill="#29B5E8" />
</svg>