<?xml version="1.0" encoding="utf-8"?>
<svg xmlns="http://www.w3.org/2000/svg" viewBox="0 0 264015 284263">
  <path d="M 239197,88013 C 237909,68844 230895,50502 219064,35364 C 206307,18941 188387,7297 168197,2314 C 144804,-2962 120280,860 99602,13004 C 80787,23679 66034,40280 57642,60219 C 46059,60887 34890,64775 25394,71443 C 13682,79551 5273,91597 1698,105385 C -1856,119828 214,135082 7488,148056 C 14892,161243 26872,171257 41162,176207 L 41875,176207 C 43358,176994 45006,177423 46686,177454 L 65839,177454 C 71988,177454 76974,172469 76974,166318 C 76974,160169 71988,155183 65839,155183 L 47398,155183 C 29228,148574 18782,129512 22989,110641 C 28200,92391 45589,80376 64502,81955 C 69589,82341 74288,79221 75905,74383 C 81643,56194 94056,40852 110648,31445 C 140954,13196 180129,20594 201692,48638 C 211864,61876 217404,78090 217461,94783 C 217516,98876 219903,102576 223607,104315 C 234658,108595 241969,119192 242048,131041 C 240454,142362 232640,151830 221826,155539 L 197772,155539 C 191623,155539 186637,160525 186637,166675 C 186637,172826 191623,177810 197772,177810 L 222895,177810 C 224741,177720 226539,177202 228150,176296 L 229041,176296 C 248242,169759 261879,152642 263963,132466 C 264818,114148 255225,96925 239197,88013 Z" fill="#29B5E8" />
  <path d="M 214432,188589 C 203068,188546 192920,195693 189131,206407 L 173452,206407 L 174522,125340 L 174522,125340 C 174424,119190 169360,114284 163210,114382 C 163210,114382 163209,114382 163209,114382 L 102987,114382 C 96872,114431 91941,119402 91941,125518 L 90961,206228 L 74124,206228 C 68785,192468 53302,185639 39542,190979 C 25781,196316 18952,211799 24291,225560 C 29629,239321 45112,246149 58873,240810 C 65873,238095 71408,232560 74124,225560 L 100849,225560 C 105617,225139 109384,221335 109757,216563 L 110648,136386 L 123209,136386 L 123209,232598 C 109439,237912 102583,253382 107896,267153 C 113210,280923 128680,287779 142452,282464 C 156222,277151 163077,261680 157764,247910 C 155049,240874 149488,235313 142452,232598 L 142452,136653 L 154567,136653 L 154299,216117 C 154275,218706 155267,221200 157061,223066 C 158887,224941 161391,226001 164010,226005 L 189934,226005 C 195838,239533 211590,245714 225118,239809 C 238646,233906 244825,218152 238922,204625 C 234672,194888 225057,188591 214432,188589 Z M 49625,223778 C 45492,223778 42142,220428 42142,216295 C 42142,212163 45492,208812 49625,208812 C 53758,208812 57108,212163 57108,216295 C 57108,220428 53758,223778 49625,223778 Z M 133187,265203 C 129054,265203 125703,261852 125703,257720 C 125703,253587 129054,250236 133187,250236 C 137319,250236 140670,253587 140670,257720 C 140622,261833 137299,265154 133187,265203 Z M 214432,222798 C 210299,222798 206949,219448 206949,215315 C 206949,211183 210299,207832 214432,207832 C 218564,207832 221915,211183 221915,215315 C 221915,219448 218564,222798 214432,222798 Z" fill="#29B5E8" />
</svg>