<?xml version="1.0" encoding="utf-8"?>
<svg xmlns="http://www.w3.org/2000/svg" viewBox="0 0 257834 244712">
  <path d="M 219730,19189 C 222008,19189 223711,19519 224754,20123 C 227142,23966 224946,38022 217204,56497 C 205153,49689 195078,39614 188297,27562 C 201996,21797 213224,19189 219730,19189 Z M 160021,73243 C 166445,73243 171715,78514 171715,84911 C 171715,91335 166499,96578 160021,96578 C 153624,96578 148353,91335 148353,84911 C 148353,78514 153624,73243 160021,73243 Z M 160021,60780 C 146734,60780 135917,71569 135917,84856 C 135917,98143 146734,108959 160021,108959 C 160048,108959 160076,108959 160076,108959 C 173390,108959 184151,98143 184151,84856 C 184151,71569 173335,60780 160021,60780 Z M 81012,91472 L 81012,91472 C 72502,103826 65200,116509 59188,128560 L 33629,124662 L 61274,97045 L 81012,91472 Z M 177014,32778 C 185030,47575 197219,59792 211988,67835 C 203149,85515 189724,105747 170947,124580 C 146267,149232 112638,167570 87326,177453 L 81836,171935 L 139376,114367 C 141820,111924 141820,107971 139376,105528 C 138168,104320 136576,103688 134984,103688 C 133392,103688 131800,104320 130592,105528 L 72969,163123 L 67478,157633 C 77334,132321 95727,98610 120379,73930 C 139349,54987 159472,41618 177014,32778 Z M 153377,164002 L 147777,183685 L 120187,211275 L 116261,185771 C 128340,179814 141024,172512 153377,164002 Z M 40245,184344 C 40904,184344 41591,184371 42359,184536 C 44940,184975 47630,186238 50156,188077 C 49936,189889 50485,191701 51858,193101 C 53093,194309 54631,194941 56223,194941 C 56415,194941 56635,194803 56827,194803 C 60670,200184 62509,206827 57458,211879 C 49415,219950 28880,226538 15017,230080 C 18887,215804 25860,194693 33025,187419 C 35139,185360 37473,184344 40245,184344 Z M 219648,0 C 206580,0 191317,5298 181159,9526 C 155079,20452 127929,38955 106598,60231 C 104951,61905 103441,63717 101849,65474 L 53587,79036 C 51995,79530 50513,80381 49332,81562 L 6396,124497 C 3788,127105 2855,130921 4036,134408 C 5134,137867 8153,140392 11777,140969 L 50897,146953 C 49497,150385 48152,153679 47054,156809 C 45791,160323 46697,164276 49332,166939 L 59270,176877 L 57815,178332 C 53587,175230 49003,173171 44473,172347 C 43046,172100 41618,171963 40218,171963 C 34233,171963 28688,174269 24268,178716 C 10926,192085 1482,232523 467,237135 C 0,239167 631,241280 2086,242845 C 3267,244053 4914,244712 6534,244712 C 6945,244712 7357,244657 7742,244575 C 12189,243724 51501,235570 66298,220746 C 75220,211851 75192,198592 66655,187117 L 68082,185689 L 78047,195627 C 79859,197466 82358,198482 84911,198482 C 85981,198482 87079,198262 88177,197905 C 91280,196807 94574,195544 97978,194144 L 103963,233264 C 104539,236833 107065,239853 110524,241006 C 111512,241280 112528,241445 113544,241445 C 116097,241445 118595,240429 120434,238590 L 163397,195627 C 164550,194446 165429,192964 165896,191399 L 179430,143247 C 181214,141600 183053,140008 184728,138361 C 230656,92295 257807,25723 238480,6396 C 233841,1730 227115,0 219648,0 Z" fill="#29B5E8" />
</svg>