<?xml version="1.0" encoding="utf-8"?>
<svg xmlns="http://www.w3.org/2000/svg" viewBox="0 0 264135 262191">
  <path d="M 261374,70702 C 257693,67012 251718,67006 248029,70687 C 248024,70692 248019,70697 248014,70702 C 245464,73244 242517,75355 239290,76952 C 208690,45461 194315,31091 186912,24757 C 188674,21590 190872,18685 193439,16128 C 197128,12438 197128,6456 193439,2767 C 189750,-923 183768,-923 180079,2767 C 159638,23204 160780,49979 163804,76581 C 139334,73997 115518,74547 97962,92113 C 77456,112624 76541,138810 78837,163819 C 50904,160197 22773,158123 2767,178129 C -923,181818 -923,187800 2767,191489 C 6456,195179 12438,195179 16128,191489 C 17287,190336 18531,189271 19848,188303 L 73933,242388 C 72930,243677 71849,244905 70697,246064 C 67008,249753 67008,255735 70697,259424 C 74387,263114 80368,263114 84057,259424 C 104499,238993 103356,212218 100332,185611 C 124791,188204 148618,187655 166144,170083 C 186655,149563 187575,123361 185279,98348 C 213203,101970 241334,104039 261374,84043 C 265056,80358 265056,74387 261374,70702 Z M 227231,80782 C 223239,81442 219199,81773 215152,81771 C 198387,64131 187907,53343 181128,46832 C 181314,43201 181810,39594 182612,36049 C 191856,44882 209788,62923 227231,80782 Z M 198630,80905 C 193563,80411 188367,79713 183102,79010 C 182454,73597 181855,68341 181459,63275 C 186581,68475 192509,74562 198630,80925 Z M 166075,95824 C 166961,104118 167559,112189 167233,119868 L 141764,94394 C 149365,94142 157564,94830 166075,95844 Z M 158074,150463 L 112223,104617 C 116632,100530 121852,97912 127691,96349 L 165377,134020 C 163998,139911 161520,145490 158074,150463 Z M 136603,165803 L 98813,128003 C 100046,122822 102124,117881 104964,113376 L 150448,158856 C 146382,162131 141662,164497 136603,165793 Z M 81029,183152 C 81964,190960 82790,198442 83058,205503 L 58202,180648 C 65516,181118 73196,182102 81029,183152 Z M 30497,182944 C 34317,181767 38255,181012 42240,180692 L 82469,220922 C 81971,224753 81037,228515 79688,232134 Z M 98081,166347 C 97185,157975 96596,149830 96928,142101 L 122594,167767 C 114905,168050 106641,167377 98081,166347 Z" fill="#29B5E8" />
</svg>