<?xml version="1.0" encoding="utf-8"?>
<svg xmlns="http://www.w3.org/2000/svg" viewBox="0 0 224539 256370">
  <path d="M 201159,108292 L 194678,108292 L 194678,10258 C 194678,4594 190087,3 184423,3 L 58578,3 C 55426,-71 52409,1286 50374,3695 L 1972,61121 C 640,62984 -51,65229 3,67520 L 3,246115 C -43,251733 4475,256325 10093,256370 C 10148,256371 10203,256371 10258,256370 L 184423,256370 C 190041,256414 194632,251898 194678,246280 C 194679,246225 194679,246170 194678,246115 L 194678,216581 L 201159,216581 C 214053,216536 224495,206094 224540,193201 L 224540,131673 C 224495,118779 214053,108337 201159,108292 Z M 51112,34951 L 51112,61531 L 28634,61531 Z M 174168,235861 L 20348,235861 L 20348,82040 L 61367,82040 C 66985,82086 71577,77568 71622,71950 C 71623,71895 71623,71840 71622,71785 L 71622,20512 L 174168,20512 L 174168,108292 L 78102,108292 C 65190,108292 54722,118760 54722,131673 L 54722,193201 C 54722,206114 65190,216581 78102,216581 L 174168,216581 Z M 211413,193201 C 211413,198864 206823,203455 201159,203455 L 78102,203455 C 72439,203455 67848,198864 67848,193201 L 67848,131673 C 67848,126009 72439,121418 78102,121418 L 201159,121418 C 206823,121418 211413,126009 211413,131673 Z" fill="#29B5E8" />
  <path d="M 91804,141025 L 83928,141025 L 83928,188688 L 112805,188688 L 112805,181715 L 91804,181715 L 91804,141025 Z" fill="#29B5E8" />
  <path d="M 133232,139959 C 120645,140417 110812,150993 111270,163580 C 111282,163910 111301,164241 111328,164570 C 110367,177175 119805,188171 132409,189134 C 132683,189155 132957,189171 133232,189181 C 145864,188719 155731,178104 155269,165472 C 155258,165171 155241,164870 155218,164570 C 156221,152015 146857,141023 134301,140018 C 133946,139991 133589,139971 133232,139959 Z M 133232,182208 C 125029,182208 119368,174661 119368,164899 C 119368,155136 125029,147506 133232,147506 C 141435,147506 147178,155054 147178,164899 C 148253,173348 142275,181069 133825,182144 C 133627,182170 133430,182191 133232,182208 Z" fill="#29B5E8" />
  <path d="M 179256,168426 L 191890,168426 L 191890,169082 C 192619,175611 187916,181495 181388,182224 C 181088,182258 180787,182279 180486,182290 C 172283,182290 166868,174661 166868,164898 C 166868,155136 172283,147424 180486,147424 C 184644,147375 188631,149072 191479,152101 L 196155,146112 C 192136,141842 186421,139586 180568,139959 C 168022,140278 158110,150706 158428,163253 C 158439,163693 158463,164132 158500,164570 C 157048,176945 165902,188154 178278,189606 C 179011,189692 179748,189742 180486,189756 C 193120,189756 200667,180485 200667,166375 L 200667,161699 L 179256,161699 Z" fill="#29B5E8" />
</svg>