<?xml version="1.0" encoding="utf-8"?>
<svg xmlns="http://www.w3.org/2000/svg" viewBox="0 0 233391 233391">
  <path d="M 116696,0 C 52247,0 0,52247 0,116696 C 0,181145 52247,233392 116696,233392 C 181145,233392 233392,181145 233392,116696 C 233312,52279 181113,79 116696,0 Z M 17953,116696 C 17922,62202 62073,18000 116568,17969 C 139683,17956 162068,26057 179820,40862 L 40862,179820 C 26042,162125 17932,139776 17953,116696 Z M 116696,215439 C 93616,215460 71267,207349 53572,192530 L 192530,53572 C 227432,95423 221799,157644 179948,192545 C 162196,207349 139810,215452 116696,215439 Z" fill="#29B5E8" />
</svg>