<?xml version="1.0" encoding="utf-8"?>
<svg xmlns="http://www.w3.org/2000/svg" viewBox="0 0 340128 323613">
  <path d="M 145602,15967 C 150571,15967 154663,20023 154663,25065 C 154663,30070 150571,34126 145602,34126 C 140560,34126 136468,30070 136468,25065 C 136468,20023 140560,15967 145602,15967 Z M 110745,37378 C 109430,37378 108078,37707 106836,38437 L 58789,66133 C 55026,68325 53747,73148 55902,76912 C 57437,79323 59958,80748 62698,80748 C 64050,80748 65329,80419 66644,79725 L 114728,51993 C 118455,49837 119697,44978 117541,41287 C 116080,38803 113449,37378 110745,37378 Z M 180349,37268 C 177682,37268 175051,38657 173590,41141 C 171434,44941 172713,49764 176403,51920 L 224633,79725 C 225875,80492 227264,80748 228615,80748 C 231319,80748 233913,79323 235375,76838 C 237567,73112 236252,68252 232525,66096 L 184259,38328 C 183053,37597 181701,37268 180349,37268 Z M 28390,83634 C 29924,83634 31495,84000 32884,84804 C 37232,87325 38766,92915 36282,97226 C 34565,100149 31495,101757 28390,101757 C 26819,101757 25284,101355 23859,100551 C 19511,98067 17976,92477 20534,88129 C 22215,85242 25247,83634 28390,83634 Z M 262778,83598 C 265884,83598 268953,85206 270634,88129 C 273155,92477 271620,98067 267272,100551 C 265847,101355 264276,101757 262741,101757 C 259636,101757 256603,100149 254922,97226 C 252365,92915 253899,87325 258211,84804 C 259672,84000 261207,83598 262778,83598 Z M 194307,114618 L 194307,115897 L 197120,115897 L 197120,123497 L 198582,123497 L 198582,115897 L 201358,115897 L 201358,114618 Z M 202710,114618 L 202710,123497 L 204245,123497 L 204245,117322 L 206803,120610 L 207351,120610 L 209945,117322 L 209945,123497 L 211333,123497 L 211333,114618 L 210274,114618 L 207058,118710 L 203916,114618 Z M 133179,104826 C 129306,104826 126237,107932 126237,111732 L 126237,126931 L 113047,119332 C 111914,118710 110745,118418 109576,118418 C 107165,118418 104863,119624 103547,121816 C 101647,125251 102744,129453 106032,131352 L 129635,144944 C 130768,145529 131901,145821 133070,145821 C 133289,145821 133472,145821 133654,145785 C 137235,145529 140048,142533 140048,138843 L 140048,111732 C 140048,107932 136979,104826 133179,104826 Z M 158354,104899 C 154554,104899 151412,108042 151412,111841 L 151412,138952 C 151412,142533 154262,145529 157842,145785 C 158061,145821 158244,145821 158427,145821 C 159596,145821 160765,145529 161861,144944 L 185465,131352 C 188789,129453 189849,125251 187949,121926 C 186634,119734 184295,118528 181920,118528 C 180751,118528 179545,118820 178486,119441 L 165223,127041 L 165223,111841 C 165223,108042 162190,104899 158354,104899 Z M 145748,155942 C 146187,155942 146735,156161 146991,156417 L 149840,159194 C 150096,159486 150352,159998 150352,160436 L 150352,160546 C 150352,160984 150096,161532 149840,161788 L 146991,164638 C 146735,164894 146187,165113 145748,165113 L 145639,165113 C 145200,165113 144652,164894 144396,164638 L 141583,161788 C 141291,161532 141071,160984 141071,160546 L 141071,160436 C 141071,159998 141291,159486 141583,159194 L 144396,156417 C 144652,156161 145200,155942 145639,155942 Z M 144287,147539 C 143848,147539 143300,147794 143044,148087 L 133289,157842 C 132960,158098 132741,158646 132851,159084 L 132851,159742 L 132851,161204 L 132851,161898 C 132851,162336 132997,162884 133289,163177 L 143044,172932 C 143300,173261 143848,173480 144287,173480 L 147100,173480 C 147539,173480 148087,173188 148342,172932 L 158171,163177 C 158463,162884 158683,162336 158683,161898 L 158683,161204 L 158683,159742 L 158683,159084 C 158683,158646 158463,158098 158171,157842 L 148342,148087 C 148087,147758 147539,147539 147100,147539 Z M 96971,140048 C 94596,140048 92221,141291 90942,143483 C 89042,146844 90138,151010 93463,152910 L 106653,160509 L 93463,168036 C 90138,169936 89005,174138 90942,177499 C 92221,179692 94559,180897 96934,180897 C 98140,180897 99346,180605 100442,179984 L 124045,166428 C 125689,165588 126749,164200 127260,162556 C 127479,161788 127589,161057 127589,160290 C 127589,159742 127516,159194 127297,158646 C 126858,156965 125799,155504 124045,154517 L 100442,140962 C 99346,140341 98176,140048 96971,140048 Z M 194453,140085 C 193247,140085 192041,140377 190945,141035 L 167342,154590 C 165734,155504 164638,156965 164163,158646 C 164054,159194 163944,159742 163871,160290 C 163871,161057 163944,161788 164200,162519 C 164675,164127 165771,165588 167342,166465 L 190945,180020 C 192041,180642 193211,180970 194416,180970 C 196791,180970 199130,179728 200445,177536 C 202345,174174 201249,170009 197960,168109 L 184770,160546 L 197960,152946 C 201249,151046 202381,146881 200445,143519 C 199166,141327 196828,140085 194453,140085 Z M 262778,124849 C 258430,124849 254922,128393 254922,132741 L 254922,175198 C 254922,179545 258430,183090 262778,183090 C 267126,183090 270634,179545 270634,175198 L 270634,132741 C 270634,128393 267126,124849 262778,124849 Z M 28390,124374 C 24042,124374 20534,127881 20534,132229 L 20534,188461 C 20534,192772 24042,196316 28390,196316 C 32738,196243 36282,192772 36282,188461 L 36282,132229 C 36282,127881 32738,124374 28390,124374 Z M 158427,175198 C 158244,175198 158025,175198 157842,175198 C 154225,175490 151412,178449 151412,182103 L 151412,209214 C 151412,213014 154481,216120 158281,216120 C 162190,216120 165223,213014 165223,209214 L 165223,194051 L 178486,201614 C 179582,202272 180751,202564 181920,202564 C 184295,202564 186634,201322 187949,199093 C 189849,195841 188789,191639 185465,189703 L 161861,176111 C 160765,175490 159596,175198 158427,175198 Z M 132887,175271 C 131754,175271 130622,175563 129635,176184 L 106032,189739 C 102670,191639 101538,195914 103547,199130 C 104826,201395 107128,202601 109540,202601 C 110709,202601 111914,202308 113047,201687 L 126237,194087 L 126237,209287 C 126237,213087 129379,216156 133179,216156 C 136979,216156 140048,213087 140048,209287 L 140048,182140 C 140048,178449 137235,175490 133654,175307 C 133399,175271 133143,175271 132887,175271 Z M 28390,218896 C 31495,218896 34565,220541 36282,223427 C 38766,227775 37232,233365 32884,235850 C 31495,236617 29924,237019 28353,237019 C 27549,237019 26782,236946 26015,236727 C 23676,236142 21740,234608 20461,232561 C 17976,228213 19511,222623 23859,220139 C 25284,219298 26819,218896 28390,218896 Z M 147539,78044 C 176513,78738 201760,94376 215900,117578 C 216010,118199 216229,118710 216558,119259 C 216923,119880 217325,120391 217800,120903 C 224267,132631 227885,146077 227885,160400 C 227885,205158 192041,241623 147539,242719 C 146954,242500 146260,242427 145602,242427 C 144871,242427 144250,242609 143593,242719 C 114655,242061 89444,226387 75267,203149 C 75158,202564 74939,202016 74610,201468 C 74610,201395 74573,201395 74573,201358 C 74208,200810 73806,200335 73367,199824 C 66973,188132 63283,174649 63283,160400 C 63283,146077 66973,132558 73367,120830 C 73806,120391 74135,119989 74464,119441 C 74464,119441 74573,119332 74573,119259 C 74829,118710 75121,118199 75231,117578 C 89371,94376 114728,78738 143593,78044 C 144250,78263 144871,78300 145602,78300 C 146260,78300 146954,78190 147539,78044 Z M 292191,210091 C 306477,210091 316342,219262 316342,232342 L 316342,246300 L 261682,246300 L 261682,232342 C 261682,218458 274835,210091 287587,210091 Z M 62735,239979 C 59995,239979 57364,241367 55902,243852 C 53747,247578 55026,252401 58789,254594 L 107018,282472 C 108261,283166 109613,283458 110965,283458 C 113705,283458 116336,282033 117761,279549 C 119989,275858 118747,271072 114947,268916 L 66644,241002 C 65402,240307 64050,239979 62735,239979 Z M 222550,243413 C 221235,243413 219846,243778 218604,244509 L 176257,268953 C 172494,271145 171215,275968 173371,279658 C 174796,282216 177426,283604 180167,283604 C 181519,283604 182797,283239 184113,282508 L 226496,257992 C 230223,255836 231465,251049 229310,247323 C 227848,244802 225254,243413 222550,243413 Z M 289049,272424 C 291972,272424 294420,274762 294420,277758 C 294420,279476 293616,281010 292227,282033 C 291058,282947 290291,284408 290291,285943 L 290291,295552 L 287806,295552 L 287806,285943 C 287806,284408 287039,282947 285833,282033 C 284481,281010 283677,279476 283677,277758 C 283677,274762 286162,272424 289049,272424 Z M 145602,286600 C 150571,286600 154663,290656 154663,295662 C 154663,300704 150571,304760 145602,304760 C 140560,304760 136468,300704 136468,295662 C 136468,290656 140560,286600 145602,286600 Z M 288975,262559 C 280572,262559 273812,269464 273812,277758 C 273812,281704 275310,285358 277978,288172 L 277868,288172 L 277868,296319 C 277868,301252 281924,305308 286929,305308 L 291058,305308 C 295991,305308 300046,301252 300046,296319 L 300046,288172 C 302714,285285 304175,281668 304175,277758 C 304175,269355 297416,262559 288975,262559 Z M 324271,261974 L 324271,291679 C 324271,299717 319119,308011 310533,308011 L 269391,308011 C 261207,308011 253680,300229 253680,291679 L 253680,261974 Z M 145602,0 C 131901,0 120793,11144 120793,24809 C 120793,35661 127735,44758 137454,48193 L 137454,62406 C 107457,64964 81296,80858 65037,104278 L 52651,97117 C 54551,87032 50093,76473 40703,71029 C 36830,68800 32591,67741 28390,67741 C 19840,67741 11473,72198 6869,80163 C 73,91965 4129,107128 15967,113961 C 19840,116226 24115,117322 28280,117322 C 34199,117322 39972,115203 44503,111220 L 56889,118382 C 50897,131133 47499,145273 47499,160217 C 47499,175198 50824,189374 56889,202053 L 44503,209214 C 40009,205304 34236,203185 28317,203185 C 24115,203185 19840,204245 15967,206510 C 4092,213343 37,228542 6869,240307 C 10231,246007 15528,250173 21959,251853 C 24042,252474 26234,252730 28390,252730 C 32628,252730 36903,251598 40703,249442 C 50093,243998 54551,233329 52651,223281 L 65037,216156 C 81296,239540 107457,255617 137454,258065 L 137454,272278 C 127808,275676 120793,284920 120793,295662 C 120793,309327 131901,320434 145602,320434 C 159194,320434 170338,309327 170338,295662 C 170338,284810 163323,275676 153713,272205 L 153713,257955 C 203953,253826 243632,211552 243632,160217 C 243632,145273 240307,131024 234315,118382 L 246628,111220 C 251123,115203 256932,117322 262851,117322 C 267016,117322 271291,116226 275164,113961 C 287039,107128 291095,91928 284262,80163 C 279695,72162 271328,67704 262741,67704 C 258540,67704 254301,68800 250428,71029 C 241075,76473 236581,87142 238481,97117 L 226167,104278 C 209872,80858 183674,64854 153713,62406 L 153713,48193 C 163323,44758 170338,35551 170338,24809 C 170338,11144 159194,0 145602,0 Z M 287624,194343 C 264313,194343 246080,211004 246080,232269 L 246080,246226 L 245861,246226 C 241513,246226 238006,249771 238006,254082 L 238006,291570 C 238006,308961 252474,323613 269464,323613 L 310569,323613 C 327121,323613 340091,309583 340091,291570 L 340091,254082 C 340091,249807 336584,246300 332272,246226 L 332053,246226 L 332053,232269 C 332053,210639 314990,194343 292227,194343 Z" fill="#29B5E8" />
</svg>