<?xml version="1.0" encoding="utf-8"?>
<svg xmlns="http://www.w3.org/2000/svg" viewBox="0 0 273801 275341">
  <path d="M 137822,0 C 135436,0 133564,1933 133564,4318 L 133564,38925 C 133564,41310 135436,43182 137822,43182 C 140147,43182 142079,41310 142079,38925 L 142079,4318 C 142079,1933 140147,60 137822,0 Z M 198609,15340 C 197069,15340 195589,16186 194804,17635 L 178709,48286 C 177592,50369 178437,52966 180491,54084 C 181125,54386 181819,54567 182484,54567 C 183963,54567 185473,53721 186289,52242 L 202354,21621 C 203501,19508 202656,16941 200602,15824 C 199968,15522 199273,15340 198609,15340 Z M 76913,12109 C 75826,12109 74709,12381 73682,12925 C 70330,14676 69032,18783 70813,22165 L 86908,52815 C 88147,55171 90502,56469 92978,56469 C 94005,56469 95092,56198 96149,55684 C 99471,53903 100739,49766 99018,46414 L 82922,15793 C 81715,13438 79359,12109 76913,12109 Z M 245264,57134 C 244419,57134 243573,57375 242849,57858 L 214372,77547 C 212379,78876 211926,81533 213225,83496 C 214100,84674 215429,85338 216788,85338 C 217634,85338 218449,85127 219204,84613 L 247680,64925 C 249613,63596 250066,60939 248797,58976 C 247952,57768 246623,57134 245264,57134 Z M 29775,53419 C 27601,53419 25487,54446 24158,56379 C 21954,59429 22799,63717 25849,65861 L 54325,85550 C 55533,86425 56892,86757 58221,86757 C 60365,86757 62539,85791 63868,83798 C 65982,80718 65227,76460 62116,74316 L 33640,54627 C 32462,53812 31103,53419 29775,53419 Z M 7187,111912 C 3775,111912 876,114479 453,117891 C 30,121666 2718,125078 6372,125501 L 40767,129729 C 41038,129789 41310,129789 41642,129789 C 45025,129789 47954,127252 48407,123810 C 48860,120035 46172,116623 42428,116200 L 8093,111972 C 7791,111942 7489,111912 7187,111912 Z M 46836,158024 C 45598,158024 44300,158235 43062,158688 L 10690,170978 C 5164,173032 2386,179222 4469,184809 C 6070,189067 10116,191664 14404,191664 C 15673,191664 16971,191422 18239,190969 L 50611,178739 C 56107,176595 58946,170435 56892,164939 C 55231,160621 51155,158024 46836,158024 Z M 226934,157148 C 221771,157148 216879,160319 214946,165422 C 212379,172065 215761,179464 222375,181970 L 254716,194261 C 256256,194804 257766,195106 259246,195106 C 264410,195106 269302,191966 271264,186802 C 273771,180189 270419,172790 263836,170254 L 231434,157993 C 229954,157420 228444,157148 226934,157148 Z M 72746,196163 C 69786,196163 66888,197371 64774,199726 L 41763,225636 C 37868,230045 38260,236779 42669,240704 C 44692,242516 47229,243392 49735,243392 C 52695,243392 55624,242154 57768,239829 L 80748,213949 C 84674,209510 84281,202776 79842,198820 C 77789,197039 75252,196163 72746,196163 Z M 200451,194895 C 197431,194895 194381,195952 191935,198126 C 186591,202807 186168,210899 190818,216214 L 213738,242094 C 216275,244962 219778,246442 223341,246442 C 226391,246442 229380,245385 231857,243211 C 237171,238530 237624,230437 232974,225153 L 210054,199243 C 207517,196344 203984,194895 200451,194895 Z M 113392,217875 C 108621,217875 104242,221136 103064,225968 L 94760,259578 C 93341,265346 96843,271174 102521,272563 C 103366,272774 104272,272895 105118,272895 C 109919,272895 114328,269634 115475,264742 L 123780,231102 C 125169,225364 121726,219596 115989,218207 C 115113,217996 114237,217875 113392,217875 Z M 159564,216063 C 158537,216063 157480,216184 156423,216456 C 149508,218117 145311,225062 147062,231977 L 155336,265587 C 156786,271415 162040,275341 167777,275341 C 168804,275341 169891,275250 170858,274979 C 177773,273257 181970,266312 180249,259457 L 171945,225787 C 170495,219959 165301,216063 159564,216063 Z" fill="#29B5E8" />
</svg>