<?xml version="1.0" encoding="utf-8"?>
<svg xmlns="http://www.w3.org/2000/svg" viewBox="0 0 259577 238466">
  <path d="M 215379,114655 L 189744,114655 C 186328,114655 183560,111893 183560,108487 L 183560,102095 C 179860,100557 176368,98565 173162,96166 L 167650,99362 C 164691,101061 160910,100045 159207,97093 L 146390,74945 C 144680,72007 145682,68242 148628,66536 C 148635,66532 148642,66528 148649,66524 L 154048,63328 C 153503,59314 153503,55245 154048,51231 L 148633,48035 C 145680,46341 144663,42580 146362,39635 C 146366,39628 146370,39621 146374,39614 L 159191,17466 C 160894,14514 164675,13498 167634,15197 L 173162,18393 C 176363,15982 179857,13985 183560,12448 L 183560,6056 C 183621,2700 186362,8 189728,0 L 215362,0 C 218778,0 221547,2762 221547,6168 L 221547,12560 C 225246,14104 228739,16101 231945,18505 L 237456,15309 C 240422,13600 244214,14612 245927,17569 C 245928,17572 245930,17575 245932,17578 L 258749,39726 C 260454,42674 259443,46442 256490,48147 L 251075,51343 C 251619,55362 251619,59436 251075,63456 L 256474,66556 C 259427,68260 260438,72029 258733,74977 L 245916,97125 C 244206,100079 240420,101094 237456,99394 L 231961,96198 C 228752,98591 225259,100582 221563,102127 L 221563,108519 C 221545,111913 218782,114655 215379,114655 Z M 195912,102271 L 209178,102271 L 209178,97796 C 209180,95105 210929,92724 213504,91916 C 218568,90336 223226,87675 227154,84117 C 229144,82308 232079,81992 234412,83334 L 238289,85556 L 244922,74098 L 241125,71909 C 238789,70560 237597,67858 238177,65229 C 239411,60039 239411,54632 238177,49441 C 237592,46812 238786,44108 241125,42762 L 244938,40573 L 238305,29099 L 234412,31336 C 232078,32680 229140,32357 227154,30537 C 223223,26984 218565,24324 213504,22739 C 210929,21930 209180,19550 209178,16859 L 209178,12336 L 195912,12336 L 195912,16859 C 195909,19544 194168,21920 191603,22739 C 186541,24324 181884,26984 177952,30537 C 175962,32359 173018,32683 170678,31336 L 166801,29099 L 160216,40573 L 164013,42762 C 166357,44104 167553,46811 166961,49441 C 165728,54632 165728,60039 166961,65229 C 167538,67870 166324,70577 163966,71909 L 160216,74098 L 166849,85556 L 170711,83334 C 173048,81994 175986,82310 177984,84117 C 181910,87678 186569,90340 191635,91916 C 194200,92734 195941,95111 195944,97796 Z" fill="#29B5E8" />
  <path d="M 202545,83095 C 188246,83095 176654,71533 176654,57271 C 176654,43010 188246,31448 202545,31448 C 216844,31448 228436,43010 228436,57271 C 228436,57277 228436,57282 228436,57288 C 228418,71539 216835,83086 202545,83095 Z M 202545,42442 C 194325,42442 187661,49089 187661,57288 C 187661,65486 194325,72133 202545,72133 C 210766,72133 217429,65486 217429,57288 C 217394,49111 210743,42499 202545,42490 Z" fill="#29B5E8" />
  <path d="M 96851,238466 L 61059,238466 C 56635,238466 53048,234888 53048,230476 L 53048,221144 C 47669,218940 42600,216045 37972,212531 L 29961,217149 C 26130,219356 21231,218046 19019,214225 L 1107,183320 C -1108,179502 197,174617 4023,172406 L 11921,167867 C 11085,162038 11085,156119 11921,150290 L 4006,145768 C 175,143561 -1138,138675 1075,134853 L 18971,103949 C 21182,100137 26069,98829 29897,101024 L 37908,105642 C 42539,102134 47607,99238 52984,97029 L 52984,87697 C 52984,83284 56571,79707 60995,79707 L 96851,79707 C 101275,79707 104862,83284 104862,87697 L 104862,97029 C 110242,99242 115315,102137 119954,105642 L 127965,101024 C 131793,98829 136680,100137 138892,103949 L 156836,134853 C 159048,138675 157735,143561 153904,145768 L 145989,150322 C 146825,156151 146825,162070 145989,167900 L 153888,172438 C 157719,174645 159032,179531 156820,183352 L 138924,214225 C 136711,218046 131813,219356 127981,217149 L 119970,212531 C 115342,216045 110274,218940 104894,221144 L 104894,230476 C 104894,234888 101308,238466 96883,238466 C 96873,238466 96862,238466 96851,238466 Z M 69070,222486 L 88840,222486 L 88840,215551 C 88838,212066 91101,208982 94432,207929 C 101566,205703 108128,201951 113658,196935 C 116235,194587 120039,194173 123062,195912 L 129006,199316 L 138892,182249 L 133108,178973 C 130076,177228 128532,173721 129295,170312 C 131037,162957 131037,155297 129295,147941 C 128539,144538 130083,141040 133108,139296 L 138956,135924 L 129071,118842 L 123111,122277 C 120095,123988 116318,123569 113754,121239 C 108225,116217 101664,112460 94528,110229 C 91209,109172 88955,106097 88953,102622 L 88953,95687 L 69070,95687 L 69070,102622 C 69082,106109 66825,109201 63494,110261 C 56362,112499 49803,116256 44269,121271 C 41696,123624 37891,124044 34864,122309 L 28840,118842 L 18955,135924 L 24802,139296 C 27834,141035 29384,144534 28632,147941 C 26872,155295 26872,162959 28632,170312 C 29395,173721 27850,177228 24819,178973 L 18987,182329 L 28840,199316 L 34768,195912 C 37791,194173 41596,194587 44172,196935 C 49701,201954 56263,205706 63398,207929 C 66730,208982 68992,212066 68990,215551 Z" fill="#29B5E8" />
  <path d="M 78955,195448 C 58816,195484 42461,179229 42426,159143 C 42391,139056 58688,122744 78827,122709 C 98966,122673 115321,138928 115356,159015 C 115356,159036 115356,159057 115356,159079 C 115339,179133 99062,195396 78955,195448 Z M 78955,138704 C 67665,138669 58483,147770 58448,159031 C 58412,170292 67536,179450 78827,179485 C 90117,179520 99299,170420 99334,159158 C 99335,159132 99335,159105 99335,159079 C 99326,147849 90214,138740 78955,138704 Z" fill="#29B5E8" />
</svg>