<?xml version="1.0" encoding="utf-8"?>
<svg xmlns="http://www.w3.org/2000/svg" viewBox="0 0 326396 326558">
  <path d="M 326247,168322 C 326238,168210 326222,168100 326197,167991 C 326081,167288 325903,166598 325666,165926 C 325636,165825 325599,165725 325559,165628 C 325304,164947 324990,164289 324622,163662 L 324456,163397 C 324052,162757 323594,162152 323088,161589 C 323088,161589 323030,161506 322996,161465 C 322962,161442 322932,161414 322905,161382 C 322377,160834 321802,160332 321189,159881 L 320965,159715 C 320356,159286 319710,158915 319033,158604 L 318809,158497 C 318133,158197 317431,157962 316711,157792 L 316479,157725 C 315774,157576 315059,157482 314340,157444 L 314008,157444 L 313685,157444 L 262160,157444 C 255144,157444 249457,163131 249457,170147 C 249457,177162 255144,182849 262160,182849 L 281355,182849 L 214922,244606 L 158041,199101 C 153208,195237 146295,195419 141673,199532 L 23930,304216 C 18607,308785 17995,316805 22565,322128 C 27134,327452 35154,328064 40477,323494 C 40588,323399 40697,323302 40804,323204 L 150545,225610 L 207609,271264 C 212523,275201 219582,274940 224192,270651 L 300990,199292 L 300990,222219 C 300990,229234 306677,234922 313693,234922 C 320709,234922 326396,229234 326396,222219 L 326396,170147 C 326390,169535 326340,168926 326247,168322 Z" fill="#29B5E8" />
  <path d="M 65762,233413 C 71775,237026 79580,235080 83193,229067 C 86806,223053 84860,215249 78847,211636 C 78476,211413 78094,211209 77702,211025 C 29623,185518 11324,125865 36831,77786 C 62338,29706 121991,11408 170070,36915 C 218150,62421 236448,122074 210941,170154 C 208995,173823 206818,177365 204425,180760 C 200294,186431 201542,194376 207211,198507 C 212882,202639 220828,201391 224959,195720 C 225025,195629 225090,195538 225154,195445 C 239994,174546 247936,149535 247873,123903 C 247873,55596 192277,0 123937,0 C 55596,0 0,55596 0,123937 C -39,169790 25263,211910 65762,233413 Z" fill="#29B5E8" />
  <path d="M 123937,87934 C 131539,87939 137703,94095 137718,101698 C 137571,106376 141245,110287 145922,110434 C 150600,110580 154511,106906 154658,102228 C 154663,102051 154663,101875 154658,101698 C 154633,88013 145563,75993 132411,72213 L 132411,64618 C 132558,59940 128883,56029 124206,55883 C 119528,55736 115617,59410 115471,64087 C 115465,64264 115465,64441 115471,64618 L 115471,72213 C 99173,76846 89716,93814 94348,110112 C 98106,123330 110195,132437 123937,132403 C 131548,132393 137725,138556 137734,146167 C 137743,153778 131581,159955 123970,159964 C 116359,159973 110181,153811 110172,146200 C 110026,141522 106115,137849 101437,137995 C 96965,138135 93372,141727 93232,146200 C 93258,159884 102322,171904 115471,175694 L 115471,183248 C 115617,187926 119528,191599 124206,191452 C 128678,191313 132271,187720 132411,183248 L 132411,175677 C 148727,171111 158253,154181 153687,137864 C 149958,124540 137772,115361 123937,115454 C 116332,115268 110319,108952 110506,101347 C 110686,94006 116595,88097 123937,87917 Z" fill="#29B5E8" />
</svg>