<?xml version="1.0" encoding="utf-8"?>
<svg xmlns="http://www.w3.org/2000/svg" viewBox="0 0 291021 320361">
  <path d="M 197924,152873 L 184770,160473 L 197924,168000 C 201212,169899 202418,174138 200408,177463 C 198508,180751 194270,181847 190908,179947 L 167305,166392 C 165734,165515 164638,164090 164199,162482 C 163980,161715 163871,160948 163871,160180 C 163871,159669 163944,159121 164163,158573 C 164601,156892 165661,155431 167305,154444 L 190908,140889 C 194270,138989 198435,140121 200408,143373 C 202418,146735 201212,150973 197924,152873 Z M 185428,189593 L 161824,176038 C 160509,175270 159157,175015 157805,175124 C 154225,175380 151338,178376 151338,181993 L 151338,209141 C 151338,212941 154517,216010 158280,216010 C 162153,216010 165186,212941 165186,209141 L 165186,193941 L 178412,201541 C 181737,203441 185976,202345 187912,198983 C 189922,195732 188753,191566 185428,189593 Z M 158244,157769 L 148415,147977 C 148159,147721 147611,147429 147173,147429 L 146515,147429 L 145054,147429 L 144360,147429 C 143921,147429 143373,147648 143117,147977 L 133325,157769 C 133069,158025 132850,158573 132850,159011 L 132850,159669 L 132850,161130 L 132850,161825 C 132850,162263 133069,162811 133325,163067 L 143117,172822 C 143373,173115 143921,173371 144360,173371 L 145054,173371 L 146515,173371 L 147173,173371 C 147611,173371 148159,173151 148415,172822 L 158244,163067 C 158500,162811 158719,162263 158719,161825 L 158719,161130 L 158719,159669 L 158719,159011 C 158719,158573 158500,158025 158244,157769 Z M 150388,160473 C 150388,160911 150096,161459 149840,161715 L 146954,164528 C 146698,164821 146150,165077 145748,165077 L 145602,165077 C 145236,165077 144688,164930 144396,164528 L 141546,161715 C 141254,161459 141108,160911 141108,160473 L 141108,160363 C 141108,159925 141254,159377 141546,159121 L 144396,156344 C 144688,156088 145236,155796 145602,155796 L 145748,155796 C 146150,155796 146698,156015 146954,156344 L 149840,159121 C 150096,159377 150388,159925 150388,160363 Z M 106105,131279 L 129708,144835 C 130950,145529 132302,145821 133654,145712 C 137308,145456 140121,142460 140121,138770 L 140121,111622 C 140121,107822 137016,104753 133216,104753 C 129343,104753 126274,107822 126274,111622 L 126274,126822 L 113047,119222 C 109722,117322 105557,118455 103547,121743 C 101611,125141 102743,129379 106105,131279 Z M 157805,145712 C 159157,145821 160582,145492 161824,144835 L 185428,131279 C 188753,129379 189922,125141 187912,121853 C 186012,118528 181774,117432 178412,119332 L 165259,126931 L 165259,111732 C 165259,107932 162080,104790 158280,104790 C 154444,104790 151411,107932 151411,111732 L 151411,138879 C 151338,142460 154225,145456 157805,145712 Z M 133654,175234 C 132302,175051 130914,175344 129635,176111 L 106068,189666 C 102743,191566 101611,195841 103547,199093 C 105447,202418 109722,203477 113047,201578 L 126274,194014 L 126274,209177 C 126274,212977 129379,216083 133179,216083 C 136979,216083 140121,212977 140121,209177 L 140121,182066 C 140121,178376 137308,175380 133654,175234 Z M 127333,162482 C 127552,161715 127662,160948 127662,160180 C 127662,159669 127589,159121 127370,158573 C 126895,156892 125799,155431 124118,154444 L 100515,140889 C 97190,138989 92915,140121 91015,143373 C 89115,146735 90211,150900 93499,152800 L 106689,160400 L 93499,167963 C 90211,169863 89078,174028 91015,177390 C 92915,180715 97190,181774 100515,179874 L 124118,166319 C 125689,165515 126785,164090 127333,162482 Z M 36209,188351 L 36209,132156 C 36209,127808 32701,124264 28353,124264 C 24005,124264 20498,127808 20498,132156 L 20498,188351 C 20498,192699 24005,196206 28353,196206 C 32701,196206 36209,192699 36209,188351 Z M 270597,188314 L 270597,132631 C 270597,128283 267089,124776 262741,124776 C 258393,124776 254885,128283 254885,132631 L 254885,188314 C 254885,192626 258393,196170 262741,196170 C 267089,196170 270597,192626 270597,188314 Z M 117833,279512 C 119989,275749 118674,270999 114947,268807 L 66644,240928 C 62954,238773 58131,240052 55975,243742 C 53820,247505 55062,252328 58789,254484 L 107091,282399 C 108334,283093 109686,283348 111037,283348 C 113741,283458 116408,281997 117833,279512 Z M 235338,76802 C 237530,73075 236215,68216 232525,66060 L 184295,38291 C 180532,36099 175709,37414 173553,41105 C 171361,44832 172676,49691 176403,51847 L 224596,79615 C 225838,80383 227190,80711 228542,80711 C 231282,80711 233949,79286 235338,76802 Z M 184076,282435 L 232232,254593 C 235922,252438 237238,247651 235082,243925 C 232890,240161 228067,238882 224340,241038 L 176220,268880 C 172457,271035 171142,275822 173370,279549 C 174795,282106 177463,283531 180166,283531 C 181409,283458 182760,283093 184076,282435 Z M 66644,79579 L 114801,51847 C 118491,49691 119770,44832 117614,41105 C 115422,37414 110599,36099 106909,38291 L 58789,66023 C 55062,68179 53820,73002 55975,76765 C 57400,79250 60031,80638 62771,80638 C 64050,80638 65402,80346 66644,79579 Z M 275164,206474 L 275164,206474 C 265774,201066 254337,202454 246628,209177 L 234242,202089 C 240270,189374 243632,175234 243632,160180 C 243632,145237 240234,131097 234242,118382 L 246628,111257 C 251122,115166 256895,117285 262778,117285 C 267016,117285 271327,116189 275164,113961 C 286929,107091 291021,92001 284225,80127 C 277393,68289 262266,64233 250355,70992 L 250355,70992 C 241038,76436 236544,87069 238480,97153 L 226130,104242 C 209835,80858 183674,64927 153677,62443 L 153677,48156 C 163396,44795 170301,35624 170301,24772 C 170301,11144 159157,37 145565,37 C 131937,37 120793,11144 120793,24772 C 120793,35551 127808,44795 137417,48156 L 137417,62443 C 107457,64854 81259,80858 64964,104242 L 52651,97153 C 54550,87105 50056,76436 40739,70992 L 40739,70992 C 28901,64160 13702,68216 6869,80127 C 37,91892 4092,107091 15930,113961 C 19767,116189 24078,117285 28317,117285 C 34163,117285 40009,115166 44539,111257 L 56852,118382 C 50824,131060 47462,145237 47462,160180 C 47462,175234 50860,189264 56852,202089 L 44539,209177 C 36757,202454 25320,201066 15930,206474 L 15930,206474 C 4165,213306 73,228433 6869,240344 C 11473,248236 19730,252657 28353,252657 C 32518,252657 36830,251561 40666,249332 C 50056,243925 54514,233329 52614,223244 L 64964,216083 C 81259,239503 107420,255434 137417,257955 L 137417,272168 C 127698,275603 120793,284700 120793,295552 C 120793,309254 131937,320361 145565,320361 C 159157,320361 170301,309254 170301,295552 C 170301,284810 163286,275603 153677,272168 L 153677,257955 C 183637,255507 209835,239503 226130,216083 L 238444,223244 C 236544,233292 241038,243925 250355,249332 C 254264,251561 258503,252657 262741,252657 C 271254,252657 279621,248236 284225,240344 C 291021,228433 286929,213306 275164,206474 Z M 258174,84731 C 262522,82246 268112,83707 270597,88019 C 273118,92367 271656,97957 267308,100442 C 262960,102963 257370,101501 254885,97153 C 252437,92805 253935,87215 258174,84731 Z M 36282,97153 C 33797,101501 28243,102963 23859,100442 C 19511,97957 18050,92367 20534,88019 C 22215,85169 25320,83525 28426,83525 C 29997,83525 31568,83927 32957,84731 C 37305,87215 38766,92805 36282,97153 Z M 32957,235777 C 28609,238261 23092,236800 20534,232452 C 18050,228140 19511,222550 23859,220029 C 28243,217544 33797,219006 36282,223354 C 38766,227702 37305,233292 32957,235777 Z M 136541,24992 C 136541,19949 140596,15857 145602,15857 C 150644,15857 154700,19949 154700,24992 C 154700,29997 150644,34053 145602,34053 C 140596,33980 136541,29924 136541,24992 Z M 154663,295552 C 154663,300594 150607,304686 145565,304686 C 140487,304686 136431,300594 136431,295552 C 136431,290583 140487,286491 145565,286491 C 150607,286491 154663,290583 154663,295552 Z M 217800,199751 C 217398,200299 216886,200847 216558,201541 C 216302,202089 216083,202527 215863,203076 C 201687,226277 176476,241915 147502,242609 C 146917,242463 146186,242353 145565,242353 C 144835,242353 144177,242390 143592,242609 C 114691,241915 89407,226277 75231,203076 C 75085,202454 74792,201906 74536,201358 C 74536,201322 74463,201322 74463,201212 C 74135,200737 73696,200226 73331,199751 C 66864,188022 63173,174576 63173,160254 C 63173,145967 66864,132522 73331,120757 C 73696,120318 74135,119843 74427,119295 C 74427,119222 74463,119185 74463,119185 C 74792,118637 75011,118053 75121,117505 C 89334,94267 114582,78592 143483,77935 C 144140,78044 144798,78227 145492,78227 C 146150,78227 146844,78154 147465,77935 C 176293,78592 201650,94267 215827,117505 C 215936,118089 216192,118637 216448,119185 C 216850,119770 217215,120318 217727,120793 C 224157,132522 227811,145967 227811,160254 C 227957,174576 224267,188022 217800,199751 Z M 270597,232452 C 268112,236800 262522,238261 258174,235777 C 253826,233292 252364,227702 254885,223354 C 256566,220431 259599,218787 262741,218787 C 264312,218787 265847,219225 267308,220029 C 271656,222550 273118,228140 270597,232452 Z" fill="#29B5E8" />
</svg>