<?xml version="1.0" encoding="utf-8"?>
<svg xmlns="http://www.w3.org/2000/svg" viewBox="0 0 412894 412969">
  <path d="M 313944,241509 L 304387,241509 L 304387,178140 C 309258,177815 312923,173594 312598,168723 C 312413,165940 310928,163435 308609,161904 L 210633,98349 C 207710,96447 203953,96447 200984,98349 L 103008,161904 C 98926,164548 97766,170022 100410,174151 C 101941,176470 104446,177955 107230,178140 L 107230,241509 L 100271,241509 C 95400,241509 91411,245452 91411,250369 L 91411,278853 C 91411,283724 95354,287713 100271,287713 C 100271,287713 100271,287713 100271,287713 L 313944,287713 C 318815,287713 322758,283724 322758,278853 L 322758,250369 C 322758,245499 318815,241555 313944,241509 Z M 205808,116302 L 273909,160466 L 137708,160466 L 205808,116302 Z M 286713,178187 L 286713,241555 L 259528,241555 L 259528,178187 L 286713,178187 Z M 241854,178187 L 241854,241555 L 214669,241555 L 214669,178187 L 241854,178187 Z M 196994,178187 L 196994,241555 L 169810,241555 L 169810,178187 L 196994,178187 Z M 124904,178187 L 152089,178187 L 152089,241555 L 124904,241555 L 124904,178187 Z M 109085,270039 L 109085,259230 L 305083,259230 L 305083,270039 L 109085,270039 Z M 216339,142234 C 216339,148126 211561,152904 205669,152904 C 199778,152904 195000,148126 195000,142234 C 195000,136343 199778,131565 205669,131565 C 211561,131565 216339,136343 216339,142234 Z M 396750,126369 C 352494,21295 231462,-28017 126389,16239 C 21315,60495 -27998,181527 16212,286600 C 60422,391674 181500,440986 286574,396730 C 363117,364489 412894,289523 412894,206484 C 412940,178975 407466,151698 396750,126369 Z M 380606,279781 L 380606,279781 C 340108,375947 229328,421131 133162,380633 C 36995,340134 -8189,229401 32310,133188 C 72808,36975 183541,-8162 279754,32336 C 349850,61840 395405,130451 395405,206484 C 395405,231674 390395,256586 380606,279781 Z" fill="#29B5E8" />
</svg>