<?xml version="1.0" encoding="utf-8"?>
<svg xmlns="http://www.w3.org/2000/svg" viewBox="0 0 260406 236458">
  <path d="M 130203,12721 C 134953,12721 138739,16508 138739,21258 C 138739,26041 134953,29827 130203,29827 C 125486,29827 121634,26007 121634,21258 C 121634,16508 125486,12721 130203,12721 Z M 59289,30392 C 64072,30392 67858,34245 67858,38961 C 67858,43711 64072,47564 59289,47564 C 54539,47564 50753,43645 50753,38961 C 50753,34245 54539,30392 59289,30392 Z M 200984,30392 C 205734,30392 209587,34245 209587,38961 C 209587,43711 205734,47564 200984,47564 C 196268,47564 192415,43711 192415,38961 C 192415,34245 196301,30392 200984,30392 Z M 21258,91939 C 26007,91939 29860,95726 29860,100509 C 29860,105259 26007,109045 21258,109045 C 16574,109045 12688,105259 12688,100509 C 12688,95726 16541,91939 21258,91939 Z M 239016,91939 C 243765,91939 247618,95726 247618,100509 C 247618,105259 243765,109045 239016,109045 C 234299,109045 230446,105259 230446,100509 C 230446,95726 234299,91939 239016,91939 Z M 130203,75332 L 140865,110938 C 141895,114426 144851,117150 148471,117847 C 149136,117980 149767,118046 150431,118046 C 153387,118046 156244,116684 158137,114393 L 177368,91009 L 170360,138009 C 169762,141695 171390,145416 174412,147608 C 176139,148870 178166,149435 180225,149435 C 181819,149435 183347,149102 184809,148372 L 211347,134587 L 196401,194275 L 63972,194275 L 49092,134587 L 75564,148372 C 77059,149102 78620,149435 80214,149435 C 82240,149435 84300,148870 86027,147608 C 89083,145449 90611,141695 90079,138009 L 83071,91009 L 83071,91009 L 102302,114393 C 104196,116684 107019,118046 110008,118046 C 110639,118046 111304,117980 111968,117847 C 115622,117083 118478,114426 119574,110938 L 130203,75332 Z M 130203,0 C 118412,0 108846,9566 108846,21324 C 108846,29395 113363,36304 119940,39958 L 105790,87256 L 76461,51550 C 79019,48029 80646,43645 80646,38961 C 80646,27170 71080,17670 59289,17670 C 47498,17670 37998,27170 37998,38961 C 37998,50354 46966,59621 58259,60186 L 67427,121567 L 41253,107982 C 42083,105591 42681,103133 42681,100509 C 42681,88717 33115,79151 21324,79151 C 9533,79151 0,88717 0,100509 C 0,112267 9533,121833 21324,121833 C 22686,121833 23981,121634 25243,121467 L 43445,194275 L 37799,194275 C 32318,194275 27768,198759 27768,204239 C 27768,209786 32318,214270 37799,214270 L 219352,214270 C 224799,214270 229350,209786 229350,204239 C 229350,198726 224799,194275 219352,194275 L 217027,194275 L 235163,121467 C 236392,121733 237753,121833 239016,121833 C 250807,121833 260340,112267 260340,100509 C 260373,88717 250807,79151 239016,79151 C 227224,79151 217658,88717 217658,100509 C 217658,103133 218256,105690 219086,108015 L 192946,121567 L 202180,60186 C 213373,59588 222308,50321 222308,38961 C 222308,27170 212742,17670 200984,17670 C 189193,17670 179627,27170 179627,38961 C 179627,43711 181255,48095 183879,51583 L 154616,87256 L 140433,39958 C 147043,36304 151527,29395 151527,21324 C 151527,9566 141961,0 130203,0 Z M 37732,223637 C 34145,223637 31322,226427 31322,230047 C 31322,233602 34245,236458 37732,236458 L 219286,236458 C 222840,236458 225696,233535 225696,230047 C 225696,226527 222906,223637 219286,223637 Z" fill="#29B5E8" />
</svg>