<?xml version="1.0" encoding="utf-8"?>
<svg xmlns="http://www.w3.org/2000/svg" viewBox="0 0 211937 212856">
  <path d="M 134215,23141 C 103683,-7580 54028,-7732 23307,22799 C 23193,22912 23079,23027 22966,23141 C -7655,54010 -7655,103796 22966,134665 C 46219,158119 81700,164441 111622,150460 L 114712,153550 L 166010,205054 C 176340,215427 193125,215461 203498,205130 C 203524,205105 203549,205080 203574,205054 L 204192,204367 C 214519,193976 214519,177195 204192,166804 L 152894,115299 L 149735,112141 C 163675,82146 157485,46646 134215,23141 Z M 78590,140846 C 62216,140873 46512,134345 34983,122716 C 10964,98445 10964,59360 34983,35090 C 59098,11081 98083,11081 122197,35090 L 122197,35090 C 146217,59360 146217,98445 122197,122716 C 110669,134345 94964,140873 78590,140846 Z M 192243,178890 C 196036,182606 196097,188693 192382,192486 C 192336,192532 192290,192579 192243,192625 L 191556,193311 C 187895,197104 181852,197211 178059,193548 C 177978,193471 177900,193391 177822,193311 L 126524,141807 L 134078,134939 C 136206,133017 140945,127455 140945,127455 Z" fill="#29B5E8" />
  <path d="M 110317,101496 L 105097,101496 L 105097,84259 C 105097,83159 104206,82268 103106,82268 L 95071,82268 C 93972,82268 93080,83159 93080,84259 L 93080,101496 L 85526,101496 L 85526,42781 C 85527,41669 84646,40758 83534,40721 L 75500,40721 C 74389,40758 73508,41669 73508,42781 L 73508,101496 L 66023,101496 L 66023,70731 C 66061,69631 65202,68709 64103,68670 C 64056,68669 64009,68669 63963,68670 L 55997,68670 C 54859,68670 53936,69592 53936,70731 L 53936,101496 L 48718,101496 C 45722,101496 43293,103925 43293,106921 C 43293,109917 45722,112346 48718,112346 L 110523,112346 C 113519,112346 115948,109917 115948,106921 C 115948,103925 113519,101496 110523,101496 Z" fill="#29B5E8" />
</svg>