<?xml version="1.0" encoding="utf-8"?>
<svg xmlns="http://www.w3.org/2000/svg" viewBox="0 0 310855 387947">
  <path d="M 155606,129316 L 147791,129671 L 133580,135711 L 123276,146012 L 117237,159867 L 116882,168038 L 117237,175854 L 123276,189711 L 133580,200368 L 147791,206052 L 155606,206763 L 163422,206052 L 177277,200368 L 187934,189711 L 193620,175854 L 194329,168038 L 193620,159867 L 187934,146012 L 177277,135711 L 163422,129671 L 155606,129316 Z" fill="#29B5E8" />
  <path d="M 154895,233408 L 146014,233763 L 130027,236605 L 116528,241933 L 105515,249395 L 96276,257920 L 89172,267512 L 81356,282078 L 78159,291315 L 77447,295222 L 79224,301972 L 83842,307302 L 90593,310144 L 94855,310499 L 215646,310499 L 219553,310144 L 226303,307302 L 231277,301972 L 232698,295222 L 231987,291315 L 229145,282078 L 220974,267512 L 213869,257920 L 204633,249395 L 193264,241933 L 179763,236605 L 163776,233763 L 154895,233408 Z" fill="#29B5E8" />
  <path d="M 141750,0 L 141750,51159 L 64658,51159 L 58265,51512 L 45475,54000 L 33751,58974 L 23449,66079 L 14566,74959 L 7462,85263 L 2488,96986 L 2,109422 L 2,116170 L 2,322933 L 2,329684 L 2488,342472 L 7462,353840 L 14566,364498 L 23449,373025 L 33751,380129 L 45475,385103 L 58265,387591 L 64658,387947 L 245841,387947 L 252236,387591 L 265026,385103 L 276751,380129 L 287052,373025 L 295933,364498 L 303039,353840 L 308013,342472 L 310499,329684 L 310855,322933 L 310855,116170 L 310499,109422 L 308013,96986 L 303039,85263 L 295933,74959 L 287052,66079 L 276751,58974 L 265026,54000 L 252236,51512 L 245841,51159 L 168396,51159 L 168396,0 Z M 26647,116170 L 27000,108355 L 32686,94855 L 43343,84198 L 56842,78513 L 64658,77803 L 245841,77803 L 253657,78513 L 267158,84198 L 277816,94855 L 283499,108355 L 284211,116170 L 284211,322933 L 283499,330749 L 277816,344604 L 267158,354908 L 253657,360947 L 245841,361300 L 64658,361300 L 56842,360947 L 43343,354908 L 32686,344604 L 27000,330749 L 26647,322933 Z" fill="#29B5E8" />
</svg>