<?xml version="1.0" encoding="utf-8"?>
<svg xmlns="http://www.w3.org/2000/svg" viewBox="0 0 252844 252813">
  <path d="M 170616,3895 C 166811,3895 163822,6976 163822,10690 C 163822,14465 166872,17545 170616,17545 L 174844,17545 C 178558,17545 181668,14465 181668,10690 C 181668,6976 178558,3895 174844,3895 Z M 200240,3895 C 196405,3895 193415,6976 193415,10690 C 193415,14465 196465,17545 200240,17545 L 204437,17545 C 208212,17545 211262,14465 211262,10690 C 211262,6976 208212,3895 204437,3895 Z M 229320,7278 C 226844,7278 224428,8636 223220,10962 C 222646,11988 222435,13075 222435,14102 C 222435,16609 223764,18934 226149,20172 C 227085,20685 228022,21229 228928,21863 C 230135,22708 231525,23131 232883,23131 C 235027,23131 237141,22135 238470,20262 C 240614,17152 239919,12894 236809,10690 C 235420,9724 233910,8818 232430,8002 C 231434,7489 230377,7278 229320,7278 Z M 245687,30560 C 245415,30560 245113,30560 244811,30620 C 241399,31043 238832,33972 238832,37324 C 238832,37596 238832,37958 238923,38230 C 239014,39257 239134,40283 239134,41552 C 239134,45266 242184,48316 245959,48316 C 249734,48316 252814,45175 252814,41401 C 252814,39740 252693,38139 252451,36479 C 251998,33066 249100,30560 245687,30560 Z M 245959,60123 C 242184,60123 239134,63173 239134,66918 L 239134,71145 C 239134,74920 242184,77970 245959,77970 C 249734,77970 252814,74920 252814,71145 L 252814,66918 C 252814,63173 249734,60123 245959,60123 Z M 245959,89717 C 242184,89717 239134,92767 239134,96511 L 239134,100739 C 239134,104513 242184,107563 245959,107563 C 249734,107563 252814,104513 252814,100739 L 252814,96511 C 252814,92767 249734,89717 245959,89717 Z M 245868,119310 C 242154,119310 239134,122390 239134,126105 L 239134,130332 C 239134,134107 242184,137157 245959,137157 C 249734,137157 252814,134107 252814,130332 L 252814,126105 C 252814,122360 249734,119310 245959,119310 C 245929,119310 245899,119310 245868,119310 Z M 127373,21410 C 138335,21410 147304,30379 147364,41401 L 147364,127373 C 147364,138395 138395,147364 127373,147364 L 41431,147364 C 30409,147364 21440,138395 21440,127373 L 21440,41401 C 21440,30379 30409,21410 41431,21410 Z M 245959,148904 C 242184,148904 239134,151954 239134,155728 L 239134,159926 C 239134,163640 242184,166750 245959,166750 C 249734,166750 252814,163640 252814,159926 L 252814,155728 C 252814,151954 249734,148904 245959,148904 Z M 41401,30 C 18571,30 0,18541 0,41370 L 0,127282 C 0,135768 2567,143619 6945,150142 C 5164,151410 3865,153373 3865,155728 L 3865,159926 C 3865,163700 6945,166750 10720,166750 C 14193,166750 16911,164184 17394,160832 C 24218,165724 32462,168683 41431,168683 L 127373,168683 C 150142,168683 168744,150111 168744,127282 L 168744,41370 C 168744,27661 161889,15491 151531,7972 C 150444,5526 148028,3895 145250,3895 L 144525,3895 C 139301,1449 133534,30 127373,30 Z M 10781,178527 C 7006,178527 3956,181638 3956,185352 L 3956,189580 C 3956,193324 7006,196434 10781,196434 C 14525,196434 17635,193324 17635,189580 L 17635,185352 C 17635,181638 14525,178527 10781,178527 Z M 245959,178497 C 242184,178497 239134,181547 239134,185322 L 239134,189580 C 239134,193324 242184,196434 245959,196434 C 249734,196434 252814,193324 252814,189580 L 252814,185322 C 252814,181547 249734,178497 245959,178497 Z M 170073,156544 C 167325,156544 164607,157570 162523,159624 C 160349,161738 159322,164455 159322,167294 C 159322,169981 160319,172699 162372,174783 L 184356,196978 L 179494,196978 C 174814,196978 170978,200783 170978,205494 C 170978,210204 174844,214009 179555,214009 L 208212,214009 C 212923,214009 216698,210204 216698,205494 L 216698,176836 C 216698,172125 212862,168321 208212,168321 C 203501,168321 199696,172125 199696,176836 L 199696,181940 L 177622,159714 C 175538,157600 172821,156544 170073,156544 Z M 10781,208211 C 7006,208211 3956,211503 3956,215278 C 3956,216878 4046,218448 4228,220019 C 4681,223491 7640,225998 11022,225998 C 11294,225998 11566,225967 11837,225937 C 15612,225454 18300,222042 17756,218267 C 17666,217271 17635,216304 17635,214915 C 17635,211141 14525,208211 10781,208211 Z M 245959,208211 C 242184,208211 239134,211503 239134,215278 C 239134,216395 239044,217512 238923,218539 C 238832,218901 238832,219173 238832,219535 C 238832,222887 241309,225756 244811,226300 C 245083,226330 245355,226360 245627,226360 C 248979,226360 251998,223854 252451,220411 C 252693,218720 252814,216969 252814,215278 L 252814,214915 C 252814,211141 249734,208211 245959,208211 Z M 23645,233336 C 21531,233336 19447,234332 18119,236204 C 17273,237473 16820,238801 16820,240190 C 16820,242304 17847,244448 19689,245747 C 21078,246743 22558,247649 24037,248434 C 25124,249008 26242,249280 27359,249280 C 29835,249280 32160,247951 33368,245626 C 35120,242244 33821,238167 30469,236386 C 29503,235902 28537,235298 27631,234634 C 26423,233758 25034,233336 23645,233336 Z M 232642,233607 C 231283,233607 229924,234030 228746,234846 C 227931,235480 226965,236023 225998,236567 C 223673,237775 222254,240160 222254,242667 C 222254,243693 222465,244780 223009,245747 C 224187,248102 226602,249491 229079,249491 C 230135,249491 231192,249250 232189,248706 C 233669,247921 235209,247015 236598,246079 C 239678,243965 240493,239617 238289,236567 C 236960,234664 234816,233607 232642,233607 Z M 52151,239134 C 48407,239134 45296,242214 45296,245928 C 45296,249703 48407,252783 52151,252783 L 56318,252783 C 60093,252783 63203,249703 63203,245928 C 63203,242214 60093,239134 56318,239134 Z M 81745,239134 C 78000,239134 74890,242214 74890,245928 C 74890,249703 78000,252783 81745,252783 L 85912,252783 C 89687,252783 92797,249703 92797,245928 C 92797,242214 89687,239134 85912,239134 Z M 111338,239134 C 107594,239134 104483,242214 104483,245928 C 104483,249703 107594,252783 111338,252783 L 115506,252783 C 119280,252783 122391,249703 122391,245928 C 122391,242214 119280,239134 115506,239134 Z M 140841,239134 C 137127,239134 134047,242214 134047,245928 C 134047,249703 137127,252783 140841,252783 L 145069,252783 C 148874,252783 151924,249703 151924,245928 C 151924,242214 148844,239134 145069,239134 Z M 170465,239134 C 166721,239134 163640,242214 163640,245928 C 163640,249703 166721,252783 170465,252783 L 174663,252783 C 178467,252783 181517,249703 181517,245928 C 181517,242214 178437,239134 174663,239134 Z M 200059,239134 C 196314,239134 193234,242214 193234,245928 C 193234,249703 196314,252783 200059,252783 L 204256,252783 C 208061,252783 211111,249703 211111,245928 C 211111,242214 208031,239134 204256,239134 Z" fill="#29B5E8" />
</svg>