<?xml version="1.0" encoding="utf-8"?>
<svg xmlns="http://www.w3.org/2000/svg" viewBox="0 0 324728 262484">
  <path d="M 0,52262 L 294,46977 L 2348,36701 L 6165,27305 L 11744,19085 L 19084,11744 L 27305,6167 L 36701,2350 L 46977,294 L 52262,0 L 272466,0 L 277749,294 L 288027,2350 L 297421,6167 L 305937,11744 L 312982,19085 L 318561,27305 L 322672,36701 L 324726,46977 L 324726,52262 L 324726,57547 L 322672,67823 L 318561,77219 L 312982,85734 L 305937,92780 L 297421,98359 L 288027,102469 L 277749,104524 L 272466,104524 L 78979,104524 L 78979,167062 L 79273,173815 L 84264,185559 L 93366,194661 L 105110,199652 L 111863,199946 L 138582,199946 L 139757,195541 L 142985,187028 L 147390,179394 L 153261,172935 L 160015,167062 L 167648,162657 L 176164,159722 L 185265,157960 L 189962,157960 L 272466,157960 L 277749,157960 L 288027,160015 L 297421,164125 L 305937,169704 L 312982,176752 L 318561,185265 L 322672,194661 L 324726,204643 L 324726,210222 L 324726,215507 L 322672,225783 L 318561,235179 L 312982,243399 L 305937,250446 L 297421,256025 L 288027,260134 L 277749,262190 L 272466,262484 L 189962,262484 L 185265,262190 L 176456,260722 L 168236,257785 L 160603,253382 L 153849,248097 L 148270,241638 L 143573,234297 L 140049,226369 L 138875,221966 L 111863,221966 L 106284,221966 L 95422,219618 L 85732,215507 L 76925,209634 L 69291,202001 L 63418,193193 L 59307,183503 L 56959,172641 L 56959,167062 L 56959,104524 L 52262,104524 L 46977,104524 L 36701,102469 L 27305,98359 L 19084,92780 L 11744,85734 L 6165,77219 L 2348,67823 L 294,57547 Z M 52262,22022 L 46097,22314 L 35233,27013 L 27011,35233 L 22314,46097 L 22020,52262 L 22314,58429 L 27011,69291 L 35233,77513 L 46097,82210 L 52262,82504 L 272466,82504 L 278631,82210 L 289494,77513 L 297715,69291 L 302414,58429 L 302706,52262 L 302414,46097 L 297715,35233 L 289494,27013 L 278631,22314 L 272466,22022 Z M 189962,179980 L 183797,180274 L 172933,184971 L 164712,193193 L 160015,204057 L 159721,210222 L 160015,216387 L 164712,227251 L 172933,235471 L 183797,239876 L 189962,240464 L 272466,240464 L 278631,239876 L 289494,235471 L 297715,227251 L 302414,216387 L 302706,210222 L 302414,204057 L 297715,193193 L 289494,184971 L 278631,180274 L 272466,179980 Z" fill="#29B5E8" />
</svg>