<?xml version="1.0" encoding="utf-8"?>
<svg xmlns="http://www.w3.org/2000/svg" viewBox="0 0 279810 267942">
  <path d="M 108590,21350 C 129336,21350 148753,29473 163459,44179 C 193747,74527 193747,124051 163459,154400 C 148753,169166 129245,177229 108590,177229 C 87875,177229 68397,169106 53691,154400 C 23433,124051 23433,74527 53691,44179 C 68397,29443 87875,21350 108590,21350 Z M 187073,160318 L 251636,225152 C 256347,229863 256347,237503 251636,242214 L 250790,243059 C 248435,245385 245355,246562 242244,246562 C 239225,246562 236114,245385 233729,243059 L 169166,178165 C 169166,178165 175900,172125 178679,169740 C 181396,167324 187073,160318 187073,160318 Z M 108590,0 C 82137,0 57285,10358 38592,29080 C 30,67763 30,130785 38592,169529 C 57285,188251 82137,198578 108590,198578 C 123206,198578 137278,195347 150202,189338 L 154068,193294 L 218630,258128 C 224941,264439 233306,267942 242244,267942 C 251183,267942 259608,264439 265889,258128 L 266704,257282 C 279780,244267 279780,223099 266795,209993 L 202202,145220 L 198216,141173 C 215278,104393 208755,59338 178588,29080 C 159896,10328 135043,0 108590,0 Z" fill="#29B5E8" />
</svg>