<?xml version="1.0" encoding="utf-8"?>
<svg xmlns="http://www.w3.org/2000/svg" viewBox="0 0 201137 213765">
  <path d="M 179925,52156 L 189857,68726 L 189857,72994 L 189533,72994 C 185091,72994 179925,70673 179925,67728 L 179925,52156 Z M 122005,38156 L 122005,76313 L 58544,76313 L 58544,38156 Z M 52905,26877 C 49785,26877 47240,29447 47240,32541 L 47240,82027 C 47240,85147 49785,87667 52905,87667 L 127645,87667 C 130764,87667 133284,85147 133284,82027 L 133284,32541 C 133309,29447 130789,26877 127645,26877 Z M 141320,17693 L 141320,183719 L 38905,183719 L 38905,17693 Z M 29996,25 C 25155,25 21137,3993 21137,8884 L 21137,183719 L 8884,183719 C 4018,183719 25,187637 25,192528 L 25,204906 C 25,209747 3943,213765 8884,213765 L 171366,213765 C 176232,213765 180225,209822 180225,204906 L 180225,192528 C 180225,187662 176307,183719 171366,183719 L 158963,183719 L 158963,98398 L 163156,98398 C 163804,98398 164328,98473 164653,98523 L 164653,135606 C 164653,145663 172863,153848 182895,153848 C 192952,153848 201137,145663 201137,135606 L 201137,67154 C 201137,66131 200838,65133 200313,64234 L 186114,40377 C 185091,38655 183219,37632 181223,37632 L 164877,37632 C 161783,37632 159263,40178 159263,43297 C 159263,46366 161783,48937 164877,48937 L 168596,48937 L 168596,67678 C 168596,78059 179202,84273 189483,84273 L 189758,84273 L 189758,135606 C 189758,139474 186688,142568 182870,142568 C 179002,142568 175932,139474 175932,135606 L 175932,98398 C 175932,95029 174660,87093 163081,87093 L 158913,87093 L 158913,8884 C 158913,4018 154995,25 150054,25 Z" fill="#29B5E8" />
</svg>