<?xml version="1.0" encoding="utf-8"?>
<svg xmlns="http://www.w3.org/2000/svg" viewBox="0 0 273275 270465">
  <path d="M 17397,161337 C 22220,155937 32016,151945 44491,150184 L 44491,133595 C 44324,130523 44324,127443 44491,124370 C 45099,120430 45407,116449 45412,112462 C 45427,108720 43431,105260 40188,103404 L 24866,94515 L 45211,59879 L 59528,68265 C 63302,70498 68072,70094 71418,67259 L 72255,66588 C 80998,58028 91535,51525 103100,47551 C 107431,46231 110424,42272 110518,37739 L 110518,20966 L 152381,20966 L 152381,37739 C 152381,37739 161758,24958 172978,19104 L 172978,15985 C 172978,4680 168306,50 162595,0 L 100085,0 C 94355,9 89713,4660 89703,10399 L 89703,30275 C 80205,34313 71405,39832 63631,46628 L 46886,36732 C 45282,35804 43463,35312 41611,35307 C 37927,35287 34512,37237 32652,40422 L 1539,93089 C -20,95594 -417,98654 451,101475 C 1226,104178 3030,106467 5475,107849 L 24732,118751 C 24164,123764 23857,128803 23811,133847 L 23811,149613 Z M 222493,135407 C 222631,141541 222182,147674 221154,153723 C 220084,158265 222220,162957 226345,165128 L 241834,173515 L 221238,209157 L 205246,200770 C 203729,199945 202031,199514 200306,199512 C 197977,199509 195709,200276 193859,201693 C 184006,210462 172425,217062 159866,221066 C 155427,222357 152362,226416 152331,231045 L 152331,247399 L 120029,247399 C 116881,259140 106633,268365 104640,268365 L 162545,268365 C 168257,268309 172872,263687 172927,257966 L 172927,237838 C 183046,233731 192545,228226 201143,221485 L 220317,231800 C 221857,232652 223582,233112 225340,233142 C 229059,233130 232484,231111 234299,227858 L 265278,174186 C 266550,171698 266820,168817 266031,166135 C 265231,163420 263397,161131 260924,159761 L 242504,149697 C 243001,144345 243196,138969 243090,133595 C 243090,131080 243090,130107 243090,127691 C 244966,126668 235672,132891 222493,135407 Z" fill="#29B5E8" />
  <path d="M 113355,193249 L 191137,122602 C 220398,135869 254856,122864 268100,93555 C 274337,79754 274960,64062 269840,49808 C 268937,47238 266804,45296 264163,44642 C 261537,44039 258783,44739 256761,46521 L 231058,70003 C 226674,74123 219786,73904 215672,69513 C 211559,65123 211777,58223 216161,54103 C 216251,54017 216345,53933 216439,53851 L 242210,30368 C 245502,27358 245735,22244 242729,18947 C 242722,18941 242717,18935 242712,18929 C 242006,18161 241158,17535 240217,17085 C 211435,3080 176768,15098 162786,43928 C 156045,57828 155117,73848 160208,88436 L 81656,159821 M 177104,87279 C 167479,66120 176801,41153 197924,31513 C 205060,28255 212964,27063 220742,28071 L 205672,41774 C 194575,51793 193685,68925 203687,80041 C 213689,91157 230795,92047 241892,82029 L 242042,81895 L 257113,68191 C 257788,91469 239495,110888 216256,111565 C 208441,111792 200717,109835 193950,105913 C 190276,103757 186964,101034 184137,97845 C 181270,94691 178883,91131 177054,87279 Z M 96023,168610 L 167844,103380 C 169195,105223 170644,106992 172181,108681 C 173738,110358 175379,112035 177087,113528 L 105200,178825 C 102583,175046 99500,171614 96023,168610 Z" fill="#29B5E8" />
  <path d="M 83202,159106 C 53942,145839 19484,158844 6239,188153 C 2,201954 -622,217646 4500,231900 C 5407,234466 7539,236407 10176,237066 C 12801,237668 15556,236970 17578,235187 L 43282,211705 C 47665,207584 54553,207804 58667,212195 C 62780,216585 62561,223485 58178,227606 C 58087,227691 57994,227775 57900,227858 L 32129,251339 C 28840,254380 28636,259516 31672,262810 C 32367,263565 33198,264179 34122,264623 C 62903,278619 97561,266606 111552,237787 C 118313,223532 119274,207202 114231,192249 M 97285,194429 C 106915,215585 97599,240555 76478,250201 C 69317,253471 61383,254662 53580,253637 L 68650,239934 C 79748,229916 80637,212782 70635,201667 C 60633,190551 43528,189661 32431,199679 L 32280,199813 L 17209,213517 C 16741,201246 21756,189404 30890,181212 C 44373,168646 64497,166442 80372,175795 C 84040,177979 87340,180731 90151,183946 C 93029,187071 95432,190603 97285,194429 Z" fill="#29B5E8" />
</svg>