<?xml version="1.0" encoding="utf-8"?>
<svg xmlns="http://www.w3.org/2000/svg" viewBox="0 0 244821 244821">
  <path d="M 188818,19381 L 213223,46614 L 30033,46614 L 52132,19381 Z M 145690,78706 C 141408,78706 137921,82165 137921,86448 C 137921,90730 141408,94189 145690,94189 L 200101,94189 C 204384,94189 207843,90730 207843,86448 C 207843,82165 204384,78706 200101,78706 Z M 47520,76702 C 42140,76702 37775,81095 37775,86448 C 37775,91774 42140,96138 47520,96193 C 52928,96193 57266,91774 57266,86448 C 57266,81067 52846,76702 47520,76702 Z M 225385,66023 L 225385,109810 L 19436,109810 L 19436,66023 Z M 145718,136960 C 141435,136960 137976,140419 137976,144702 C 137976,148984 141435,152443 145718,152443 L 200156,152443 C 204411,152443 207897,148984 207897,144702 C 207897,140419 204384,136960 200156,136960 Z M 47465,134956 C 42057,134956 37747,139349 37747,144702 C 37747,150083 42085,154448 47465,154448 C 52846,154448 57211,150028 57211,144702 C 57211,139349 52846,134984 47465,134956 Z M 225302,122246 L 225302,169327 L 19381,169327 L 19381,122246 Z M 145718,196230 C 141435,196230 137976,199689 137976,203972 C 137976,208199 141435,211713 145718,211713 L 200156,211713 C 204411,211713 207897,208254 207897,203972 C 207897,199689 204384,196230 200156,196230 Z M 47465,194226 C 42057,194226 37747,198591 37747,203972 C 37747,209352 42085,213662 47465,213662 C 52846,213662 57211,209298 57211,203972 C 57211,198591 52846,194281 47465,194226 Z M 225302,181763 L 225302,211768 C 225385,223463 222310,225385 212619,225385 L 28084,225385 C 20040,225385 19381,225385 19381,211768 L 19381,181763 Z M 47520,27 C 44610,27 41810,1318 39971,3651 L 2196,50238 C 1620,50979 1208,51666 851,52489 C 851,52571 796,52571 796,52599 C 357,53670 192,54823 110,55948 C 110,56113 27,56223 27,56360 L 27,211796 C 27,223381 27,244821 28111,244821 L 212647,244821 C 227334,244821 244821,239111 244821,211796 L 244821,56360 C 244794,56113 244656,55948 244656,55838 C 244629,54850 244409,53944 244135,53066 C 243997,52846 243997,52599 243915,52407 C 243503,51473 242982,50622 242295,49826 L 200430,3239 C 198591,1208 195956,27 193210,27 Z" fill="#29B5E8" />
</svg>