<?xml version="1.0" encoding="utf-8"?>
<svg xmlns="http://www.w3.org/2000/svg" viewBox="0 0 340076 217213">
  <path d="M 327019,173296 L 327019,87254 C 334722,83491 340076,75637 340076,66520 C 340076,57403 334722,49549 327019,45786 L 327019,13057 L 171983,13057 C 168220,5354 160366,0 151249,0 C 142132,0 134278,5354 130515,13057 L 43892,13057 C 40129,5354 32275,0 23158,0 C 10405,0 0,10380 0,23158 C 0,32023 5051,39624 12375,43539 L 12375,172993 C 5051,176882 0,184509 0,193373 C 0,206152 10380,216531 23158,216531 C 31997,216531 39624,211480 43513,204157 L 296184,204157 C 299947,211859 307801,217213 316918,217213 C 329671,217213 340076,206834 340076,194055 C 340076,184913 334722,177084 327019,173321 Z M 23158,206404 C 15961,206404 10102,200545 10102,193348 C 10102,186150 15961,180291 23158,180291 C 30356,180291 36215,186150 36215,193348 C 36215,200545 30356,206404 23158,206404 Z M 23158,10102 C 30356,10102 36215,15961 36215,23158 C 36215,30356 30356,36215 23158,36215 C 15961,36215 10102,30356 10102,23158 C 10102,15961 15961,10102 23158,10102 Z M 151249,10102 C 158446,10102 164305,15961 164305,23158 C 164305,30356 158446,36215 151249,36215 C 144051,36215 138192,30356 138192,23158 C 138192,15961 144051,10102 151249,10102 Z M 134682,39296 L 101093,90764 C 99427,90259 97684,89906 95815,89906 C 93290,89906 90891,90436 88694,91370 L 42781,35331 C 43185,34674 43539,33992 43892,33285 L 130490,33285 C 131576,35508 132965,37553 134682,39321 Z M 35684,42579 L 80890,97760 C 78895,100664 77708,104200 77708,107988 C 77708,111776 78819,115084 80713,117938 L 33841,172942 C 33412,172715 33033,172462 32578,172260 L 32578,44271 C 33664,43791 34700,43236 35659,42579 Z M 88365,124454 C 90638,125489 93138,126095 95815,126095 C 102255,126095 107862,122711 111069,117660 L 176604,136601 C 147814,144556 88795,160997 46266,173902 L 88390,124454 Z M 113897,107963 C 113897,103467 112205,99427 109478,96270 L 143117,44776 C 145642,45736 148344,46317 151198,46317 C 157638,46317 163447,43665 167664,39397 L 203222,61621 C 202793,63187 202465,64803 202465,66520 C 202465,72531 205419,77809 209915,81092 L 196353,118519 C 195949,118494 195545,118393 195141,118393 C 188625,118393 182968,121853 179786,127004 L 113897,107937 Z M 219436,84501 C 219815,84501 220193,84628 220597,84628 C 228830,84628 235699,79097 237897,71571 L 294340,71571 C 294492,72202 294719,72783 294896,73364 L 207819,123595 C 207213,123014 206556,122484 205874,121979 L 219461,84501 Z M 329949,66520 C 329949,73718 324090,79577 316893,79577 C 309695,79577 303836,73718 303836,66520 C 303836,59323 309695,53464 316893,53464 C 324090,53464 329949,59323 329949,66520 Z M 306791,33260 L 306791,45786 C 300553,48842 295881,54549 294340,61469 L 237897,61469 C 235699,53943 228830,48413 220597,48413 C 215976,48413 211784,50206 208601,53059 L 176933,33260 L 306816,33260 Z M 296159,183928 L 48034,183928 C 90764,170922 151072,154128 179912,146172 C 183120,151249 188751,154633 195191,154633 C 200899,154633 205924,151930 209258,147789 L 296840,182741 C 296613,183145 296386,183524 296209,183928 Z M 304063,174786 L 213046,138470 C 213122,137813 213248,137182 213248,136525 C 213248,135061 213021,133646 212693,132283 L 299871,82127 C 301816,84249 304164,85991 306765,87279 L 306765,173321 C 305831,173776 304897,174230 304038,174811 Z" fill="#29B5E8" />
</svg>