<?xml version="1.0" encoding="utf-8"?>
<svg xmlns="http://www.w3.org/2000/svg" viewBox="0 0 276156 228444">
  <path d="M 70330,111308 L 70330,207185 L 21350,207185 L 21350,111308 Z M 165392,13740 C 166539,13740 167717,13981 168834,14465 C 176323,17635 185835,34123 174390,75403 C 173877,77457 174209,79661 175538,81322 C 176836,83013 178830,84040 180943,84040 L 244358,84040 C 259729,84040 262477,87633 262477,97719 C 262477,104061 261359,105268 261299,105268 C 261299,105268 260755,105570 259185,105570 L 215610,105570 C 211835,105570 208755,108590 208755,112395 C 208755,116200 211805,119189 215610,119189 L 257373,119189 C 259608,120639 261208,123629 261631,127403 C 262024,131450 260755,137036 256648,140690 L 215670,140690 C 211896,140690 208846,143740 208846,147545 C 208846,151350 211835,154370 215670,154370 L 254655,154370 C 255622,158084 255712,163006 253961,167596 C 252391,171673 249733,174481 246140,175870 L 215761,175870 C 211986,175870 208876,178920 208876,182755 C 208876,186560 211896,189550 215761,189550 L 241429,189550 C 241248,193415 240040,197914 237050,201931 C 233819,206007 227689,210990 216274,210990 L 120367,210990 C 118948,210990 115354,209752 112425,207185 C 106658,202112 99289,199334 91619,199303 L 91619,118616 C 99561,117317 106839,113422 112244,106839 C 112667,106476 113150,106114 113603,105691 L 114358,105117 C 134711,89113 147666,72534 153947,54446 C 154219,53691 154641,53027 155064,52242 C 156423,49886 158023,46927 158023,43243 L 158023,17515 C 160016,15038 162674,13740 165392,13740 Z M 165361,30 C 157510,30 150021,4228 145431,11747 C 144767,12834 144404,14102 144404,15310 L 144404,43031 C 144314,43515 143649,44722 143196,45568 C 142381,47048 141626,48437 141143,49886 C 135647,65468 124172,80023 105359,94820 C 104212,95605 102822,96692 101766,98051 C 99018,101403 95484,103608 91619,104725 L 91619,100648 C 91619,94730 86878,89958 80959,89958 L 10690,89958 C 4801,89958 0,94730 0,100648 L 0,217754 C 0,223643 4801,228444 10690,228444 L 80959,228444 C 86878,228444 91619,223643 91619,217754 L 91619,212862 C 95937,212953 100135,214523 103366,217362 C 108318,221770 114992,224639 120367,224639 L 216274,224639 C 229501,224639 240734,219475 247770,210084 C 252662,203652 255169,195529 255018,187889 C 255924,187194 256679,186288 257101,185171 C 261299,182030 264590,177773 266583,172428 C 269150,165784 269422,158174 267852,151591 C 268697,150444 269301,149115 269301,147545 C 269301,147364 269241,147273 269241,147152 C 273680,141354 275975,133956 275250,126105 C 274797,121726 273499,117710 271475,114418 C 276156,109194 276156,101131 276156,97628 C 276156,70360 253085,70360 244388,70360 L 189791,70360 C 199122,29110 188312,7942 174300,1902 C 171371,634 168351,30 165361,30 Z" fill="#29B5E8" />
</svg>