<?xml version="1.0" encoding="utf-8"?>
<svg xmlns="http://www.w3.org/2000/svg" viewBox="0 0 244796 205144">
  <path d="M 35280,37541 C 38395,37541 40908,35028 40908,31913 C 40908,28797 38395,26284 35280,26284 C 32164,26284 29651,28797 29651,31913 C 29651,31913 29651,31913 29651,31913 C 29651,35028 32164,37541 35280,37541 C 35280,37541 35280,37541 35280,37541 Z M 57744,37541 C 60860,37541 63373,35028 63322,31913 C 63322,28797 60810,26284 57694,26334 C 54578,26334 52065,28847 52115,31963 C 52115,35028 54628,37541 57744,37541 C 57744,37541 57744,37541 57744,37541 Z M 80158,37541 C 83274,37541 85787,35028 85787,31913 C 85787,28797 83274,26284 80158,26284 C 77042,26284 74529,28797 74529,31913 C 74529,31913 74529,31913 74529,31913 C 74580,35028 77042,37541 80158,37541 C 80158,37541 80158,37541 80158,37541 Z M 235198,0 L 9599,0 C 4322,0 0,4272 0,9599 L 0,9599 L 0,195546 C 0,200822 4272,205144 9599,205144 L 235198,205144 C 240474,205144 244796,200873 244796,195546 L 244796,9599 C 244796,4322 240525,0 235198,0 L 235198,0 Z M 225649,19198 L 225649,45180 L 19198,45180 L 19198,19198 L 225649,19198 Z M 19198,185947 L 19198,57392 L 225649,57392 L 225649,185947 L 19198,185947 Z M 185595,117197 L 151120,98049 C 148355,96491 144838,97496 143280,100261 C 141722,103025 142727,106542 145491,108100 L 145491,108100 L 171121,122323 L 145390,137249 C 142626,138857 141722,142375 143330,145089 C 144335,146847 146245,147953 148305,147953 C 149310,147953 150315,147702 151170,147199 L 185645,127197 C 188409,125590 189314,122121 187756,119358 C 187304,118453 186550,117699 185595,117197 Z M 97647,137198 L 72017,122976 L 97748,108050 C 100512,106442 101417,102924 99808,100210 C 98200,97496 94682,96541 91968,98150 L 91968,98150 L 57493,118151 C 54729,119760 53824,123277 55382,125991 C 55885,126896 56638,127650 57543,128152 L 92018,147300 C 94783,148858 98300,147853 99858,145089 C 101417,142324 100461,138706 97647,137198 L 97647,137198 Z M 129660,87847 C 126594,87143 123479,89003 122775,92119 C 122775,92119 122775,92119 122775,92169 L 109206,150567 C 108502,153682 110412,156748 113528,157451 C 113528,157451 113528,157451 113528,157451 L 114835,157602 C 117498,157602 119810,155743 120413,153180 L 133982,94782 C 134736,91666 132776,88551 129660,87847 C 129710,87847 129710,87847 129660,87847 Z" fill="#29B5E8" />
</svg>