<?xml version="1.0" encoding="utf-8"?>
<svg xmlns="http://www.w3.org/2000/svg" viewBox="0 0 274314 212077">
  <path d="M 169649,51879 L 56228,118163 L 32130,96179 L 169649,51879 Z M 210416,43998 L 82107,141173 C 80265,141656 78574,142411 77185,143891 C 72776,148602 68065,153494 63717,158023 C 64049,149780 64502,140388 64985,131570 C 65045,130725 64985,129849 64864,129094 L 210416,43998 Z M 224398,50490 L 137399,184960 L 96541,147334 L 224398,50490 Z M 262839,0 C 261752,0 260665,151 259608,483 L 8002,81443 C 4348,82651 1661,85640 815,89354 C 0,93038 1268,96994 4046,99501 L 43364,135345 C 40465,187708 41220,188281 46323,192177 C 48225,193657 50551,194442 52906,194442 C 54023,194442 55171,194260 56228,193898 C 58976,192992 60184,192600 85399,166147 L 132144,209238 C 134077,211111 136734,212047 139392,212047 C 139814,212047 140267,212017 140720,211926 C 143861,211503 146699,209812 148360,207125 L 271898,16548 C 274314,12743 274133,7791 271385,4228 C 269301,1510 266130,0 262839,0 Z" fill="#29B5E8" />
</svg>