<?xml version="1.0" encoding="utf-8"?>
<svg xmlns="http://www.w3.org/2000/svg" viewBox="0 0 235151 276577">
  <path d="M 80685,125819 L 64741,125819 L 64741,103700 C 64741,84183 78844,70565 99015,70565 C 101150,70565 103242,71475 104749,73080 L 117429,86525 L 128979,73297 C 130486,71562 132620,70565 134880,70565 C 155470,70565 170452,84487 170452,103700 L 170452,125819 L 154508,125819 L 154508,103700 C 154508,92944 146347,88303 138228,87306 L 123497,104134 C 122032,105825 119940,106823 117722,106823 C 115546,106823 113412,105955 111863,104351 L 95793,87306 C 90018,88000 80644,91123 80644,103700 L 80685,125819 Z M 235151,142517 L 235151,163552 C 235151,166545 233603,169320 231050,170752 L 188949,195126 L 188949,268293 C 188949,268293 188949,268293 188949,268293 C 188949,272847 185392,276577 180956,276577 C 176562,276577 172963,272891 172963,268293 L 172963,168540 C 172963,168540 172963,168540 172963,168540 C 172963,163986 176520,160256 180956,160256 C 185350,160256 188949,163942 188949,168540 L 188949,176173 L 219206,158651 L 219206,150714 L 15986,150714 L 15986,158651 L 46202,176130 L 46202,168540 C 46285,164116 49717,160560 53986,160473 C 58380,160386 62062,163986 62146,168540 L 62146,268293 C 62062,272717 58631,276273 54362,276360 C 49968,276447 46285,272847 46202,268293 L 46202,195126 L 4101,170752 C 1590,169277 0,166545 0,163552 L 0,142517 C 0,142517 0,142517 0,142517 C 0,137963 3557,134233 7993,134233 L 189828,134233 L 189828,75639 L 171498,63148 C 170159,63842 168653,64189 167146,64189 C 161496,64189 156935,59462 156935,53607 C 156935,47751 161496,43024 167146,43024 C 172796,43024 177357,47751 177357,53607 L 177274,54431 L 197696,68353 C 199119,69350 199998,70998 199998,72777 L 199998,134233 L 227074,134233 C 231552,134233 235151,137920 235151,142517 Z M 174763,60676 C 174260,61240 173716,61760 173130,62194 C 173716,61760 174260,61240 174763,60676 Z M 172503,62584 C 172252,62758 172001,62888 171749,63018 C 172001,62888 172252,62758 172503,62584 Z M 176227,58421 C 176018,58811 175809,59201 175558,59592 C 175809,59245 176060,58811 176227,58421 Z M 200081,142040 L 189870,142040 L 189870,142040 L 200081,142040 L 200081,142040 Z M 151201,165287 C 151201,165287 151201,165287 151201,165287 L 83950,165287 C 81146,165287 78844,167672 78844,170578 L 78844,249036 C 78844,251942 81146,254328 83950,254328 C 86754,254328 89055,251942 89055,249036 C 89055,249036 89055,249036 89055,249036 L 89055,175869 L 146096,175869 L 146096,249036 C 146012,251942 148230,254414 151034,254458 C 153838,254545 156223,252246 156265,249340 C 156265,249253 156265,249123 156265,249036 L 156265,170578 C 156307,167672 154047,165287 151201,165287 Z M 88971,38036 L 88971,29969 C 88971,13445 101819,0 117597,0 C 133374,0 146221,13445 146221,29969 L 146221,38036 C 146221,54604 133374,68049 117597,68049 C 101777,68006 88971,54561 88971,38036 Z M 104916,38036 C 104916,45453 110608,51481 117597,51481 C 124585,51481 130277,45453 130277,38036 L 130277,29969 C 130277,22553 124585,16524 117597,16524 C 110608,16524 104916,22553 104916,29969 L 104916,38036 Z" fill="#29B5E8" />
</svg>