<?xml version="1.0" encoding="utf-8"?>
<svg xmlns="http://www.w3.org/2000/svg" viewBox="0 0 289170 289172">
  <path d="M 225414,42416 L 221145,42684 L 213944,45884 L 208608,51220 L 205674,58421 L 205407,62423 L 205674,66425 L 208608,73628 L 213944,79230 L 221145,82163 L 225414,82430 L 229415,82163 L 236617,79230 L 241953,73628 L 245154,66425 L 245421,62423 L 245154,58421 L 241953,51220 L 236617,45884 L 229415,42684 L 225414,42416 Z" fill="#29B5E8" />
  <path d="M 289170,43483 L 288903,38949 L 287302,30412 L 283834,22677 L 279299,15741 L 273431,9872 L 266495,5071 L 258760,1868 L 250223,269 L 245688,2 L 169661,2 L 166460,269 L 160057,1336 L 153921,4002 L 148587,7471 L 146186,9872 L 14405,141652 L 10938,145387 L 5336,153656 L 1601,162726 L 2,172062 L 2,181666 L 1601,191269 L 5336,200073 L 10938,208608 L 14405,212343 L 76829,274765 L 80562,278233 L 88832,283569 L 97903,287304 L 107506,289170 L 117110,289170 L 126446,287304 L 135516,283569 L 143785,278233 L 147520,274765 L 279299,142986 L 281433,140585 L 285168,134983 L 287569,129114 L 288903,122712 L 289170,119511 Z M 245688,20009 L 250490,20276 L 258760,24011 L 265161,30145 L 268629,38682 L 269163,43483 L 269163,119511 L 268896,121912 L 266762,126714 L 265161,128847 L 133382,260627 L 128847,264629 L 117910,268896 L 106439,268896 L 95502,264629 L 90967,260627 L 28544,198205 L 24543,193403 L 20009,182733 L 20009,170995 L 24543,160325 L 28544,155790 L 160324,24011 L 162191,22142 L 166993,20276 L 169661,20009 Z" fill="#29B5E8" />
</svg>