<?xml version="1.0" encoding="utf-8"?>
<svg xmlns="http://www.w3.org/2000/svg" viewBox="0 0 267027 267022">
  <path d="M 132187,6992 C 127275,2096 120481,-432 113563,61 L 28377,6241 C 16553,7153 7158,16548 6246,28372 L 66,113558 C -449,120479 2082,127281 6998,132181 L 135026,260211 C 144311,269292 159149,269292 168433,260211 L 260217,168845 C 269298,159561 269298,144723 260217,135439 Z M 245768,154480 L 154486,245762 C 152815,247517 151479,247517 149725,245762 L 21446,117650 C 20888,116880 20676,115911 20861,114977 L 26707,29876 C 26751,28141 28147,26746 29881,26702 L 114983,20856 L 114983,20856 C 115897,20826 116779,21191 117405,21858 L 245768,149553 C 246410,150195 246770,151066 246770,151975 C 246766,152907 246408,153802 245768,154480 Z" fill="#29B5E8" />
  <path d="M 70971,50421 C 59811,50191 50578,59052 50350,70212 C 50120,81373 58981,90604 70141,90834 C 81300,91063 90533,82202 90762,71042 C 90763,71017 90763,70991 90764,70965 C 90996,59852 82175,50654 71061,50423 C 71031,50422 71001,50421 70971,50421 Z M 70971,77646 C 67056,77871 63702,74880 63478,70965 C 63253,67051 66245,63696 70159,63472 C 74073,63248 77428,66239 77652,70153 C 77667,70424 77667,70695 77652,70965 C 77446,74567 74571,77440 70971,77646 Z" fill="#29B5E8" />
</svg>