<?xml version="1.0" encoding="utf-8"?>
<svg xmlns="http://www.w3.org/2000/svg" viewBox="0 0 265820 285915">
  <path d="M 94630,64138 L 94630,64138 C 91607,68788 88950,74269 86824,80347 C 82872,80048 79085,79683 75332,79251 C 80613,72940 87223,67792 94630,64138 Z M 145382,64138 L 145382,64138 C 152822,67792 159432,72940 164647,79251 C 160894,79683 157041,80048 153121,80347 C 151029,74269 148438,68788 145382,64138 Z M 115688,58492 L 115688,81676 C 108779,81576 101904,81377 95194,80978 C 99014,71014 104229,63208 110241,59189 C 112068,58824 113861,58591 115688,58492 Z M 123726,58492 C 125752,58591 127745,58824 129738,59189 C 135783,63208 141031,71014 144784,81011 C 137876,81410 130801,81676 123726,81709 L 123726,58492 Z M 70183,86658 C 74833,87289 79616,87721 84566,88186 C 82739,95560 81576,103664 81344,112234 L 62145,112234 C 62810,102933 65600,94297 70183,86658 Z M 92703,88850 C 100143,89348 107882,89614 115688,89647 L 115688,112234 L 89282,112234 C 89647,103897 90777,96025 92703,88850 Z M 147342,88850 C 149202,96025 150398,103897 150697,112234 L 123726,112234 L 123726,89647 C 131797,89614 139702,89348 147342,88850 Z M 169829,86691 C 174313,94297 177169,102933 177833,112300 L 158735,112300 C 158502,103697 157340,95659 155513,88286 C 160462,87821 165178,87322 169829,86691 Z M 115688,120238 L 115688,142858 C 107916,142924 100243,143157 92703,143655 C 90777,136514 89647,128575 89282,120238 Z M 150697,120238 C 150398,128575 149202,136514 147342,143655 C 139603,143157 131664,142924 123726,142858 L 123726,120238 Z M 81344,120238 C 81576,128808 82739,136912 84566,144319 C 79616,144751 74833,145249 70183,145847 C 65600,138241 62810,129572 62145,120238 Z M 177833,120238 C 177169,129572 174313,138241 169829,145847 C 165178,145249 160395,144751 155480,144319 C 157306,136912 158436,128808 158735,120238 Z M 86924,152158 C 88983,158203 91607,163750 94663,168334 C 87223,164713 80613,159532 75365,153221 C 79118,152789 82971,152457 86924,152158 Z M 153121,152158 C 157041,152457 160894,152789 164647,153221 C 159432,159532 152822,164713 145382,168334 C 148372,163750 151029,158203 153121,152158 Z M 115688,150929 L 115688,174080 C 113861,173947 112068,173715 110241,173416 C 104229,169264 99014,161525 95194,151560 C 101970,151195 108779,150962 115688,150929 Z M 123726,150829 C 130867,150929 137876,151162 144784,151494 C 141031,161525 135783,169264 129738,173416 C 127745,173715 125752,173947 123726,174080 L 123726,150829 Z M 120006,45471 C 81011,45471 49225,77225 49225,116253 C 49225,155247 81011,187001 120006,187001 C 159034,187001 190787,155247 190787,116253 C 190787,77225 159034,45471 120006,45471 Z M 119674,0 C 117847,0 115954,33 114094,133 C 54606,2989 5348,51782 1993,111270 C 0,146877 13984,181055 40223,205070 C 44508,208956 46335,214536 45305,219950 C 44143,225298 47664,230612 53144,231642 C 53808,231808 54506,231874 55170,231874 C 59820,231874 63972,228553 64869,223803 C 67327,211480 63142,198991 53742,190355 C 31920,170393 20328,141928 21955,112333 C 24778,62976 65600,22487 115090,20095 C 116784,20029 118478,19995 120172,19995 C 145415,19995 169131,29561 187432,47099 C 207063,65733 217824,90976 217824,118013 C 217824,121467 217824,122962 244097,162156 L 232904,162156 C 227390,162156 222906,166706 222906,172187 L 222906,215566 C 222906,219086 220382,220847 217857,221013 L 175243,223504 C 169928,223803 165843,228187 165843,233535 L 165843,275950 C 165843,281431 170327,285915 175807,285915 C 181288,285915 185772,281431 185772,275950 L 185772,242935 L 218954,240975 C 232505,240178 242835,229250 242835,215566 L 242835,182118 L 245160,182118 C 252534,182118 259144,178033 262498,171423 C 265820,164780 265122,156974 260937,151560 C 251405,137211 240809,120936 237753,115688 C 237155,83968 224168,54539 201184,32584 C 179029,11426 150265,0 119674,0 Z" fill="#29B5E8" />
</svg>