<?xml version="1.0" encoding="utf-8"?>
<svg xmlns="http://www.w3.org/2000/svg" viewBox="0 0 243698 304216">
  <path d="M 147640,15113 L 147640,37666 L 96157,37666 L 96157,15113 Z M 140732,52712 L 140732,62311 C 134587,61315 128309,60684 121866,60684 C 115488,60684 109277,61315 103166,62311 L 103166,52712 Z M 154815,142127 C 152888,142127 150929,142824 149467,144286 L 116518,177102 C 115090,178531 114293,180490 114293,182450 L 114293,241838 C 114293,245957 117647,249345 121799,249345 C 125951,249345 129339,245957 129339,241838 L 129339,185605 L 160063,155048 C 163019,152091 163119,147308 160162,144352 C 158701,142858 156775,142127 154815,142127 Z M 121866,107650 C 163119,107650 196666,141197 196666,182450 C 196666,223703 163119,257250 121866,257250 C 80613,257250 47066,223703 47066,182450 C 47066,141230 80613,107650 121866,107650 Z M 121866,98217 C 75431,98217 37666,136049 37666,182450 C 37666,228884 75431,266650 121866,266650 C 168300,266650 206099,228884 206099,182450 C 206099,136049 168300,98217 121866,98217 Z M 121866,84100 C 176072,84100 220215,128210 220215,182450 C 220215,236657 176072,280799 121866,280799 C 67692,280799 23516,236723 23516,182450 C 23516,128243 67592,84100 121866,84100 Z M 88651,33 C 84499,33 81111,3421 81111,7507 L 81111,45106 C 81111,49092 84266,52247 88152,52513 L 88152,65434 C 37367,80115 33,126981 33,182350 C 33,249577 54672,304183 121866,304183 C 189093,304183 243665,249577 243665,182350 C 243665,127014 206431,80214 155778,65467 L 155778,52513 C 159598,52148 162687,49059 162687,45106 L 162687,7507 C 162687,3421 159299,33 155147,33 Z" fill="#29B5E8" />
</svg>