<?xml version="1.0" encoding="utf-8"?>
<svg xmlns="http://www.w3.org/2000/svg" viewBox="0 0 229839 256374">
  <path d="M 204670,108296 L 192612,108296 L 192612,10261 C 192612,4597 188083,6 182495,6 L 58269,6 C 55152,-105 52161,1259 50177,3698 L 2347,61124 C 832,62998 3,65346 0,67769 L 0,246119 C -45,251737 4412,256329 9954,256373 C 10008,256374 10062,256374 10117,256373 L 182495,256373 C 188037,256418 192567,251902 192612,246284 C 192613,246229 192613,246174 192612,246119 L 192612,216585 L 204670,216585 C 217961,217097 229184,206671 229839,193204 L 229839,131677 C 229184,118210 217961,107785 204670,108296 Z M 50905,34954 L 50905,61535 L 28730,61535 Z M 172299,235865 L 20637,235865 L 20637,82044 L 61102,82044 C 66644,82089 71174,77572 71218,71954 C 71219,71899 71219,71844 71218,71789 L 71218,20516 L 172379,20516 L 172379,108296 L 58026,108296 C 44735,107785 33513,118210 32858,131677 L 32858,193204 C 33513,206671 44735,217097 58026,216585 L 172379,216585 Z M 216810,193204 C 216212,199448 210752,204031 204590,203459 L 58026,203459 C 51864,204031 46404,199448 45806,193204 L 45806,131677 C 46404,125433 51864,120850 58026,121422 L 204670,121422 C 210833,120850 216293,125433 216890,131677 Z" fill="#29B5E8" />
  <path d="M 52280,148002 L 65472,148002 L 65472,188692 L 73241,188692 L 73241,148002 L 86432,148002 L 86432,141029 L 52280,141029 L 52280,148002 Z" fill="#29B5E8" />
  <path d="M 101162,141029 L 93393,141029 L 93393,188692 L 121799,188692 L 121799,181719 L 101162,181719 L 101162,141029 Z" fill="#29B5E8" />
  <path d="M 142030,139963 C 129614,140421 119913,150997 120366,163584 C 120378,163914 120397,164244 120422,164574 C 118957,176717 127479,187765 139457,189251 C 151436,190738 162335,182099 163801,169956 C 164017,168168 164017,166362 163801,164574 C 164746,151969 155433,140974 142998,140016 C 142676,139991 142354,139973 142030,139963 Z M 142030,182212 C 133938,182212 128434,174665 128434,164903 C 128434,155139 133938,147510 142030,147510 C 150124,147510 155789,155058 155789,164903 C 156849,173352 150952,181073 142616,182148 C 142421,182174 142226,182195 142030,182212 Z" fill="#29B5E8" />
  <path d="M 187352,168430 L 199815,168430 L 199815,169086 C 199815,177289 195364,182294 188323,182294 C 181283,182294 174807,174665 174807,164902 C 174807,155139 180230,147428 188485,147428 C 192559,147392 196464,149087 199248,152104 L 203942,146115 C 199964,141865 194336,139613 188566,139963 C 176187,140235 166372,150630 166642,163177 C 166653,163644 166677,164109 166715,164574 C 165637,177031 174725,188015 187015,189108 C 187450,189147 187886,189172 188323,189185 C 200705,189185 208150,179915 208150,165804 L 208150,161129 L 187352,161129 Z" fill="#29B5E8" />
</svg>