<?xml version="1.0" encoding="utf-8"?>
<svg xmlns="http://www.w3.org/2000/svg" viewBox="0 0 240239 240030">
  <path d="M 128082,90727 C 141551,56653 124847,18113 90774,4645 C 74717,-1702 56818,-1539 40880,5100 C 38012,6276 35926,8813 35327,11854 C 34784,14879 35734,17981 37878,20184 L 65945,48175 C 68265,50508 69561,53667 69548,56956 C 69574,63795 64053,69361 57214,69387 C 53901,69401 50720,68086 48384,65736 L 20317,37669 C 16694,34084 10849,34114 7264,37738 C 6429,38582 5765,39577 5308,40671 C -9005,74263 6623,113098 40215,127412 C 56388,134302 74639,134469 90935,127874 L 195398,232337 C 205657,242595 222288,242595 232545,232337 C 242804,222079 242804,205448 232545,195190 Z M 88683,108738 C 65149,120884 36224,111650 24078,88115 C 19971,80159 18175,71210 18891,62285 L 35327,78719 C 47404,90670 66851,90670 78928,78719 C 90989,66748 91062,47267 79091,35206 C 79037,35151 78982,35097 78928,35043 L 62493,18683 C 76431,17478 90183,22539 100015,32491 C 114987,47124 118614,69832 108946,88400 C 106696,92705 103784,96630 100316,100032 C 96889,103492 92969,106425 88683,108738 Z M 219488,219279 C 216392,222205 211552,222205 208456,219279 L 107520,118343 C 109533,116716 111462,114988 113299,113165 C 115148,111305 116902,109350 118552,107312 L 219488,208247 C 222492,211311 222492,216215 219488,219279 Z" fill="#29B5E8" />
</svg>