<?xml version="1.0" encoding="utf-8"?>
<svg xmlns="http://www.w3.org/2000/svg" viewBox="0 0 333337 214207">
  <path d="M 256106,57052 C 268003,57052 277644,66693 277644,78590 C 277644,90488 268003,100129 256106,100129 C 244208,100129 234567,90488 234567,78590 C 234567,66693 244208,57052 256106,57052 Z" fill="#29B5E8" />
  <path d="M 277644,135617 C 277644,123719 268003,114078 256106,114078 C 244208,114078 234567,123719 234567,135617 C 234567,147514 244208,157155 256106,157155 C 268003,157155 277644,147514 277644,135617 Z M 267798,135617 C 267798,142053 262567,147283 256131,147283 C 249695,147283 244464,142053 244464,135617 C 244464,129181 249695,123950 256131,123950 C 262567,123950 267798,129181 267798,135617 Z" fill="#29B5E8" />
  <path d="M 277644,192668 C 277644,180771 268003,171130 256106,171130 C 244208,171130 234567,180771 234567,192668 C 234567,204566 244208,214207 256106,214207 C 268003,214207 277644,204566 277644,192668 Z M 267798,192668 C 267798,199104 262567,204335 256131,204335 C 249695,204335 244464,199104 244464,192668 C 244464,186232 249695,181001 256131,181001 C 262567,181001 267798,186232 267798,192668 Z" fill="#29B5E8" />
  <path d="M 256106,43077 C 244208,43077 234567,33436 234567,21539 C 234567,9641 244208,0 256106,0 C 268003,0 277644,9641 277644,21539 C 277644,33436 268003,43077 256106,43077 Z" fill="#29B5E8" />
  <path d="M 311798,0 C 323696,0 333337,9641 333337,21539 C 333337,33436 323696,43077 311798,43077 C 299901,43077 290260,33436 290260,21539 C 290260,9641 299901,0 311798,0 Z" fill="#29B5E8" />
  <path d="M 290260,78565 C 290260,90462 299901,100103 311798,100103 C 323696,100103 333337,90462 333337,78565 C 333337,66667 323696,57026 311798,57026 C 299901,57026 290260,66667 290260,78565 Z M 300106,78565 C 300106,72129 305337,66898 311773,66898 C 318209,66898 323440,72129 323440,78565 C 323440,85001 318209,90231 311773,90231 C 305337,90231 300106,85001 300106,78565 Z" fill="#29B5E8" />
  <path d="M 311798,171130 C 323696,171130 333337,180771 333337,192668 C 333337,204566 323696,214207 311798,214207 C 299901,214207 290260,204566 290260,192668 C 290260,180771 299901,171130 311798,171130 Z" fill="#29B5E8" />
  <path d="M 202207,171130 C 214105,171130 223746,180771 223746,192668 C 223746,204566 214105,214207 202207,214207 C 190310,214207 180669,204566 180669,192668 C 180669,180771 190310,171130 202207,171130 Z" fill="#29B5E8" />
  <path d="M 311798,114078 C 323696,114078 333337,123719 333337,135617 C 333337,147514 323696,157155 311798,157155 C 299901,157155 290260,147514 290260,135617 C 290260,123719 299901,114078 311798,114078 Z" fill="#29B5E8" />
  <path d="M 202207,0 C 214105,0 223746,9641 223746,21539 C 223746,33436 214105,43077 202207,43077 C 190310,43077 180669,33436 180669,21539 C 180669,9641 190310,0 202207,0 Z" fill="#29B5E8" />
  <path d="M 69462,74616 C 73881,74616 77462,78198 77462,82616 L 77462,82590 C 77462,87009 73881,90591 69462,90591 L 53462,90591 C 49044,90591 45462,87009 45462,82590 L 45462,82616 C 45462,78198 49044,74616 53462,74616 Z" fill="#29B5E8" />
  <path d="M 136745,74616 C 141164,74616 144745,78198 144745,82616 L 144745,82590 C 144745,87009 141164,90591 136745,90591 L 101437,90591 C 97019,90591 93437,87009 93437,82590 L 93437,82616 C 93437,78198 97019,74616 101437,74616 Z" fill="#29B5E8" />
  <path d="M 197643,74616 C 202062,74616 205643,78198 205643,82616 L 205643,82590 C 205643,87009 202062,90591 197643,90591 L 168720,90591 C 164302,90591 160720,87009 160720,82590 L 160720,82616 C 160720,78198 164302,74616 168720,74616 Z" fill="#29B5E8" />
  <path d="M 21488,102411 C 25906,102411 29488,105993 29488,110411 L 29488,110386 C 29488,114804 25906,118386 21488,118386 L 8000,118386 C 3582,118386 0,114804 0,110386 L 0,110411 C 0,105993 3582,102411 8000,102411 Z" fill="#29B5E8" />
  <path d="M 144258,102411 C 148676,102411 152258,105993 152258,110411 L 152258,110386 C 152258,114804 148676,118386 144258,118386 L 53462,118386 C 49044,118386 45462,114804 45462,110386 L 45462,110411 C 45462,105993 49044,102411 53462,102411 Z" fill="#29B5E8" />
  <path d="M 176207,102411 C 180626,102411 184207,105993 184207,110411 L 184207,110386 C 184207,114804 180626,118386 176207,118386 L 176233,118386 C 171814,118386 168233,114804 168233,110386 L 168233,110411 C 168233,105993 171814,102411 176233,102411 Z" fill="#29B5E8" />
  <path d="M 209105,131309 C 213523,131309 217105,134891 217105,139309 L 217105,139283 C 217105,143702 213523,147283 209105,147283 L 132617,147283 C 128199,147283 124617,143702 124617,139283 L 124617,139309 C 124617,134891 128199,131309 132617,131309 Z" fill="#29B5E8" />
  <path d="M 105642,131309 C 110060,131309 113642,134891 113642,139309 L 113642,139283 C 113642,143702 110060,147283 105642,147283 L 48462,147283 C 44044,147283 40462,143702 40462,139283 L 40462,139309 C 40462,134891 44044,131309 48462,131309 Z" fill="#29B5E8" />
</svg>