<?xml version="1.0" encoding="utf-8"?>
<svg xmlns="http://www.w3.org/2000/svg" viewBox="0 0 302977 285959">
  <path d="M 113749,115058 C 113749,112139 111812,110176 108867,110176 L 44845,110176 C 41926,110176 39963,112114 39963,115058 C 39963,118003 41901,119940 44845,119940 L 109848,119940 C 111786,119940 113749,118003 113749,115058 Z" fill="#29B5E8" />
  <path d="M 44845,169668 C 41926,169668 39963,171606 39963,174550 C 39963,177494 41901,179432 44845,179432 L 96334,179432 C 99254,179432 101217,177494 101217,174550 C 101217,171606 99279,169668 96334,169668 L 44845,169668 Z" fill="#29B5E8" />
  <path d="M 44845,140400 C 41926,140400 39963,142338 39963,145282 C 39963,148227 41901,150164 44845,150164 L 96334,150164 C 99254,150164 101217,148227 101217,145282 C 101217,142338 99279,140400 96334,140400 L 44845,140400 Z" fill="#29B5E8" />
  <path d="M 0,10746 L 0,227172 C 0,233010 4882,237892 10721,237892 L 99656,237892 C 99656,237892 111359,237892 111359,227172 C 111359,216451 99656,216451 99656,216451 L 21919,216451 L 21919,65330 L 264668,65330 L 264668,90899 C 264668,90899 265146,100638 275892,100638 C 285632,100638 286613,90899 286613,90899 L 286613,10721 C 286613,4882 281731,0 275892,0 L 10721,0 C 4882,0 0,4882 0,10721 Z M 21945,21466 L 264694,21466 L 264694,52672 L 21919,52672 L 21919,21466 Z" fill="#29B5E8" />
  <path d="M 298541,257320 L 262756,216250 C 273577,202207 280020,184667 280020,165616 C 280020,119789 242724,82494 196872,82494 C 151020,82494 113724,119789 113724,165616 C 113724,211443 151020,248764 196872,248764 C 210763,248764 223849,245316 235350,239276 L 271262,280498 C 273980,284600 278082,285959 283518,285959 L 284877,285959 C 288953,285959 293055,284600 297132,281882 C 303952,275062 305311,264165 298491,257346 Z M 124822,165616 C 124822,125879 157160,93566 196872,93566 C 236583,93566 268921,125879 268921,165616 C 268921,205353 236583,237666 196872,237666 C 157160,237666 124822,205328 124822,165616 Z" fill="#29B5E8" />
  <path d="M 46859,37069 C 46859,40613 43986,43487 40441,43487 C 36897,43487 34024,40613 34024,37069 C 34024,33525 36897,30652 40441,30652 C 43986,30652 46859,33525 46859,37069 Z" fill="#29B5E8" />
  <path d="M 71571,37069 C 71571,40613 68698,43487 65154,43487 C 61610,43487 58737,40613 58737,37069 C 58737,33525 61610,30652 65154,30652 C 68698,30652 71571,33525 71571,37069 Z" fill="#29B5E8" />
  <path d="M 96309,37069 C 96309,40613 93436,43487 89892,43487 C 86348,43487 83475,40613 83475,37069 C 83475,33525 86348,30652 89892,30652 C 93436,30652 96309,33525 96309,37069 Z" fill="#29B5E8" />
  <path d="M 249921,185522 L 249921,156808 C 252488,155550 254275,152932 254275,149887 C 254275,146842 252488,144225 249921,142967 L 249921,132045 L 198180,132045 C 196922,129478 194305,127691 191260,127691 C 188215,127691 185598,129478 184339,132045 L 155424,132045 C 154166,129478 151548,127691 148503,127691 C 144250,127691 140777,131164 140777,135417 C 140777,138362 142463,140903 144905,142212 L 144905,185421 C 142463,186730 140777,189272 140777,192216 C 140777,196469 144250,199942 148503,199942 C 151448,199942 153989,198256 155298,195815 L 239629,195815 C 240887,198382 243504,200169 246549,200169 C 250802,200169 254275,196696 254275,192443 C 254275,189398 252488,186780 249921,185522 Z M 148528,196570 C 146138,196570 144175,194607 144175,192216 C 144175,189825 146138,187863 148528,187863 C 150919,187863 152882,189825 152882,192216 C 152882,194607 150919,196570 148528,196570 Z M 148528,131063 C 150919,131063 152882,133026 152882,135417 C 152882,137808 150919,139771 148528,139771 C 146138,139771 144175,137808 144175,135417 C 144175,133026 146138,131063 148528,131063 Z M 191285,131063 C 193676,131063 195639,133026 195639,135417 C 195639,137808 193676,139771 191285,139771 C 188894,139771 186931,137808 186931,135417 C 186931,133026 188894,131063 191285,131063 Z M 185749,140803 L 174525,157966 C 173971,157790 173392,157664 172763,157664 C 171907,157664 171127,157840 170397,158142 L 155072,139444 C 155197,139217 155323,138991 155449,138764 L 184365,138764 C 184717,139494 185195,140199 185749,140777 Z M 152706,141910 L 167805,160331 C 167126,161313 166748,162470 166748,163754 C 166748,165037 167126,166119 167755,167076 L 152127,185421 C 151976,185346 151850,185271 151699,185195 L 151699,142489 C 152052,142338 152404,142136 152731,141935 Z M 170297,169240 C 171052,169592 171882,169794 172788,169794 C 174927,169794 176815,168661 177872,166975 L 199741,173292 C 190127,175934 170448,181445 156254,185749 L 170297,169240 Z M 178828,163729 C 178828,162219 178249,160885 177368,159828 L 188592,142640 C 189448,142967 190329,143143 191285,143143 C 193424,143143 195387,142262 196771,140828 L 208624,148252 C 208473,148780 208373,149309 208373,149887 C 208373,151901 209354,153662 210864,154744 L 206334,167227 C 206208,167227 206057,167176 205932,167176 C 203767,167176 201880,168334 200798,170045 L 178803,163678 Z M 214060,155902 C 214186,155902 214312,155952 214438,155952 C 217181,155952 219471,154115 220201,151599 L 239050,151599 C 239100,151800 239176,152001 239226,152203 L 210159,168963 C 209958,168762 209732,168586 209505,168435 L 214035,155927 Z M 250928,149887 C 250928,152278 248965,154241 246574,154241 C 244183,154241 242221,152278 242221,149887 C 242221,147497 244183,145534 246574,145534 C 248965,145534 250928,147497 250928,149887 Z M 243202,138789 L 243202,142967 C 241113,143974 239553,145886 239050,148201 L 220201,148201 C 219471,145685 217181,143848 214438,143848 C 212902,143848 211493,144452 210436,145408 L 199867,138789 L 243202,138789 Z M 239654,189071 L 156833,189071 C 171102,184742 191235,179130 200848,176463 C 201930,178149 203792,179281 205932,179281 C 207844,179281 209505,178375 210638,176991 L 239855,188668 C 239779,188794 239704,188920 239629,189071 Z M 242296,186026 L 211921,173921 C 211921,173694 211996,173493 211996,173266 C 211996,172788 211921,172310 211820,171857 L 240912,155122 C 241566,155827 242346,156405 243227,156833 L 243227,185547 C 242925,185698 242598,185849 242321,186051 Z" fill="#29B5E8" />
</svg>