<?xml version="1.0" encoding="utf-8"?>
<svg xmlns="http://www.w3.org/2000/svg" viewBox="0 0 228884 249423">
  <path d="M 112041,61089 L 106440,62690 L 103237,65357 L 101905,67225 L 64290,126179 L 62691,129380 L 62423,136050 L 65624,141918 L 71226,145386 L 74695,145652 L 104039,145652 L 104039,196071 L 104039,198472 L 105373,202472 L 109373,206741 L 116843,209142 L 122444,207541 L 125645,204873 L 126979,203006 L 164592,144052 L 166193,140850 L 166461,134182 L 163260,128580 L 157657,124845 L 154189,124578 L 124845,124578 L 124845,74161 L 124845,71760 L 123511,67758 L 119511,63490 L 112041,61089 Z" fill="#29B5E8" />
  <path d="M 131248,4536 L 127246,2402 L 118710,2 L 110174,2 L 101638,2402 L 97636,4536 L 16541,52020 L 12806,54421 L 6670,60822 L 2402,68025 L 269,76562 L 2,80829 L 2,216078 L 2,219545 L 1336,226214 L 5603,235018 L 14673,244087 L 23476,248089 L 29878,249423 L 33347,249423 L 195537,249423 L 199005,249423 L 205408,248089 L 214210,244087 L 223281,235018 L 227548,226214 L 228882,219545 L 228882,216078 L 228882,80829 L 228615,76562 L 226482,68025 L 222214,60822 L 216078,54421 L 212343,52020 Z M 107774,21608 L 110974,20276 L 117910,20276 L 121110,21608 L 202207,69359 L 205140,71493 L 208608,77361 L 208875,80829 L 208875,216078 L 208608,219011 L 206742,223813 L 203007,227281 L 198205,229416 L 195537,229416 L 33347,229416 L 30679,229416 L 25877,227281 L 22142,223813 L 20276,219011 L 20009,216078 L 20009,80829 L 20276,77361 L 23744,71493 L 26677,69359 Z" fill="#29B5E8" />
</svg>