<?xml version="1.0" encoding="utf-8"?>
<svg xmlns="http://www.w3.org/2000/svg" viewBox="0 0 273432 266762">
  <path d="M 85097,123511 L 83497,125379 L 83230,126713 L 83230,163525 L 83230,167260 L 84831,174195 L 87498,180866 L 91500,186734 L 96569,191802 L 102437,195804 L 109106,198472 L 116041,200071 L 160324,200071 L 167527,198472 L 174195,195804 L 180064,191802 L 184866,186734 L 188868,180866 L 191801,174195 L 193135,167260 L 193403,163525 L 193403,126713 L 193135,125379 L 191269,123511 L 175262,123511 L 173396,125379 L 173396,126713 L 173396,163525 L 173129,166727 L 170461,172861 L 165926,177398 L 160057,179799 L 156589,180064 L 120043,180064 L 116575,179799 L 110440,177398 L 105905,172861 L 103504,166727 L 103237,163525 L 103237,126713 L 102970,125379 L 101370,123511 Z" fill="#29B5E8" />
  <path d="M 43749,12806 L 53087,9871 L 74426,5069 L 97903,1868 L 123244,269 L 136582,2 L 149921,269 L 175262,1868 L 198737,5069 L 220078,9871 L 229414,12806 L 238218,15739 L 253423,23209 L 259559,27478 L 264894,32279 L 271030,41082 L 273163,48018 L 273430,51753 L 272898,57087 L 271030,61889 L 236617,217944 L 235550,222479 L 232350,231550 L 227014,240352 L 219811,247822 L 215011,251023 L 208074,254225 L 191269,260094 L 171527,264361 L 148854,266495 L 136582,266762 L 123511,266495 L 99237,263294 L 78428,257693 L 61356,249956 L 54686,245421 L 50686,242487 L 44817,235550 L 38949,223547 L 36813,215810 L 0,55488 L 267,55488 L 0,53620 L 0,51753 L 0,48018 L 2135,41082 L 8270,32279 L 13606,27478 L 19741,23209 L 34947,15739 Z M 25877,43483 L 22675,46417 L 20009,50419 L 20009,51753 L 20009,52820 L 22675,57087 L 25877,60022 L 30145,62956 L 42416,68826 L 50152,71760 L 58421,74161 L 77896,78428 L 99769,81631 L 123778,83230 L 136582,83497 L 149387,83230 L 173396,81631 L 195269,78428 L 214744,74161 L 223013,71760 L 230748,68826 L 243020,62956 L 247288,60022 L 250488,57087 L 253156,52820 L 253423,51753 L 253156,50419 L 250488,46417 L 247288,43483 L 243020,40283 L 230748,34414 L 223013,31746 L 214744,29078 L 195269,24810 L 173396,21875 L 149387,20276 L 136582,20009 L 123778,20276 L 99769,21875 L 77896,24810 L 58421,29078 L 50152,31746 L 42416,34414 L 30145,40283 Z M 27210,84031 L 56555,211276 L 57887,217412 L 62689,226214 L 66157,229149 L 71226,232350 L 85364,238753 L 103237,243554 L 124578,246488 L 136582,246755 L 148053,246488 L 168594,244621 L 185933,240886 L 200071,236085 L 205407,233149 L 207541,232083 L 211009,228349 L 215276,220612 L 217144,213677 L 245688,84031 L 237951,87765 L 229414,90700 L 220078,93635 L 198737,98170 L 175262,101637 L 149921,103237 L 136582,103504 L 123244,103237 L 97903,101637 L 74426,98170 L 53087,93635 L 43749,90700 L 34947,87499 Z" fill="#29B5E8" />
</svg>