<?xml version="1.0" encoding="utf-8"?>
<svg xmlns="http://www.w3.org/2000/svg" viewBox="0 0 276428 258883">
  <path d="M 72867,4922 C 58976,4922 44360,6885 34274,13498 C 33066,14253 32221,15552 32009,16941 L 30681,24037 L 6976,18813 C 6583,18753 6221,18692 5828,18692 C 3412,18692 1208,20383 664,22829 C 30,25698 1812,28567 4681,29201 L 28808,34516 L 27117,43545 C 26846,44964 27238,46534 28144,47742 C 39891,63052 67854,72444 77698,74799 C 78061,74920 78483,74980 78906,74980 C 81322,74980 83526,73350 84070,70904 C 84734,68005 82922,65136 80144,64441 C 68579,61693 47652,53570 38019,42941 L 42005,21199 C 48950,17484 59821,15552 73138,15552 C 78121,15552 83406,15823 88992,16367 C 89143,16367 89324,16397 89475,16397 C 92193,16397 94518,14314 94820,11566 C 95122,8636 92978,6100 90079,5828 C 84764,5285 78876,4922 72867,4922 Z M 198700,48829 C 198216,48829 197763,48890 197280,49011 C 194502,49826 192871,52785 193657,55594 L 201599,83436 C 202293,85791 204407,87301 206702,87301 C 207246,87301 207698,87210 208182,87090 C 210960,86304 212560,83315 211805,80537 L 203833,52695 C 203199,50339 201025,48829 198700,48829 Z M 224217,51577 C 223733,51577 223250,51638 222737,51789 C 219928,52544 218298,55503 219113,58342 L 227055,86184 C 227719,88509 229894,90049 232158,90049 C 232672,90049 233095,89988 233608,89807 C 236416,89052 238047,86093 237292,83254 L 229290,55412 C 228656,53087 226512,51577 224217,51577 Z M 133020,106144 L 133020,106144 C 138486,110070 145703,117710 145703,130302 L 145703,133986 L 138667,135224 C 136916,135556 135496,135677 134349,135677 C 132265,135677 131087,135255 130634,134741 C 129879,133714 130544,131057 130997,130121 C 135708,121877 135134,113361 133020,106144 Z M 144404,16729 C 156151,18149 214131,28295 243905,33640 C 248616,34395 252753,36992 255471,40857 C 258279,44692 259336,49403 258672,54084 L 252693,89143 C 251938,93854 249341,97930 245445,100709 C 242335,102883 238802,104030 235178,104030 C 234182,104030 233155,103940 232158,103759 L 220412,101826 C 220049,101735 219657,101705 219264,101705 C 219113,101705 218962,101705 218841,101705 C 210688,101705 204558,106808 202927,115294 C 202837,115807 202806,116321 202806,116864 L 202806,181457 C 202806,185896 206219,189550 210658,189761 L 216124,190033 L 216999,190033 C 217180,190033 217362,190033 217543,190033 C 220502,190033 224035,190667 224639,190939 L 224639,209148 L 128219,209148 C 133080,203501 141415,197250 155970,193626 C 159654,192690 162251,189368 162251,185564 L 162251,130363 C 162251,98867 134047,87693 133382,87482 C 124323,83254 112003,77577 105178,74286 L 114358,19628 L 144404,16729 Z M 224730,215761 L 224760,235631 C 224639,239255 221680,242274 218147,242274 L 132990,242274 C 129306,242274 126346,239224 126346,235420 L 126346,215761 Z M 144525,0 C 144254,0 143982,30 143710,30 L 106476,3624 C 102762,4016 99712,6825 99078,10539 L 87784,77487 C 87180,80839 88750,84160 91649,85942 C 93914,87331 111640,95635 124112,101373 C 127343,108590 130121,118193 125048,127131 C 124716,127826 121817,134198 125320,138818 C 127192,141234 130121,142411 134198,142411 C 135798,142411 137731,142200 139784,141777 L 145612,140811 L 145612,179373 C 125893,185715 115838,196616 110825,205011 C 110010,206309 109617,207759 109617,209269 L 109617,235420 C 109617,248314 120005,258853 132839,258853 L 217996,258853 C 230407,258853 240765,248676 241188,235873 L 241188,191029 C 241188,186530 239466,182544 236296,179494 C 231283,174753 223733,173666 219294,173545 L 219294,118525 L 229290,120216 C 231192,120548 233095,120699 234997,120699 C 242124,120699 249039,118465 254988,114237 C 262477,108862 267459,100980 268969,91951 L 274948,56862 C 276428,47833 274375,38683 268969,31164 C 263654,23614 255743,18662 246774,17122 C 243150,16488 158054,1238 145341,30 C 145069,30 144797,0 144525,0 Z" fill="#29B5E8" />
</svg>