<?xml version="1.0" encoding="utf-8"?>
<svg xmlns="http://www.w3.org/2000/svg" viewBox="0 0 224539 256370">
  <path d="M 201159,108292 L 194678,108292 L 194678,10258 C 194678,4594 190087,3 184423,3 L 58578,3 C 55426,-71 52409,1286 50374,3695 L 1972,61121 C 640,62984 -51,65229 3,67520 L 3,246115 C -43,251733 4475,256325 10093,256370 C 10148,256371 10203,256371 10258,256370 L 184423,256370 C 190041,256414 194632,251898 194678,246280 C 194679,246225 194679,246170 194678,246115 L 194678,216581 L 201159,216581 C 214053,216536 224495,206094 224540,193201 L 224540,131673 C 224495,118779 214053,108337 201159,108292 Z M 51112,34951 L 51112,61531 L 28634,61531 Z M 174168,235861 L 20348,235861 L 20348,82040 L 61367,82040 C 66985,82086 71577,77568 71622,71950 C 71623,71895 71623,71840 71622,71785 L 71622,20512 L 174168,20512 L 174168,108292 L 78102,108292 C 65190,108292 54722,118760 54722,131673 L 54722,193201 C 54722,206114 65190,216581 78102,216581 L 174168,216581 Z M 211413,193201 C 211413,198864 206823,203455 201159,203455 L 78102,203455 C 72439,203455 67848,198864 67848,193201 L 67848,131673 C 67848,126009 72439,121418 78102,121418 L 201159,121418 C 206823,121418 211413,126009 211413,131673 Z" fill="#29B5E8" />
  <path d="M 124372,141025 L 114938,141025 L 106898,156530 L 105257,160140 L 103780,156530 L 95741,141025 L 86224,141025 L 99268,164241 L 85896,188688 L 95331,188688 L 103534,172281 L 105257,168754 L 106898,172281 L 115265,188688 L 124782,188688 L 111164,164241 L 124372,141025 Z" fill="#29B5E8" />
  <path d="M 137908,141025 L 130033,141025 L 130033,188688 L 158910,188688 L 158910,181715 L 137908,181715 L 137908,141025 Z" fill="#29B5E8" />
  <path d="M 180485,160468 C 173266,158089 171297,156530 171297,153248 C 171297,149967 174004,147260 178763,147260 C 182816,147235 186744,148661 189838,151280 L 194104,144799 C 189844,141197 184318,139454 178763,139958 C 168180,139958 162355,145373 162355,153577 C 162355,161780 166949,164570 176875,167769 C 185080,170394 186310,172199 186310,175973 C 186310,179747 184013,182536 178516,182536 C 174047,182395 169749,180781 166293,177942 L 161945,183930 C 166528,188088 172583,190244 178763,189919 C 186610,191054 193891,185612 195026,177764 C 195139,176981 195188,176190 195170,175399 C 195580,167933 191560,163749 180485,160468 Z" fill="#29B5E8" />
</svg>