<?xml version="1.0" encoding="utf-8"?>
<svg xmlns="http://www.w3.org/2000/svg" viewBox="0 0 221505 256370">
  <path d="M 198441,108292 L 192047,108292 L 192047,10258 C 192047,4594 187519,3 181931,3 L 57786,3 C 54677,-71 51701,1286 49694,3695 L 1945,61121 C 632,62984 -50,65229 3,67520 L 3,246115 C -42,251733 4414,256325 9956,256370 C 10011,256371 10065,256371 10119,256370 L 181931,256370 C 187473,256414 192002,251898 192047,246280 C 192048,246225 192048,246170 192047,246115 L 192047,216581 L 198441,216581 C 211161,216536 221461,206094 221506,193201 L 221506,131673 C 221461,118779 211161,108337 198441,108292 Z M 50422,34951 L 50422,61531 L 28247,61531 Z M 171815,235861 L 20073,235861 L 20073,82040 L 60538,82040 C 66079,82086 70609,77568 70654,71950 C 70655,71895 70655,71840 70654,71785 L 70654,20512 L 171815,20512 L 171815,108292 L 77047,108292 C 64309,108292 53983,118760 53983,131673 L 53983,193201 C 53983,206114 64309,216581 77047,216581 L 171815,216581 Z M 208557,193201 C 208557,198864 204028,203455 198441,203455 L 77047,203455 C 71460,203455 66931,198864 66931,193201 L 66931,131673 C 66931,126009 71460,121418 77047,121418 L 198441,121418 C 204028,121418 208557,126009 208557,131673 Z" fill="#29B5E8" />
  <path d="M 114599,141025 L 105292,141025 L 97361,156530 L 95742,160140 L 94285,156530 L 86355,141025 L 76966,141025 L 89834,164241 L 76643,188688 L 85950,188688 L 94042,172281 L 95742,168754 L 97361,172281 L 105615,188688 L 115003,188688 L 101569,164241 L 114599,141025 Z" fill="#29B5E8" />
  <path d="M 156115,141025 L 141062,163257 L 126010,141025 L 120182,141025 L 120102,188688 L 127871,188688 L 127871,156612 L 139767,173430 L 142438,173430 L 154335,156530 L 154335,188688 L 162022,188688 L 161942,141025 L 156115,141025 Z" fill="#29B5E8" />
  <path d="M 179342,141025 L 171573,141025 L 171573,188688 L 199979,188688 L 199979,181715 L 179342,181715 L 179342,141025 Z" fill="#29B5E8" />
</svg>